<svg width="60" height="60" viewBox="0 0 60 60" fill="none" xmlns="http://www.w3.org/2000/svg">
<path d="M12.6665 37.8725L17.3129 33.0805L11.5351 25.3087L4.18161 14.9396C1.49474 19.5101 0.0805974 24.7047 0.100799 30C0.100799 39.1007 4.18161 47.2349 10.6261 52.7114L19.9594 46.1275C16.7877 44.1544 14.2422 41.2953 12.6665 37.8725ZM22.121 12.7047L26.9291 17.3356L34.7271 11.5772L45.1311 4.24834C40.5452 1.57048 35.3331 0.161086 30.02 0.18122C20.8887 0.18122 12.7271 4.24834 7.23211 10.6712L13.8382 19.9732C15.818 16.792 18.7069 14.255 22.121 12.7047ZM42.7473 26.9195L48.525 34.6913L55.8786 45.0604C58.5654 40.4899 59.9796 35.2953 59.9594 30C59.9594 20.8993 55.8786 12.7651 49.4341 7.2886L40.1008 13.8725C43.2927 15.8456 45.8382 18.7248 47.3937 22.1275L42.7473 26.9195ZM52.8281 49.3289L46.222 40.0269C44.2422 43.2081 41.3533 45.745 37.9392 47.2953L33.1311 42.6644L25.3331 48.4228L14.9291 55.7517C19.5149 58.4295 24.7271 59.8389 30.0402 59.8188C39.1513 59.8188 47.3331 55.7517 52.8281 49.3289Z" fill="black"/>
</svg>
