<svg width="60" height="60" viewBox="0 0 60 60" fill="none" xmlns="http://www.w3.org/2000/svg">
<path d="M29.9999 59.0999C46.0714 59.0999 59.0999 46.0714 59.0999 29.9999C59.0999 13.9284 46.0714 0.899902 29.9999 0.899902C13.9284 0.899902 0.899902 13.9284 0.899902 29.9999C0.899902 46.0714 13.9284 59.0999 29.9999 59.0999Z" fill="url(#paint0_linear_12938_101015)"/>
<path d="M40.7349 42.5949L30.8949 18.8049C30.3399 17.5749 29.5149 16.9749 28.4274 16.9749H27.5574C26.4699 16.9749 25.6449 17.5749 25.0899 18.8049L20.8074 29.1699H17.5674C16.5999 29.1774 15.8124 29.9574 15.8049 30.9324V30.9549C15.8124 31.9224 16.5999 32.7099 17.5674 32.7174H19.3074L15.2199 42.5949C15.1449 42.8124 15.0999 43.0374 15.0999 43.2699C15.0999 43.8249 15.2724 44.2599 15.5799 44.5974C15.8874 44.9349 16.3299 45.0999 16.8849 45.0999C17.2524 45.0924 17.6049 44.9799 17.8974 44.7624C18.2124 44.5449 18.4299 44.2299 18.6024 43.8699L23.1024 32.7099H26.2224C27.1899 32.7024 27.9774 31.9224 27.9849 30.9474V30.9024C27.9774 29.9349 27.1899 29.1474 26.2224 29.1399H24.5574L27.9924 20.5824L37.3524 43.8624C37.5249 44.2224 37.7424 44.5374 38.0574 44.7549C38.3499 44.9724 38.7099 45.0849 39.0699 45.0924C39.6249 45.0924 40.0599 44.9274 40.3749 44.5899C40.6899 44.2524 40.8549 43.8174 40.8549 43.2624C40.8624 43.0374 40.8249 42.8049 40.7349 42.5949Z" fill="white"/>
<path d="M37.5356 26H38.6655L42.0425 16.8403H40.8428L38.1133 24.6289H38.0879L35.3584 16.8403H34.1587L37.5356 26ZM43.2358 26H49.2471V24.9844H44.8037V24.9526L46.9619 22.7246C48.6377 21.0044 49.0947 20.249 49.0947 19.2461V19.2334C49.0947 17.7988 47.8887 16.688 46.2383 16.688C44.5435 16.688 43.1787 17.8623 43.1787 19.4492V19.4873H44.2832V19.4556C44.2832 18.4717 45.1274 17.6846 46.2573 17.6846C47.2476 17.6846 47.9458 18.3574 47.9521 19.2905V19.3032C47.9521 20.0649 47.6729 20.5601 46.4414 21.8486L43.2358 25.2129V26Z" fill="white"/>
<defs>
<linearGradient id="paint0_linear_12938_101015" x1="51.6964" y1="11.7439" x2="8.39564" y2="48.1771" gradientUnits="userSpaceOnUse">
<stop stop-color="#B6509E"/>
<stop offset="1" stop-color="#2EBAC6"/>
</linearGradient>
</defs>
</svg>
