<svg width="60" height="60" viewBox="0 0 60 60" fill="none" xmlns="http://www.w3.org/2000/svg">
<g clip-path="url(#clip0)">
<path fill-rule="evenodd" clip-rule="evenodd" d="M60.0019 29.9962C60.0019 21.7025 57.0776 14.6406 51.2098 8.7921C45.3613 2.92425 38.2994 0 30.0057 0C21.712 0 14.6406 2.92425 8.78266 8.7921C2.92425 14.6406 0 21.7025 0 29.9962C0 38.2899 2.92425 45.3613 8.78266 51.2192C14.6406 57.0776 21.712 60.0019 30.0057 60.0019C38.2994 60.0019 45.3613 57.0776 51.2098 51.2192C57.0776 45.3613 60.0019 38.2899 60.0019 29.9962Z" fill="#FFA042"/>
<path fill-rule="evenodd" clip-rule="evenodd" d="M58.4696 29.9962C58.4696 22.1353 55.6864 15.4212 50.1286 9.87332C44.5808 4.31602 37.8672 1.53241 30.0058 1.53241C22.1349 1.53241 15.4402 4.31602 9.8829 9.87332C4.3256 15.4212 1.54199 22.1353 1.54199 29.9962C1.54199 37.8666 4.3256 44.5712 9.8829 50.1191C15.4402 55.6764 22.1349 58.46 30.0058 58.46C37.8672 58.46 44.5808 55.6764 50.1286 50.1191C55.6864 44.5712 58.4696 37.8666 58.4696 29.9962Z" fill="black"/>
<path fill-rule="evenodd" clip-rule="evenodd" d="M30.2351 15.0144C29.0835 15.2008 28.3586 15.7195 28.0518 16.5775C28.7726 16.4542 29.5058 16.4195 30.2351 16.4742C30.9592 16.4193 31.6872 16.454 32.4028 16.5775C32.096 15.7195 31.3857 15.2008 30.2346 15.0139L30.2351 15.0144ZM29.7037 16.9612C29.5984 17.0915 29.4903 17.234 29.3941 17.3737C28.713 18.3535 28.259 19.38 28.0669 20.4712C27.8847 21.3754 27.889 22.3038 28.0518 23.2737C28.7664 23.0966 29.499 23.0025 30.2351 22.9933C30.9661 23.0024 31.6935 23.0963 32.4028 23.2732C32.5661 22.3038 32.5755 21.3754 32.4028 20.4712C32.2013 19.38 31.7515 18.3535 31.0605 17.3737C30.9625 17.2324 30.8593 17.0948 30.7509 16.9612C30.5876 16.9612 30.4078 16.9754 30.2346 16.9754C30.0628 16.9754 29.8759 16.9612 29.7041 16.9612H29.7037ZM28.8636 16.9905C28.5559 17.0183 28.2467 17.082 27.9489 17.1382C27.0772 17.3248 26.2374 17.6377 25.456 18.067C25.4089 18.0953 25.3617 18.1373 25.3239 18.1557C25.247 18.193 25.1894 18.2313 25.1318 18.2586C24.8222 18.4484 24.5296 18.7032 24.2323 18.9373C24.6037 19.8487 25.0424 20.7312 25.5448 21.5774C26.0772 22.4431 26.6947 23.2534 27.3882 23.9962L27.3736 23.9372C27.2876 23.6024 27.2236 23.2624 27.182 22.9192C27.1726 22.864 27.1523 22.8078 27.1523 22.7427C26.9125 20.6533 27.5006 18.7244 28.8631 16.9905H28.8636ZM31.5915 16.9905C32.9545 18.7244 33.543 20.6533 33.3028 22.7427C33.3028 22.8074 33.2731 22.8635 33.2731 22.9192C33.2314 23.2624 33.1674 23.6024 33.0815 23.9372L33.0517 24.0255C33.7547 23.2763 34.3776 22.4559 34.9103 21.5774C35.4126 20.7311 35.8513 19.8486 36.2228 18.9373C35.9255 18.7032 35.6329 18.4484 35.3233 18.2586C35.2657 18.2313 35.2128 18.1926 35.1463 18.1557C35.0982 18.1369 35.0519 18.0949 35.0137 18.067C34.2266 17.639 33.3822 17.3262 32.5062 17.1382C32.2088 17.082 31.8987 17.0183 31.5915 16.9905ZM21.0324 22.6096C20.145 24.0024 19.4082 25.4856 18.8345 27.0342C19.1988 27.2022 19.5613 27.3665 19.9261 27.5062C20.5349 27.7778 21.1548 28.0239 21.7842 28.2438C23.0038 28.6719 24.2209 28.9626 25.4419 29.2024C24.4791 27.8823 23.5305 26.3055 22.5955 24.4828C22.0169 23.4596 21.4954 22.8697 21.0319 22.6096H21.0324ZM39.4236 22.6096C38.9607 22.8697 38.4387 23.4591 37.8605 24.4828C36.9251 26.3055 35.9769 27.8823 35.0141 29.2024C36.2346 28.9626 37.4523 28.6719 38.6718 28.2438C39.3054 28.0223 39.9301 27.7762 40.5445 27.5062C40.9085 27.3607 41.2675 27.2033 41.6211 27.0342C40.9891 25.3281 40.2359 23.8985 39.4236 22.6096ZM30.2351 23.7895C29.497 23.7989 28.772 23.8834 28.0528 24.0698C27.9088 24.1114 27.7578 24.1463 27.6101 24.1878C28.1368 24.7325 28.6739 25.2563 29.2765 25.6924C29.5644 25.3375 29.8807 25.0119 30.2356 24.7042C30.59 25.0119 30.9057 25.338 31.1936 25.692C31.7968 25.2563 32.3325 24.7325 32.8606 24.1878C32.71 24.1454 32.5552 24.1118 32.4033 24.0698C31.6947 23.8885 30.9665 23.7943 30.2351 23.7895ZM18.8345 28.1405C16.4653 28.0938 14.7313 28.6091 13.599 29.7187C13.1483 30.1472 12.801 30.6872 12.5513 31.3116L11.5781 33.6714C13.0365 32.4773 14.5156 31.8902 16.0027 31.8718C17.4899 31.8623 18.447 32.6 18.8788 34.0546C19.3107 35.5181 19.2583 37.741 18.7019 40.7064C17.8863 45.1258 18.2488 48.4658 19.7935 50.7501C19.7935 50.7595 19.7468 50.3017 19.6604 49.3786C18.8831 47.9334 18.8826 45.3886 19.6311 41.7239L19.6604 41.5323C19.7085 41.318 19.7454 41.1085 19.7935 40.9126C19.7935 40.8937 19.8034 40.8687 19.8228 40.8687L19.793 40.839H19.8223C20.8389 37.2493 20.921 34.5903 20.029 32.8747L21.9461 32.978C21.5048 32.8379 21.0919 32.6562 20.7365 32.4325C20.1071 32.0288 19.6099 31.4494 19.3064 30.766C19.0374 30.169 18.8779 29.4936 18.8486 28.7007C18.8392 28.5143 18.825 28.3269 18.8345 28.1405ZM41.6216 28.1405C41.6305 28.3269 41.6168 28.5143 41.6064 28.7012C41.5781 29.4941 41.4177 30.169 41.1491 30.7655C40.8424 31.4654 40.3619 32.0134 39.7191 32.4325C39.3642 32.6566 38.9607 32.8383 38.5095 32.978L40.4266 32.8747C39.535 34.5903 39.6068 37.2497 40.6333 40.839H40.6625L40.6333 40.8687C40.6522 40.8687 40.6625 40.8947 40.6625 40.9131C40.7102 41.1089 40.7569 41.3175 40.7952 41.5323L40.8395 41.7239C41.5781 45.3882 41.5725 47.9334 40.7952 49.3786C40.754 49.836 40.71 50.2932 40.663 50.7501C42.2167 48.4658 42.5692 45.1262 41.7542 40.7064C41.1973 37.7415 41.1453 35.5186 41.5772 34.0546C42.009 32.6 42.9666 31.8623 44.4533 31.8718C45.9404 31.8907 47.4191 32.4778 48.8774 33.6714L47.9043 31.3116C47.6551 30.6872 47.3077 30.1477 46.857 29.7187C45.7248 28.6091 43.9903 28.0938 41.6211 28.1405H41.6216ZM14.7936 29.7631C14.947 29.7914 15.0145 29.8683 15.0145 29.999C15.0145 30.1293 14.947 30.277 14.7936 30.4266C14.6492 30.5847 14.4689 30.7018 14.2773 30.7952C14.0663 30.8882 13.8902 30.9113 13.7463 30.884C13.6024 30.8557 13.525 30.7934 13.525 30.6622C13.525 30.5319 13.6024 30.3931 13.7463 30.2346C13.8976 30.0784 14.0779 29.9533 14.2773 29.8664C14.4689 29.7725 14.6492 29.7447 14.7936 29.7626V29.7631ZM45.6625 29.7631C45.8158 29.7442 45.9867 29.7725 46.1788 29.866C46.3897 29.9589 46.5658 30.0854 46.7097 30.235C46.8537 30.3931 46.9306 30.5319 46.9311 30.6626C46.9311 30.7929 46.8537 30.8561 46.7093 30.884C46.5658 30.9113 46.3897 30.8887 46.1788 30.7952C45.986 30.7042 45.8111 30.5794 45.6625 30.4266C45.5091 30.2775 45.4411 30.1293 45.4411 29.999C45.4411 29.8683 45.5091 29.7914 45.6625 29.7631ZM17.7579 33.568L15.2655 37.2257C15.7376 37.454 16.1786 37.7416 16.578 38.0813C16.8423 38.27 17.0846 38.4875 17.3006 38.7298C17.4059 38.8417 17.505 38.9686 17.6107 39.0989C17.7353 39.2669 17.8533 39.4434 17.9496 39.6298C18.4003 37.1119 18.431 35.2718 18.0383 34.1433C18.0095 34.0867 17.993 34.0168 17.9642 33.9517C17.909 33.817 17.8398 33.6884 17.7579 33.568ZM42.6981 33.568C42.6212 33.6798 42.5589 33.8115 42.4914 33.9517C42.4621 34.0168 42.4465 34.0871 42.4177 34.1433C42.0246 35.2713 42.0558 37.1119 42.5065 39.6298C42.6023 39.4434 42.7259 39.2664 42.8604 39.0989C42.9563 38.97 43.0596 38.8469 43.17 38.7303C43.3815 38.4967 43.609 38.2772 43.878 38.0809C44.2776 37.7415 44.7186 37.4541 45.1905 37.2257L42.6981 33.568ZM22.1089 33.5977C22.0995 33.6813 22.0938 33.7738 22.0938 33.8479C21.9692 35.5922 22.4138 36.7207 23.4214 37.1959C24.4668 37.6901 25.4863 37.355 26.4745 36.2081C25.5821 36.2921 24.8784 36.1496 24.3507 35.7952C24.9643 35.8702 25.5854 35.8046 26.2088 35.6182C26.8035 35.4318 27.4184 35.1231 28.023 34.7035C25.7878 35.4308 23.8689 35.1302 22.2859 33.7596C22.2189 33.7129 22.167 33.6529 22.1089 33.5973V33.5977ZM23.9227 33.5977C24.5277 34.2877 25.3857 34.4694 26.4892 34.1433C26.1725 33.9753 25.7638 33.8365 25.2649 33.7157C24.7467 33.6039 24.2974 33.56 23.9231 33.5977H23.9227ZM36.5334 33.5977C36.1586 33.56 35.7235 33.6039 35.2058 33.7157C34.7064 33.837 34.2836 33.9753 33.9669 34.1433C35.0703 34.469 35.9288 34.2877 36.5329 33.5977H36.5334ZM38.3617 33.5977C38.302 33.6564 38.238 33.7105 38.1701 33.7596C36.5867 35.1302 34.6682 35.4308 32.433 34.7035C33.0371 35.1236 33.6525 35.4318 34.2472 35.6182C34.8711 35.8046 35.4913 35.8702 36.1053 35.7952C35.5871 36.1491 34.8886 36.2921 33.9961 36.2081C34.9844 37.355 35.9887 37.6901 37.0346 37.1964C38.0418 36.7207 38.4868 35.5918 38.3617 33.8483C38.3617 33.7738 38.3716 33.6817 38.3617 33.5977ZM29.4243 34.9692C29.1855 34.9305 28.9825 35.0032 28.8046 35.1755C28.7355 35.2364 28.68 35.3112 28.642 35.3951C28.6039 35.479 28.584 35.57 28.5837 35.6621C28.5932 35.8773 28.6908 36.0821 28.8636 36.2964C29.2374 36.7627 29.4092 37.2417 29.3799 37.7269C29.0538 37.0001 28.5662 36.5564 27.8753 36.3705C27.578 36.2954 27.3047 36.2997 27.0937 36.3554C26.7964 36.4394 26.5595 36.6499 26.4155 37.0043C26.2428 37.4244 26.2942 37.7991 26.5628 38.1252C26.8507 38.4891 27.291 38.6765 27.905 38.6859C27.78 38.3971 27.7889 38.0686 27.8753 37.742V37.7274C27.8822 37.6899 27.8974 37.6544 27.9197 37.6235C27.9961 37.5494 28.1207 37.5669 28.3034 37.6976C28.5044 37.8373 28.6243 38.0903 28.672 38.4353C28.7678 39.3669 29.3044 39.8545 30.2356 39.9097C31.1757 39.8545 31.693 39.3669 31.7987 38.4353C31.8369 38.0903 31.9511 37.8373 32.1527 37.6976C32.3348 37.5669 32.4689 37.5494 32.5364 37.624C32.5552 37.6518 32.5703 37.6806 32.5803 37.7274L32.5949 37.7415C32.6817 38.0686 32.6751 38.3971 32.551 38.6854C33.1645 38.676 33.6049 38.4891 33.8932 38.1252C34.1618 37.7996 34.2137 37.4239 34.0405 37.0043C33.897 36.6504 33.6691 36.4394 33.3618 36.3554C33.1509 36.2992 32.9021 36.2954 32.5954 36.37C31.9039 36.5564 31.4027 37.0001 31.0757 37.7274C31.0473 37.2417 31.2177 36.7627 31.592 36.2964C31.7652 36.0821 31.8534 35.8768 31.8723 35.6621C31.8723 35.4662 31.7907 35.2963 31.6661 35.176C31.3012 34.8305 30.8307 34.9084 30.2356 35.4119C29.9382 35.1599 29.6626 35.0075 29.4238 34.9692H29.4243ZM15.2655 38.037L13.465 40.3524C13.9063 41.0886 14.3617 41.8051 14.8516 42.4762C15.2259 42.9971 15.6195 43.5039 16.0315 43.9954C16.2812 44.2753 16.5393 44.5712 16.7985 44.8506C16.9518 45.0281 17.1123 45.1937 17.285 45.3523C17.2468 43.9166 17.3983 42.3054 17.7716 40.5147L17.8014 40.4557C17.6862 40.2504 17.5371 40.0574 17.403 39.8804C17.2968 39.7501 17.1935 39.6172 17.0934 39.4821C16.8641 39.2154 16.6125 38.9687 16.3411 38.7449C16.0056 38.4745 15.6389 38.2512 15.2646 38.037H15.2655ZM45.1905 38.037C44.8167 38.2512 44.4642 38.474 44.1286 38.7449C43.8596 38.9686 43.5967 39.2121 43.3763 39.4821C43.2805 39.6128 43.1625 39.7497 43.0667 39.8804C42.9232 40.0574 42.7835 40.2509 42.6684 40.4557C42.6778 40.4746 42.6731 40.4963 42.683 40.5147C43.0577 42.3054 43.2135 43.9166 43.1847 45.3523C43.3475 45.1937 43.5032 45.0281 43.6566 44.8506C43.9157 44.5707 44.1744 44.2748 44.4236 43.9954C44.8326 43.5015 45.2261 42.9948 45.6035 42.4762C46.099 41.7874 46.5664 41.0789 47.0047 40.3524L45.1905 38.037ZM25.3385 39.2612C24.0675 39.3344 23.3662 39.9253 23.2298 41.016C22.9608 43.1322 23.4106 44.7265 24.5716 45.7799L24.6013 45.7653L24.6457 45.7506C24.3578 45.2655 24.3314 44.482 24.5716 43.3909L25.0436 41.1929C25.3989 40.2325 26.1494 39.6633 27.3005 39.4675C27.1277 39.4302 26.9427 39.392 26.7988 39.3641C26.247 39.2754 25.7628 39.2367 25.339 39.2607L25.3385 39.2612ZM35.1175 39.2612C34.6942 39.2367 34.2066 39.2754 33.6573 39.3641C33.5034 39.3924 33.3283 39.4302 33.1556 39.4675C34.3067 39.6633 35.0576 40.2325 35.412 41.1929L35.884 43.3904C36.1138 44.4815 36.1029 45.2659 35.825 45.7502L35.8547 45.7653L35.884 45.7063L35.9283 45.7506C37.0601 44.6878 37.4948 43.1138 37.2262 41.016C37.0964 39.9253 36.3866 39.3344 35.117 39.2607L35.1175 39.2612ZM27.4482 40.8092L26.7105 42.0632H33.745L33.0074 40.8097H27.4477L27.4482 40.8092ZM27.9938 42.9189L28.5837 43.877H31.8723L32.4623 42.9189H27.9928H27.9938ZM25.87 43.0218L25.5887 44.364L25.6179 44.4084H25.5887C25.5117 46.4038 27.0687 47.9646 30.2341 49.0836C33.4005 47.9646 34.9424 46.4038 34.8655 44.4084H34.8357L34.8655 44.364L34.5998 43.0218V43.0808C34.5809 43.1459 34.5705 43.2021 34.5705 43.2578C34.5291 43.5157 34.4336 43.762 34.2902 43.9803C33.9065 44.5118 33.1919 44.81 32.1371 44.8657H32.0635C31.6986 44.8752 31.3565 44.8855 31.0308 44.895V46.0451C31.0407 46.418 30.9737 46.7054 30.8392 46.9008C30.8298 46.9291 30.8189 46.9466 30.7802 46.9744C30.7198 47.058 30.6384 47.1241 30.5442 47.166C30.4484 47.2038 30.3597 47.2175 30.2346 47.2548C30.119 47.2175 30.0109 47.2033 29.9245 47.166C29.8188 47.1203 29.7315 47.0584 29.6739 46.9744C29.6451 46.9466 29.6249 46.9291 29.6149 46.9008C29.4809 46.7054 29.4134 46.4185 29.4233 46.0451V44.8955C29.1066 44.886 28.7555 44.8752 28.3907 44.8657H28.3175C27.2622 44.8105 26.5477 44.5118 26.164 43.9813C26.021 43.7661 25.9469 43.5287 25.8987 43.2582C25.8893 43.2025 25.8884 43.1464 25.869 43.0812V43.0223L25.87 43.0218Z" fill="#FF0A1C"/>
<path fill-rule="evenodd" clip-rule="evenodd" d="M23.9075 7.4777C23.5659 8.43339 23.3527 9.43023 23.2737 10.4421C23.091 12.7731 23.4124 15.096 24.2469 17.4181C24.3427 17.343 24.446 17.2765 24.5418 17.2118C23.6687 14.9644 23.2949 12.698 23.3912 10.4421C23.4305 9.43536 23.6042 8.43842 23.9075 7.4777ZM36.5324 7.71368C36.7962 8.59388 36.9756 9.49768 37.019 10.4421C37.1153 12.698 36.7273 14.9644 35.8542 17.2118C35.9453 17.2732 36.0562 17.3336 36.1492 17.4034C36.9798 15.0861 37.3135 12.7688 37.1223 10.4421C37.0487 9.48682 36.8269 8.5901 36.5324 7.71368ZM30.2346 15.0139C29.0839 15.2008 28.359 15.7195 28.0522 16.5775C28.359 15.7667 29.0835 15.3844 30.2346 15.4123C31.3862 15.3844 32.096 15.7667 32.4028 16.5775C32.096 15.7195 31.3857 15.2008 30.2346 15.0139ZM29.7041 16.9607C29.5984 17.092 29.4903 17.2345 29.394 17.3742H31.061C30.9628 17.2325 30.8594 17.0946 30.7509 16.9607C30.5876 16.9607 30.4078 16.9759 30.2346 16.9759C30.0628 16.9759 29.8759 16.9607 29.7041 16.9607ZM28.8631 16.9905C28.5563 17.0183 28.2467 17.082 27.9489 17.1382C27.0771 17.3245 26.2372 17.6375 25.456 18.067C25.4083 18.0953 25.3616 18.1373 25.3239 18.1557C26.1295 17.7923 26.9063 17.6205 27.6837 17.6394C26.8488 19.3739 26.6633 21.0824 27.1522 22.7427C26.9125 20.6533 27.5005 18.7245 28.8631 16.9905ZM31.5919 16.9905C32.954 18.7245 33.5425 20.6533 33.3023 22.7427C33.7922 21.0824 33.6067 19.3734 32.7718 17.6394C33.5581 17.6205 34.3302 17.7919 35.1458 18.1557C35.0936 18.1316 35.0442 18.1019 34.9985 18.067C34.2168 17.6389 33.3773 17.3261 32.5061 17.1382C32.2088 17.0816 31.8987 17.0183 31.5915 16.9905H31.5919ZM21.046 22.6096C20.2286 23.8999 19.4664 25.3253 18.8335 27.0342C19.1978 27.2022 19.5603 27.3665 19.9251 27.5062C20.0818 25.7434 20.534 24.1557 21.223 22.713C21.1626 22.6672 21.1041 22.6431 21.046 22.6096ZM39.408 22.6096C39.3495 22.6436 39.2915 22.6672 39.231 22.713C39.9502 24.2199 40.3947 25.8431 40.5436 27.5062C40.9075 27.3607 41.2665 27.2033 41.6201 27.0342C40.9872 25.3243 40.2222 23.9004 39.408 22.6096ZM19.792 28.5091C19.792 28.5648 19.7873 28.6587 19.7779 28.7894C19.7684 28.9102 19.7732 29.0046 19.792 29.0698C19.9266 30.7575 21.08 31.8421 23.2288 32.3735C25.5792 32.9795 27.913 33.273 30.2341 33.273C32.5561 33.273 34.8749 32.9795 37.2252 32.3735C39.3835 31.8421 40.5275 30.7575 40.6615 29.0698C40.6903 29.0046 40.6913 28.9102 40.6913 28.7894C40.6757 28.6967 40.6658 28.603 40.6615 28.5091C38.4278 29.335 36.2818 29.8815 34.2019 30.2053C33.543 31.0076 32.8794 31.742 32.2107 32.3145C31.616 32.6401 30.9586 32.7907 30.2195 32.7718C29.4809 32.7907 28.8381 32.6406 28.2434 32.314C27.5751 31.7425 26.9111 31.0076 26.2527 30.2053C24.1709 29.8815 22.0239 29.3341 19.7925 28.5091H19.792ZM19.0841 31.7835C20.2937 33.5269 20.5311 36.5409 19.792 40.839L19.8218 40.8687C20.8483 37.2601 20.9205 34.5903 20.0285 32.8747L21.9456 32.9781C21.5043 32.8379 21.0913 32.6562 20.736 32.4325C20.1382 32.3639 19.5687 32.1402 19.0841 31.7835ZM41.3841 31.7835C40.8934 32.1387 40.3198 32.3621 39.7181 32.4325C39.3405 32.6665 38.9338 32.8499 38.5085 32.9781L40.4256 32.8747C39.534 34.5903 39.6058 37.2601 40.6323 40.8687L40.6615 40.839C39.9229 36.5404 40.166 33.5274 41.3841 31.7835ZM23.9217 33.5826C24.5267 34.2726 25.3847 34.4694 26.4882 34.1433C26.1715 33.9753 25.7628 33.8365 25.2639 33.7157C24.7457 33.6039 24.2964 33.5458 23.9221 33.5826H23.9217ZM36.5324 33.5973C36.1576 33.5604 35.7225 33.6039 35.2048 33.7153C34.7054 33.837 34.2826 33.9748 33.9659 34.1433C35.0693 34.469 35.9278 34.2877 36.5319 33.5977L36.5324 33.5973ZM22.2849 33.7596C23.0136 35.074 24.3276 35.6928 26.2078 35.6182C26.8025 35.4318 27.4175 35.1231 28.022 34.7035C25.7864 35.4308 23.8679 35.1302 22.2849 33.7596ZM38.1691 33.7596C36.5862 35.1302 34.6672 35.4308 32.432 34.7035C33.0361 35.1236 33.6511 35.4318 34.2462 35.6182C36.126 35.6928 37.44 35.0745 38.1691 33.7596ZM17.9632 33.9512C18.1463 35.6484 18.0222 37.3644 17.6092 39.0989C17.7343 39.2669 17.8523 39.4434 17.949 39.6298C18.3993 37.1119 18.4304 35.2718 18.0373 34.1433C18.0085 34.0867 17.992 34.0168 17.9632 33.9517V33.9512ZM42.4909 33.9512C42.4611 34.0168 42.4455 34.0872 42.4168 34.1433C42.0236 35.2713 42.0548 37.1119 42.5055 39.6298C42.6013 39.4434 42.7249 39.2664 42.8595 39.0989C42.437 37.3644 42.3176 35.6484 42.4904 33.9517L42.4909 33.9512ZM25.338 39.2608C24.0666 39.3344 23.3652 39.9253 23.2284 41.0164C22.9499 43.2068 23.4412 44.8204 24.6886 45.8833L24.7183 45.8535C24.6895 45.8068 24.6485 45.7936 24.6003 45.7653L24.5706 45.7063C24.0628 45.1376 23.7466 44.3834 23.6125 43.4791C23.4492 42.4908 23.5323 41.5516 23.8485 40.6474C23.8564 40.6338 23.8613 40.6187 23.8627 40.603C23.8721 40.5936 23.883 40.5624 23.8924 40.544C24.2185 39.6671 25.1667 39.2891 26.7978 39.3641C26.2461 39.2754 25.7618 39.2367 25.338 39.2608ZM35.116 39.2608C34.6927 39.2367 34.2052 39.2759 33.6558 39.3646C35.2779 39.2891 36.2605 39.6671 36.5763 40.5445C36.5862 40.5624 36.5956 40.5936 36.606 40.603C36.606 40.6124 36.5956 40.629 36.606 40.6474C36.9222 41.5516 37.0053 42.4908 36.842 43.4791C36.7174 44.3834 36.3913 45.1376 35.883 45.7063L35.8537 45.7653C35.8155 45.7936 35.7891 45.8068 35.7504 45.8535L35.7801 45.8833C37.018 44.8204 37.5037 43.2073 37.2252 41.016C37.0954 39.9253 36.3856 39.3344 35.116 39.2608ZM17.4035 39.8804L17.3591 39.9838C17.0146 41.6064 16.8178 43.228 16.7989 44.8506C16.9523 45.0276 17.1132 45.1937 17.2855 45.3523C17.2472 43.9161 17.3987 42.3049 17.7721 40.5148L17.8018 40.4558C17.6866 40.2509 17.5375 40.0574 17.4035 39.8804ZM43.0662 39.8804C42.9222 40.0574 42.783 40.2505 42.6678 40.4558C42.6773 40.4742 42.6726 40.4963 42.6825 40.5148C43.0567 42.3054 43.2129 43.9166 43.1842 45.3523C43.347 45.1937 43.5027 45.0281 43.6561 44.8506C43.6357 43.2143 43.453 41.584 43.1105 39.9838L43.0662 39.8804ZM13.4065 41.385L11.5488 44.7322C11.6928 45.7204 12.1227 46.6474 12.8613 47.5049C13.178 47.8966 13.5905 48.2714 14.0412 48.6258C14.7532 49.1892 15.5369 49.6555 16.3718 50.0124C16.8755 50.2368 17.3987 50.4146 17.9349 50.5434C17.4077 49.4989 17.0618 48.0467 16.9173 46.1631C16.5624 45.8092 16.2259 45.4241 15.8993 45.0418C15.4085 44.4825 14.9554 43.8912 14.5429 43.2719C14.1281 42.6651 13.7488 42.0348 13.4069 41.3841L13.4065 41.385ZM47.0481 41.385C46.7116 42.0356 46.3375 42.6659 45.9277 43.2729C45.5068 43.8902 45.0486 44.4812 44.5557 45.0427C44.2395 45.425 43.893 45.8092 43.5381 46.1631C43.3937 48.0467 43.0581 49.4994 42.5206 50.5439C43.0616 50.4148 43.5898 50.2371 44.0988 50.0129C44.9334 49.6558 45.717 49.1896 46.4289 48.6263C46.8801 48.2718 47.2826 47.8971 47.6088 47.5054C48.3479 46.6478 48.7721 45.7214 48.9066 44.7326L47.0481 41.3846V41.385ZM21.0319 42.6971C20.3877 45.2084 20.4759 47.4049 21.1938 49.3342C20.6873 47.8051 20.625 46.0815 21.0909 44.1573C22.3184 47.2996 25.1544 49.4777 29.6154 50.6618C27.4571 50.0653 25.6457 49.1275 24.1879 47.8594C22.5374 46.4142 21.492 44.7114 21.0314 42.6976L21.0319 42.6971ZM39.3495 42.6971C38.8988 44.7114 37.8581 46.4142 36.2082 47.8594C34.7592 49.1275 32.9394 50.0653 30.7806 50.6618C35.2421 49.4777 38.0865 47.2996 39.3051 44.1578C39.7846 46.14 39.7252 47.9198 39.1725 49.4819C39.9399 47.5224 40.0131 45.2759 39.3495 42.6976V42.6971ZM25.8987 43.2578C25.9846 44.4141 26.6586 45.0828 27.9343 45.2782L28.0815 45.308C28.1202 45.308 28.1665 45.3131 28.2141 45.3226H29.099V45.3372C29.1378 46.1386 29.3176 46.6582 29.6154 46.9008C29.4809 46.7049 29.4143 46.4185 29.4238 46.0452V44.8955C29.1071 44.8856 28.7555 44.8752 28.3911 44.8657H28.3175C27.2617 44.81 26.5476 44.5127 26.1639 43.9813C26.0205 43.7661 25.9464 43.5287 25.8987 43.2582V43.2578ZM34.5709 43.2578C34.5228 43.5282 34.4345 43.7661 34.2906 43.9803C33.9069 44.5122 33.1923 44.81 32.1375 44.8657H32.0639C31.6991 44.8752 31.3569 44.8856 31.0312 44.895V46.0452C31.0412 46.418 30.9741 46.7054 30.8396 46.9008C31.137 46.6582 31.3083 46.1391 31.356 45.3372V45.3231H32.2404C32.289 45.3136 32.3348 45.308 32.3735 45.308L32.5207 45.2782C33.7969 45.0824 34.4751 44.4145 34.5709 43.2582V43.2578Z" fill="#FFA042"/>
<path fill-rule="evenodd" clip-rule="evenodd" d="M19.7931 28.5091C21.3713 29.612 23.6792 30.3658 26.695 30.766C26.5459 30.5961 26.4015 30.3865 26.2528 30.2053C24.171 29.8815 22.024 29.3341 19.7926 28.5091H19.7931ZM40.6621 28.5091C38.4284 29.335 36.2824 29.8815 34.2024 30.2053C34.0533 30.3865 33.9094 30.5966 33.7598 30.766C36.7817 30.3662 39.0882 29.6139 40.6621 28.5091ZM16.917 46.1636C17.0609 48.0467 17.4069 49.4999 17.9345 50.5438C18.2512 50.6184 18.5717 50.6887 18.8784 50.7355C18.0728 49.6164 17.5758 48.2379 17.3738 46.6058C17.2146 46.4656 17.0622 46.3178 16.917 46.1631V46.1636ZM43.5382 46.1636C43.3929 46.3182 43.2403 46.4657 43.0809 46.6058C42.8794 48.2374 42.3824 49.6164 41.5768 50.7355C41.899 50.686 42.2188 50.622 42.5353 50.5438C43.0729 49.4994 43.3943 48.0467 43.5382 46.1636Z" fill="#FFFCAB"/>
<path fill-rule="evenodd" clip-rule="evenodd" d="M22.5064 7.77267C22.2949 7.99638 22.0934 8.19744 21.9013 8.42162C18.6779 12.0113 17.9119 15.3377 19.6005 18.3766C17.6816 19.4215 17.3965 21.0342 18.7307 23.2439C18.8454 22.9645 18.9799 22.721 19.1139 22.5063C20.2079 20.7449 21.5738 21.2343 23.2436 23.9665C24.5481 26.3159 25.8417 28.35 27.1372 30.0283C27.1674 29.6087 27.2416 29.1935 27.3586 28.7894C27.512 28.1834 27.7966 27.5095 28.2284 26.7539C28.2959 26.6236 28.4507 26.3834 28.6711 26.0757C25.9753 24.0618 24.0662 21.1314 22.934 17.2708C22.1949 14.7628 21.8697 12.5399 21.975 10.6191C22.0519 9.77991 22.1963 8.94549 22.3884 8.09691C22.4073 8.05963 22.4177 8.05113 22.4177 8.02328C22.4464 7.93928 22.4776 7.85621 22.5064 7.77267ZM37.9772 7.77267C38.0055 7.85621 38.0225 7.93928 38.0513 8.02328C38.0513 8.05113 38.056 8.05963 38.0659 8.09691C38.2575 8.94549 38.4161 9.77991 38.4935 10.6191C38.5992 12.5399 38.2792 14.7628 37.5496 17.2708C36.4178 21.1314 34.4884 24.0618 31.7832 26.0757C32.013 26.3834 32.1636 26.6231 32.2405 26.7544C32.6714 27.5095 32.9673 28.1834 33.1103 28.7894C33.2255 29.1906 33.3024 29.6087 33.3317 30.0283C34.6267 28.35 35.9156 26.3159 37.2107 23.9665C38.8899 21.2343 40.261 20.7449 41.355 22.5067C41.489 22.721 41.624 22.9645 41.7387 23.2439C43.0625 21.0342 42.7874 19.4211 40.8684 18.3766C42.5669 15.3372 41.7915 12.0113 38.5676 8.42162C38.3661 8.19791 38.1792 7.99638 37.9776 7.77267H37.9772ZM30.2347 25.7661C29.438 26.5495 28.8339 27.3707 28.4507 28.2287C28.278 28.6488 28.1736 29.0018 28.126 29.2907C28.0297 29.841 28.0505 30.311 28.185 30.7216C28.2462 30.9064 28.3357 31.0805 28.4502 31.2379C28.7381 31.6108 29.1261 31.8312 29.6155 31.8864C29.8264 31.9336 30.0431 31.9511 30.2352 31.9605C30.4268 31.9511 30.6434 31.9336 30.8544 31.8869C31.3339 31.8312 31.7176 31.6108 32.005 31.2375C32.123 31.0824 32.2128 30.9078 32.2702 30.7216C32.4137 30.311 32.4543 29.841 32.359 29.2911C32.3009 29.0013 32.1924 28.6488 32.0192 28.2292C31.6265 27.3707 31.0309 26.549 30.2352 25.7656L30.2347 25.7661ZM30.2347 27.2702C30.635 27.6941 30.9683 28.1767 31.223 28.7012C31.223 28.7285 31.2376 28.747 31.2376 28.7748C31.3438 28.9985 31.4103 29.1972 31.4297 29.3647C31.5161 29.8589 31.4538 30.2775 31.223 30.6036C31.1083 30.7528 30.978 30.8623 30.8246 30.9279C30.6429 30.9836 30.4711 31.0312 30.2791 31.0312H30.1908C29.9992 31.0312 29.818 30.984 29.6447 30.9279C29.4914 30.8623 29.3616 30.7528 29.2469 30.6036C29.0166 30.2775 28.9637 29.8589 29.0402 29.3647C29.069 29.1972 29.136 28.9985 29.2323 28.7748C29.2417 28.7465 29.237 28.7285 29.2464 28.7007C29.4944 28.1726 29.8284 27.6894 30.2347 27.2707V27.2702Z" fill="#FFA042"/>
<path fill-rule="evenodd" clip-rule="evenodd" d="M21.9758 10.737C21.6492 13.758 22.0163 16.6946 23.0518 19.557C23.637 21.1697 24.3818 22.6209 25.2644 23.9075C26.2045 25.2969 27.1933 26.2753 28.2292 26.8723C28.2962 26.7411 28.4505 26.5014 28.6714 26.1937C25.9756 24.1798 24.0661 21.2494 22.9343 17.3888C22.1952 14.8808 21.87 12.6579 21.9753 10.737H21.9758ZM38.4943 10.737C38.6 12.6579 38.2644 14.8808 37.5353 17.3888C36.4035 21.2494 34.4888 24.1798 31.7835 26.1937C32.0138 26.5014 32.1639 26.7411 32.2408 26.8723C33.2669 26.2748 34.2651 25.2969 35.2047 23.9075C36.0873 22.6209 36.8179 21.1701 37.4026 19.557C38.4485 16.6946 38.8195 13.758 38.4943 10.737ZM19.6004 18.4951C17.6819 19.5391 17.3963 21.1517 18.7306 23.3619C17.7319 20.9375 18.5036 19.4253 21.046 18.8193C20.3263 18.8382 19.8501 18.7278 19.6004 18.4946V18.4951ZM40.8536 18.4951C40.6039 18.7278 40.1372 18.8382 39.408 18.8193C41.95 19.4258 42.7263 20.9375 41.7385 23.3619C43.0624 21.1517 42.7721 19.5391 40.8531 18.4946L40.8536 18.4951ZM30.2345 25.8841C29.4379 26.667 28.8338 27.4887 28.4496 28.3467C28.2773 28.7668 28.1584 29.1203 28.1107 29.4086C28.0145 29.9589 28.0494 30.4295 28.1844 30.8396C27.954 29.3761 28.6422 27.9611 30.2341 26.5623C31.8364 27.9611 32.5094 29.3761 32.2696 30.8396C32.4136 30.429 32.4395 29.9594 32.3433 29.4091C32.2866 29.1198 32.1922 28.7668 32.019 28.3472C31.6254 27.4887 31.0312 26.667 30.2345 25.8836V25.8841ZM29.2165 28.8928C29.1207 29.1165 29.0537 29.3147 29.0249 29.4827C29.0183 29.5252 29.0296 29.5587 29.0249 29.6007C29.091 29.3629 29.0721 29.1727 29.2165 28.8928ZM29.0249 29.6007C28.8173 30.3441 28.863 30.9425 29.4086 31.2818C29.6556 31.4399 29.9414 31.5266 30.2345 31.5324C30.5231 31.5281 30.8045 31.4413 31.0454 31.2823C31.5976 30.9425 31.641 30.3441 31.4291 29.6007C31.4833 30.0382 31.4328 30.4238 31.2224 30.7216C31.1072 30.8708 30.9774 30.9803 30.824 31.0459C30.6418 31.1015 30.4705 31.1492 30.2784 31.1492H30.1756C29.9835 31.1492 29.8169 31.102 29.6441 31.0459C29.4907 30.9803 29.361 30.8708 29.2463 30.7216C29.0358 30.4238 28.9782 30.0382 29.0249 29.6007ZM31.4291 29.6007C31.4239 29.5587 31.4366 29.5252 31.4291 29.4827C31.4102 29.3147 31.3432 29.1165 31.2375 28.8928C31.3838 29.1727 31.3611 29.3629 31.4291 29.6007Z" fill="#FFFCAB"/>
</g>
<defs>
<clipPath id="clip0">
<rect width="60" height="60" fill="white"/>
</clipPath>
</defs>
</svg>
