<svg width="60" height="60" viewBox="0 0 60 60" fill="none" xmlns="http://www.w3.org/2000/svg">
<path d="M8.77521 21.7057C8.31014 23.4115 8.07115 25.1714 8.06442 26.94C8.06442 27.0643 8.06442 27.1857 8.06442 27.3072C8.07917 29.4447 7.84056 31.5763 7.35364 33.6572C6.37275 33.3072 5.36344 32.5986 4.39962 31.3714C1.86354 28.1429 2.70653 22.9657 5.83398 21.7472C7.01673 21.2872 8.00614 21.3843 8.77947 21.6857C8.77741 21.6922 8.77598 21.6989 8.77521 21.7057Z" fill="#A16552"/>
<path d="M8.77521 21.7057C8.31014 23.4115 8.07115 25.1714 8.06442 26.94C8.06442 27.0643 8.06442 27.1857 8.06442 27.3072C8.07917 29.4447 7.84056 31.5763 7.35364 33.6572C6.37275 33.3072 5.36344 32.5986 4.39962 31.3714C1.86354 28.1429 2.70653 22.9657 5.83398 21.7472C7.01673 21.2872 8.00614 21.3843 8.77947 21.6857C8.77741 21.6922 8.77598 21.6989 8.77521 21.7057Z" fill="#F5DCB4"/>
<path d="M55.5028 31.3729C54.5404 32.5971 53.5297 33.3057 52.5488 33.6586C52.0625 31.5781 51.8239 29.447 51.838 27.31C51.838 27.1886 51.838 27.0671 51.838 26.9429C51.8315 25.1672 51.5901 23.4003 51.1201 21.6886C51.8935 21.3871 52.8829 21.29 54.0656 21.75C57.1931 22.9657 58.0375 28.1429 55.5028 31.3729Z" fill="#A16552"/>
<path d="M55.5028 31.3729C54.5404 32.5971 53.5297 33.3057 52.5488 33.6586C52.0625 31.5781 51.8239 29.447 51.838 27.31C51.838 27.1886 51.838 27.0671 51.838 26.9429C51.8315 25.1672 51.5901 23.4003 51.1201 21.6886C51.8935 21.3871 52.8829 21.29 54.0656 21.75C57.1931 22.9657 58.0375 28.1429 55.5028 31.3729Z" fill="#F5DCB4"/>
<path d="M45.7582 33.7228C45.2973 34.438 45.0021 35.248 44.8943 36.0931C44.7866 36.9382 44.869 37.7968 45.1355 38.6057C45.552 39.8371 45.9245 41.2314 45.9245 42.2685C45.9217 49.8571 38.7726 55.9999 29.9503 55.9999C21.1281 55.9999 13.9748 49.8571 13.9748 42.2685C13.9748 41.2314 14.3472 39.8399 14.7637 38.6057C15.0306 37.7972 15.1133 36.9388 15.0057 36.0939C14.8982 35.249 14.6032 34.4392 14.1425 33.7242C13.2436 32.3102 12.7643 30.6679 12.7607 28.9899C12.7607 23.9542 17.0254 19.8699 22.2924 19.8699C23.9926 19.8657 25.6651 20.3037 27.147 21.1414C28.0014 21.6298 28.9674 21.8866 29.9503 21.8866C30.9333 21.8866 31.8993 21.6298 32.7537 21.1414C34.2351 20.304 35.9072 19.8664 37.6069 19.8714C42.8667 19.8714 47.1399 23.9557 47.1399 28.9914C47.1413 30.2494 46.8712 31.4927 46.3481 32.6357C46.1771 33.0115 45.98 33.3748 45.7582 33.7228Z" fill="#A16552"/>
<path d="M45.7582 33.7228C45.2973 34.438 45.0021 35.248 44.8943 36.0931C44.7866 36.9382 44.869 37.7968 45.1355 38.6057C45.552 39.8371 45.9245 41.2314 45.9245 42.2685C45.9217 49.8571 38.7726 55.9999 29.9503 55.9999C21.1281 55.9999 13.9748 49.8571 13.9748 42.2685C13.9748 41.2314 14.3472 39.8399 14.7637 38.6057C15.0306 37.7972 15.1133 36.9388 15.0057 36.0939C14.8982 35.249 14.6032 34.4392 14.1425 33.7242C13.2436 32.3102 12.7643 30.6679 12.7607 28.9899C12.7607 23.9542 17.0254 19.8699 22.2924 19.8699C23.9926 19.8657 25.6651 20.3037 27.147 21.1414C28.0014 21.6298 28.9674 21.8866 29.9503 21.8866C30.9333 21.8866 31.8993 21.6298 32.7537 21.1414C34.2351 20.304 35.9072 19.8664 37.6069 19.8714C42.8667 19.8714 47.1399 23.9557 47.1399 28.9914C47.1413 30.2494 46.8712 31.4927 46.3481 32.6357C46.1771 33.0115 45.98 33.3748 45.7582 33.7228Z" fill="#F5DCB4"/>
<path d="M21.8126 43.9657C21.6819 43.9654 21.5527 43.9931 21.4336 44.0471C21.3144 44.1011 21.2082 44.18 21.1219 44.2787C21.0356 44.3773 20.9713 44.4933 20.9333 44.6189C20.8952 44.7446 20.8843 44.8769 20.9014 45.0071C21.47 49.0714 25.3082 52.2143 29.9496 52.2143C34.5911 52.2143 38.4321 49.0714 38.9979 45.0071C39.0149 44.877 39.0041 44.7448 38.9661 44.6193C38.9282 44.4937 38.864 44.3778 38.7779 44.2792C38.6917 44.1806 38.5857 44.1016 38.4667 44.0476C38.3477 43.9935 38.2187 43.9656 38.0881 43.9657H21.8126Z" fill="#4E3F3F"/>
<path d="M24.6943 50.7014C26.2708 51.69 28.0917 52.2142 29.9499 52.2142C31.8081 52.2142 33.629 51.69 35.2054 50.7014C34.5458 48.4071 32.4376 48.9357 29.9456 48.9357C27.4536 48.9357 25.3539 48.4071 24.6943 50.7014Z" fill="#E6646E"/>
<path d="M55.1478 20.0514C53.2572 19.3143 51.7574 19.7029 50.7026 20.3129C50.4451 19.5508 50.1486 18.8027 49.8141 18.0714C49.5696 17.5362 49.3057 17.0081 49.0223 16.4871C46.1294 11.1686 41.2648 6.75429 35.6866 4.88857L35.5728 1.86857L31.9592 4.04857L31.5242 4C31.257 3.97571 30.9926 3.95714 30.7225 3.94571L30.1951 1.66L30.0401 1C29.8596 1 29.6833 1 29.5113 1.02C26.1493 1.29429 24.4761 4.36429 24.2145 4.89C18.6278 6.75571 13.7717 11.1714 10.8788 16.4871C10.5945 17.0071 10.3305 17.5352 10.087 18.0714C9.7529 18.803 9.45588 19.5511 9.19707 20.3129L9.06202 20.2371C8.01574 19.6729 6.5629 19.3471 4.75325 20.0514C0.779961 21.6 -0.291902 28.18 2.92795 32.2857C4.24148 33.9543 5.62893 34.8686 6.95383 35.2757C6.93677 35.35 6.91972 35.4257 6.90408 35.5014C6.66453 36.6038 6.54395 37.7288 6.54442 38.8571C6.54442 46.69 12.2932 53.4286 20.5298 56.39C22.4636 57.0849 24.4694 57.5579 26.5089 57.8C27.5677 57.9262 28.6327 57.9929 29.6989 58H29.952C42.8783 58 53.3567 49.4286 53.3567 38.8571C53.3573 37.7279 53.2368 36.6018 52.997 35.4986C52.98 35.4229 52.9643 35.3471 52.9458 35.2729C54.2778 34.8657 55.6596 33.9514 56.9717 32.2814C60.193 28.18 59.1197 21.5986 55.1478 20.0514ZM8.77486 21.7057C8.3098 23.4115 8.0708 25.1714 8.06408 26.94C8.06408 27.0643 8.06408 27.1857 8.06408 27.3071C8.07882 29.4447 7.84022 31.5763 7.35329 33.6571C6.37241 33.3071 5.3631 32.5986 4.39927 31.3714C1.8632 28.1429 2.70619 22.9657 5.83364 21.7471C7.01638 21.2871 8.00579 21.3843 8.77913 21.6857C8.77707 21.6922 8.77564 21.6989 8.77486 21.7057ZM46.3483 32.6357C46.1773 33.0116 45.9802 33.3748 45.7584 33.7229C45.2975 34.438 45.0023 35.248 44.8946 36.0931C44.7868 36.9382 44.8692 37.7969 45.1357 38.6057C45.5523 39.8371 45.9247 41.2314 45.9247 42.2686C45.9219 49.8571 38.7728 56 29.9505 56C21.1283 56 13.975 49.8571 13.975 42.2686C13.975 41.2314 14.3474 39.84 14.7639 38.6057C15.0308 37.7972 15.1135 36.9389 15.0059 36.094C14.8984 35.2491 14.6034 34.4393 14.1427 33.7243C13.2438 32.3102 12.7645 30.668 12.7609 28.99C12.7609 23.9543 17.0256 19.87 22.2926 19.87C23.9928 19.8658 25.6653 20.3038 27.1472 21.1414C28.0016 21.6299 28.9676 21.8867 29.9505 21.8867C30.9335 21.8867 31.8995 21.6299 32.7539 21.1414C34.2353 20.304 35.9074 19.8665 37.6071 19.8714C42.8669 19.8714 47.1402 23.9557 47.1402 28.9914C47.1416 30.2494 46.8714 31.4928 46.3483 32.6357ZM55.5032 31.3729C54.5408 32.5971 53.5301 33.3057 52.5492 33.6586C52.0629 31.5781 51.8243 29.447 51.8384 27.31C51.8384 27.1886 51.8384 27.0671 51.8384 26.9429C51.832 25.1672 51.5905 23.4003 51.1205 21.6886C51.8939 21.3871 52.8833 21.29 54.066 21.75C57.1935 22.9657 58.0379 28.1429 55.5032 31.3729Z" fill="#A16552"/>
<path d="M25.9827 37.1034L25.9638 37.145C25.7929 37.521 25.9577 37.9651 26.3319 38.1369L28.1473 38.9703C28.5215 39.142 28.9634 38.9764 29.1344 38.6004L29.1533 38.5588C29.3242 38.1827 29.1594 37.7386 28.7852 37.5669L26.9698 36.7335C26.5955 36.5618 26.1536 36.7274 25.9827 37.1034Z" fill="#4E3F3F"/>
<path d="M30.7468 38.5609L30.7657 38.6025C30.9366 38.9785 31.3785 39.1441 31.7528 38.9724L33.5682 38.139C33.9424 37.9672 34.1072 37.5231 33.9363 37.1471L33.9174 37.1055C33.7464 36.7295 33.3045 36.5639 32.9303 36.7356L31.1149 37.569C30.7407 37.7408 30.5759 38.1849 30.7468 38.5609Z" fill="#4E3F3F"/>
<path d="M21.7424 32.6327C20.2313 32.6327 19.0059 31.467 19.0059 30.027V29.1585C19.0059 27.7199 20.2313 26.5527 21.7424 26.5527C23.2535 26.5527 24.4775 27.7199 24.4775 29.1585V30.027C24.4775 31.467 23.2535 32.6327 21.7424 32.6327Z" fill="#4E3F3F"/>
<path d="M21.7422 26.5527V29.5928C21.7582 29.9464 21.9093 30.2802 22.164 30.5248C22.4187 30.7693 22.7575 30.9058 23.1097 30.9058C23.462 30.9058 23.8007 30.7693 24.0554 30.5248C24.3101 30.2802 24.4612 29.9464 24.4773 29.5928V29.1642C24.4773 27.7142 23.2533 26.5527 21.7422 26.5527Z" fill="#5D5360"/>
<path d="M21.7417 29.1586C22.2458 29.1586 22.6544 28.7697 22.6544 28.29C22.6544 27.8103 22.2458 27.4215 21.7417 27.4215C21.2377 27.4215 20.8291 27.8103 20.8291 28.29C20.8291 28.7697 21.2377 29.1586 21.7417 29.1586Z" fill="white"/>
<path d="M38.1589 32.6327C36.6478 32.6327 35.4238 31.467 35.4238 30.027V29.1585C35.4238 27.7199 36.6478 26.5527 38.1589 26.5527C39.6701 26.5527 40.8955 27.7199 40.8955 29.1585V30.027C40.8955 31.467 39.6672 32.6327 38.1589 32.6327Z" fill="#4E3F3F"/>
<path d="M38.1582 26.5527V29.5928C38.1777 29.9442 38.3304 30.2747 38.5849 30.5165C38.8393 30.7584 39.1762 30.8931 39.5265 30.8931C39.8767 30.8931 40.2136 30.7584 40.4681 30.5165C40.7225 30.2747 40.8752 29.9442 40.8947 29.5928V29.1642C40.8947 27.7142 39.6665 26.5527 38.1582 26.5527Z" fill="#5D5360"/>
<path d="M38.1578 29.1586C38.6618 29.1586 39.0704 28.7697 39.0704 28.29C39.0704 27.8103 38.6618 27.4215 38.1578 27.4215C37.6537 27.4215 37.2451 27.8103 37.2451 28.29C37.2451 28.7697 37.6537 29.1586 38.1578 29.1586Z" fill="white"/>
<path opacity="0.35" d="M30.1951 1.66571C29.5824 1.60571 28.2418 2.57286 26.6411 4.25143C26.2417 4.67 25.8237 5.13429 25.3973 5.63714C22.2485 9.34429 18.6022 15.19 17.3483 21.1886C15.253 31.26 14.4014 42.9457 18.1004 49.4271C21.2349 54.9186 26.5032 57.7971 26.5032 57.7971C24.4637 57.5551 22.4579 57.0821 20.5241 56.3871C12.2918 53.4286 6.54442 46.6871 6.54442 38.8571C6.54421 37.7278 6.66527 36.6018 6.9055 35.4986C6.92114 35.4229 6.9382 35.3471 6.95526 35.2729C5.62325 34.8571 4.24148 33.9486 2.92795 32.2857C-0.291902 28.1857 0.779961 21.6057 4.75325 20.0571C6.5629 19.3529 8.02285 19.6786 9.06202 20.2429L9.19707 20.3186C9.45589 19.5568 9.7529 18.8087 10.087 18.0771C10.3315 17.5419 10.5954 17.0138 10.8788 16.4929C13.7717 11.1714 18.6278 6.75571 24.2145 4.89C24.4761 4.36429 26.1493 1.29429 29.5113 1.02C29.6833 1 29.8581 1 30.0401 1L30.1951 1.66571Z" fill="#4E3F3F"/>
</svg>
