<svg width="60" height="60" viewBox="0 0 60 60" fill="none" xmlns="http://www.w3.org/2000/svg">
<circle cx="30" cy="30" r="30" fill="#EDF0F4"/>
<path fill-rule="evenodd" clip-rule="evenodd" d="M24.8714 14.9645C24.6258 15.0873 24.6258 15.4556 24.7486 15.7012C24.8714 15.9467 25.2397 15.9467 25.4853 15.9467L27.0815 14.8417C27.327 14.5962 27.327 14.3506 27.2042 13.9823C27.0815 13.7367 26.7131 13.7367 26.4675 13.8595L24.8714 14.9645ZM39.4822 29.821C39.4822 29.5754 39.1138 29.3298 38.8683 29.4526C38.4999 29.4526 38.3771 29.821 38.4999 30.0665L38.991 31.9082C38.991 32.1538 39.3594 32.3994 39.6049 32.2766C39.8505 32.2766 40.0961 31.9082 39.9733 31.6627L39.4822 29.821Z" fill="white"/>
<path fill-rule="evenodd" clip-rule="evenodd" d="M32.9753 22.2086C31.1336 21.8403 29.1691 22.0859 27.4502 23.1909C29.9058 22.3314 32.7298 22.9453 34.6943 24.9098C37.3954 27.7338 37.3954 32.2766 34.6943 34.9778C34.3259 35.3462 33.9576 35.5917 33.5892 35.8373C34.5715 35.4689 35.5537 34.9778 36.2904 34.1183C38.2549 32.1539 38.746 29.3299 38.0093 26.8743C35.9221 26.1376 34.0803 24.4187 32.9753 22.2086Z" fill="#FFAE54"/>
<path d="M44.6395 38.17C40.2194 46.3963 29.9058 49.4658 21.8023 44.9229C13.576 40.5028 10.6292 30.0665 15.0493 21.8402C17.9961 16.4378 23.3984 13.2456 29.1691 13C29.9058 13 30.5197 13.3683 30.888 14.105C31.2564 14.8417 31.5019 15.8239 31.3792 16.8062C31.3792 17.1745 31.3792 17.5429 31.3792 17.9112C31.3792 19.6301 31.8703 21.3491 32.607 22.8224C29.0463 21.4719 24.9946 22.9452 23.1529 26.3831C21.0656 30.1893 22.5389 34.8549 26.2224 36.9422C29.9058 39.0295 34.6942 37.5561 36.6587 33.8727C37.7637 31.7854 37.8865 29.3298 37.0271 27.2425C38.5004 27.9792 40.0966 28.3476 41.8155 28.3476C42.7977 28.3476 43.6572 28.2248 44.6395 27.9792C45.1306 27.8564 45.7445 27.8564 46.1128 28.102C46.4812 28.3476 46.7267 28.5931 46.7267 28.9615C46.8495 32.031 46.1128 35.2233 44.6395 38.17Z" fill="url(#paint0_radial)" stroke="#AC562A" stroke-width="1.0716"/>
<path fill-rule="evenodd" clip-rule="evenodd" d="M24.3809 22.0858C25.3631 22.5769 26.7137 22.8224 28.4326 22.3313C29.7832 22.0858 31.2566 22.2085 32.6072 22.8224C31.8705 21.3491 31.3794 19.6301 31.3794 17.9112C31.3794 17.2973 31.3794 16.6834 31.5021 16.1923C31.6249 15.4556 31.5021 14.5961 31.1338 13.9822C30.7654 13.3683 30.2743 13 29.6604 13C27.5732 13 25.3631 13.4911 23.2758 14.3506C22.5392 14.7189 22.048 15.4556 21.8025 16.4378C21.5569 17.4201 21.6797 18.5251 22.1708 19.6301C22.5392 20.6124 23.3986 21.4719 24.3809 22.0858ZM40.2197 34.8549L40.8336 34.6094C41.2731 35.7081 40.8277 36.7085 40.4652 37.5226C40.4226 37.6183 40.3812 37.7113 40.3425 37.8017V37.9245C40.2912 38.0269 40.24 38.124 40.191 38.2169L40.1909 38.217C40.0051 38.5693 39.8513 38.8608 39.8513 39.1523C39.7286 39.7662 39.7286 40.3801 39.8513 40.7484C39.9741 41.1168 40.3425 41.4851 40.8336 41.6079C41.2019 41.7307 41.8158 41.6079 42.5525 41.1168C45.4993 37.6789 46.8498 33.2588 46.6043 29.0843C46.6043 28.7159 46.3587 28.3476 45.9904 28.102C45.622 27.8565 45.0081 27.8565 44.517 27.9792C43.6575 28.2248 42.6753 28.3476 41.8158 28.3476C40.0969 28.3476 38.5008 27.9792 37.0274 27.1198C37.8869 29.207 37.7641 31.5399 36.7818 33.6271C36.6957 33.8856 36.5491 34.0835 36.3845 34.3059C36.3145 34.4005 36.2412 34.4995 36.1679 34.6094C36.659 34.4866 37.1502 34.241 37.8869 33.7499C38.7463 33.136 39.8513 33.7499 40.2197 34.8549ZM40.2196 34.8549C40.5443 35.7208 40.2011 36.4913 39.8629 37.2506C39.8174 37.3525 39.7721 37.4543 39.7285 37.5561C39.4977 38.0177 39.2668 38.4794 39.138 38.941L40.2196 34.8549ZM39.1146 39.0294L39.138 38.941C39.1298 38.9705 39.122 39 39.1146 39.0294Z" fill="#AC562A"/>
<path d="M28.4326 22.3313L28.3368 21.8042L28.3108 21.8089L28.2854 21.8161L28.4326 22.3313ZM24.3809 22.0858L24.0969 22.5401L24.1185 22.5536L24.1412 22.565L24.3809 22.0858ZM32.6072 22.8224L32.3854 23.3102L33.7632 23.9365L33.0864 22.5828L32.6072 22.8224ZM31.5021 16.1923L32.0219 16.3222L32.0271 16.3015L32.0306 16.2804L31.5021 16.1923ZM31.1338 13.9822L30.6743 14.2579L30.6743 14.2579L31.1338 13.9822ZM23.2758 14.3506L23.0718 13.8551L23.0537 13.8626L23.0362 13.8713L23.2758 14.3506ZM21.8025 16.4378L21.2827 16.3079L21.8025 16.4378ZM22.1708 19.6301L22.6725 19.442L22.6669 19.4271L22.6604 19.4125L22.1708 19.6301ZM40.8336 34.6094L41.3311 34.4104L41.1321 33.9129L40.6346 34.1119L40.8336 34.6094ZM40.2197 34.8549L39.7114 35.0244L39.8911 35.5635L40.4187 35.3524L40.2197 34.8549ZM40.4652 37.5226L40.9547 37.7406L40.9547 37.7406L40.4652 37.5226ZM40.3425 37.8017L39.85 37.5906L39.8067 37.6917V37.8017H40.3425ZM40.3425 37.9245L40.8217 38.1641L40.8783 38.0509V37.9245H40.3425ZM40.191 38.2169L40.6642 38.4682L40.6649 38.4669L40.191 38.2169ZM40.1909 38.217L39.7178 37.9657L39.717 37.967L40.1909 38.217ZM39.8513 39.1523L40.3767 39.2573L40.3871 39.2053V39.1523H39.8513ZM39.8513 40.7484L39.343 40.9178V40.9179L39.8513 40.7484ZM40.8336 41.6079L41.003 41.0996L40.9835 41.0931L40.9635 41.0881L40.8336 41.6079ZM42.5525 41.1168L42.8497 41.5626L42.9112 41.5216L42.9593 41.4655L42.5525 41.1168ZM46.6043 29.0843H46.0685V29.1L46.0694 29.1157L46.6043 29.0843ZM45.9904 28.102L46.2876 27.6562V27.6562L45.9904 28.102ZM44.517 27.9792L44.3871 27.4594L44.3784 27.4616L44.3698 27.464L44.517 27.9792ZM37.0274 27.1198L37.2974 26.657L35.9286 25.8585L36.5319 27.3238L37.0274 27.1198ZM36.7818 33.6271L36.297 33.399L36.2835 33.4277L36.2735 33.4577L36.7818 33.6271ZM36.3845 34.3059L36.8151 34.6247L36.8151 34.6247L36.3845 34.3059ZM36.1679 34.6094L35.7221 34.3122L34.9534 35.4653L36.2979 35.1292L36.1679 34.6094ZM37.8869 33.7499L38.1841 34.1957L38.1912 34.1909L38.1983 34.1859L37.8869 33.7499ZM39.8629 37.2506L40.3523 37.4686L40.3523 37.4686L39.8629 37.2506ZM40.2196 34.8549L40.7213 34.6668L40.1315 33.094L39.7017 34.7178L40.2196 34.8549ZM39.7285 37.5561L40.2077 37.7957L40.2148 37.7816L40.221 37.7671L39.7285 37.5561ZM39.1146 39.0294L38.5948 38.8995L39.6325 39.1665L39.1146 39.0294ZM28.2854 21.8161C26.6939 22.2709 25.4814 22.037 24.6205 21.6065L24.1412 22.565C25.2448 23.1167 26.7335 23.374 28.5798 22.8465L28.2854 21.8161ZM32.8289 22.3347C31.3689 21.671 29.7834 21.5411 28.3368 21.8042L28.5285 22.8585C29.7831 22.6304 31.1443 22.746 32.3854 23.3102L32.8289 22.3347ZM30.8436 17.9112C30.8436 19.7286 31.3615 21.5293 32.1279 23.0621L33.0864 22.5828C32.3794 21.1688 31.9152 19.5317 31.9152 17.9112H30.8436ZM30.9823 16.0623C30.8402 16.6309 30.8436 17.3181 30.8436 17.9112H31.9152C31.9152 17.2766 31.9185 16.7359 32.0219 16.3222L30.9823 16.0623ZM30.6743 14.2579C30.9663 14.7444 31.0792 15.4705 30.9736 16.1042L32.0306 16.2804C32.1706 15.4407 32.038 14.4478 31.5932 13.7066L30.6743 14.2579ZM29.6604 13.5358C30.0202 13.5358 30.3633 13.7394 30.6743 14.2579L31.5932 13.7066C31.1676 12.9972 30.5285 12.4642 29.6604 12.4642V13.5358ZM23.4798 14.846C25.5135 14.0087 27.6542 13.5358 29.6604 13.5358V12.4642C27.4921 12.4642 25.2128 12.9736 23.0718 13.8551L23.4798 14.846ZM22.3223 16.5678C22.5439 15.6814 22.9631 15.106 23.5155 14.8298L23.0362 13.8713C22.1152 14.3318 21.5522 15.2298 21.2827 16.3079L22.3223 16.5678ZM22.6604 19.4125C22.2092 18.3973 22.1105 17.4149 22.3223 16.5678L21.2827 16.3079C21.0033 17.4252 21.1502 18.653 21.6812 19.8478L22.6604 19.4125ZM24.6648 21.6314C23.7396 21.0531 22.9847 20.2746 22.6725 19.442L21.6691 19.8183C22.0936 20.9502 23.0577 21.8906 24.0969 22.5401L24.6648 21.6314ZM40.6346 34.1119L40.0207 34.3575L40.4187 35.3524L41.0326 35.1069L40.6346 34.1119ZM40.9547 37.7406C41.3049 36.9541 41.8658 35.7472 41.3311 34.4104L40.3361 34.8084C40.6804 35.6691 40.3505 36.463 39.9757 37.3047L40.9547 37.7406ZM40.8349 38.0127C40.8719 37.9265 40.9118 37.8369 40.9547 37.7406L39.9757 37.3047C39.9334 37.3997 39.8904 37.4962 39.85 37.5906L40.8349 38.0127ZM40.8783 37.9245V37.8017H39.8067V37.9245H40.8783ZM40.6649 38.4669C40.7136 38.3746 40.7675 38.2725 40.8217 38.1641L39.8632 37.6848C39.815 37.7813 39.7665 37.8734 39.7171 37.9669L40.6649 38.4669ZM40.6641 38.4684L40.6642 38.4682L39.7179 37.9655L39.7178 37.9657L40.6641 38.4684ZM40.3871 39.1523C40.3871 39.0214 40.4583 38.8585 40.6648 38.467L39.717 37.967C39.5519 38.2802 39.3155 38.7002 39.3155 39.1523H40.3871ZM40.3596 40.579C40.2792 40.3376 40.2622 39.8301 40.3767 39.2573L39.3259 39.0472C39.1949 39.7022 39.1779 40.4226 39.343 40.9178L40.3596 40.579ZM40.9635 41.0881C40.6428 41.0079 40.4221 40.7665 40.3596 40.579L39.343 40.9179C39.5261 41.467 40.0421 41.9623 40.7036 42.1277L40.9635 41.0881ZM42.2553 40.6709C41.5638 41.1319 41.1329 41.1429 41.003 41.0996L40.6642 42.1162C41.2709 42.3184 42.0679 42.0838 42.8497 41.5626L42.2553 40.6709ZM46.0694 29.1157C46.3072 33.1577 44.9983 37.44 42.1457 40.7681L42.9593 41.4655C46.0002 37.9178 47.3925 33.3599 47.1392 29.0528L46.0694 29.1157ZM45.6932 28.5478C45.9668 28.7302 46.0685 28.9518 46.0685 29.0843H47.1401C47.1401 28.4801 46.7507 27.9649 46.2876 27.6562L45.6932 28.5478ZM44.647 28.499C44.8455 28.4494 45.0672 28.4255 45.2683 28.4374C45.476 28.4496 45.6168 28.4969 45.6932 28.5478L46.2876 27.6562C45.9956 27.4615 45.6453 27.3861 45.3312 27.3676C45.0104 27.3488 44.6796 27.3863 44.3871 27.4594L44.647 28.499ZM41.8158 28.8834C42.7202 28.8834 43.7524 28.7549 44.6642 28.4944L44.3698 27.464C43.5627 27.6947 42.6304 27.8118 41.8158 27.8118V28.8834ZM36.7574 27.5826C38.3245 28.4967 40.0166 28.8834 41.8158 28.8834V27.8118C40.1772 27.8118 38.677 27.4618 37.2974 26.657L36.7574 27.5826ZM37.2666 33.8553C38.3072 31.6441 38.4446 29.1542 37.5228 26.9158L36.5319 27.3238C37.3291 29.2598 37.221 31.4356 36.297 33.399L37.2666 33.8553ZM36.8151 34.6247C36.973 34.4114 37.1729 34.1481 37.2901 33.7966L36.2735 33.4577C36.2184 33.623 36.1252 33.7556 35.9539 33.9871L36.8151 34.6247ZM36.6137 34.9066C36.6786 34.8092 36.7443 34.7204 36.8151 34.6247L35.9539 33.9871C35.8847 34.0806 35.8038 34.1897 35.7221 34.3122L36.6137 34.9066ZM37.5896 33.3041C36.8718 33.7827 36.4409 33.9889 36.038 34.0896L36.2979 35.1292C36.8772 34.9844 37.4286 34.6994 38.1841 34.1957L37.5896 33.3041ZM40.728 34.6855C40.5043 34.0144 40.0484 33.4643 39.4771 33.1786C38.8914 32.8858 38.1854 32.8782 37.5754 33.3139L38.1983 34.1859C38.4477 34.0077 38.724 34.0001 38.9978 34.1371C39.2859 34.2811 39.5667 34.5904 39.7114 35.0244L40.728 34.6855ZM40.3523 37.4686C40.6758 36.7424 41.1344 35.7683 40.7213 34.6668L39.7179 35.043C39.9543 35.6734 39.7264 36.2403 39.3734 37.0325L40.3523 37.4686ZM40.221 37.7671C40.2628 37.6695 40.3066 37.5712 40.3523 37.4686L39.3734 37.0325C39.3283 37.1339 39.2814 37.2391 39.236 37.345L40.221 37.7671ZM39.6541 39.085C39.7665 38.6821 39.9717 38.2677 40.2077 37.7957L39.2493 37.3164C39.0236 37.7677 38.7672 38.2766 38.6219 38.797L39.6541 39.085ZM39.7017 34.7178L38.62 38.8039L39.656 39.0781L40.7376 34.992L39.7017 34.7178ZM39.6325 39.1665L39.656 39.0781L38.62 38.8039L38.5966 38.8923L39.6325 39.1665ZM38.6219 38.797C38.6124 38.8309 38.6034 38.8651 38.5948 38.8995L39.6344 39.1594C39.6405 39.1348 39.6471 39.11 39.6541 39.085L38.6219 38.797Z" fill="#AC562A"/>
<ellipse cx="17.0138" cy="26.1375" rx="0.859464" ry="0.859465" fill="#AC562A"/>
<circle cx="29.7833" cy="41.4851" r="0.859465" fill="#AC562A"/>
<ellipse cx="24.3806" cy="42.2218" rx="1.47337" ry="1.47337" fill="#AC562A"/>
<defs>
<radialGradient id="paint0_radial" cx="0" cy="0" r="1" gradientUnits="userSpaceOnUse" gradientTransform="translate(29.8274 30.0417) rotate(90) scale(17.6533 17.5045)">
<stop offset="0.3335" stop-color="#F7B450"/>
<stop offset="0.6477" stop-color="#FFC977"/>
<stop offset="1" stop-color="#FF9900"/>
</radialGradient>
</defs>
</svg>
