<svg width="60" height="60" viewBox="0 0 60 60" fill="none" xmlns="http://www.w3.org/2000/svg">
<path fill-rule="evenodd" clip-rule="evenodd" d="M30 0C46.566 0 60 13.434 60 30C60 46.566 46.566 60 30 60C13.434 60 0 46.566 0 30C0 13.434 13.434 0 30 0Z" fill="#1E1E1E"/>
<path d="M30.4501 42.54C20.8561 42.54 13.0801 39.768 13.0801 36.054C13.0801 34.116 15.1981 32.37 18.5881 31.14C21.2341 32.838 25.6741 33.708 30.7081 33.708C35.6221 33.708 39.9661 32.646 42.6361 31.02C45.8341 32.238 47.8201 33.936 47.8201 35.808C47.8201 39.528 40.0441 42.54 30.4501 42.54Z" fill="white"/>
<path d="M30.5518 32.874C23.2798 32.874 17.3818 30.594 17.3818 27.78C17.3818 26.22 19.1998 24.822 22.0498 23.892C24.0838 24.954 27.1318 25.632 30.5518 25.632C33.9718 25.632 37.0198 24.954 39.0538 23.892C41.9098 24.828 43.7218 26.22 43.7218 27.78C43.7278 30.594 37.8298 32.874 30.5518 32.874Z" fill="white"/>
<path d="M30.5043 24.786C24.8823 24.786 20.3223 22.902 20.3223 20.586C20.3223 18.27 24.8823 16.386 30.5043 16.386C36.1263 16.386 40.6863 18.27 40.6863 20.586C40.6863 22.902 36.1263 24.786 30.5043 24.786Z" fill="white"/>
<circle cx="46" cy="14" r="13.5" fill="white" stroke="#D1DBE0"/>
<path d="M52 22H40.3389V19.7195L45.8423 13.9377C46.5979 13.1238 47.1548 12.4135 47.5131 11.8069C47.8793 11.2003 48.0623 10.6244 48.0623 10.0793C48.0623 9.33446 47.8715 8.7509 47.4898 8.32859C47.1081 7.8986 46.5628 7.6836 45.8539 7.6836C45.0906 7.6836 44.4869 7.94467 44.0428 8.4668C43.6066 8.98126 43.3885 9.66079 43.3885 10.5054H40C40 9.48419 40.2454 8.55126 40.7361 7.70664C41.2347 6.86201 41.9357 6.20167 42.8393 5.72561C43.7429 5.24187 44.7673 5 45.9124 5C47.665 5 49.0243 5.41463 49.9903 6.2439C50.964 7.07317 51.4508 8.24413 51.4508 9.75677C51.4508 10.586 51.2327 11.4307 50.7965 12.2907C50.3603 13.1506 49.6125 14.1527 48.5531 15.2967L44.6855 19.3164H52V22Z" fill="black"/>
</svg>
