<svg width="60" height="60" viewBox="0 0 60 60" fill="none" xmlns="http://www.w3.org/2000/svg">
<path fill-rule="evenodd" clip-rule="evenodd" d="M30 0C46.566 0 60 13.434 60 30C60 46.566 46.566 60 30 60C13.434 60 0 46.566 0 30C0 13.434 13.434 0 30 0Z" fill="#1E1E1E"/>
<path d="M30.4501 42.54C20.8561 42.54 13.0801 39.768 13.0801 36.054C13.0801 34.116 15.1981 32.37 18.5881 31.14C21.2341 32.838 25.6741 33.708 30.7081 33.708C35.6221 33.708 39.9661 32.646 42.6361 31.02C45.8341 32.238 47.8201 33.936 47.8201 35.808C47.8201 39.528 40.0441 42.54 30.4501 42.54Z" fill="white"/>
<path d="M30.5518 32.874C23.2798 32.874 17.3818 30.594 17.3818 27.78C17.3818 26.22 19.1998 24.822 22.0498 23.892C24.0838 24.954 27.1318 25.632 30.5518 25.632C33.9718 25.632 37.0198 24.954 39.0538 23.892C41.9098 24.828 43.7218 26.22 43.7218 27.78C43.7278 30.594 37.8298 32.874 30.5518 32.874Z" fill="white"/>
<path d="M30.5043 24.786C24.8823 24.786 20.3223 22.902 20.3223 20.586C20.3223 18.27 24.8823 16.386 30.5043 16.386C36.1263 16.386 40.6863 18.27 40.6863 20.586C40.6863 22.902 36.1263 24.786 30.5043 24.786Z" fill="white"/>
</svg>
