<svg width="60" height="60" viewBox="0 0 60 60" fill="none" xmlns="http://www.w3.org/2000/svg">
    <circle cx="30" cy="30" r="30" fill="#000D2B"/>
    <path fill-rule="evenodd" clip-rule="evenodd" d="M29.6846 11L21.2688 15.9727L29.6846 20.9474L38.2586 15.9727L29.6846 11ZM31.0685 37.5526V47.5L42.4999 40.9229V30.9737L31.0685 37.5526ZM31.0667 34.0245L39.6426 29.0499V19.1006L31.0667 24.0752V34.0245ZM19 29.0499L27.5759 34.0245V24.0752L19 19.1006V29.0499ZM27.5759 47.5L19 42.5273V42.5254V32.5799L27.5759 37.5526V47.5Z" fill="white"/>
    <circle cx="46" cy="14" r="13.5" fill="white" stroke="#D1DBE0"/>
    <path d="M43.973 12.2166H45.7413C46.5834 12.2166 47.2072 12.0032 47.6129 11.5765C48.0187 11.1497 48.2215 10.5832 48.2215 9.87705C48.2215 9.19419 48.0187 8.66264 47.6129 8.28241C47.2149 7.90218 46.6637 7.71206 45.9595 7.71206C45.3241 7.71206 44.7921 7.89054 44.3634 8.24749C43.9347 8.59668 43.7204 9.05451 43.7204 9.62098H40.402C40.402 8.73636 40.6355 7.94486 41.1024 7.24647C41.577 6.54033 42.2354 5.98938 43.0774 5.59363C43.9271 5.19788 44.861 5 45.8791 5C47.6474 5 49.0329 5.43067 50.0357 6.29201C51.0385 7.14559 51.5399 8.32509 51.5399 9.8305C51.5399 10.6065 51.3064 11.3204 50.8395 11.9722C50.3725 12.624 49.7602 13.1245 49.0023 13.4737C49.9439 13.8152 50.6443 14.3273 51.1036 15.0102C51.5705 15.693 51.804 16.5001 51.804 17.4312C51.804 18.9367 51.2605 20.1433 50.1735 21.0512C49.0942 21.9591 47.6627 22.4131 45.8791 22.4131C44.2103 22.4131 42.8439 21.9669 41.7799 21.0745C40.7235 20.1821 40.1953 19.0026 40.1953 17.536H43.5137C43.5137 18.1723 43.7472 18.6922 44.2142 19.0957C44.6888 19.4992 45.2705 19.701 45.9595 19.701C46.7479 19.701 47.3642 19.4915 47.8081 19.0725C48.2598 18.6457 48.4856 18.0831 48.4856 17.3847C48.4856 15.693 47.567 14.8472 45.7298 14.8472H43.973V12.2166Z" fill="black"/>
</svg>
