<svg width="60" height="60" viewBox="0 0 60 60" fill="none" xmlns="http://www.w3.org/2000/svg">
<circle cx="30" cy="30" r="30" fill="#EDF0F4"/>
<path d="M12 39.48C12 40.668 12.972 41.64 14.16 41.64C15.384 41.64 16.356 40.668 16.356 39.48V38.508C17.688 40.272 19.668 41.856 22.836 41.856C27.336 41.856 31.656 38.292 31.656 31.992V31.92C31.656 25.584 27.3 22.056 22.836 22.056C19.74 22.056 17.76 23.64 16.356 25.62V17.16C16.356 15.936 15.384 15 14.16 15C12.936 15 12 15.936 12 17.16V39.48ZM21.792 38.076C18.84 38.076 16.248 35.628 16.248 31.992V31.92C16.248 28.284 18.84 25.836 21.792 25.836C24.744 25.836 27.228 28.248 27.228 31.92V31.992C27.228 35.736 24.78 38.076 21.792 38.076Z" fill="#00E59D"/>
<path d="M31.2637 39.804C31.2637 40.884 32.1637 41.712 33.2797 41.712C34.0717 41.712 34.6837 41.208 35.1877 40.596L39.7957 34.656L44.4037 40.596C44.9437 41.316 45.5557 41.712 46.4197 41.712C47.4997 41.712 48.4357 40.92 48.4357 39.696C48.4357 39.12 48.1837 38.616 47.7157 38.04L42.3877 31.74L47.5357 25.584C47.8957 25.152 48.1477 24.72 48.1477 24.108C48.1477 23.028 47.2477 22.2 46.0957 22.2C45.3397 22.2 44.7277 22.668 44.2237 23.316L39.8677 28.896L35.5837 23.28C35.0437 22.596 34.4317 22.2 33.5677 22.2C32.4877 22.2 31.5517 22.992 31.5517 24.216C31.5517 24.792 31.8037 25.296 32.2717 25.872L37.2757 31.812L31.8757 38.292C31.4797 38.724 31.2637 39.192 31.2637 39.804Z" fill="#FF0000"/>
</svg>
