<svg width="60" height="60" viewBox="0 0 60 60" fill="none" xmlns="http://www.w3.org/2000/svg">
<circle cx="30" cy="30" r="30" fill="#EDF0F4"/>
<path fill-rule="evenodd" clip-rule="evenodd" d="M34.4543 15.5C36.1461 15.5003 37.8017 15.9902 39.2213 16.9106C40.6408 17.831 41.7636 19.1426 42.4541 20.687C43.1446 22.2315 43.3734 23.9428 43.1128 25.6144C42.8524 27.2861 42.1135 28.8465 40.9856 30.1076C42.0974 31.3506 42.8314 32.885 43.1016 34.5305C43.3718 36.1761 43.1669 37.8647 42.511 39.398C41.8551 40.9312 40.7753 42.2454 39.3986 43.1865C38.0217 44.1274 36.4051 44.6561 34.7383 44.7104L34.4543 44.7151H23.037C22.4002 44.7151 21.8755 44.2336 21.8088 43.6154L21.8018 43.4799V33.9067H27.6448V38.324C27.6448 38.5928 27.8377 38.8172 28.0936 38.8627L28.1918 38.8721H34.4543C35.2138 38.874 35.944 38.5799 36.4905 38.0525C37.0369 37.525 37.3564 36.8055 37.3813 36.0464C37.4063 35.2874 37.1346 34.5485 36.6241 33.9863C36.1134 33.4242 35.4039 33.0829 34.646 33.0349L34.4543 33.0291H28.5213V27.186H34.4543C35.2138 27.1879 35.944 26.8939 36.4905 26.3665C37.0369 25.839 37.3564 25.1195 37.3813 24.3604C37.4063 23.6014 37.1346 22.8624 36.6241 22.3002C36.1134 21.7381 35.4039 21.3968 34.646 21.3489L34.4543 21.343H28.1918C28.0637 21.3429 27.9398 21.3878 27.8415 21.4698C27.7433 21.5518 27.677 21.6658 27.6542 21.7918L27.6448 21.8911V26.3084H21.8018V16.734C21.8018 16.0983 22.2833 15.5748 22.9015 15.507L23.0359 15.5H34.4543ZM27.1949 27.186C27.4123 27.186 27.5923 27.3403 27.6355 27.5448L27.6448 27.636V32.5792C27.6448 32.6828 27.6089 32.7833 27.5434 32.8636C27.4778 32.9439 27.3865 32.999 27.2849 33.0197L27.1949 33.0291H22.2517C22.1482 33.0293 22.0478 32.9937 21.9675 32.9283C21.8871 32.8629 21.8319 32.7717 21.8112 32.6703L21.8018 32.5803V27.636C21.8018 27.4186 21.9561 27.2375 22.1606 27.1954L22.2506 27.186H27.1938H27.1949ZM20.9242 27.186V33.0267H19.7649C17.6322 32.8842 17 30.1076 17 30.1076C17 30.1076 17.5855 27.5319 19.5335 27.2141L19.7649 27.186H20.9242ZM26.1876 28.4178H23.2579C23.2088 28.4177 23.1609 28.4337 23.1219 28.4635C23.0828 28.4933 23.0546 28.5351 23.0417 28.5825L23.0336 28.6421V31.5707C23.0336 31.6735 23.1037 31.7611 23.1972 31.7869L23.2579 31.795H26.1853C26.2893 31.795 26.3758 31.7249 26.4026 31.6314L26.4108 31.5707V30.7234H25.1709C25.0174 30.7228 24.8695 30.665 24.7563 30.5612C24.6431 30.4573 24.5727 30.3151 24.5588 30.1621C24.545 30.0092 24.5886 29.8566 24.6813 29.7341C24.7739 29.6116 24.909 29.5282 25.0599 29.4999L25.1709 29.4905H26.412V28.6421C26.412 28.6126 26.4061 28.5834 26.3948 28.556C26.3835 28.5287 26.3668 28.5039 26.3459 28.4831C26.3249 28.4622 26.3 28.4457 26.2727 28.4345C26.2453 28.4233 26.2172 28.4177 26.1876 28.4178ZM33.3757 29.3678C33.1801 29.3678 32.9927 29.4456 32.8543 29.5838C32.716 29.7222 32.6383 29.9096 32.6383 30.1052C32.6383 30.3009 32.716 30.4883 32.8543 30.6267C32.9927 30.7649 33.1801 30.8426 33.3757 30.8426C33.5713 30.8426 33.7588 30.7649 33.8972 30.6267C34.0354 30.4883 34.1131 30.3009 34.1131 30.1052C34.1131 29.9096 34.0354 29.7222 33.8972 29.5838C33.7588 29.4456 33.5713 29.3678 33.3757 29.3678ZM30.6926 29.3678C30.5958 29.3677 30.4997 29.3868 30.4102 29.4238C30.3207 29.4609 30.2392 29.5151 30.1706 29.5836C30.0322 29.7218 29.9542 29.9095 29.9541 30.1052C29.954 30.301 30.0316 30.4888 30.1698 30.6273C30.3081 30.7657 30.4957 30.8437 30.6915 30.8438C30.8872 30.8439 31.075 30.7663 31.2135 30.6281C31.352 30.4898 31.4299 30.3021 31.43 30.1064C31.4302 29.9107 31.3526 29.7229 31.2143 29.5844C31.0761 29.4459 30.8884 29.368 30.6926 29.3678Z" fill="#FCB251"/>
</svg>
