<svg width="60" height="60" viewBox="0 0 60 60" fill="none" xmlns="http://www.w3.org/2000/svg">
<g clip-path="url(#clip0_12938_101011)">
<path d="M30 60C46.6052 60 60 46.6052 60 30C60 13.3948 46.4945 0 30 0C13.3948 0 0 13.3948 0 30C0 46.4945 13.3948 60 30 60Z" fill="white"/>
<path d="M53.1366 11.2916C51.0332 11.7344 49.0406 12.2879 47.4908 12.62C43.727 13.5056 40.2952 16.2732 39.5203 21.4761C38.8561 26.1256 40.4059 28.1182 39.7417 33.5425C38.524 43.0628 29.4465 46.2732 25.2399 48.2658C22.8044 49.3728 16.8266 52.0296 12.2878 54.0222C17.2694 57.6754 23.358 59.8894 30.1107 59.8894C46.7159 59.8894 60.1107 46.4946 60.1107 29.8894C60.1107 22.8045 57.6753 16.3839 53.5794 11.1809C53.358 11.2916 53.2473 11.2916 53.1366 11.2916Z" fill="url(#paint0_linear_12938_101011)"/>
<path d="M26.5683 25.572C28.893 20.5904 28.0074 20.5904 29.7786 15.8303C31.9926 9.8524 38.8561 11.6236 40.738 11.845C43.8376 12.2878 44.7232 11.1808 51.2546 10.0738C51.5867 10.0738 51.9188 9.9631 52.2509 9.9631C46.7159 3.87454 38.7454 0 29.8893 0C18.0443 0 7.74908 6.97417 2.87823 17.048C12.8413 19.4834 23.4686 24.797 26.5683 25.572ZM20.0369 5.20295C20.9225 5.31365 25.1292 10.6273 25.9041 24.1328C25.9041 24.1328 20.4797 22.8044 19.262 20.0369C18.3764 17.7122 19.5941 14.6125 20.0369 5.20295ZM53.3579 11.2915C53.3579 11.2915 53.2472 11.2915 53.1365 11.2915C53.2472 11.2915 53.3579 11.2915 53.3579 11.2915ZM0 30C0 27.5646 0.332103 25.2399 0.774908 23.0258C1.88192 23.9114 2.98893 24.9077 4.20664 26.1255C12.0664 33.321 24.6863 39.0775 29.3358 33.7638C28.4502 34.8708 25.2399 38.4133 19.1513 37.3063L9.5203 51.8081C3.65314 46.3838 0 38.6347 0 30Z" fill="url(#paint1_linear_12938_101011)"/>
</g>
<defs>
<linearGradient id="paint0_linear_12938_101011" x1="40.7166" y1="17.8104" x2="33.645" y2="56.7683" gradientUnits="userSpaceOnUse">
<stop stop-color="#FF496A"/>
<stop offset="1" stop-color="#E42648"/>
</linearGradient>
<linearGradient id="paint1_linear_12938_101011" x1="17.2161" y1="45.1273" x2="32.8513" y2="0.973173" gradientUnits="userSpaceOnUse">
<stop offset="0.00181229" stop-color="#1158F1"/>
<stop offset="1" stop-color="#119BED"/>
</linearGradient>
<clipPath id="clip0_12938_101011">
<rect width="60" height="60" fill="white"/>
</clipPath>
</defs>
</svg>
