<svg width="60" height="60" viewBox="0 0 60 60" fill="none" xmlns="http://www.w3.org/2000/svg">
<circle cx="30" cy="30" r="30" fill="#EDF0F4"/>
<path d="M16.4046 28.3715C15.62 27.9566 14.9015 27.4288 14.2726 26.8052C13.3004 25.8709 12.6081 24.6877 12.2727 23.3869C11.8048 21.4678 12.4098 19.4471 13.8583 18.0925C14.7159 17.1647 15.9743 16.7073 17.2334 16.8657C18.8008 17.0741 20.1581 18.2294 21.107 19.3253L19.3353 21.8741C18.8794 21.1611 18.2679 20.5585 17.5457 20.1114C17.1793 19.9075 16.7431 19.8669 16.3447 19.9998C15.9465 20.1324 15.6235 20.4262 15.4558 20.8081C14.4828 22.6306 15.8702 24.5124 17.4075 25.501L16.4046 28.3715Z" fill="#C03A2B"/>
<path d="M39.9757 30.5869C38.5343 31.6768 36.4683 32.3318 33.832 32.1949C31.9163 32.0936 30.8172 31.6649 30.1866 31.0158C28.457 29.247 30.2468 25.8881 28.4091 23.4463C26.9836 21.6488 24.7357 20.6911 22.4394 20.9035C21.9169 19.635 21.7968 18.6285 22.1573 18.0389C22.1573 18.0329 22.1573 18.0329 22.1632 18.027V18.021C22.2085 17.9524 22.2609 17.8885 22.3193 17.8304C23.8449 16.3177 29.6402 19.6171 35.2734 25.1973C36.9757 26.8735 38.5477 28.6753 39.9757 30.5869Z" fill="#BDC3C7"/>
<g filter="url(#filter0_d)">
<path d="M42.4924 38.2039C40.1201 40.2286 28.3071 49.4537 19.5572 40.7766C15.6234 36.8818 15.3411 32.3676 16.4042 28.3715C16.6661 27.3912 17.0013 26.4318 17.4071 25.5009C17.9579 24.2462 18.6022 23.0339 19.3348 21.8741C19.9595 20.8737 20.584 20.0041 21.1065 19.3252C21.539 18.7654 21.8993 18.3307 22.1574 18.0389C21.7971 18.6285 21.9172 19.635 22.4397 20.9035C23.4846 23.4582 26.1452 27.097 29.7485 30.6704C29.8806 30.8013 30.0127 30.9264 30.1448 31.0573C35.4178 36.179 40.7446 39.252 42.4924 38.2039Z" fill="#F3F2F2"/>
</g>
<path d="M39.9759 30.5869C38.5477 28.6753 36.9757 26.8735 35.2734 25.1973C29.6402 19.6171 23.8449 16.3177 22.3193 17.8304C22.2609 17.8885 22.2085 17.9524 22.1632 18.021V18.027C22.1573 18.0329 22.1573 18.0329 22.1573 18.0389C21.7968 18.6285 21.9169 19.635 22.4394 20.9035C23.4844 23.4583 26.1449 27.097 29.7483 30.6704C29.8804 30.8013 30.0125 30.9264 30.1446 31.0574C35.4176 36.179 40.7444 39.252 42.4921 38.2039L39.9759 30.5869Z" fill="#BDC3C7"/>
<path d="M39.5141 17.6204C40.2175 16.9228 39.8374 15.4147 38.665 14.252C37.4924 13.0893 35.9717 12.7123 35.2682 13.4099C34.5647 14.1075 34.945 15.6156 36.1174 16.7783C37.2898 17.941 38.8105 18.318 39.5141 17.6204Z" fill="#4A2B17"/>
<path d="M27.1962 38.2635C25.5207 39.9308 23.2147 40.4013 21.7373 39.4784C22.7943 38.3764 21.9895 37.5428 23.1005 36.447C24.2296 35.3216 25.0764 36.1611 26.2114 35.0415C27.3164 33.9399 26.5116 33.1119 27.5746 32.0103C27.7439 32.1183 27.9009 32.2441 28.0431 32.3855C29.4425 33.7791 29.07 36.4113 27.1962 38.2635Z" fill="#640808"/>
<path d="M27.5746 32.0102C26.5117 33.112 27.3163 33.9399 26.2114 35.0415C25.0764 36.161 24.2295 35.3215 23.1005 36.4471C21.9894 37.5427 22.7942 38.3766 21.7372 39.4784C21.568 39.3701 21.411 39.2444 21.2688 39.1031C19.8635 37.7096 20.2419 35.0771 22.1156 33.225C23.7912 31.5576 26.0972 31.0871 27.5746 32.0102Z" fill="#9C2222"/>
<path d="M30.1867 31.0158L30.1446 31.0574C30.0125 30.9264 29.8804 30.8013 29.7483 30.6704C26.145 27.0971 23.4844 23.4582 22.4395 20.9035C24.7357 20.6911 26.9836 21.6488 28.4091 23.4463C30.2468 25.8881 28.4571 29.247 30.1867 31.0158Z" fill="#4A2B17"/>
<path d="M39.9759 30.5869C38.5477 28.6753 36.9757 26.8735 35.2734 25.1973C29.6402 19.6171 23.8449 16.3177 22.3193 17.8304C22.2609 17.8885 22.2085 17.9524 22.1632 18.021V18.027C22.1573 18.0329 22.1573 18.0329 22.1573 18.0389C21.7968 18.6285 21.9169 19.635 22.4394 20.9035C23.4844 23.4583 26.1449 27.097 29.7483 30.6704C29.8804 30.8013 30.0125 30.9264 30.1446 31.0574C35.4176 36.179 40.7444 39.252 42.4921 38.2039C43.11 37.7604 42.2099 36.2446 42.2099 36.2446L39.9759 30.5869ZM30.9854 30.2058L30.5951 29.8306C30.1687 29.4077 29.7603 28.9849 29.352 28.5561C26.7995 25.8346 24.7456 23.0415 23.7547 20.9272C23.6827 20.7665 23.6106 20.6116 23.5506 20.4567C23.2811 19.9231 23.1471 19.3323 23.1602 18.7356L23.2442 18.6642C23.2959 18.656 23.3481 18.6521 23.4004 18.6523C25.1301 18.6523 29.58 21.2428 34.4266 26.043C36.0383 27.6328 37.5316 29.3366 38.8947 31.1409L38.9308 31.242L40.8645 37.0962C39.207 36.6495 36.3423 34.9522 33.0934 32.1353C32.4029 31.5457 31.7 30.8966 30.9854 30.2058Z" fill="#ECF0F1"/>
<path d="M46.9305 28.3417C46.8472 30.8359 46.1525 33.2724 44.9065 35.4406C44.2782 36.4815 43.1639 37.139 41.9416 37.1909H41.9207C41.5305 37.2135 41.1392 37.1715 40.7629 37.0664C40.0317 36.8319 39.3273 36.5226 38.661 36.1434C38.2225 35.8992 37.754 35.6193 37.2557 35.2976C35.7948 34.3421 34.4043 33.2854 33.0938 32.1353C33.328 32.1591 33.5741 32.183 33.8323 32.1949C36.4687 32.3318 38.5346 31.6768 39.9761 30.5869C42.43 28.8293 43.0915 25.4871 41.4896 22.9401C38.9851 18.7773 47.4231 18.7177 46.9305 28.3417Z" fill="#4A2B17"/>
<path d="M42.6067 33.4992C41.5707 34.7334 40.2023 35.6504 38.6612 36.1434C38.2226 35.8992 37.7542 35.6193 37.2559 35.2976C38.9822 34.9691 40.5438 34.0655 41.6817 32.7368C41.894 32.4836 42.2731 32.4489 42.5286 32.6593C42.784 32.8698 42.8188 33.2458 42.6067 33.4992Z" fill="#805333"/>
<defs>
<filter id="filter0_d" x="11.8721" y="18.0389" width="34.6203" height="34.3941" filterUnits="userSpaceOnUse" color-interpolation-filters="sRGB">
<feFlood flood-opacity="0" result="BackgroundImageFix"/>
<feColorMatrix in="SourceAlpha" type="matrix" values="0 0 0 0 0 0 0 0 0 0 0 0 0 0 0 0 0 0 127 0" result="hardAlpha"/>
<feOffset dy="4"/>
<feGaussianBlur stdDeviation="2"/>
<feColorMatrix type="matrix" values="0 0 0 0 0 0 0 0 0 0 0 0 0 0 0 0 0 0 0.25 0"/>
<feBlend mode="normal" in2="BackgroundImageFix" result="effect1_dropShadow"/>
<feBlend mode="normal" in="SourceGraphic" in2="effect1_dropShadow" result="shape"/>
</filter>
</defs>
</svg>
