<svg width="60" height="60" viewBox="0 0 60 60" fill="none" xmlns="http://www.w3.org/2000/svg">
<circle cx="30" cy="30" r="30" fill="#EDF0F4"/>
<path fill-rule="evenodd" clip-rule="evenodd" d="M16.3201 16.7735C18.4681 15.6648 22.68 14.5302 25.938 14.1828C28.533 13.9062 33.8693 13.9508 35.9946 14.2671C41.7526 15.1237 46.7839 17.0315 49.2251 19.2839C49.9918 19.9913 51 21.472 51 21.8906C51 22.0911 49.1354 22.1381 41.2083 22.1381H31.4165L33.6432 25.4735C34.8679 27.3078 35.8311 28.8484 35.784 28.8968C35.7366 28.9455 33.71 28.9916 31.2804 28.9996C25.4013 29.0187 21.5634 28.4135 17.7445 26.8651C13.3332 25.0767 11.1916 22.5323 12.2797 20.3725C12.9981 18.9467 14.2216 17.857 16.3201 16.7735ZM25.9957 17.4456C26.0373 17.1483 25.899 16.952 25.4963 16.7384C24.8268 16.383 23.1583 16.3549 22.5163 16.6883C22.2133 16.8457 22.0539 17.0881 22.0539 17.3919C22.0539 18.0134 22.717 18.3356 23.996 18.3356C25.1971 18.3356 25.9158 18.0157 25.9957 17.4456ZM39.7478 19.1537C40.2148 18.6745 40.0804 18.1055 39.4278 17.8004C39.1706 17.6801 38.4694 17.5817 37.8696 17.5817C37.0047 17.5817 36.6784 17.6702 36.2943 18.0095C35.6902 18.5427 35.8136 18.9576 36.7054 19.3919C37.5912 19.8235 39.2198 19.6959 39.7478 19.1537ZM32.5041 19.4738C32.7442 19.3088 32.7332 19.2454 32.4225 19.002C31.9572 18.6375 30.4024 18.631 30.1103 18.9923C29.935 19.2091 29.9653 19.3048 30.2605 19.4669C30.7253 19.7223 32.1358 19.7267 32.5041 19.4738ZM21.0174 24.5215C22.0187 23.99 21.8972 23.2788 20.7188 22.7732C19.3115 22.1695 17.2986 22.7028 17.1859 23.7094C17.1338 24.1756 17.2276 24.2819 18.0005 24.633C18.9643 25.0706 20.0591 25.0302 21.0174 24.5215ZM30.9168 26.7692C31.2939 26.6207 31.2939 26.1989 30.9168 26.0504C30.7558 25.987 30.2122 25.9352 29.7088 25.9352C28.799 25.9352 28.4242 26.2158 28.7069 26.6855C28.8356 26.899 30.4335 26.9596 30.9168 26.7692Z" fill="#FCCD35"/>
<path fill-rule="evenodd" clip-rule="evenodd" d="M37.3408 37L44.2308 36.977C48.1194 36.9639 51.3417 36.9131 51.3917 36.8642C51.4417 36.8153 51.6131 35.8033 51.7725 34.6152C51.9886 33.005 52.0394 31.4829 51.9725 28.6366C51.923 26.5365 51.8216 24.634 51.747 24.4091L51.6118 24H42.8058C37.9627 24 34 24.0473 34 24.1053C34 24.1631 34.9236 25.5335 36.0526 27.1509L38.1053 30.0912L37.3408 30.1915V37ZM45.9209 30.2648C47.5855 30.2648 48.4206 28.0806 47.2091 26.8952C46.4801 26.1819 45.179 26.1376 44.4992 26.8027C43.1628 28.1102 44.0476 30.2648 45.9209 30.2648ZM43.0217 34.4632C43.6012 33.8965 43.6168 33.0817 43.0598 32.4718C42.0775 31.3963 40.5045 31.9518 40.5045 33.3743C40.5045 34.7574 42.0416 35.4223 43.0217 34.4632ZM47.9559 34.0543C48.776 34.5565 49.7175 33.6023 49.2484 32.7446C49.0005 32.2915 47.8051 32.1998 47.6397 32.6215C47.4676 33.0604 47.6449 33.8639 47.9559 34.0543Z" fill="#FFD538"/>
<path d="M10.3807 35.5955C9.89412 33.7512 9.87153 29.6162 10.327 25.7606C10.5064 24.2424 10.7137 23 10.788 23C10.8624 23 11.0385 23.2701 11.1796 23.6002C11.5293 24.4187 13.3617 26.1374 14.7134 26.9149C17.0158 28.239 20.9355 29.4118 25.1607 30.0405C26.97 30.3096 28.4717 30.3796 32.0148 30.3598C34.5102 30.3459 37.0989 30.2634 37.7673 30.1766L37.9954 30.1469L38 45.8168L37.3186 45.9407C36.9439 46.009 34.359 46.0198 31.5748 45.9652C25.9542 45.8546 23.7494 45.5703 20.314 44.5136C17.2492 43.5706 15.1866 42.4329 13.3766 40.6868C11.6493 39.0207 10.9877 37.8963 10.3807 35.5955Z" fill="#FFC31A"/>
</svg>
