<svg width="60" height="60" viewBox="0 0 60 60" fill="none" xmlns="http://www.w3.org/2000/svg">
<circle cx="30" cy="30" r="30" fill="#212121"/>
<g clip-path="url(#clip0)">
<path d="M46 37.5439V41.3121C45.9996 42.5552 45.5057 43.7472 44.6268 44.6263C43.7479 45.5053 42.5559 45.9995 41.3128 46H15.938V37.5625H14V33.8121H25.3124V34.7497C25.3136 35.4952 25.6102 36.2099 26.1373 36.7372C26.6644 37.2644 27.3789 37.5612 28.1245 37.5625H44.1248L46 37.5439Z" fill="#D25254"/>
<path d="M30.9377 14H29.0625V37.5625H30.9377V14Z" fill="#D25254"/>
<path d="M34.6872 14H30V19.6877H34.6872V14Z" fill="#E2C159"/>
<path d="M30.0001 14H25.25V19.6877H30.0001V14Z" fill="#E2C159"/>
<path d="M42.2187 21.4999H30V31.0251H42.2187V21.4999Z" fill="#E2C159"/>
<path d="M29.9998 21.4999H17.7812V31.0251H29.9998V21.4999Z" fill="#E2C159"/>
</g>
<defs>
<clipPath id="clip0">
<rect width="32" height="32" fill="white" transform="translate(14 14)"/>
</clipPath>
</defs>
</svg>
