<svg width="60" height="60" viewBox="0 0 60 60" fill="none" xmlns="http://www.w3.org/2000/svg">
<circle cx="30" cy="30" r="30" fill="#EDF0F4"/>
<path d="M35.4241 43.296C35.5841 43.216 35.9361 43.376 35.8881 43.024C35.8081 42.416 36.0481 42.24 36.6401 42.272C37.0241 42.288 37.2481 42.032 37.1841 41.6C37.1041 41.088 37.2321 40.768 37.8401 40.864C38.1761 40.912 38.3521 40.752 38.3041 40.416C38.2081 39.808 38.5281 39.696 39.0401 39.744C39.2801 39.76 39.6641 39.824 39.5841 39.408C39.3921 38.4 40.0161 38.416 40.6881 38.464C40.8801 37.632 40.8801 37.632 41.8241 37.376C41.8721 37.36 41.9361 37.344 41.9841 37.328C42.1601 37.184 42.0801 36.976 42.0801 36.816C42.0801 36.4 42.2081 36.144 42.6721 36.176C43.0081 36.192 43.2161 36.112 43.2321 35.712C43.2641 35.184 43.6161 35.04 44.1121 35.04C45.2801 35.04 46.4321 35.12 47.6001 34.992C47.7121 34.992 47.8081 34.992 47.9201 34.992C48.2081 35.36 48.1921 35.728 47.9201 36.096H47.9041C47.1841 36.224 46.9921 36.8 46.8001 37.376C46.2081 37.568 45.6321 37.776 45.5201 38.512C44.7841 38.624 44.5761 39.2 44.4001 39.808H44.4161C44.3201 39.872 44.2241 39.936 44.1121 39.952C43.6641 39.968 43.2641 40.016 43.2961 40.608C43.2641 40.72 43.2001 40.816 43.1361 40.912H43.1201C42.4001 41.024 42.2081 41.6 42.0161 42.192C41.4241 42.368 40.8481 42.576 40.7361 43.312C40.0001 43.44 39.8081 44.016 39.6161 44.608C39.0241 44.8 38.4481 44.992 38.3361 45.728C37.6001 45.84 37.4081 46.416 37.2161 47.008C36.9121 47.28 36.5281 47.264 36.1601 47.264C30.4641 47.264 24.7681 47.264 19.0881 47.264C18.7201 47.264 18.3361 47.28 18.0321 47.008C17.8881 46.288 17.4561 45.856 16.7361 45.728V45.744C16.7041 45.68 16.6561 45.616 16.6241 45.568C16.5441 45.232 16.5921 44.784 16.0321 44.816C15.8721 44.8 15.7441 44.736 15.6161 44.64H15.6321C15.5041 43.936 15.0881 43.488 14.3681 43.344H14.3521C14.1921 42.752 13.8081 42.384 13.2161 42.24L13.2321 42.256C13.1041 41.536 12.6721 41.104 11.9521 40.96H11.9681C11.7121 40.64 11.7121 40.272 11.7121 39.904C11.7121 35.008 11.7121 30.128 11.7121 25.232C11.7121 24.864 11.6961 24.48 11.9681 24.176L11.9841 24.16C12.5761 23.984 13.1361 23.76 13.2481 23.04H13.2321C13.9681 22.928 14.1761 22.352 14.3521 21.76C14.9441 21.568 15.5201 21.36 15.6321 20.624V20.64C16.3681 20.528 16.5761 19.952 16.7521 19.36C17.3441 19.168 17.9041 18.96 18.0321 18.24C18.7681 18.128 18.9601 17.536 19.1521 16.96L19.1201 16.88C19.7121 16.688 20.2881 16.496 20.4161 15.76C21.1521 15.648 21.3441 15.056 21.5361 14.464C22.3201 14.096 23.1041 14.128 23.8881 14.416C24.1121 15.232 23.7281 16.096 24.1121 16.88C24.4641 17.056 25.1361 16.704 25.1521 17.488C25.1681 18.288 24.4801 17.936 24.1441 18.128C23.8721 18.288 23.9681 18.56 23.9841 18.768C24.0161 19.152 23.8721 19.312 23.4881 19.264C22.9441 19.184 22.7681 19.424 22.8481 19.92C22.9441 20.496 22.6241 20.576 22.1601 20.56C21.9361 20.56 21.5201 20.416 21.5841 20.848C21.6801 21.616 21.2961 21.744 20.6721 21.68C20.5921 21.664 20.5121 21.776 20.4161 21.824C20.3521 21.92 20.3201 22.016 20.3521 22.128C20.4481 22.72 20.2081 22.96 19.6161 22.864C19.5201 22.848 19.4081 22.864 19.3121 22.928C19.0241 23.168 19.2001 23.472 19.1841 23.744C19.1841 23.776 19.1681 23.808 19.1681 23.824C18.4961 24.08 17.7601 24.256 17.9521 25.264C17.9681 25.376 17.6801 25.328 17.5361 25.36C17.2641 25.424 16.9601 25.216 16.7361 25.52C16.7521 26.144 16.4481 26.464 15.8081 26.448C15.6001 26.56 15.6321 26.768 15.6321 26.944C15.6321 28.16 15.6481 29.392 15.6161 30.608C15.6161 31.056 15.6961 31.344 16.2241 31.264C16.6561 31.184 16.7841 31.408 16.7521 31.808C16.7361 32.16 16.7201 32.496 16.7521 32.848C16.8001 33.408 16.7201 33.808 16.0161 33.68C15.6801 33.616 15.6321 33.84 15.6321 34.112C15.6321 35.408 15.6481 36.72 15.6321 38.016C15.6321 38.48 15.8881 38.48 16.1921 38.448C16.6561 38.4 16.8001 38.608 16.7681 39.04C16.7361 39.328 16.7841 39.632 16.7521 39.92C16.6881 40.576 16.8001 40.992 17.6161 40.864C18.1441 40.784 18.0481 41.232 18.0321 41.504C18.0001 41.968 18.1281 42.224 18.6401 42.128C19.0881 42.048 19.2161 42.304 19.1681 42.688C19.1041 43.168 19.3441 43.264 19.7761 43.248C20.5761 43.216 21.3761 43.264 22.1761 43.232C22.6561 43.216 22.9601 43.296 22.8641 43.872C22.7681 44.4 23.0081 44.56 23.5201 44.528C24.2881 44.496 25.0561 44.496 25.8401 44.528C26.2561 44.544 26.4481 44.432 26.3681 44C26.2561 43.344 26.5441 43.152 27.1681 43.248C27.4081 43.28 27.6481 43.264 27.8881 43.248C28.5281 43.168 28.9441 43.312 28.8001 44.08C28.7841 44.128 28.7681 44.208 28.8001 44.24C29.3441 44.88 30.0641 44.384 30.6881 44.528C31.0401 44.608 31.2481 44.448 31.1841 44.048C31.0561 43.36 31.3921 43.2 32.0161 43.232C32.4321 43.248 32.5281 43.424 32.4641 43.76C32.3521 44.416 32.6721 44.608 33.2641 44.528C33.8081 44.448 34.3681 44.688 34.8801 44.368C35.1521 44.096 34.8161 43.424 35.4241 43.296Z" fill="#0081BC"/>
<path d="M18 46.96C24.4 46.96 30.8 46.96 37.2 46.96C37.168 48.08 37.168 48.064 36.064 48.064C30.416 48.064 24.768 48.048 19.12 48.048C18.048 48.048 18.048 48.048 18 46.96Z" fill="#03BFFD"/>
<path d="M11.936 24.096C11.936 29.696 11.936 35.296 11.936 40.896C10.768 40.816 10.848 41.12 10.848 39.76C10.848 34.896 10.848 30.048 10.848 25.184C10.832 24.096 10.832 24.096 11.936 24.096Z" fill="#06BDFB"/>
<path d="M25.2482 13.344C25.2322 13.152 25.2322 12.976 25.2162 12.784C25.1522 12.288 25.2962 12.064 25.8562 12.08C27.3922 12.112 28.9442 12.112 30.4802 12.08C31.0562 12.064 31.1202 12.336 31.1362 12.8C31.1522 13.296 30.9282 13.376 30.5122 13.36C29.9202 13.344 29.3442 13.36 28.7522 13.376C27.6802 13.808 26.5762 13.6 25.4882 13.52C25.3922 13.488 25.3122 13.424 25.2482 13.344Z" fill="#0DBEF8"/>
<path d="M28.6878 19.312C28.6878 19.712 28.6718 20.128 28.6718 20.528C28.6238 20.608 28.5598 20.672 28.4798 20.704C28.2078 20.816 27.9198 20.8 27.6318 20.784C27.0718 20.768 26.6558 20.816 26.4478 21.488C26.2878 22.016 25.7598 21.936 25.3118 21.76C25.2798 21.728 25.2478 21.696 25.2158 21.664C25.2318 21.088 25.2798 20.496 25.2318 19.92C25.1838 19.36 25.4238 19.248 25.9198 19.28C26.8318 19.328 27.7598 19.296 28.6878 19.312Z" fill="#0BBFF9"/>
<path d="M25.3761 13.376C26.4961 13.376 27.6161 13.376 28.7361 13.376C28.7041 14.48 28.7041 14.448 27.5681 14.496C27.1521 14.512 26.6881 14.32 26.2881 14.656C26.1761 14.832 26.2241 15.024 26.2241 15.2C26.2241 15.456 26.2081 15.68 25.8561 15.68C25.5201 15.68 25.2641 15.568 25.2801 15.184C25.3121 14.592 25.1841 13.984 25.3761 13.376Z" fill="#0180B9"/>
<path d="M23.8715 14.432C23.0875 14.448 22.3035 14.464 21.5195 14.48C21.6475 14.128 21.3115 13.536 21.7755 13.44C22.4315 13.296 23.1515 13.264 23.7915 13.488C24.0475 13.584 23.9035 14.112 23.8715 14.432Z" fill="#02BFFB"/>
<path d="M23.9199 22.96C23.9679 21.728 23.9679 21.728 25.1999 21.68L25.2159 21.696C25.5039 22.112 25.5359 22.576 25.2159 22.944C24.8959 23.296 24.4479 23.232 24.0319 23.056C23.9839 23.024 23.9519 22.992 23.9199 22.96Z" fill="#04BFFA"/>
<path d="M11.9196 40.88C13.4076 40.864 13.2156 40.704 13.1996 42.176C13.0876 42.176 12.9916 42.16 12.8796 42.176C12.1116 42.288 11.8076 41.968 11.9356 41.216C11.9516 41.088 11.9196 40.992 11.9196 40.88Z" fill="#1ABCF2"/>
<path d="M14.3361 43.28C15.8081 43.28 15.6001 43.088 15.6001 44.576C15.5681 44.576 15.5521 44.576 15.5201 44.576C14.3201 44.464 14.3201 44.464 14.3361 43.28Z" fill="#04BFF8"/>
<path d="M16.7197 45.68C18.2397 45.664 17.9997 45.52 18.0157 46.96C16.7517 46.928 16.7517 46.928 16.7197 45.68Z" fill="#11BDF7"/>
<path d="M21.5195 25.36C21.5675 24.128 21.5675 24.128 22.7995 24.08C22.8315 24.112 22.8635 24.144 22.9115 24.192C23.3435 25.264 22.6715 25.888 21.6475 25.472C21.5995 25.424 21.5515 25.392 21.5195 25.36Z" fill="#10BDF7"/>
<path d="M44.4007 39.76C44.4007 39.712 44.4007 39.648 44.4007 39.6C44.3847 38.448 44.3847 38.448 45.5367 38.464C45.5207 38.88 45.5047 39.296 45.4887 39.712C45.1207 39.744 44.7527 39.76 44.4007 39.76Z" fill="#11BEF8"/>
<path d="M37.1994 46.96C37.1994 46.912 37.1994 46.848 37.1994 46.8C37.1834 45.488 37.1034 45.68 38.3194 45.68C38.3194 45.712 38.3194 45.728 38.3194 45.76C38.3034 46.896 38.3034 46.896 37.1994 46.96Z" fill="#06BFF8"/>
<path d="M21.5194 14.48C21.5194 14.528 21.5194 14.592 21.5194 14.64C21.5194 15.904 21.6634 15.776 20.3994 15.776C20.3994 15.728 20.4154 15.68 20.4154 15.616C20.4314 14.512 20.4314 14.512 21.5194 14.48Z" fill="#0EBEF6"/>
<path d="M38.3205 45.664C38.3205 44.432 38.1125 44.528 39.6005 44.544C39.5525 45.632 39.5525 45.632 38.3205 45.664Z" fill="#06BEFB"/>
<path d="M13.2163 22.944C13.2003 24.192 13.4243 24.08 11.9523 24.064C11.9363 23.008 11.9363 23.008 13.2163 22.944Z" fill="#02BDFC"/>
<path d="M39.6004 44.56C39.6004 44.512 39.6004 44.448 39.6004 44.4C39.6004 43.088 39.5044 43.28 40.7204 43.264C40.7204 43.312 40.7204 43.36 40.7204 43.424C40.7044 44.736 40.8164 44.512 39.6004 44.56Z" fill="#0DBFF3"/>
<path d="M40.7203 43.28C40.7043 41.968 40.6083 42.144 42.0003 42.16C41.9843 43.248 41.9843 43.248 40.7203 43.28Z" fill="#13BDF5"/>
<path d="M42.0003 42.16C42.0003 42.112 42.0003 42.064 42.0003 42C41.9843 40.864 41.9843 40.864 43.1043 40.88C43.1043 40.912 43.1043 40.928 43.1043 40.96C43.1043 42.08 43.1043 42.08 42.0003 42.16Z" fill="#03C1FA"/>
<path d="M20.4005 15.76C20.4005 17.024 20.5765 16.896 19.1045 16.88C19.1685 15.808 19.1685 15.808 20.4005 15.76Z" fill="#17BDF4"/>
<path d="M14.3206 21.68C14.3206 21.728 14.3206 21.792 14.3206 21.84C14.3366 22.976 14.3366 22.976 13.1846 22.96C13.1846 22.912 13.1846 22.848 13.1846 22.8C13.2326 21.696 13.2326 21.696 14.3206 21.68Z" fill="#13BDF5"/>
<path d="M19.12 16.88C19.12 16.928 19.12 16.992 19.12 17.04C19.12 18.272 19.28 18.176 18 18.176C18 18.128 18 18.064 18 18.016C18.08 16.72 17.872 16.944 19.12 16.88Z" fill="#01BFFD"/>
<path d="M16.72 19.28C16.72 19.328 16.72 19.392 16.72 19.44C16.72 20.752 16.816 20.56 15.584 20.56C15.584 20.512 15.584 20.448 15.584 20.4C15.696 19.12 15.488 19.36 16.72 19.28Z" fill="#02C0FA"/>
<path d="M15.5993 20.544C15.5993 21.84 15.7593 21.68 14.3193 21.68C14.3673 20.56 14.3673 20.56 15.5993 20.544Z" fill="#13BEF3"/>
<path d="M17.9997 18.16C17.9837 19.408 18.2237 19.28 16.7197 19.28C16.7517 18.224 16.7517 18.224 17.9997 18.16Z" fill="#00BFFA"/>
<path d="M22.7998 24.064C22.8478 22.992 22.8478 22.992 23.9198 22.944L23.9358 22.96C24.2078 23.344 24.2398 23.776 23.9038 24.096C23.5998 24.384 23.1838 24.368 22.8318 24.08L22.7998 24.064Z" fill="#00C1FB"/>
<path d="M20.4163 26.464C20.5283 26.08 20.1443 25.568 20.7363 25.328C21.0083 25.328 21.2643 25.344 21.5363 25.344L21.5683 25.376C21.8403 25.776 21.8563 26.192 21.5043 26.512C21.1683 26.8 20.7683 26.784 20.4163 26.464Z" fill="#16BDF2"/>
<path d="M13.1992 42.16C14.3512 42.128 14.3512 42.128 14.3352 43.264C13.2472 43.264 13.2472 43.264 13.1992 42.16Z" fill="#19BBF3"/>
<path d="M16.7193 45.504C16.7193 45.568 16.7033 45.632 16.7033 45.696C15.5673 45.648 15.5673 45.936 15.5833 44.592C15.7433 44.592 15.9033 44.592 16.0633 44.576C16.3033 44.864 16.4793 45.216 16.7193 45.504Z" fill="#41B8E7"/>
<path d="M25.376 13.376C25.376 13.872 25.36 14.384 25.36 14.88C25.36 15.216 25.36 15.568 25.808 15.568C26.288 15.584 26.112 15.168 26.16 14.928C26.176 14.832 26.256 14.752 26.288 14.656C26.208 15.104 26.704 15.872 25.648 15.776C25.328 15.744 25.168 15.664 25.168 15.312C25.2 14.656 25.2 13.984 25.216 13.328C25.296 13.36 25.344 13.376 25.376 13.376Z" fill="#1C7893"/>
<path d="M44.0791 39.776C44.1911 39.776 44.2871 39.776 44.3991 39.776C44.3831 40.976 44.6071 40.896 43.1191 40.88C43.1191 40.768 43.1191 40.672 43.1191 40.56C43.5671 40.448 43.8711 40.176 44.0791 39.776Z" fill="#4AB7DB"/>
<path d="M24.1117 18.16C24.1757 18.112 24.2237 18.032 24.3037 18.032C24.6397 17.984 25.0397 18.048 25.0397 17.536C25.0397 17.024 24.6237 17.088 24.2877 17.056C24.2237 17.056 24.1597 16.976 24.0957 16.928C24.5917 16.944 25.2797 16.56 25.2317 17.616C25.1837 18.592 24.5117 18.048 24.1117 18.16Z" fill="#277490"/>
<path d="M19.2959 22.944C19.9839 22.912 20.3199 22.512 20.3999 21.856C20.4319 23.024 20.4319 23.024 19.2959 22.944Z" fill="#187795"/>
<path d="M20.4161 26.464C21.4881 26.496 21.4881 26.496 21.5521 25.376C22.7681 25.328 22.7681 25.328 22.8321 24.08C23.9041 24.048 23.9041 24.048 23.9361 22.96C25.1841 22.928 25.1841 22.928 25.2161 21.68C25.7921 21.664 26.4801 21.824 26.3521 20.832C26.3201 20.544 26.6081 20.56 26.8161 20.56C27.3921 20.56 27.9681 20.56 28.5441 20.56C28.7681 21.088 28.7201 21.472 28.0161 21.472C27.8561 21.472 27.7121 21.52 27.6321 21.696C27.6161 21.744 27.6001 21.808 27.5841 21.856C27.4401 22.576 27.5681 23.312 27.5041 24.048C26.8641 24.256 26.4481 24.672 26.3681 25.36C25.7601 25.52 25.3601 25.888 25.2161 26.512C24.3681 26.56 24.1281 27.216 23.8561 27.856C23.1841 28 23.0401 28.464 23.0401 29.104C23.0561 31.424 23.0721 33.728 23.0401 36.048C23.0561 36.48 23.0561 36.912 23.0401 37.344C22.9761 37.984 23.2801 38.256 23.9201 38.24C26.3681 38.224 28.8161 38.24 31.2641 38.224C31.6001 38.224 31.9841 38.256 32.1441 37.84C32.1761 37.712 32.2081 37.584 32.2561 37.472C32.2881 37.392 32.3361 37.328 32.4161 37.28C32.5921 37.184 32.7841 37.168 32.9761 37.136C33.5201 37.008 33.2161 36.48 33.3921 36.192C33.4241 36.128 33.4721 36.064 33.5361 36.016C33.7121 35.904 33.9041 35.888 34.0961 35.872C34.7041 35.904 34.5441 35.36 34.6881 35.056C34.7201 34.992 34.7841 34.928 34.8321 34.88C35.6641 34.864 35.6481 34.112 35.9361 33.616C36.2241 33.44 36.5441 33.424 36.8481 33.456C37.6001 33.552 38.1121 33.328 38.3041 32.544C39.0881 32.176 39.8721 32.192 40.6721 32.528C40.6881 32.944 40.7041 33.36 40.7201 33.776C40.7201 34.928 40.7201 34.928 39.5681 34.976C38.9441 35.104 38.4641 35.392 38.3201 36.08C37.6001 36.192 37.3761 36.752 37.2001 37.344V37.36C36.6081 37.552 36.0481 37.76 35.9201 38.48C35.1841 38.592 34.9921 39.168 34.8001 39.76C34.2081 39.952 33.6321 40.16 33.5201 40.88C33.1361 41.152 32.7681 41.152 32.3841 40.88C32.0801 40.656 32.3361 40 31.7441 40C31.1681 40 31.4081 40.656 31.1041 40.88C30.3041 41.264 29.4881 41.264 28.6881 40.88C28.4641 40.384 28.3201 39.952 27.5681 39.936C26.8001 39.92 26.5121 40.288 26.3041 40.88C25.1201 41.28 23.9521 41.28 22.7681 40.88V40.864C22.5761 40.064 22.0161 39.888 21.2801 39.968C20.9761 40 20.6401 39.984 20.3841 39.76C20.1921 39.552 20.1281 39.28 20.1601 39.008C20.2721 38.144 20.0481 37.52 19.0881 37.344C18.6881 36.112 18.6881 34.88 19.0881 33.648L19.0721 33.664C19.1361 33.616 19.2001 33.568 19.2641 33.536C19.5361 33.392 19.9681 33.552 20.0801 33.152C20.1921 32.72 20.2081 32.24 20.0801 31.808C19.9361 31.328 19.3441 31.6 19.0881 31.28C18.7041 30.48 18.7201 29.664 19.0881 28.864C19.2321 28.752 19.4081 28.672 19.5841 28.656C20.0321 28.624 20.1281 28.336 20.1441 27.952C20.1761 27.456 20.0161 26.944 20.3681 26.496L20.4161 26.464Z" fill="#0081BC"/>
<path d="M35.8881 30.144C35.9201 30.944 35.9361 31.76 35.9681 32.56C35.9361 32.592 35.9201 32.608 35.8881 32.64C35.2001 32.656 34.9921 33.136 34.8481 33.696C34.7841 33.744 34.7201 33.808 34.6401 33.808C33.9201 33.776 33.6801 34.192 33.6481 34.832C33.6161 34.912 33.5681 34.96 33.5041 35.008C32.7841 35.008 32.5921 35.552 32.4161 36.112C32.3361 36.176 32.2561 36.208 32.1601 36.24C29.6001 36.384 27.0561 36.288 24.4961 36.288C24.2881 36.288 24.0801 36.24 23.9041 36.096C23.7441 35.904 23.6961 35.664 23.6961 35.424C23.6801 33.392 23.6481 31.344 23.7121 29.312C23.7121 29.2 23.7441 29.104 23.7761 29.008C23.8241 28.88 23.9201 28.784 24.0481 28.72C24.4001 28.576 25.0081 28.8 25.0081 28.096C25.0241 27.984 25.0561 27.872 25.1041 27.76C25.1521 27.696 25.2001 27.648 25.2641 27.616C26.0641 27.648 26.1281 27.088 26.2081 26.512C26.2401 26.448 26.3041 26.384 26.3681 26.352C27.0721 26.352 27.4561 25.984 27.5521 25.296C27.6161 25.232 27.6961 25.184 27.7921 25.168C28.8961 25.136 30.0161 24.864 31.0881 25.328L31.1041 25.344C31.3281 26.128 31.8881 26.256 32.6241 26.24C33.3281 26.224 34.0481 26.064 34.7361 26.416C34.7521 27.216 34.7841 28.032 34.8001 28.832C34.9921 29.424 35.1681 30.016 35.8881 30.144Z" fill="#0081BB"/>
<path d="M39.616 21.712C39.6 21.92 39.568 22.144 39.6 22.352C39.664 22.832 39.472 23.056 38.976 22.976C38.368 22.864 38.288 23.2 38.304 23.696C38.336 24.624 38.32 25.552 38.336 26.48C38.592 26.864 38.544 27.264 38.432 27.664C38.384 27.744 38.336 27.824 38.24 27.856C37.872 28 37.52 28 37.184 27.776C35.904 27.712 35.92 27.712 35.904 26.464C35.888 25.68 36.256 24.64 35.744 24.208C35.296 23.824 34.288 24.112 33.52 24.096C33.152 24.096 32.784 24.08 32.416 24.08L32.432 24.096C32.416 23.856 32.4 23.616 32.416 23.392C32.432 23.072 32.288 22.976 32 22.992C31.6 23.008 31.216 22.992 30.816 22.992C30.064 22.992 29.808 22.704 30.048 22C30.24 21.424 30.768 21.824 31.136 21.696C31.952 21.344 32.768 21.328 33.568 21.712C33.696 21.856 33.776 22.016 33.792 22.208C33.84 22.656 34.112 22.768 34.512 22.752C34.848 22.752 35.2 22.72 35.536 22.768C36.4 22.88 37.088 22.72 37.248 21.712C38 21.312 38.816 21.264 39.616 21.712Z" fill="#0080BA"/>
<path d="M33.4883 18.16C33.4883 18.128 33.4883 18.112 33.4883 18.08C33.5203 16.864 33.5203 16.864 34.7523 16.88C34.9603 16.88 35.1843 16.864 35.3923 16.88C35.7283 16.912 35.9843 16.832 35.9203 16.416C35.8243 15.824 36.1283 15.696 36.6403 15.744C36.8963 15.776 37.1683 15.728 37.4403 15.76C38.0803 15.824 38.4803 15.696 38.3363 14.928C38.2723 14.576 38.4643 14.464 38.8003 14.464C39.4403 14.464 40.0643 14.448 40.7043 14.448C41.0883 14.88 41.0243 15.312 40.7363 15.76C40.1603 15.92 39.7763 16.288 39.6323 16.88V16.896C39.5683 16.944 39.5043 16.992 39.4403 17.024C38.9123 17.072 38.4323 17.168 38.5123 17.872C38.4803 17.984 38.4163 18.08 38.3523 18.176V18.16C38.1603 18.32 37.9363 18.384 37.6963 18.4C36.5123 18.432 35.3283 18.432 34.1603 18.4C33.8883 18.4 33.6643 18.352 33.4883 18.16Z" fill="#0081BA"/>
<path d="M43.2797 25.344C42.9597 25.728 43.1357 26.192 43.1197 26.624C43.0877 27.744 43.1037 27.744 42.0157 27.792C41.9677 27.696 41.9837 27.84 41.9677 27.744C41.5997 26.16 41.5677 24.576 41.9837 22.992V22.976C42.7037 22.848 42.9117 22.272 43.1037 21.696C43.6957 21.52 44.2557 21.312 44.3837 20.592L44.3997 20.56C44.7357 20.304 45.0717 20.32 45.4397 20.48C45.4717 20.512 45.5037 20.544 45.5357 20.576C45.5357 20.976 45.5197 21.36 45.5357 21.76C45.5677 22.448 45.6637 23.168 44.5757 22.992C44.4157 22.96 44.4317 23.168 44.3837 23.28C44.2397 23.696 44.3037 24.112 44.3357 24.528C44.3837 25.104 44.2077 25.376 43.5997 25.28C43.4877 25.264 43.3757 25.296 43.2797 25.344Z" fill="#0081BB"/>
<path d="M47.9038 27.76C47.9038 27.152 47.9358 26.544 47.9038 25.936C47.8718 25.44 48.1278 25.376 48.5278 25.376C48.9278 25.376 49.1838 25.408 49.1678 25.92C49.1518 27.936 49.1678 29.952 49.1518 31.968C49.1358 32.992 48.3838 32.416 47.9358 32.512C47.9038 32.48 47.8238 32.448 47.8238 32.4C47.5838 30.848 47.4558 29.296 47.9038 27.76Z" fill="#0BBEF9"/>
<path d="M41.9841 22.976C42.0001 24.576 42.0001 26.176 42.0161 27.776C41.9041 28.24 42.2721 28.992 41.2641 28.88C40.8481 28.832 40.7041 28.704 40.7041 28.304C40.7201 26.688 40.7201 25.056 40.7041 23.424C40.7041 23.088 40.8161 22.928 41.1681 22.96C41.4561 22.992 41.7121 22.976 41.9841 22.976Z" fill="#07BFFA"/>
<path d="M47.9044 27.76C47.9204 29.344 47.9364 30.928 47.9364 32.512C47.1044 32.608 46.2884 32.608 45.4564 32.512C45.2164 32.112 45.2164 31.728 45.4564 31.328C46.7684 31.2 46.7684 31.2 46.7684 29.872C46.7684 29.52 46.7524 29.184 46.7684 28.848C46.8324 27.696 46.5284 27.744 47.9044 27.76Z" fill="#0081B8"/>
<path d="M33.4878 18.16C35.1038 18.16 36.7038 18.176 38.3198 18.176C38.2558 19.376 38.4478 19.28 37.1678 19.28C35.8398 19.28 34.5118 19.28 33.1838 19.28C32.8158 19.28 32.3838 19.408 32.3838 18.736C32.3838 18.08 32.7838 18.176 33.1678 18.176C33.2798 18.16 33.3918 18.16 33.4878 18.16Z" fill="#0ABEF9"/>
<path d="M37.1843 21.68C37.1843 23.168 37.3603 22.944 35.9523 22.96C35.5523 22.96 35.1523 22.96 34.7523 22.96C33.3123 22.944 33.5203 23.152 33.5043 21.68C34.7523 21.68 35.9683 21.68 37.1843 21.68Z" fill="#06BFFB"/>
<path d="M31.1038 25.36C29.9358 25.36 28.7678 25.36 27.5838 25.36C27.3118 25.024 27.3918 24.656 27.4718 24.288C27.5038 24.208 27.5678 24.16 27.6478 24.112C28.7998 24.112 29.9678 24.112 31.1198 24.112L31.1038 24.096C31.1038 24.512 31.1038 24.928 31.1038 25.36Z" fill="#06BFFB"/>
<path d="M22.8 40.88C23.968 40.88 25.152 40.88 26.32 40.88C26.32 41.072 26.288 41.248 26.32 41.44C26.384 42 26.16 42.192 25.6 42.144C25.072 42.096 24.544 42.128 24 42.128C22.784 42.128 22.784 42.128 22.8 40.88Z" fill="#0ABEF9"/>
<path d="M34.7521 26.432C33.9041 26.448 33.0561 26.48 32.2241 26.48C31.0721 26.48 31.1201 26.688 31.1361 25.376C32.0321 25.376 32.9281 25.376 33.8241 25.376C34.8321 25.392 34.8321 25.392 34.7521 26.432Z" fill="#0FBEF8"/>
<path d="M19.1196 33.664C19.1196 34.896 19.1196 36.128 19.1196 37.36C18.0156 37.296 18.0156 37.296 18.0156 36.176C18.0156 35.728 18.0156 35.28 18.0156 34.832C18.0156 33.712 18.0156 33.712 19.1196 33.664Z" fill="#0BBEFA"/>
<path d="M20.3991 26.496C20.3991 26.864 20.4151 27.232 20.4151 27.6C20.3831 29.008 20.6871 28.88 19.1191 28.88C19.1191 28.384 19.1831 27.872 19.1351 27.376C19.0711 26.688 19.2951 26.384 19.9991 26.496C20.1271 26.512 20.2551 26.496 20.3991 26.496Z" fill="#0DBEF7"/>
<path d="M28.7197 40.88C29.5197 40.88 30.3357 40.88 31.1357 40.88C31.1357 41.072 31.1037 41.248 31.1357 41.44C31.1837 41.984 30.9917 42.256 30.4157 42.16C30.2877 42.144 30.1437 42.144 30.0157 42.144C28.7837 42.112 28.7837 42.112 28.7197 40.88Z" fill="#14BDF5"/>
<path d="M19.1191 37.36C20.6551 37.36 20.3831 37.2 20.4151 38.656C20.4151 39.024 20.4151 39.392 20.4151 39.76C19.1511 39.712 19.1511 39.712 19.1511 38.4C19.1351 38.048 19.1191 37.712 19.1191 37.36Z" fill="#0FBEF7"/>
<path d="M19.1205 31.28C20.6405 31.264 20.4005 31.152 20.4005 32.512C20.4005 33.776 20.6245 33.68 19.1045 33.664C19.1205 32.88 19.1205 32.08 19.1205 31.28Z" fill="#0BBEF8"/>
<path d="M40.6727 32.528C39.8887 32.528 39.1047 32.544 38.3047 32.544C38.3847 31.28 38.3847 31.28 39.5207 31.28C40.7367 31.296 40.7367 31.296 40.6727 32.528Z" fill="#02BFFC"/>
<path d="M38.3038 32.544C38.3198 33.856 38.3838 33.648 37.1678 33.664C36.7518 33.664 36.3358 33.664 35.9038 33.664C35.8718 33.632 35.8398 33.6 35.8078 33.568C35.6638 33.216 35.6478 32.88 35.8718 32.56H35.9358C36.7358 32.56 37.5198 32.56 38.3038 32.544Z" fill="#10BDF6"/>
<path d="M19.1203 28.864C19.1203 29.664 19.1203 30.48 19.1203 31.28C18.7683 31.168 18.1923 31.472 18.0803 31.04C17.9043 30.4 17.8883 29.664 18.0963 29.024C18.2083 28.704 18.7683 28.944 19.1203 28.864Z" fill="#15BCF5"/>
<path d="M33.5199 21.68C32.7039 21.68 31.8879 21.664 31.0879 21.664C31.2479 21.328 30.8959 20.72 31.3759 20.624C32.0159 20.496 32.7199 20.496 33.3439 20.656C33.6959 20.752 33.4399 21.328 33.5199 21.68Z" fill="#13BDF5"/>
<path d="M39.6166 21.712C38.8006 21.696 38.0006 21.696 37.1846 21.68C37.2006 20.592 37.2006 20.592 38.3046 20.576C38.7366 20.576 39.1526 20.56 39.5846 20.544C39.9046 20.928 39.8566 21.312 39.6166 21.712V21.712Z" fill="#07C0F9"/>
<path d="M20.3994 39.76C20.8474 39.76 21.2954 39.76 21.7274 39.76C22.7994 39.76 22.7994 39.76 22.7834 40.88C22.3674 40.88 21.9354 40.864 21.5194 40.864C20.4634 40.832 20.4634 40.832 20.3994 39.76Z" fill="#02BFFC"/>
<path d="M26.3359 40.88C26.3359 39.536 26.2079 39.76 27.6479 39.744C28.7359 39.728 28.7359 39.744 28.7199 40.864C27.9199 40.88 27.1199 40.88 26.3359 40.88Z" fill="#0ABEF8"/>
<path d="M38.3193 27.76C38.3353 27.328 38.3353 26.912 38.3513 26.48C38.3993 26.48 38.4473 26.48 38.5113 26.496C39.6473 26.528 39.6473 26.528 39.5513 27.728C39.1353 28.08 38.7353 28.048 38.3193 27.76Z" fill="#04BEFB"/>
<path d="M46.7523 19.264C46.8483 20.544 46.8483 20.544 45.5203 20.576L45.5043 20.56C45.2003 20.128 45.2163 19.696 45.5043 19.28H45.4883C45.9203 19.008 46.3363 18.96 46.7523 19.264Z" fill="#0181B8"/>
<path d="M42.016 19.312C41.984 20.56 41.984 20.56 40.72 20.592C40.688 20.56 40.656 20.528 40.624 20.496C40.448 20.08 40.432 19.664 40.704 19.28H40.688C41.136 18.992 41.584 18.944 42.016 19.312Z" fill="#027EB9"/>
<path d="M43.0881 16.928C43.2641 16.912 43.4561 16.912 43.6321 16.896C44.0801 16.848 44.4001 16.848 44.4161 17.504C44.4321 18.176 44.1121 18.224 43.6161 18.176C43.4561 18.16 43.2961 18.192 43.1521 18.208C42.7681 17.792 42.8161 17.36 43.0881 16.928Z" fill="#0B7DA9"/>
<path d="M46.816 14.512C46.816 14.544 46.816 14.56 46.816 14.592C46.784 15.84 46.784 15.84 45.504 15.744C45.328 15.568 45.312 15.344 45.312 15.12C45.296 14.88 45.36 14.672 45.52 14.496H45.536C45.952 14.192 46.384 14.16 46.816 14.512Z" fill="#0180B6"/>
<path d="M40.7195 15.776C40.7035 15.344 40.7035 14.896 40.6875 14.464V14.48C41.1355 14.208 41.5675 14.16 41.9995 14.496C41.9515 15.904 42.2075 15.76 40.7195 15.776Z" fill="#0CBFF7"/>
<path d="M38.32 27.76C38.736 27.744 39.136 27.728 39.552 27.712C39.696 28.864 39.696 28.864 38.352 28.896C38.32 28.864 38.288 28.832 38.256 28.8C38.064 28.432 38.064 28.08 38.32 27.76Z" fill="#0480B7"/>
<path d="M41.9995 14.496C41.5675 14.496 41.1195 14.48 40.6875 14.48C40.7515 13.28 40.7515 13.28 42.0315 13.424C42.2715 13.776 42.2555 14.144 41.9995 14.496Z" fill="#047FB0"/>
<path d="M43.1044 21.68C43.1044 21.728 43.1044 21.776 43.1044 21.84C43.1044 22.976 43.1044 22.976 41.9844 22.96C41.9844 22.912 41.9844 22.848 41.9844 22.8C42.0164 21.728 42.0164 21.728 43.1044 21.68Z" fill="#18BCF4"/>
<path d="M32.4006 40.88C32.7846 40.88 33.1526 40.88 33.5366 40.88C33.5206 41.088 33.5046 41.296 33.5046 41.504C33.5206 41.904 33.4726 42.144 32.9606 42.144C32.4486 42.144 32.3846 41.904 32.4006 41.504C32.4166 41.296 32.4006 41.088 32.4006 40.88Z" fill="#02BDFA"/>
<path d="M46.7523 19.264C46.3363 19.264 45.9203 19.28 45.4883 19.28C45.6323 18.912 45.2163 18.32 45.9043 18.192C46.7203 18.048 46.8163 18.176 46.7523 19.264Z" fill="#05BFFB"/>
<path d="M46.8155 14.512C46.3835 14.512 45.9515 14.496 45.5195 14.496C45.5515 13.36 45.5515 13.36 46.7515 13.424C47.1035 13.76 47.0395 14.144 46.8155 14.512Z" fill="#00BFFB"/>
<path d="M44.3845 20.576C44.3845 21.824 44.5605 21.696 43.1045 21.68C43.1525 20.368 42.9925 20.624 44.3845 20.576Z" fill="#00C0FA"/>
<path d="M31.1204 40.88C31.2484 40.464 30.7364 39.76 31.7124 39.744C32.7364 39.712 32.2884 40.432 32.3844 40.896C31.9684 40.88 31.5524 40.88 31.1204 40.88Z" fill="#0EBEF9"/>
<path d="M34.7992 39.76C34.7992 39.712 34.7992 39.648 34.7992 39.6C34.8152 38.352 34.6392 38.464 35.9352 38.48C35.9352 38.528 35.9352 38.576 35.9352 38.64C35.8872 39.712 35.8872 39.712 34.7992 39.76Z" fill="#10BCF8"/>
<path d="M45.5196 38.48C45.5036 37.168 45.3756 37.36 46.7996 37.344C46.7676 38.448 46.7676 38.448 45.5196 38.48Z" fill="#12BEF4"/>
<path d="M35.9198 38.48C35.9198 37.2 35.7438 37.344 37.1997 37.36C37.1837 38.432 37.1837 38.432 35.9198 38.48Z" fill="#0FBDF9"/>
<path d="M42.0155 19.312C41.5675 19.296 41.1355 19.296 40.6875 19.28C40.7515 18.192 40.7515 18.192 41.9515 18.144C41.9835 18.176 42.0315 18.208 42.0635 18.24C42.2555 18.608 42.2395 18.96 42.0155 19.312Z" fill="#14BEF2"/>
<path d="M35.8878 30.144C34.7678 30.176 34.7678 30.176 34.8158 28.848C35.9518 28.928 35.9518 28.928 35.8878 30.144Z" fill="#10BDF6"/>
<path d="M38.3043 30.144C37.1364 30.192 37.1364 30.192 37.2323 28.88C37.6003 28.592 37.9523 28.624 38.3203 28.88L38.3363 28.896C38.3203 29.312 38.3043 29.728 38.3043 30.144Z" fill="#097CAC"/>
<path d="M37.1997 37.344C37.1997 37.296 37.1997 37.248 37.1997 37.184C37.1837 35.84 37.1517 36.096 38.3197 36.08C38.3197 36.128 38.3197 36.192 38.3197 36.24C38.2877 37.312 38.2877 37.312 37.1997 37.344Z" fill="#07BEF9"/>
<path d="M43.0878 16.928C43.1038 17.344 43.1358 17.776 43.1518 18.192V18.176C42.7838 18.416 42.3998 18.464 42.0158 18.176L41.9678 18.128C41.9838 18.048 41.9838 17.968 41.9838 17.888C42.0478 16.864 42.0478 16.864 43.0878 16.928Z" fill="#15BDF0"/>
<path d="M47.9043 36.08C47.9043 35.712 47.9043 35.344 47.9043 34.976C48.1603 34.976 48.4323 34.976 48.6883 34.96C49.1203 34.928 49.2003 35.184 49.2003 35.552C49.2003 35.904 49.0723 36.096 48.6883 36.064C48.4323 36.048 48.1763 36.08 47.9043 36.08Z" fill="#20BDEC"/>
<path d="M45.5034 19.28C45.5034 19.712 45.5034 20.144 45.5034 20.56C45.1354 20.56 44.7674 20.56 44.3994 20.56C44.3994 20.512 44.4154 20.448 44.4154 20.4C44.4314 19.328 44.4314 19.328 45.5034 19.28Z" fill="#02C1F8"/>
<path d="M45.4715 31.312C45.4715 31.712 45.4715 32.096 45.4715 32.496C44.9275 32.544 44.3035 32.736 44.3995 31.776C44.4795 30.944 45.0875 31.408 45.4715 31.312Z" fill="#0ABFF8"/>
<path d="M38.3195 36.08C38.3035 34.912 38.3035 34.912 39.5675 34.976C39.5835 36.016 39.5835 36.016 38.3195 36.08Z" fill="#03C0FB"/>
<path d="M46.8 37.36C46.8 37.312 46.8 37.248 46.8 37.2C46.784 35.872 46.72 36.08 47.904 36.064C47.904 36.096 47.904 36.112 47.904 36.144C47.872 37.264 47.872 37.264 46.8 37.36Z" fill="#03C1F8"/>
<path d="M33.5206 40.88C33.5366 39.632 33.3286 39.76 34.8006 39.76C34.7526 40.816 34.7526 40.816 33.5206 40.88Z" fill="#04C0FC"/>
<path d="M47.584 34.976C46.56 35.28 45.504 35.088 44.448 35.088C43.824 35.104 43.344 35.184 43.264 35.904C43.248 36.048 43.184 36.208 43.04 36.192C42.128 36.096 42.128 36.72 42.096 37.344C42.096 37.344 42.048 37.36 42.032 37.36C42.016 37.36 41.984 37.328 41.968 37.312C41.968 37.04 41.984 36.784 41.968 36.512C41.952 36.16 42.096 36.016 42.432 36.064C42.944 36.144 43.168 35.952 43.088 35.424C43.024 35.024 43.248 34.944 43.6 34.944C44.928 34.976 46.256 34.976 47.584 34.976Z" fill="#0A7B9F"/>
<path d="M46.8 14.512C46.784 14.144 46.768 13.776 46.752 13.408C47.9039 13.28 48.0639 13.36 47.9039 14.128C47.7599 14.832 47.152 14.336 46.8 14.512Z" fill="#0081B4"/>
<path d="M42.0156 18.192C42.3996 18.192 42.7676 18.192 43.1516 18.192C43.2796 19.088 42.8956 19.456 42.0156 19.312C42.0156 18.944 42.0156 18.56 42.0156 18.192Z" fill="#047EB3"/>
<path d="M42 14.496C42.016 14.144 42.032 13.776 42.032 13.424C42.56 13.392 43.248 13.168 43.072 14.128C42.96 14.8 42.352 14.336 42 14.496Z" fill="#06C0F9"/>
<path d="M39.5991 16.88C39.5831 15.6 39.4871 15.776 40.7031 15.76C40.8471 16.64 40.4951 17.04 39.5991 16.88Z" fill="#01BFFD"/>
<path d="M38.3046 28.88C37.9366 28.88 37.5846 28.88 37.2166 28.88C37.2006 28.512 37.1846 28.144 37.1846 27.792C37.5686 27.776 37.9366 27.776 38.3206 27.76C38.3206 28.128 38.3206 28.496 38.3046 28.88Z" fill="#0ABFF8"/>
<path d="M39.5994 21.712C39.5834 21.328 39.5834 20.944 39.5674 20.544C39.6794 20.464 39.7914 20.4 39.9354 20.368C40.2074 20.336 40.4794 20.352 40.7034 20.544L40.7194 20.56C40.7194 21.648 40.7194 21.648 39.5994 21.712Z" fill="#0480AA"/>
<path d="M38.3193 18.176C38.3193 18.064 38.3193 17.952 38.3193 17.84C38.5753 17.408 39.0233 17.184 39.4074 16.896C39.4714 16.896 39.5194 16.88 39.5834 16.88C39.5834 18.16 39.5834 18.16 38.3193 18.176Z" fill="#29BCF1"/>
<path d="M40.7045 20.56C40.4325 20.56 40.1765 20.56 39.9045 20.56C39.6965 20 39.8405 19.568 40.3845 19.296C40.4965 19.28 40.5925 19.28 40.7045 19.264C40.7045 19.696 40.7045 20.128 40.7045 20.56Z" fill="#03BFF9"/>
<path d="M45.5037 14.48C45.5037 14.704 45.5037 14.912 45.5037 15.136C45.1357 15.216 44.6717 15.168 44.7197 15.76C44.0637 15.648 44.4477 15.136 44.3997 14.816C44.3517 14.432 44.7037 14.496 44.9597 14.48C45.1357 14.48 45.3277 14.48 45.5037 14.48Z" fill="#3DB7EB"/>
<path d="M44.7193 15.76C44.4313 15.424 44.7833 15.12 44.6873 14.704C44.9753 14.992 45.1673 15.216 45.5033 15.152C45.5033 15.36 45.5033 15.552 45.5033 15.76C45.2313 15.744 44.9753 15.744 44.7193 15.76Z" fill="#09BDF4"/>
<path d="M27.6317 21.696C27.5037 21.328 27.7277 21.264 27.9997 21.296C28.6077 21.376 28.5917 20.992 28.5277 20.576C28.5757 20.56 28.6077 20.544 28.6557 20.528C28.7677 20.912 28.7357 21.28 28.6877 21.664C28.3517 21.68 27.9997 21.68 27.6317 21.696Z" fill="#0F799F"/>
<path d="M40.3834 19.296C40.0474 19.648 39.9034 20.08 39.9034 20.56C39.7914 20.56 39.6794 20.56 39.5674 20.544C39.5674 20.368 39.5834 20.176 39.5674 20C39.5034 19.376 39.7914 19.168 40.3834 19.296Z" fill="#3AB7ED"/>
<path d="M43.2793 25.344C44.1913 25.28 44.3513 24.72 44.2393 23.936C44.2073 23.712 44.1593 23.472 44.3673 23.28C44.3673 23.616 44.3833 23.968 44.3833 24.304C44.3993 25.392 44.3993 25.392 43.2793 25.344Z" fill="#24778F"/>
<path d="M35.4239 43.296C35.0719 43.568 35.4079 44.24 34.8159 44.384C34.9439 43.984 34.3199 43.152 35.4239 43.296Z" fill="#0D7E9A"/>
<path d="M41.8235 37.36C41.3755 37.648 40.7675 37.76 40.6875 38.448C40.7355 37.328 40.7355 37.328 41.8235 37.36Z" fill="#13789B"/>
<path d="M27.4403 24.08C27.5043 23.344 27.2963 22.576 27.5843 21.856C27.6003 22.608 27.6163 23.36 27.6323 24.112H27.5683C27.5203 24.144 27.4723 24.128 27.4403 24.08Z" fill="#0F799F"/>
<path d="M15.792 26.464C16.304 26.352 16.608 26.048 16.72 25.536C16.88 26.32 16.592 26.64 15.792 26.464Z" fill="#1A7895"/>
<path d="M44.0793 39.776C44.1113 40.464 43.8553 40.8 43.1193 40.576C42.9273 39.68 43.4713 39.696 44.0793 39.776Z" fill="#00C1FB"/>
<path d="M16.7193 45.504C16.2073 45.392 15.9833 45.088 16.0793 44.576C16.9593 44.416 16.7033 45.056 16.7193 45.504Z" fill="#03BFF9"/>
<path d="M23.9524 36.048C26.7684 36.064 29.5844 36.064 32.4164 36.08C32.7204 36.512 32.7204 36.944 32.3844 37.36V37.328C32.1924 37.568 31.9364 37.584 31.6644 37.584C28.9124 37.584 26.1444 37.6 23.3924 37.584C23.2804 37.584 23.1844 37.552 23.0724 37.52C22.9764 37.472 22.8964 37.408 22.8164 37.344C22.8164 36.928 22.8324 36.512 22.8324 36.112C23.1844 35.776 23.5684 35.808 23.9524 36.048Z" fill="#030309"/>
<path d="M23.9521 36.048C23.5841 36.064 23.2001 36.08 22.8321 36.096C22.8161 33.52 22.8321 30.96 22.8001 28.384C22.7841 27.408 23.5041 27.872 23.9361 27.76C23.9681 27.792 24.0001 27.824 24.0321 27.856C24.1761 28.208 24.1921 28.544 23.9521 28.864C23.9521 31.264 23.9521 33.648 23.9521 36.048Z" fill="#004264"/>
<path d="M22.8157 37.328C22.8637 37.344 22.9277 37.344 22.9757 37.36C23.8717 37.52 24.7837 37.408 25.6797 37.424C27.8077 37.44 29.9357 37.408 32.0637 37.488C32.2077 37.488 32.3197 37.536 32.3997 37.648C32.5277 38.32 32.2237 38.496 31.5837 38.48C29.0397 38.448 26.4957 38.464 23.9677 38.464C22.6557 38.464 22.8157 38.608 22.8157 37.328Z" fill="#03BEFC"/>
<path d="M32.384 37.648C29.52 37.456 26.656 37.536 23.792 37.52C23.52 37.52 23.2 37.632 22.96 37.36C26.096 37.344 29.232 37.328 32.368 37.312C32.384 37.424 32.384 37.536 32.384 37.648Z" fill="#65B2DE"/>
<path d="M23.9194 27.76C23.9354 26.336 23.6954 26.48 25.1994 26.48C25.2314 26.512 25.2634 26.544 25.2954 26.576C25.4394 26.896 25.4234 27.232 25.3434 27.568C25.3114 27.648 25.2474 27.712 25.1994 27.776L25.2154 27.76C24.7834 28.064 24.3514 28.048 23.9194 27.76Z" fill="#004467"/>
<path d="M27.4395 24.08C27.4875 24.096 27.5355 24.096 27.5675 24.112C27.5675 24.528 27.5835 24.944 27.5835 25.36H27.5995C27.2315 25.664 26.8315 25.632 26.4155 25.472C26.3835 25.44 26.3515 25.408 26.3195 25.376C26.3195 25.328 26.3195 25.264 26.3195 25.216C26.3195 23.856 26.2395 24.112 27.4395 24.08Z" fill="#004263"/>
<path d="M35.92 33.68C35.92 33.728 35.92 33.792 35.92 33.84C35.92 34.976 35.92 34.976 34.8 34.96C34.768 34.928 34.736 34.896 34.704 34.848C34.512 34.368 34.576 33.936 34.992 33.584C35.312 33.44 35.632 33.44 35.92 33.68Z" fill="#03BFFA"/>
<path d="M25.2 26.48C25.184 25.12 25.168 25.392 26.32 25.36C26.608 25.744 26.608 26.112 26.32 26.48L26.336 26.464C26.272 26.528 26.192 26.576 26.112 26.624C25.776 26.72 25.472 26.72 25.2 26.48Z" fill="#004268"/>
<path d="M34.7847 35.104C34.7527 35.536 35.0407 36.192 34.1607 36.064C33.8407 35.872 33.4087 35.696 33.6807 35.232C33.9367 34.8 34.3687 34.832 34.7847 35.104Z" fill="#03C1FB"/>
<path d="M33.5035 36.224C33.3595 36.592 33.9354 37.28 33.0395 37.328C33.0075 37.296 32.9595 37.248 32.9115 37.232C32.5275 37.024 32.3355 36.672 32.5275 36.32C32.7515 35.92 33.1515 36.048 33.5035 36.224Z" fill="#04BFF8"/>
<path d="M33.5042 36.224C33.4082 36.24 33.2962 36.256 33.2002 36.288C33.0082 36.352 32.7202 36.096 32.5922 36.432C32.4802 36.72 32.7042 36.832 32.8802 36.992C32.9602 37.072 32.9762 37.216 33.0242 37.328C32.8002 37.328 32.5922 37.328 32.3682 37.328C32.3842 36.896 32.3842 36.48 32.4002 36.048V36.064C32.7202 35.792 33.0562 35.808 33.4242 35.968C33.4562 36 33.4882 36.032 33.5202 36.064C33.5202 36.128 33.5042 36.176 33.5042 36.224Z" fill="#3FB9F1"/>
<path d="M34.7841 35.104C34.7361 35.104 34.6721 35.104 34.6241 35.104C34.3201 35.152 33.9201 34.976 33.7601 35.328C33.6161 35.648 34.0641 35.776 34.1441 36.048C33.9361 36.048 33.7281 36.064 33.5041 36.064C33.2161 35.696 33.2321 35.312 33.5201 34.944V34.96C33.9361 34.656 34.3681 34.64 34.7841 34.944C34.7841 35.008 34.7841 35.056 34.7841 35.104Z" fill="#3EB7EA"/>
<path d="M34.7835 34.944C34.3675 34.944 33.9355 34.96 33.5195 34.96C33.5195 33.68 33.5195 33.68 34.7995 33.664C34.8635 33.616 34.9115 33.616 34.9755 33.664C34.6715 34.064 34.8475 34.528 34.7835 34.944Z" fill="#022C4C"/>
<path d="M26.3047 26.48C26.3047 26.112 26.3047 25.728 26.3047 25.36C26.7367 25.36 27.1527 25.36 27.5847 25.36C27.5847 26.608 27.8087 26.48 26.3047 26.48Z" fill="#05C0FA"/>
<path d="M33.5354 34.96C33.5354 35.328 33.5194 35.712 33.5194 36.08C33.1514 36.08 32.7674 36.08 32.3994 36.096C32.3994 34.96 32.3994 34.96 33.5354 34.96Z" fill="#022E4E"/>
<path d="M34.9761 33.68C34.9121 33.68 34.8641 33.68 34.8001 33.68C34.7841 32.544 34.7841 32.544 35.8881 32.576C35.8881 32.944 35.9041 33.312 35.9041 33.68C35.6001 33.68 35.2801 33.68 34.9761 33.68Z" fill="#002E4A"/>
<path d="M26.1606 26.512C26.2086 26.496 26.2726 26.48 26.3206 26.48C26.3206 26.528 26.3206 26.592 26.3206 26.64C26.3046 27.904 26.4646 27.776 25.1846 27.776C25.2006 27.728 25.2006 27.664 25.2166 27.616C25.2486 26.992 25.3286 26.432 26.1606 26.512Z" fill="#02BFFC"/>
<path d="M25.184 28.08C25.376 28.96 24.832 28.944 24.24 28.864C24.064 28.592 23.872 28.272 24.128 28.016C24.448 27.664 24.848 27.888 25.184 28.08Z" fill="#02BEFD"/>
<path d="M25.1839 28.08C25.1359 28.08 25.0719 28.08 25.0239 28.08C24.0959 27.904 24.0959 27.904 24.2399 28.864C24.1439 28.864 24.0319 28.864 23.9359 28.864C23.9359 28.496 23.9199 28.128 23.9199 27.744C24.3519 27.744 24.7679 27.744 25.1999 27.744C25.1999 27.856 25.1999 27.968 25.1839 28.08Z" fill="#31BBF5"/>
<path d="M39.4237 16.912C39.2957 17.504 38.7677 17.632 38.3357 17.856C38.3037 16.864 38.3037 16.864 39.4237 16.912Z" fill="#01BEFA"/>
<path d="M26.1592 26.512C25.5032 26.592 25.3432 27.072 25.2312 27.6C25.2152 27.232 25.2152 26.848 25.1992 26.48C25.5192 26.48 25.8392 26.496 26.1592 26.512Z" fill="#37BCF4"/>
</svg>
