<svg width="60" height="60" viewBox="0 0 60 60" fill="none" xmlns="http://www.w3.org/2000/svg">
<circle cx="30" cy="30" r="30" fill="#EF75B2"/>
<path d="M20.904 40.1602C18.3013 37.586 17 34.1993 17 30C17 25.8007 18.3013 22.414 20.904 19.8398C23.5352 17.2799 27.0031 16 31.3075 16C33.9673 16 36.1982 16.5321 38 17.5963V25.6857C36.1124 24.5352 34.1747 23.9599 32.1869 23.9599C30.1134 23.9599 28.4831 24.4848 27.2962 25.5347C26.1093 26.5701 25.5158 28.0586 25.5158 30C25.5158 31.9127 26.1093 33.3939 27.2962 34.4438C28.4974 35.4936 30.1277 36.0185 32.1869 36.0185C34.2319 36.0185 36.1696 35.4576 38 34.3359V42.4253C36.2268 43.4751 33.9959 44 31.3075 44C27.0031 44 23.5352 42.7201 20.904 40.1602Z" fill="white"/>
</svg>
