<svg width="60" height="60" viewBox="0 0 60 60" fill="none" xmlns="http://www.w3.org/2000/svg">
<path d="M32.416 31.416L42.936 41.936C43.3104 42.312 43.52 42.8216 43.52 43.352C43.52 43.9752 43.2304 44.564 42.736 44.944C39.388 47.5736 35.252 49.0032 30.9952 49.0032C20.568 49.0032 11.9872 40.4232 11.9872 29.9952C11.9872 19.568 20.568 10.9872 30.9952 10.9872C35.2832 10.9872 39.448 12.4392 42.808 15.104C43.2664 15.4808 43.5328 16.044 43.5328 16.6376C43.5328 17.1712 43.3176 17.6832 42.936 18.056L32.408 28.584C32.2232 28.7696 32.076 28.9896 31.976 29.232C31.8744 29.4864 31.8224 29.7584 31.824 30.032C31.8208 30.3072 31.8752 30.5792 31.984 30.832C32.0824 31.0752 32.2296 31.296 32.416 31.48V31.416ZM30 0C13.5424 0 0 13.5424 0 30C0 46.4576 13.5424 60 30 60C46.4576 60 60 46.4576 60 30C60 13.5424 46.4576 0 30 0Z" fill="#69E2DC"/>
</svg>
