<svg width="60" height="60" viewBox="0 0 60 60" fill="none" xmlns="http://www.w3.org/2000/svg">
<circle cx="30" cy="30" r="30" fill="#EDF0F4"/>
<path fill-rule="evenodd" clip-rule="evenodd" d="M11.5 19.1731L30 8.5L48.5 19.1731V40.5192L30 51.1923L11.5 40.5192V19.1731ZM22.6964 17.7277H37.2665L39.009 25.1396H20.991L22.6964 17.7277ZM26.4039 35.0715L26.8859 30.4391L25.2917 26.2885H34.7085L33.1514 30.4391L33.5963 35.0715H29.963H26.4039ZM37.3036 42.854H34.6714L31.5201 39.9633V38.481L34.7826 35.368V30.4391L39.0461 27.6596L43.9028 31.3285L37.3036 42.854ZM25.4028 42.8911L28.5541 39.9634V38.481L25.2916 35.368V30.4392L20.991 27.6968L16.0972 31.3286L22.7335 42.8911H25.4028Z" fill="#03316C"/>
</svg>
