<svg width="60" height="60" viewBox="0 0 60 60" fill="none" xmlns="http://www.w3.org/2000/svg">
<circle cx="30" cy="30" r="30" fill="#E7EFF3"/>
<path d="M26.9079 36.6838L27.5043 34.3686C27.5043 34.2982 27.4693 34.2279 27.3993 34.2279H16.105C16.0336 34.2279 16 34.1575 16 34.0871L21.8221 12.7649C21.8221 12.7304 21.8936 12.6945 21.9271 12.6945H28.205C32.4486 12.6945 35.1143 13.8345 36.7629 15.4587C37.5731 16.2924 38.2024 17.2801 38.6125 18.3613C39.0225 19.4426 39.2047 20.5948 39.1479 21.7477C39.1521 23.04 38.9387 24.3241 38.5164 25.5477C38.1708 26.5976 37.6621 27.5884 37.0086 28.4849C36.9736 28.5553 37.0086 28.6581 37.08 28.6581H45.4286C45.4499 28.6557 45.4714 28.6603 45.4898 28.6712C45.5083 28.682 45.5226 28.6984 45.5307 28.718C45.5388 28.7376 45.5402 28.7592 45.5346 28.7797C45.5291 28.8001 45.5169 28.8182 45.5 28.8312L23.6429 49.9183C23.626 49.934 23.6044 49.9437 23.5814 49.9462C23.5584 49.9486 23.5352 49.9436 23.5154 49.9319C23.4955 49.9203 23.4801 49.9025 23.4714 49.8814C23.4627 49.8603 23.4612 49.8369 23.4671 49.8149L26.9079 36.6838Z" fill="url(#paint0_radial)"/>
<defs>
<radialGradient id="paint0_radial" cx="0" cy="0" r="1" gradientUnits="userSpaceOnUse" gradientTransform="translate(26.6806 37.0203) scale(30.4359 29.9881)">
<stop stop-color="#41BEF0"/>
<stop offset="0.469" stop-color="#828CBE"/>
<stop offset="0.54" stop-color="#8F80AE"/>
<stop offset="0.794" stop-color="#BC5A79"/>
<stop offset="0.917" stop-color="#CD4B64"/>
</radialGradient>
</defs>
</svg>
