<svg width="60" height="60" viewBox="0 0 60 60" fill="none" xmlns="http://www.w3.org/2000/svg">
<circle cx="30" cy="30" r="30" fill="#FFF706"/>
<path fill-rule="evenodd" clip-rule="evenodd" d="M30.003 12.5877C29.6435 12.7162 29.2861 13.1236 29.0595 13.6632C28.9365 13.9559 28.7444 14.8501 28.741 15.1449C28.7392 15.3023 28.7263 15.3155 28.6576 15.2301C28.6129 15.1744 28.4483 15.0289 28.2918 14.9067C28.0675 14.7316 27.9256 14.6771 27.6225 14.6496C27.2756 14.6181 27.2168 14.6324 27.0243 14.7943C26.7475 15.0272 26.6499 15.3931 26.6939 16.0317C26.7293 16.5451 26.9113 17.1088 27.1496 17.4435C27.2234 17.5472 27.2676 17.6582 27.2478 17.6902C27.228 17.7222 27.0235 17.7846 26.7932 17.8289C23.7816 18.4086 21.1765 20.2021 19.4957 22.853C19.062 23.537 18.4927 24.6422 18.3011 25.172C17.9445 26.1582 17.7779 26.6481 17.6886 26.9734C17.2583 28.5407 16.9431 30.4752 16.9169 31.7104L16.9007 32.4776L18.6866 32.4954L20.4725 32.5132L20.5381 32.3409C20.574 32.2462 20.6035 31.9867 20.6035 31.7644C20.6035 30.4949 21.2269 27.9084 21.8538 26.5771C22.2573 25.72 22.9204 24.7282 23.4994 24.1157C24.2823 23.2876 25.5723 22.4973 26.7416 22.1295C27.7279 21.8192 28.3462 21.7404 29.7773 21.7425C30.9457 21.7443 31.3024 21.7691 31.9252 21.8918C32.7254 22.0494 33.4891 22.2832 34.0806 22.5517C34.2824 22.6433 34.5076 22.7454 34.581 22.7785C34.6543 22.8117 34.8045 22.8981 34.9145 22.9706C35.0246 23.0431 35.1597 23.123 35.2148 23.1483C35.7412 23.3904 37.0918 24.6776 37.5979 25.4197C37.9298 25.9062 38.4394 26.847 38.5841 27.2403C39.1576 28.799 39.3554 29.7934 39.4598 31.6437C39.4847 32.0845 39.5347 32.4321 39.5773 32.4606C39.6182 32.4879 40.4321 32.5029 41.3862 32.4939L43.1209 32.4776L43.1428 31.7104C43.1755 30.5626 42.9681 28.631 42.716 27.7348C42.6634 27.5481 42.6205 27.3528 42.6205 27.3009C42.6205 27.1441 42.121 25.6465 41.8548 25.0052C40.9615 22.8535 39.4561 20.9665 37.6166 19.6929C37.2147 19.4146 36.9807 19.2718 36.3354 18.911C35.7533 18.5856 34.1293 17.972 33.5807 17.8704C33.4342 17.8431 33.2932 17.8079 33.2674 17.792C33.2416 17.776 33.2976 17.6094 33.3918 17.4217C33.8923 16.4253 33.8553 15.0797 33.3179 14.7275C33.0499 14.5519 32.5579 14.6239 32.2255 14.8871C32.0794 15.0029 31.9439 15.0976 31.9246 15.0976C31.9053 15.0976 31.8687 14.8949 31.8434 14.6473C31.7885 14.1111 31.4948 13.3605 31.2 13.0028C30.9966 12.7562 30.5555 12.497 30.3444 12.5C30.2893 12.5008 30.1357 12.5403 30.003 12.5877ZM27.0772 26.4549C26.9865 26.5026 26.8439 26.6432 26.7602 26.7673C26.6183 26.9781 26.6081 27.0615 26.6081 28.0217C26.6081 29.0704 26.6343 29.2056 26.8917 29.4885C27.1982 29.8253 27.7604 29.7369 27.9977 29.3147C28.1288 29.0815 28.1426 28.9599 28.1426 28.0451C28.1426 26.9889 28.1037 26.8063 27.8241 26.5533C27.6496 26.3954 27.2824 26.347 27.0772 26.4549ZM32.5762 26.4667C32.184 26.6375 32.1457 26.7779 32.1457 28.0449C32.1457 29.0841 32.1579 29.2049 32.2803 29.3768C32.4629 29.6332 32.807 29.7432 33.112 29.6425C33.5641 29.4932 33.6135 29.3357 33.6135 28.0449C33.6135 26.7927 33.5799 26.6626 33.2066 26.4696C32.9788 26.3518 32.8415 26.3512 32.5762 26.4667ZM15.0437 34.1567C14.9881 34.2123 14.9842 41.2678 15.0397 41.4123C15.075 41.5045 15.2819 41.5179 16.671 41.5179C18.7219 41.5179 19.1583 41.4324 20.0225 40.8616C21.0337 40.1937 21.6043 39.0948 21.6043 37.815C21.6043 36.0928 20.5623 34.7211 18.8734 34.2197C18.5812 34.133 18.1796 34.1122 16.7996 34.1122C15.8583 34.1122 15.0681 34.1322 15.0437 34.1567ZM24.8735 34.2345C24.4082 34.3758 23.8594 34.6578 23.6233 34.8766C23.5227 34.9699 23.4194 35.0462 23.3936 35.0462C23.2948 35.0462 22.7207 35.8679 22.5422 36.2648C22.2129 36.9969 22.134 37.7701 22.3053 38.5846C22.458 39.3104 22.7658 39.874 23.3056 40.4164C24.6517 41.7688 26.7211 41.8805 28.2752 40.6846C28.4959 40.5148 28.6764 40.3548 28.6764 40.329C28.6764 40.3033 28.7534 40.1993 28.8474 40.0978C29.0603 39.8683 29.3621 39.2651 29.5034 38.787C29.5694 38.5636 29.6102 38.1798 29.6096 37.7862C29.6082 36.7178 29.2616 35.8841 28.5121 35.1463C28.0611 34.7023 27.6296 34.444 27.0059 34.2448C26.4757 34.0754 25.4141 34.0703 24.8735 34.2345ZM30.5606 37.7983L30.5778 41.4845L32.1123 41.5057C33.0975 41.5192 33.814 41.4981 34.1138 41.4468C35.8594 41.148 37.1594 39.5628 37.1471 37.7483C37.1384 36.4621 36.4093 35.218 35.2781 34.5589C34.5861 34.1557 34.2994 34.1122 32.3365 34.1122H30.5433L30.5606 37.7983ZM40.2387 34.2453C39.3855 34.5487 38.8656 34.9058 38.41 35.5017C37.722 36.4015 37.4823 37.4681 37.7171 38.5846C38.2792 41.2568 41.4409 42.4005 43.6327 40.7245C44.2383 40.2615 44.5948 39.7371 44.8926 38.8716C45.0739 38.3447 45.0708 37.3082 44.8862 36.7192C44.5052 35.5038 43.5485 34.5634 42.3433 34.2198C41.8125 34.0684 40.6981 34.0819 40.2387 34.2453ZM18.597 35.9109C19.6679 36.4573 20.0132 38.1076 19.2708 39.1314C18.8571 39.702 18.4688 39.8621 17.563 39.8358L16.9008 39.8166L16.8831 37.7983L16.8655 35.7801H17.603C18.204 35.7801 18.388 35.8043 18.597 35.9109ZM26.6453 35.9385C27.2914 36.2393 27.7016 36.9646 27.7 37.8033C27.6988 38.4417 27.5186 38.8836 27.0813 39.3204C26.7512 39.6502 26.6613 39.7022 26.2987 39.7734C25.4583 39.9383 24.759 39.594 24.3538 38.8158C24.2004 38.5211 24.1802 38.4045 24.1806 37.815C24.181 37.2631 24.2071 37.0928 24.331 36.8293C24.76 35.9178 25.7678 35.5299 26.6453 35.9385ZM34.1378 35.9087C34.4679 36.0771 34.8337 36.4879 35.0129 36.8912C35.2052 37.3243 35.218 38.1563 35.04 38.6577C34.8807 39.1065 34.3532 39.6536 33.9691 39.7687C33.82 39.8133 33.4089 39.8499 33.0554 39.8499H32.4126V37.815V35.7801H33.1492C33.7448 35.7801 33.9339 35.8047 34.1378 35.9087ZM42.0534 35.9391C42.4803 36.1409 42.7028 36.3816 42.9242 36.881C43.0579 37.1825 43.1031 37.3964 43.1075 37.7483C43.1161 38.4465 42.95 38.8671 42.4862 39.3217C42.16 39.6414 42.0505 39.7058 41.7129 39.7768C40.8934 39.9491 40.1735 39.5942 39.7637 38.8158C39.6071 38.5184 39.5884 38.4098 39.5908 37.815C39.5932 37.2671 39.6204 37.0909 39.7432 36.8293C40.1736 35.9124 41.1782 35.5254 42.0534 35.9391Z" fill="black"/>
</svg>
