<svg width="60" height="60" viewBox="0 0 60 60" fill="none" xmlns="http://www.w3.org/2000/svg">
<mask id="mask0" mask-type="alpha" maskUnits="userSpaceOnUse" x="0" y="0" width="60" height="60">
<path d="M30 60C46.5685 60 60 46.5685 60 30C60 13.4315 46.5685 0 30 0C13.4315 0 0 13.4315 0 30C0 46.5685 13.4315 60 30 60Z" fill="url(#paint0_radial)"/>
</mask>
<g mask="url(#mask0)">
<path d="M30.0513 59.2929C46.2566 59.2929 59.3936 46.178 59.3936 30C59.3936 13.8219 46.2566 0.707031 30.0513 0.707031C13.846 0.707031 0.708984 13.8219 0.708984 30C0.708984 46.178 13.846 59.2929 30.0513 59.2929Z" fill="url(#paint1_radial)"/>
<path d="M54.5366 32.9293C54.4354 33.9394 54.3342 35.0505 54.1318 36.0606C52.9177 37.5758 50.287 39.798 44.8232 42.5252C47.7575 42.3232 50.5905 41.4141 53.0189 39.798C50.287 47.0707 43.9126 52.5252 36.2229 53.9394L36.5265 53.8384C37.7406 53.3333 38.5501 52.2222 38.6512 51.0101C38.6512 50.6061 38.7524 50.202 38.6512 49.798C38.6512 49.596 38.6512 49.2929 38.6512 49.0909C38.5501 46.4646 37.4371 43.9394 35.5146 42.1212V41.3131C35.717 41.2121 35.9194 41.1111 36.2229 41.0101C37.2347 40.6061 38.1453 40 38.9548 39.2929L39.4607 38.8889C46.5433 32.3232 47.9598 16.5657 36.2229 5.85858C40.4725 7.0707 44.4185 9.39393 47.5551 12.4242C47.5551 12.5252 47.8587 13.9394 46.7457 17.5758C47.5551 16.3636 48.1622 14.9495 48.6681 13.5353C50.3882 15.5556 51.7035 17.8788 52.6141 20.303C52.9177 21.1111 53.2212 22.0202 53.4236 22.8283C52.2094 25.2525 50.6917 27.4747 48.9716 29.4949C50.8941 28.2828 52.513 26.7677 53.9295 25.0505C54.233 26.7677 54.4354 28.5859 54.4354 30.303C54.6377 31.3131 54.5366 32.1212 54.5366 32.9293Z" fill="url(#paint2_linear)"/>
<path d="M50.2872 22.2222C50.3884 19.2929 49.8825 16.3636 48.7695 13.6364C50.4896 15.6566 51.8049 17.8788 52.7156 20.303C53.0191 21.1111 53.3227 22.0202 53.525 22.8283C52.3108 25.2525 50.7931 27.4747 49.0731 29.4949C49.7813 27.1717 50.1861 24.7475 50.2872 22.2222Z" fill="url(#paint3_linear)"/>
<path d="M54.5366 32.9293C54.4354 33.9394 54.3342 35.0505 54.1318 36.0606C52.9177 37.5757 50.287 39.798 44.8232 42.5252C47.5551 39.4949 53.9295 29.6969 54.0307 25.2525C54.3342 26.9697 54.5366 28.7879 54.5366 30.505C54.6377 31.3131 54.5366 32.1212 54.5366 32.9293Z" fill="url(#paint4_linear)"/>
<path d="M43.0015 10.404C44.8228 13.2323 51.5007 29.2929 39.6626 38.7879C46.7452 32.2222 48.1617 16.4646 36.4248 5.75757C40.6744 6.96969 44.5192 9.29292 47.757 12.4242C46.2393 11.6162 44.7216 10.9091 43.0015 10.404Z" fill="url(#paint5_linear)"/>
<path d="M35.717 41.2121V42.0202C37.7406 43.9394 38.8536 46.5657 38.8536 49.2929C38.8536 49.3939 38.8536 49.596 38.8536 49.798C38.8536 51.0101 38.8536 53.1313 36.3241 54.0404C35.8182 54.9495 35.2111 55.8586 34.5028 56.5657C35.2111 54.8485 35.5147 52.9293 35.2111 51.0101C34.4017 55.3535 28.8367 58.9899 26.2061 63.0303C24.6883 65.1515 23.7777 67.6768 23.4742 70.404C23.1706 66.8687 23.4742 63.2323 24.3848 59.798C24.3848 59.697 24.486 59.596 24.486 59.495V59.3939C30.2533 49.899 28.1285 44.3434 28.1285 44.3434L26.6108 40.5051V40.404C26.6108 40.101 26.5096 39.798 26.5096 39.495C26.3072 37.6768 26.4084 35.8586 26.8131 34.1414C27.4202 31.6162 29.3426 29.697 31.8722 29.1919C30.5568 28.6869 29.7474 27.5758 29.545 26.1616C29.8485 26.6667 31.0627 27.3737 34.1993 28.1818C40.0678 29.495 38.4489 32.2222 38.6512 32.4242C39.7642 33.4343 40.169 35.0505 39.8654 36.5657C38.8536 34.7475 37.0324 33.6364 34.9076 33.7374C34.4017 33.7374 33.9969 33.8384 33.5922 34.0404C31.2651 34.8485 32.884 38.6869 35.717 41.2121Z" fill="url(#paint6_linear)"/>
<path d="M39.6626 36.2626C39.6626 36.2626 39.8649 33.4343 36.4248 31.8182C36.9307 31.8182 37.4366 31.8182 37.8413 32.0202C37.4366 31.1111 36.2224 29.2929 32.9847 29.596C33.4906 29.3939 34.0977 29.2929 34.7047 29.2929C34.7047 29.2929 30.7587 28.6869 29.4434 26.0606C29.7469 26.5657 30.9611 27.2727 34.0977 28.0808C39.9661 29.3939 38.3472 32.1212 38.5496 32.3232C39.5614 33.2323 40.0673 34.8485 39.6626 36.2626Z" fill="url(#paint7_linear)"/>
<path d="M36.4256 31.0101C36.0208 31.1111 35.6161 31.1111 35.2114 30.9091C34.9079 30.7071 34.6043 30.6061 34.3008 30.505C34.3008 30.505 35.8185 30 36.4256 31.0101Z" fill="#E92929"/>
<path d="M38.8536 47.8788C38.8536 45.3535 37.7406 42.9293 35.717 41.3131C32.884 38.6869 31.1639 34.9495 33.2887 33.8384C32.1757 34.3434 31.5686 35.6566 31.771 36.8687C31.9733 39.2929 33.3899 40.8081 33.3899 45.1515C33.7946 44.0404 33.8958 42.9293 33.8958 41.8182C34.7052 42.0202 38.7524 44.1414 38.6513 50.505C38.8536 49.596 38.8536 48.6869 38.8536 47.8788Z" fill="#D17F2A"/>
<path d="M53.0186 39.798C50.2867 47.0707 43.9124 52.5252 36.2227 53.9394C37.538 51.5151 37.8415 48.6869 37.1333 46.0606C38.1451 47.3737 38.651 48.8889 38.651 50.505C38.7522 49.5959 38.8533 48.7879 38.7522 47.8788C46.5431 47.8788 52.8163 40 53.0186 39.798Z" fill="url(#paint8_linear)"/>
<path d="M39.3597 47.8788C39.3597 48.8889 39.1573 49.899 38.7526 50.9091V51.0101C38.7526 51.1111 38.6514 51.2121 38.6514 51.3131C38.5502 50 38.2467 48.7879 37.842 47.5758C38.1455 49.697 37.7408 51.8182 36.729 53.7374C36.729 53.7374 36.729 53.7374 36.729 53.8384L36.4254 53.9394C37.7408 51.5152 38.0443 48.6869 37.3361 46.0606C38.3479 47.3737 38.8538 48.8889 38.8538 50.5051C38.8538 50.202 38.955 49.697 38.955 49.2929C38.955 49.1919 38.955 49.0909 38.955 49.0909C38.955 48.6869 38.955 48.2828 38.955 47.8788C38.955 45.3535 37.842 42.9293 35.8184 41.3131C36.0207 41.2121 36.2231 41.1111 36.5266 41.0101C38.3479 42.8283 39.3597 45.2525 39.3597 47.8788Z" fill="url(#paint9_linear)"/>
<path d="M24.3847 59.1919C17.7068 66.1616 15.9867 76.4646 20.0339 85.1515C19.8316 85.0505 14.2666 81.3131 14.7725 67.2727C13.356 68.7879 12.7489 72.9293 12.7489 76.0606C12.7489 79.1919 13.2548 80.8081 13.7607 84.2424C14.2666 88.1818 13.8619 94.1414 11.8383 97.5757C11.8383 97.3737 12.3442 89.1919 10.0171 83.9394C4.45213 72.4242 9.30879 58.3838 20.9445 52.8283C22.0575 52.3232 23.2717 51.8182 24.4859 51.5151C22.0575 51.1111 19.6292 51.5151 17.5044 52.8283C12.6477 49.5959 9.10643 44.7475 7.38636 39.0909C10.0171 41.0101 13.2548 42.1212 16.4926 42.2222C10.3206 39.798 7.48754 36.6667 6.37456 34.9495C5.76748 30.505 6.07102 26.0606 7.48754 21.8182C7.48754 21.8182 7.48754 21.8182 7.48754 21.7172C8.80289 24.7475 10.7253 27.4747 13.0525 29.798C9.40997 24.2424 9.00525 19.697 9.00525 17.7778C10.4218 14.9495 12.3442 12.3232 14.6714 10.202C14.3678 12.8283 14.6714 15.4545 15.7843 17.7778C15.6832 14.5454 16.0879 11.4141 16.9985 8.28282C20.2363 5.95959 23.98 4.64646 27.926 4.24242C14.7725 16.0606 18.2127 32.4242 24.587 38.7879C25.1941 39.3939 25.8012 39.899 26.4083 40.303C28.1284 41.8182 29.3425 43.8384 29.7472 46.1616C30.759 50.101 27.926 55.7576 24.3847 59.1919Z" fill="url(#paint10_linear)"/>
<path d="M13.1538 29.798C11.7373 25.5555 10.8267 17.2727 14.7727 10.202C13.5585 13.9394 13.7609 17.8788 15.0762 21.5151C14.7727 25.3535 15.3798 29.1919 16.7963 32.7273C15.481 31.9192 14.2668 30.9091 13.1538 29.798Z" fill="url(#paint11_linear)"/>
<path d="M13.1537 29.798C9.51117 24.2424 9.10645 19.697 9.10645 17.7778C10.523 14.9495 12.4454 12.3232 14.7725 10.202C10.8265 17.2727 11.7371 25.6566 13.1537 29.798Z" fill="url(#paint12_linear)"/>
<path d="M16.5942 42.2222C10.4222 39.798 7.58911 36.6667 6.47612 34.9495C5.86904 30.505 6.17258 26.0606 7.58911 21.8182C6.5773 37.5758 15.9871 41.9192 16.5942 42.2222Z" fill="url(#paint13_linear)"/>
<path d="M24.6881 38.7879C11.9394 27.0707 20.8433 8.88888 23.3728 6.86868C21.3492 6.76767 17.302 8.18181 17.0996 8.28282C20.3374 5.95959 24.0811 4.64646 28.0271 4.24242C14.9748 16.1616 18.415 32.4242 24.6881 38.7879Z" fill="url(#paint14_linear)"/>
<path d="M21.2477 42.1212C19.73 42.3232 18.1112 42.3232 16.5934 42.2222C16.0875 42.0202 6.67777 37.5758 7.58839 21.8182C10.8262 34.4444 18.4147 40.7071 21.2477 42.1212Z" fill="url(#paint15_linear)"/>
<path d="M16.9985 71.5152C16.6949 82.2222 19.9327 85.0505 20.0339 85.2525C19.8315 85.1515 14.2666 81.4141 14.7725 67.3737C13.356 68.8889 12.7489 73.0303 12.7489 76.1616C12.7489 79.2929 13.356 80.9091 13.7607 84.3434C14.2666 88.2828 13.8619 94.2424 11.8383 97.6768C12.8501 93.0303 12.8501 88.2828 11.7371 83.6364C9.81467 76.5657 6.07099 60.101 24.3847 51.5152C21.9563 51.1111 19.528 51.5152 17.4032 52.8283C12.5465 49.596 9.00522 44.7475 7.28516 39.0909C12.5465 45.4545 20.3374 46.9697 25.1941 46.9697C26.0035 49.697 25.7 52.7273 24.2835 55.2525C22.5634 58.8889 17.302 60.6061 16.9985 71.5152Z" fill="url(#paint16_linear)"/>
<path d="M11.7373 83.5353C12.8503 88.1818 12.8503 92.9293 11.8385 97.5757C11.8385 97.3737 12.3444 89.1919 10.0172 83.9394C4.4523 72.3232 9.30896 58.3838 20.9447 52.8283C22.0577 52.3232 23.2719 51.8182 24.3848 51.5151C6.17237 60 9.81486 76.5656 11.7373 83.5353Z" fill="url(#paint17_linear)"/>
<path d="M24.4863 59.1919C27.9265 55.7575 30.7595 50.101 29.9501 46.0606C29.5454 43.7373 28.3312 41.7171 26.6111 40.202V40.101C26.6111 39.798 26.5099 39.4949 26.5099 39.1919C26.4088 39.2929 37.1339 47.5757 24.4863 59.1919Z" fill="url(#paint18_linear)"/>
<path d="M30.0506 60C13.457 60 0 46.5657 0 30C0 13.4343 13.457 0 30.0506 0C46.6442 0 60 13.4343 60 30C60 46.5657 46.6442 59.899 30.0506 60ZM30.0506 1.41414C14.2664 1.41414 1.41653 14.2424 1.41653 30C1.41653 45.7576 14.2664 58.5859 30.0506 58.5859C45.8347 58.5859 58.5835 45.7576 58.5835 30C58.5835 14.2424 45.8347 1.41414 30.0506 1.41414Z" fill="url(#paint19_linear)"/>
</g>
<defs>
<radialGradient id="paint0_radial" cx="0" cy="0" r="1" gradientUnits="userSpaceOnUse" gradientTransform="translate(30 30) scale(29.9424)">
<stop stop-color="#3E57A6"/>
<stop offset="0.18" stop-color="#3C54A1"/>
<stop offset="0.4" stop-color="#354B92"/>
<stop offset="0.65" stop-color="#2B3D79"/>
<stop offset="0.91" stop-color="#1C2856"/>
<stop offset="1" stop-color="#162048"/>
</radialGradient>
<radialGradient id="paint1_radial" cx="0" cy="0" r="1" gradientUnits="userSpaceOnUse" gradientTransform="translate(30.0513 30) scale(29.286 29.2367)">
<stop stop-color="#3E57A6"/>
<stop offset="0.18" stop-color="#3C54A1"/>
<stop offset="0.4" stop-color="#354B92"/>
<stop offset="0.65" stop-color="#2B3D79"/>
<stop offset="0.91" stop-color="#1C2856"/>
<stop offset="1" stop-color="#162048"/>
</radialGradient>
<linearGradient id="paint2_linear" x1="23.1853" y1="47.0502" x2="55.5046" y2="12.2889" gradientUnits="userSpaceOnUse">
<stop stop-color="#EB2627"/>
<stop offset="0.13" stop-color="#ED4229"/>
<stop offset="0.43" stop-color="#F2822D"/>
<stop offset="0.69" stop-color="#F5B130"/>
<stop offset="0.89" stop-color="#F7CD31"/>
<stop offset="1" stop-color="#F8D832"/>
</linearGradient>
<linearGradient id="paint3_linear" x1="45.9909" y1="30.8543" x2="53.4466" y2="12.5425" gradientUnits="userSpaceOnUse">
<stop stop-color="#B78A3E"/>
<stop offset="1" stop-color="#CEAE4C"/>
</linearGradient>
<linearGradient id="paint4_linear" x1="57.091" y1="25.8891" x2="40.386" y2="52.4397" gradientUnits="userSpaceOnUse">
<stop stop-color="#B78A3E"/>
<stop offset="1" stop-color="#EB2627"/>
</linearGradient>
<linearGradient id="paint5_linear" x1="39.0256" y1="42.9185" x2="44.5821" y2="-18.6085" gradientUnits="userSpaceOnUse">
<stop stop-color="#EB2627"/>
<stop offset="0.06" stop-color="#ED4129"/>
<stop offset="0.16" stop-color="#F0692B"/>
<stop offset="0.26" stop-color="#F28C2D"/>
<stop offset="0.37" stop-color="#F4A72F"/>
<stop offset="0.49" stop-color="#F6BD30"/>
<stop offset="0.62" stop-color="#F7CC31"/>
<stop offset="0.78" stop-color="#F8D532"/>
<stop offset="1" stop-color="#F8D832"/>
</linearGradient>
<linearGradient id="paint6_linear" x1="24.3192" y1="76.5295" x2="36.7654" y2="26.6509" gradientUnits="userSpaceOnUse">
<stop stop-color="#EB2627"/>
<stop offset="1" stop-color="#F8D832"/>
</linearGradient>
<linearGradient id="paint7_linear" x1="47.0185" y1="36.4167" x2="27.2078" y2="27.8368" gradientUnits="userSpaceOnUse">
<stop stop-color="#EB2627"/>
<stop offset="1" stop-color="#F8D832"/>
</linearGradient>
<linearGradient id="paint8_linear" x1="59.9656" y1="40.8016" x2="24.6502" y2="55.1663" gradientUnits="userSpaceOnUse">
<stop stop-color="#B78A3E"/>
<stop offset="1" stop-color="#EB2627"/>
</linearGradient>
<linearGradient id="paint9_linear" x1="37.4065" y1="55.9095" x2="37.7594" y2="34.0205" gradientUnits="userSpaceOnUse">
<stop stop-color="#8E5323"/>
<stop offset="1" stop-color="#E59B29"/>
</linearGradient>
<linearGradient id="paint10_linear" x1="16.2387" y1="85.8753" x2="18.6186" y2="23.0166" gradientUnits="userSpaceOnUse">
<stop stop-color="#EB2627"/>
<stop offset="0.11" stop-color="#EC2E27"/>
<stop offset="0.28" stop-color="#ED4429"/>
<stop offset="0.49" stop-color="#F0682B"/>
<stop offset="0.74" stop-color="#F3992E"/>
<stop offset="1" stop-color="#F8D832"/>
</linearGradient>
<linearGradient id="paint11_linear" x1="17.8842" y1="34.1378" x2="13.4159" y2="18.0229" gradientUnits="userSpaceOnUse">
<stop stop-color="#B78A3E"/>
<stop offset="1" stop-color="#CEAE4C"/>
</linearGradient>
<linearGradient id="paint12_linear" x1="12.6581" y1="29.9315" x2="10.6715" y2="-13.8365" gradientUnits="userSpaceOnUse">
<stop stop-color="#B78A3E"/>
<stop offset="1" stop-color="#CEAE4C"/>
</linearGradient>
<linearGradient id="paint13_linear" x1="12.3471" y1="41.1635" x2="-0.957717" y2="-1.21294" gradientUnits="userSpaceOnUse">
<stop stop-color="#B78A3E"/>
<stop offset="1" stop-color="#CEAE4C"/>
</linearGradient>
<linearGradient id="paint14_linear" x1="29.0773" y1="38.7379" x2="19.0114" y2="-0.391539" gradientUnits="userSpaceOnUse">
<stop stop-color="#EB2627"/>
<stop offset="0.06" stop-color="#ED4129"/>
<stop offset="0.16" stop-color="#F0692B"/>
<stop offset="0.26" stop-color="#F28C2D"/>
<stop offset="0.37" stop-color="#F4A72F"/>
<stop offset="0.49" stop-color="#F6BD30"/>
<stop offset="0.62" stop-color="#F7CC31"/>
<stop offset="0.78" stop-color="#F8D532"/>
<stop offset="1" stop-color="#F8D832"/>
</linearGradient>
<linearGradient id="paint15_linear" x1="23.2631" y1="43.209" x2="6.747" y2="27.2114" gradientUnits="userSpaceOnUse">
<stop stop-color="#B78A3E"/>
<stop offset="1" stop-color="#CEAE4C"/>
</linearGradient>
<linearGradient id="paint16_linear" x1="10.0561" y1="93.2728" x2="18.6683" y2="28.0267" gradientUnits="userSpaceOnUse">
<stop stop-color="#EB2627"/>
<stop offset="0.19" stop-color="#E4332A"/>
<stop offset="0.56" stop-color="#D25732"/>
<stop offset="1" stop-color="#B78A3E"/>
</linearGradient>
<linearGradient id="paint17_linear" x1="8.74184" y1="97.1173" x2="17.8792" y2="52.4244" gradientUnits="userSpaceOnUse">
<stop stop-color="#602E8A"/>
<stop offset="0.51" stop-color="#E92929"/>
<stop offset="1" stop-color="#F8D833"/>
</linearGradient>
<linearGradient id="paint18_linear" x1="25.4619" y1="60.7707" x2="30.4944" y2="33.6564" gradientUnits="userSpaceOnUse">
<stop stop-color="#8E5323"/>
<stop offset="1" stop-color="#E59B29"/>
</linearGradient>
<linearGradient id="paint19_linear" x1="0" y1="30" x2="60" y2="30" gradientUnits="userSpaceOnUse">
<stop stop-color="#EF7126"/>
<stop offset="1" stop-color="#F8D832"/>
</linearGradient>
</defs>
</svg>
