<svg width="60" height="60" viewBox="0 0 60 60" fill="none" xmlns="http://www.w3.org/2000/svg">
<g clip-path="url(#clip0_12940_100860)">
<path d="M30 60C46.5685 60 60 46.5685 60 30C60 13.4315 46.5685 0 30 0C13.4315 0 0 13.4315 0 30C0 46.5685 13.4315 60 30 60Z" fill="url(#paint0_linear_12940_100860)"/>
<path d="M30 1.32187C35.672 1.32187 41.2166 3.00382 45.9327 6.15501C50.6488 9.3062 54.3246 13.7851 56.4951 19.0254C58.6657 24.2656 59.2336 30.0318 58.1271 35.5948C57.0205 41.1578 54.2892 46.2678 50.2785 50.2785C46.2678 54.2892 41.1578 57.0205 35.5948 58.1271C30.0318 59.2336 24.2656 58.6657 19.0254 56.4951C13.7851 54.3246 9.30622 50.6488 6.15502 45.9327C3.00383 41.2166 1.32189 35.672 1.32189 30C1.32933 22.3964 4.35316 15.1063 9.72974 9.72973C15.1063 4.35315 22.3964 1.32932 30 1.32187ZM30 0C24.0666 0 18.2664 1.75947 13.3329 5.05591C8.39943 8.35235 4.55426 13.0377 2.28363 18.5195C0.0129984 24.0013 -0.581101 30.0333 0.576455 35.8527C1.73401 41.6721 4.59123 47.0176 8.78681 51.2132C12.9824 55.4088 18.3279 58.266 24.1473 59.4236C29.9667 60.5811 35.9987 59.987 41.4805 57.7164C46.9623 55.4458 51.6477 51.6006 54.9441 46.6671C58.2405 41.7336 60 35.9334 60 30C60 22.0435 56.8393 14.4129 51.2132 8.7868C45.5871 3.16071 37.9565 0 30 0V0Z" fill="#818588"/>
<path d="M7.54225 33.7499L20.5969 20.6718C21.9656 19.2806 23.6238 18.2079 25.4538 17.53C27.2839 16.852 29.2408 16.5855 31.1855 16.7492C33.1301 16.913 35.0149 17.5031 36.7058 18.4776C38.3966 19.452 39.8521 20.7869 40.9688 22.3874C41.0063 22.4249 41.0485 22.4577 41.086 22.4999C41.7142 23.2536 42.5594 23.7953 43.5065 24.0513C44.4536 24.3074 45.4567 24.2652 46.379 23.9306C47.3013 23.596 48.098 22.9852 48.6607 22.1815C49.2234 21.3778 49.5247 20.4201 49.5235 19.439C49.456 18.3884 49.1079 17.375 48.5157 16.5046C46.529 13.7894 43.9672 11.5464 41.0132 9.936C38.0592 8.32558 34.786 7.38744 31.4275 7.18861C28.0689 6.98979 24.7079 7.53518 21.5845 8.78583C18.4612 10.0365 15.6526 11.9615 13.3594 14.4234C11.2057 16.7121 9.55171 19.4239 8.50262 22.3863C7.45353 25.3488 7.03229 28.4971 7.26568 31.6312C7.34537 32.3437 7.42506 33.0421 7.54225 33.7499Z" fill="#A7FF58"/>
<path d="M51.5625 32.6296C51.2313 32.1993 50.8051 31.8514 50.3172 31.6131C49.8293 31.3749 49.2929 31.2527 48.75 31.2562H34.95H34.8562C34.3787 31.2559 33.9061 31.3517 33.4664 31.5377C33.0267 31.7237 32.6288 31.9962 32.2965 32.3391C31.9642 32.6819 31.7042 33.088 31.5319 33.5333C31.3596 33.9786 31.2786 34.454 31.2937 34.9312C31.3453 36.7734 33.1078 38.3859 35.0437 38.3859H35.9812C36.3444 38.3944 36.6973 38.5083 36.997 38.7137C37.2967 38.9191 37.5303 39.2072 37.6693 39.5428C37.8084 39.8785 37.8469 40.2473 37.7802 40.6045C37.7135 40.9616 37.5445 41.2917 37.2937 41.5546L26.3718 52.5468C27.0656 52.6593 27.7781 52.7437 28.4671 52.7906C33.7853 53.1612 39.0662 51.6643 43.3988 48.558C47.7314 45.4517 50.8441 40.9307 52.2 35.7749C52.3431 35.237 52.3601 34.6732 52.2495 34.1276C52.1389 33.582 51.9038 33.0694 51.5625 32.6296Z" fill="#A7FF58"/>
<path d="M29.9531 19.2186C28.0334 19.2746 26.1709 19.8851 24.5906 20.9765L24.4594 21.0655C23.0808 21.9781 21.7964 23.0254 20.625 24.1921L6.11718 38.6624C5.46561 39.3093 5.87811 41.0624 7.91718 40.2233L9.84374 39.5014C11.8781 38.953 13.3734 39.0889 14.4891 40.5561C15.4266 41.8124 14.8266 43.8655 14.8266 43.8655C14.3859 45.314 15.4969 46.3077 16.7016 45.8202L17.4797 45.5343C18.3629 45.2249 19.3292 45.2518 20.1939 45.6097C21.0586 45.9677 21.7611 46.6317 22.1672 47.4749C22.5453 48.2267 22.6289 49.0927 22.4016 49.903C22.3121 50.158 22.3155 50.4363 22.411 50.689C22.5065 50.9418 22.688 51.1528 22.9237 51.2849C23.1594 51.417 23.4341 51.4618 23.6995 51.4114C23.965 51.361 24.2042 51.2186 24.375 51.0093L34.4766 40.8749C31.4062 40.5843 28.875 38.0202 28.7859 35.0155C28.7603 34.217 28.893 33.4214 29.1762 32.6744C29.4594 31.9274 29.8876 31.2438 30.4362 30.663C30.9847 30.0822 31.6428 29.6156 32.3724 29.2903C33.102 28.9649 33.8888 28.7871 34.6875 28.7671C34.7483 28.7625 34.8095 28.7625 34.8703 28.7671H40.8047C40.4935 26.1167 39.213 23.6751 37.2096 21.9123C35.2062 20.1495 32.6215 19.19 29.9531 19.2186ZM24.15 28.1718C23.6062 29.6671 22.4859 30.6327 21.6516 30.328C20.8172 30.0233 20.5781 28.5608 21.1219 27.0468C21.6656 25.5327 22.7859 24.5858 23.6203 24.8905C24.4547 25.1952 24.6937 26.6765 24.15 28.1718ZM29.8172 28.1718C29.2734 29.6671 28.1531 30.6327 27.3187 30.328C26.4844 30.0233 26.2453 28.5608 26.7891 27.0468C27.3328 25.5327 28.4531 24.5858 29.2875 24.8905C30.1219 25.1952 30.3656 26.6765 29.8172 28.1718Z" fill="white"/>
</g>
<defs>
<linearGradient id="paint0_linear_12940_100860" x1="0" y1="30" x2="60" y2="30" gradientUnits="userSpaceOnUse">
<stop stop-color="#344652"/>
<stop offset="1" stop-color="#333336"/>
</linearGradient>
<clipPath id="clip0_12940_100860">
<rect width="60" height="60" fill="white"/>
</clipPath>
</defs>
</svg>
