<svg width="60" height="60" viewBox="0 0 60 60" fill="none" xmlns="http://www.w3.org/2000/svg">
    <circle r="30" cx="30" cy="30" fill="white"/>
    <path fill-rule="evenodd" clip-rule="evenodd"
          d="M11.9966 21.1233C14.9024 21.1233 18.8938 22.5576 20.2068 25.4039L14.527 27.4879C14.0607 26.6481 13.1953 26.2061 12.2182 26.2061C10.0427 26.2061 8.84403 28.0622 8.84403 30.0734C8.84403 31.9077 9.99824 33.6319 11.9742 33.6319C12.9289 33.6319 14.1497 33.1892 14.4383 32.1726H11.6857V28.2393H19.7461L18.501 35.901C16.7404 37.4739 14.2923 38.3172 11.9521 38.3172C6.84658 38.3172 2.71753 35.1789 2.71753 29.8306C2.71722 24.3942 6.73546 21.1233 11.9966 21.1233ZM43.3432 29.19L38.0867 21.395L44.9413 21.3885L46.1845 23.7532C46.4289 24.1953 46.5621 24.6594 46.6953 25.1235H46.8285C46.939 24.6373 47.1392 24.1953 47.3611 23.7532L48.5156 21.3885H55.3746L50.1358 29.1897L56.1079 38.0516H49.1821L47.2724 34.5159C47.102 34.1972 46.9822 33.8541 46.9172 33.4986H46.7398C46.627 33.8977 46.4706 34.2832 46.2735 34.6482L44.409 38.0516H40.8384L40.1679 33.9917L43.3432 29.19Z"
          fill="black"/>
    <path fill-rule="evenodd" clip-rule="evenodd"
          d="M31.8923 21.3887H38.0826L40.1678 33.9922L37.4831 38.0521H34.9558L34.1344 28.9246H34.0232C33.9121 29.4771 33.8013 30.0521 33.6239 30.5822L31.2043 38.0521H27.6521L25.4766 31.0024C25.2992 30.2955 25.1438 29.6322 25.0993 28.9249H24.8995C24.855 29.588 24.8105 30.2731 24.7438 30.9361L24.0335 38.0521H18.1514L18.5009 35.9012C18.6943 35.7282 18.8794 35.5463 19.0556 35.3559C21.0313 33.2342 21.0313 30.9579 21.0758 28.2395H19.7463L20.2058 25.4125L20.8598 21.3887H27.1198L29.4285 30.1402H29.5839C29.695 29.4111 29.8055 28.6373 30.0056 27.9301L31.8923 21.3887Z"
          fill="black"/>
</svg>
