<svg width="60" height="60" viewBox="0 0 60 60" fill="none" xmlns="http://www.w3.org/2000/svg">
<circle cx="30" cy="30" r="30" fill="#E7EFF3"/>
<circle cx="30" cy="30" r="30" fill="#090A1E"/>
<path fill-rule="evenodd" clip-rule="evenodd" d="M5.05187 23.0681H6.68625C6.715 23.0681 6.7375 23.0924 6.7375 23.1218V36.1513C6.7375 36.1807 6.715 36.2043 6.68625 36.2043H5.05187C5.02312 36.2043 5 36.1807 5 36.1513V23.1218C5 23.0924 5.02312 23.0688 5.05187 23.0688" fill="white"/>
<path fill-rule="evenodd" clip-rule="evenodd" d="M27.8213 27.8051L31.1913 33.7885L34.5619 27.8051H27.8213Z" fill="url(#paint0_linear)"/>
<path fill-rule="evenodd" clip-rule="evenodd" d="M31.0109 34.9937L26.7059 27.3513L24.6084 26.1245L31.0103 37.4894L31.0109 34.9937ZM24.7734 25.7939L26.9084 27.0424H35.4597L37.5947 25.7939H24.7734ZM35.6853 27.3379L31.3728 34.993L31.3721 37.4913L37.7822 26.1111L35.6853 27.3379Z" fill="#FBAE17"/>
<mask id="mask0" mask-type="alpha" maskUnits="userSpaceOnUse" x="16" y="15" width="30" height="30">
<path d="M31.1814 15.1851C23.5126 15.1851 17.0482 21.3114 16.7889 29.0636C16.7764 29.4708 16.7764 30.6925 16.7764 30.6925H20.8951C21.2589 36.1908 25.722 40.5357 31.1789 40.5357C36.8726 40.5357 41.4889 35.8046 41.4889 29.9687H43.9614V29.9706C43.9614 37.2051 38.2395 43.0697 31.1814 43.0697C28.0689 43.0697 25.2189 41.9259 23.0032 40.0295C23.0495 39.87 23.0757 39.7002 23.0757 39.5253C23.0757 38.55 22.3045 37.7597 21.3539 37.7597C20.4026 37.7597 19.632 38.55 19.632 39.5246C19.632 40.4993 20.4026 41.2895 21.3539 41.2895C21.5182 41.2895 21.6764 41.2646 21.827 41.2206C24.3457 43.4234 27.6107 44.7555 31.1814 44.7555C39.1476 44.7555 45.6064 38.1363 45.6064 29.9706V28.3391H41.367C40.6026 23.2761 36.3326 19.4004 31.1782 19.4004C25.782 19.4004 21.3564 23.6508 20.9082 29.0629H18.4357C18.8907 22.2523 24.4207 16.8714 31.1814 16.8714C34.0282 16.8714 36.6557 17.8276 38.7801 19.4406C38.7257 19.6123 38.6957 19.7948 38.6957 19.9851C38.6957 20.9597 39.4664 21.75 40.4176 21.75C41.3682 21.75 42.1395 20.9597 42.1395 19.9851C42.1395 19.0104 41.3682 18.2202 40.4176 18.2202C40.2732 18.2202 40.1339 18.24 39.9995 18.2744C37.5607 16.3404 34.5032 15.1851 31.1807 15.1851H31.1814ZM22.512 29.968C22.512 25.0621 26.3926 21.0848 31.1789 21.0848C35.9657 21.0848 39.8457 25.0614 39.8457 29.968C39.8457 34.874 35.9657 38.8506 31.1789 38.8506C26.3926 38.8506 22.512 34.874 22.512 29.968Z" fill="white"/>
</mask>
<g mask="url(#mask0)">
<path fill-rule="evenodd" clip-rule="evenodd" d="M31.1814 15.1851C23.5126 15.1851 17.0482 21.3114 16.7889 29.0636C16.7764 29.4708 16.7764 30.6925 16.7764 30.6925H20.8951C21.2589 36.1908 25.722 40.5357 31.1789 40.5357C36.8726 40.5357 41.4889 35.8046 41.4889 29.9687H43.9614V29.9706C43.9614 37.2051 38.2395 43.0697 31.1814 43.0697C28.0689 43.0697 25.2189 41.9259 23.0032 40.0295C23.0495 39.87 23.0757 39.7002 23.0757 39.5253C23.0757 38.55 22.3045 37.7597 21.3539 37.7597C20.4026 37.7597 19.632 38.55 19.632 39.5246C19.632 40.4993 20.4026 41.2895 21.3539 41.2895C21.5182 41.2895 21.6764 41.2646 21.827 41.2206C24.3457 43.4234 27.6107 44.7555 31.1814 44.7555C39.1476 44.7555 45.6064 38.1363 45.6064 29.9706V28.3391H41.367C40.6026 23.2761 36.3326 19.4004 31.1782 19.4004C25.782 19.4004 21.3564 23.6508 20.9082 29.0629H18.4357C18.8907 22.2523 24.4207 16.8714 31.1814 16.8714C34.0282 16.8714 36.6557 17.8276 38.7801 19.4406C38.7257 19.6123 38.6957 19.7948 38.6957 19.9851C38.6957 20.9597 39.4664 21.75 40.4176 21.75C41.3682 21.75 42.1395 20.9597 42.1395 19.9851C42.1395 19.0104 41.3682 18.2202 40.4176 18.2202C40.2732 18.2202 40.1339 18.24 39.9995 18.2744C37.5607 16.3404 34.5032 15.1851 31.1807 15.1851H31.1814ZM22.512 29.968C22.512 25.0621 26.3926 21.0848 31.1789 21.0848C35.9657 21.0848 39.8457 25.0614 39.8457 29.968C39.8457 34.874 35.9657 38.8506 31.1789 38.8506C26.3926 38.8506 22.512 34.874 22.512 29.968Z" fill="url(#paint1_linear)"/>
</g>
<path fill-rule="evenodd" clip-rule="evenodd" d="M53.3088 23.0684C53.2806 23.0684 53.2588 23.0914 53.2588 23.1195V33.8671H53.2219L46.1937 23.1163C46.175 23.0863 46.1413 23.0684 46.1063 23.0684H43.9344C43.9056 23.0684 43.8825 23.0926 43.8825 23.122V27.7943C43.8825 27.8237 43.9056 27.8473 43.9344 27.8473H45.5681C45.5969 27.8473 45.62 27.8237 45.62 27.7943V25.4065H45.6562L52.7738 36.1809C52.7831 36.1956 52.7988 36.2039 52.815 36.2039H54.9463C54.9744 36.2039 54.9963 36.1809 54.9963 36.1529V23.1201C54.9963 23.0914 54.9744 23.069 54.9463 23.069H53.3088V23.0684ZM11.7219 28.8565H9.44062V24.6278H11.7219C12.0594 24.6278 12.3944 24.6552 12.7269 24.7107C13.0581 24.7669 13.3537 24.869 13.6137 25.0171C13.8731 25.1658 14.0812 25.379 14.2381 25.6573C14.3944 25.9356 14.4731 26.2975 14.4731 26.7424C14.4731 27.188 14.395 27.5499 14.2381 27.8275C14.0812 28.1065 13.8731 28.3197 13.6131 28.4684C13.3537 28.6165 13.0581 28.7186 12.7269 28.7748C12.3944 28.8297 12.06 28.8578 11.7219 28.8578V28.8565ZM21.3769 34.6184H15.9244C15.875 34.6184 15.83 34.5929 15.8038 34.5501L13.17 30.2122C13.6525 30.1631 14.09 30.0297 14.4825 29.8133C14.8744 29.5963 15.2062 29.3307 15.4781 29.0154C15.7494 28.7001 15.9575 28.3478 16.1031 27.9578C16.2469 27.5684 16.32 27.1631 16.32 26.7424C16.32 26.3339 16.2594 25.9107 16.1388 25.4722C16.0181 25.0331 15.8038 24.6367 15.4963 24.285C15.1881 23.932 14.7687 23.6416 14.2381 23.4124C13.7069 23.1833 13.0312 23.0684 12.2106 23.0684H7.755C7.72625 23.0684 7.70312 23.0926 7.70312 23.1214V36.1509C7.70312 36.1803 7.72625 36.2039 7.755 36.2039H9.38937C9.41812 36.2039 9.44125 36.1803 9.44125 36.1509V30.4152H11.3788L14.4812 35.9275C14.5769 36.0986 14.755 36.2039 14.9475 36.2039H22.255C21.9212 35.7035 21.6281 35.1731 21.3769 34.6178" fill="white"/>
<defs>
<linearGradient id="paint0_linear" x1="31.1916" y1="33.7885" x2="31.1916" y2="27.8051" gradientUnits="userSpaceOnUse">
<stop stop-color="#EAA921"/>
<stop offset="1" stop-color="#EC6523"/>
</linearGradient>
<linearGradient id="paint1_linear" x1="31.1914" y1="44.7555" x2="31.1914" y2="15.1851" gradientUnits="userSpaceOnUse">
<stop stop-color="#E9A821"/>
<stop offset="1" stop-color="#EB6623"/>
</linearGradient>
</defs>
</svg>
