<svg width="60" height="60" viewBox="0 0 60 60" fill="none" xmlns="http://www.w3.org/2000/svg">
<circle cx="30" cy="30" r="30" fill="#EDF0F4"/>
<g clip-path="url(#clip0)">
<path d="M42.8192 26.2648C41.6596 26.2648 40.4988 26.2814 39.3391 26.2552C38.955 26.2469 38.811 26.3901 38.7389 26.7388C38.4892 27.9626 38.2311 29.1864 37.9502 30.403C37.8554 30.8138 37.9754 30.9153 38.38 30.9117C40.1002 30.8938 41.8205 30.9141 43.5407 30.8974C43.9369 30.8938 44.0437 30.963 43.9429 31.3905C43.5599 33.0131 43.1986 34.6417 42.8865 36.2786C42.8024 36.7168 42.6092 36.7562 42.2478 36.7538C40.548 36.7407 38.847 36.7598 37.1472 36.7395C36.7426 36.7347 36.5542 36.8207 36.4629 37.2541C35.8903 39.9716 35.2685 42.6795 34.7019 45.3994C34.6034 45.8698 34.4305 46.0024 33.9636 46C27.3035 45.9677 20.6435 45.9546 13.9835 45.9295C13.4445 45.9271 12.9067 45.8662 12.3677 45.8483C12.04 45.8376 11.9547 45.6764 12.0207 45.3851C12.4025 43.7004 12.6018 41.9858 12.8743 40.2833C12.9295 39.9357 13.0795 39.8354 13.4265 39.8427C14.4865 39.863 15.5464 39.8486 16.6064 39.8403C20.784 39.8068 24.9615 39.7603 29.1391 39.7483C29.6312 39.7471 29.7933 39.5573 29.8833 39.1346C30.8785 34.4363 31.8832 29.7393 32.8831 25.0421C33.1641 23.7216 33.4462 22.4011 33.7043 21.0769C33.7943 20.6113 33.9456 20.3737 34.5049 20.4023C36.1195 20.4835 37.7449 20.5002 39.3548 20.4668C42.0522 20.4107 44.7496 20.4859 47.4457 20.4059C48.022 20.3892 48.058 20.6041 47.9547 21.0614C47.5922 22.6685 47.2381 24.278 46.9091 25.891C46.8371 26.2433 46.6475 26.2707 46.3606 26.2695C45.1793 26.2599 43.9992 26.2648 42.8192 26.2648Z" fill="#373737"/>
<path d="M28.1373 20.4233C28.9342 20.3672 29.6792 20.4925 30.4253 20.4877C30.9015 20.4841 30.9522 20.6476 30.8657 21.0794C30.3376 23.7181 29.836 26.3628 29.3205 29.0039C28.797 31.6868 28.2607 34.366 27.7453 37.0501C27.6588 37.5022 27.5066 37.7014 27.0038 37.6931C25.7387 37.6728 24.4725 37.7396 23.2064 37.7694C23.0334 37.773 22.8604 37.773 22.6874 37.7598C21.8341 37.6955 21.8156 37.6895 21.984 36.8103C22.7624 32.7676 23.5512 28.7283 24.3365 24.6867C24.574 23.4616 24.8277 22.2401 25.0388 21.0102C25.1021 20.6392 25.2475 20.5068 25.5992 20.508C26.4606 20.5128 27.3186 20.3386 28.1373 20.4233Z" fill="#373737"/>
<path d="M19.0438 24.9865C19.8371 24.9865 20.6327 25.0187 21.4238 24.9742C21.8937 24.9469 21.9515 25.1225 21.8676 25.5677C21.291 28.626 20.7303 31.6867 20.1628 34.7474C20.0108 35.5711 19.8473 36.3922 19.702 37.2183C19.651 37.5101 19.5772 37.6833 19.2424 37.687C17.7522 37.6981 16.2619 37.7612 14.7706 37.771C13.7593 37.7785 13.6855 37.6672 13.8944 36.6222C14.6378 32.8912 15.3914 29.1615 16.1291 25.4292C16.1984 25.0767 16.338 24.9692 16.6626 24.9803C17.4559 25.0038 18.2504 24.9865 19.0438 24.9865Z" fill="#373737"/>
<path d="M38.0174 14.0065C38.8404 14.0065 39.6635 14.0148 40.4864 14.0018C40.7737 13.997 40.8404 14.067 40.7791 14.405C40.5618 15.6016 40.3746 16.8065 40.2003 18.0114C40.1379 18.4407 39.97 18.5783 39.5688 18.5712C38.0486 18.5427 36.5273 18.5463 35.0072 18.5688C34.594 18.5747 34.4284 18.4929 34.5284 17.9841C34.7597 16.8124 34.9694 15.6348 35.1362 14.4501C35.1933 14.0433 35.3492 13.9935 35.658 14.0006C36.4434 14.0184 37.2299 14.0065 38.0174 14.0065Z" fill="#373737"/>
</g>
<defs>
<clipPath id="clip0">
<rect width="36" height="32" fill="white" transform="translate(12 14)"/>
</clipPath>
</defs>
</svg>
