<svg width="60" height="60" viewBox="0 0 60 60" fill="none" xmlns="http://www.w3.org/2000/svg">
<circle cx="30" cy="30" r="30" fill="#E7EFF3"/>
<path fill-rule="evenodd" clip-rule="evenodd" d="M30.1243 17.5349C28.7459 17.8286 27.7111 18.3847 26.8257 19.3077C26.0966 20.0677 25.657 21.0349 25.3956 22.4541C25.0978 24.0711 25.244 25.0611 26.1769 27.7433C26.6702 29.1614 26.7407 29.4751 26.7902 30.4686C26.8404 31.4807 26.8184 31.6701 26.5663 32.3916L26.2865 33.1919L26.7555 32.6711C28.2769 30.9812 28.8616 29.0475 28.7139 26.1942C28.5568 23.1591 28.5739 22.7911 28.9026 22.1313C29.3432 21.2468 30.267 20.262 30.4691 20.4613C30.499 20.4907 30.3202 20.7683 30.0719 21.078C29.2912 22.0518 29.0491 22.6176 29.0452 23.4777C29.0421 24.1275 29.0838 24.296 29.3413 24.6797C29.8187 25.3908 30.5235 25.8263 31.8801 26.248C33.1038 26.6285 33.6805 26.9682 33.8157 27.3882C33.9412 27.7782 34.0771 27.3785 34.0789 26.6139C34.082 25.3243 33.5595 24.4133 32.427 23.7339C31.631 23.2563 31.3849 23.0081 31.3082 22.6051C31.161 21.8308 31.6567 21.156 32.7113 20.6952C33.2247 20.4709 33.2531 20.4336 33.815 19.2432L34.3916 18.0213L33.613 17.7734C32.7514 17.4992 30.8896 17.3719 30.1243 17.5349ZM37.0549 19.3835C37.2183 20.7147 37.2126 20.6989 37.5891 20.8332C37.7836 20.9025 38.0071 20.9593 38.0856 20.9593C38.1976 20.9593 39.2803 20.1736 39.8638 19.6691C40.1015 19.4636 38.1732 18.8297 37.2942 18.8244L36.986 18.8226L37.0549 19.3835ZM24.4509 22.2109C23.7238 22.5802 22.7156 23.4777 22.2894 24.135C21.7473 24.9711 21.3851 26.2032 21.321 27.4301C21.2588 28.6193 21.376 29.4768 21.8008 30.9379C22.1796 32.2408 22.1354 33.4921 21.6838 34.2518C20.9526 35.4819 19.2475 35.4096 18.6674 34.1239C18.4157 33.5659 18.3704 32.3225 18.5692 31.4291L18.6763 30.9484L18.0458 31.6185C16.9735 32.7585 16.4709 34.024 16.5417 35.406C16.6572 37.6598 18.7712 39.1706 21.1426 38.6939C22.7231 38.3762 23.5768 37.5 24.0639 35.695C24.2089 35.1578 24.2522 34.5076 24.2625 32.7112C24.2738 30.7534 24.3044 30.3511 24.4697 29.9869C24.7195 29.4363 25.3578 28.7923 25.7944 28.6503L26.1365 28.5389L25.7227 27.3399C25.1056 25.552 24.9398 24.6289 25.0082 23.3631C25.04 22.7755 25.1002 22.2106 25.1421 22.1078C25.2457 21.8527 25.1182 21.8718 24.4509 22.2109ZM41.0127 22.8454L40.5458 23.4551L40.6703 24.0404C40.8124 24.7079 41.1434 25.2416 41.5694 25.4896C42.0256 25.7553 42.1281 25.7038 41.9215 25.3128C41.7944 25.0724 41.7157 24.5629 41.6656 23.6567C41.6257 22.9367 41.5677 22.3225 41.5365 22.2916C41.5051 22.2609 41.2694 22.51 41.0127 22.8454ZM28.9277 24.7519C29.1131 25.2643 29.1206 27.3331 28.9415 28.53C28.6658 30.3712 28.2002 31.4514 27.141 32.706C26.8454 33.0562 26.6046 33.4051 26.6059 33.481C26.6104 33.7422 27.05 34.5811 27.3414 34.8844C28.2319 35.8114 29.7203 35.9351 30.6308 35.1577C30.8296 34.9879 30.9051 34.8786 30.7985 34.9149C30.4924 35.0188 29.6788 34.655 29.3223 34.2547C28.4191 33.2405 28.6439 31.9034 30.0921 29.6776C30.8647 28.4899 31.2668 27.5677 31.2944 26.9203C31.3162 26.404 31.3013 26.3721 30.9922 26.2705C30.4448 26.0906 29.5542 25.4537 29.193 24.984C29.0045 24.7388 28.8851 24.6344 28.9277 24.7519ZM25.5444 29.0928C25.3493 29.2159 25.0567 29.5397 24.8942 29.8121L24.5989 30.3074L24.5649 32.8762C24.5333 35.2818 24.5458 35.4838 24.7619 36.0534C25.1235 37.0062 25.6126 37.608 26.8111 38.575C28.2317 39.7215 28.6758 40.3501 28.7626 41.3379L28.825 42.0484L29.1164 41.7061C29.4799 41.2792 29.6071 40.5481 29.4238 39.9386C29.3505 39.6948 29.0224 38.9543 28.6947 38.2931C28.1041 37.1014 27.9719 36.5538 28.1543 36.0548C28.228 35.8533 28.1788 35.7885 27.8129 35.6045C27.2515 35.322 26.6569 34.6256 26.4837 34.0475L26.345 33.5842L25.9637 33.8943C25.7539 34.0647 25.544 34.1665 25.4973 34.1204C25.4506 34.0744 25.6076 33.6543 25.8462 33.1869C26.6051 31.7006 26.7342 30.7504 26.3708 29.3275C26.2353 28.7971 26.0817 28.7535 25.5444 29.0928ZM24.2183 36.1989C23.9358 36.9621 23.8431 37.1643 23.6469 37.4449C23.4682 37.7007 23.4485 37.849 23.5135 38.4481C23.5555 38.8348 23.7038 39.5263 23.843 39.9848C24.203 41.1705 24.2589 41.6782 24.1085 42.3925C23.9537 43.128 23.3593 43.822 22.8842 43.822C22.7317 43.822 22.5798 43.8653 22.5466 43.9183C22.4505 44.0716 23.5434 44.282 24.0678 44.211C25.8852 43.9655 26.5844 42.4207 25.8915 40.1817C25.6753 39.4831 25.6263 39.1449 25.6726 38.6715C25.7284 38.1027 25.7103 38.0378 25.4047 37.71C25.2245 37.5167 24.9093 37.0289 24.7042 36.6263C24.3312 35.8939 24.3312 35.8939 24.2183 36.1989ZM16.4107 38.1879C15.6718 38.6788 15.2255 39.6249 15.2255 40.6999C15.2255 41.3508 15.3025 41.433 15.5832 41.0812C16.0787 40.4599 16.9646 40.361 18.2909 40.7786C19.4234 41.1351 20.4863 41.1399 21.2396 40.7919C22.1866 40.3544 23.2443 39.0215 23.2443 38.2659V37.9361L22.8329 38.262C21.5514 39.2774 19.0198 39.2833 17.7273 38.274C17.2272 37.8835 16.901 37.8621 16.4107 38.1879ZM25.8941 38.63C25.8173 39.0335 25.8774 39.3877 26.184 40.3371C26.5843 41.577 26.3862 42.9641 25.7028 43.7053L25.4658 43.9624L25.9398 43.7053C26.9371 43.1643 27.9327 41.7532 28.0838 40.6668C28.1493 40.1952 28.1332 40.1567 27.6758 39.692C27.4139 39.4258 26.9216 38.9952 26.5818 38.7352L25.964 38.2622L25.8941 38.63ZM12.7349 39.5788C12.7328 40.4342 12.8967 40.8636 13.4084 41.3436C13.7072 41.6239 14.9933 42.2731 15.0777 42.1863C15.0885 42.1752 15.0709 41.7507 15.0386 41.2431L14.9797 40.3202L14.4654 40.253C13.8184 40.1683 13.2939 39.8242 12.9804 39.2783L12.7367 38.8542L12.7349 39.5788ZM23.0895 39.3634C22.5789 40.2477 21.2525 41.2526 20.5894 41.2576C20.1087 41.2612 19.5211 41.5068 19.1018 41.8795C18.615 42.3121 18.154 43.1701 18.1524 43.6466C18.1514 43.9254 18.1253 43.946 17.8533 43.8822C17.483 43.7954 17.0926 43.5217 16.8134 43.153C16.5055 42.7464 16.5145 41.7772 16.8318 41.1779C17.0469 40.7715 17.0527 40.7238 16.8873 40.7238C16.5871 40.7238 15.8328 41.1273 15.6803 41.3695C15.5658 41.5514 15.5642 41.7414 15.6721 42.3739C15.9021 43.7242 15.538 44.1426 14.133 44.1426C13.2472 44.1426 12.7332 44.3739 12.4597 44.8954C12.2347 45.3243 12.2585 45.3652 12.5852 45.1119C12.9599 44.8213 13.6639 44.8221 14.8085 45.1146C16.3603 45.5112 17.1315 45.2678 18.1412 44.0627C18.941 43.1083 19.3087 42.953 21.0116 42.8506C22.6021 42.755 23.2204 42.5331 23.6507 41.9036C23.9622 41.4478 23.9506 41.1014 23.5852 39.951L23.289 39.018L23.0895 39.3634ZM17.3174 40.9567C16.6707 41.7541 16.7253 42.9722 17.4283 43.4263C17.7874 43.6583 17.9342 43.6569 17.9356 43.4214C17.9376 43.0642 18.4531 42.1636 18.8947 41.746L19.3387 41.3258L18.6095 41.136C18.2085 41.0315 17.7795 40.9168 17.6561 40.881C17.5269 40.8435 17.3833 40.8756 17.3174 40.9567ZM11 41.703C11.0019 42.489 11.5466 43.3367 12.2894 43.7098C12.5949 43.8632 12.9215 43.9045 13.8024 43.9013C14.7861 43.8977 14.9578 43.8693 15.1841 43.6727C15.5021 43.3962 15.6172 42.8777 15.4189 42.6142C15.2533 42.3941 14.8652 42.3632 13.8043 42.4855C12.8037 42.6009 12.1134 42.4204 11.4911 41.8802C11.0274 41.4779 10.9994 41.4677 11 41.703ZM23.3844 42.4959C22.859 42.8935 22.1438 43.0742 21.0954 43.0742C20.6941 43.0742 20.1206 43.1369 19.8209 43.2135C19.1959 43.3733 18.439 43.8923 18.5215 44.1044C18.552 44.1827 18.5419 44.2354 18.499 44.2214C18.4562 44.2074 18.1639 44.4591 17.8495 44.7806C17.346 45.2955 17.2862 45.4032 17.3484 45.6826L17.4192 46L17.6462 45.6856C18.4577 44.5617 19.224 44.2978 21.4277 44.3831C22.7773 44.4354 22.924 44.4253 22.584 44.3042C21.9894 44.0921 21.5105 43.8282 21.5105 43.7124C21.5105 43.6552 21.8405 43.6084 22.2449 43.6084C23.1026 43.6084 23.3618 43.4711 23.6856 42.8454C24.0148 42.2093 23.9155 42.094 23.3844 42.4959Z" fill="url(#paint0_linear)"/>
<path fill-rule="evenodd" clip-rule="evenodd" d="M35.3828 16.9263C35.0793 17.411 34.506 18.4682 34.1087 19.2756C33.44 20.6344 33.3578 20.7527 33.0022 20.8662C32.5472 21.0116 32.0411 21.3341 31.7808 21.6442C31.5803 21.8832 31.5255 22.6183 31.6891 22.8732C31.7425 22.9564 32.1928 23.2929 32.6898 23.6211C33.5072 24.1608 33.6293 24.2875 33.9699 24.9493C34.3014 25.5937 34.3465 25.7782 34.3476 26.4984C34.3485 27.1175 34.2907 27.4411 34.1092 27.8314C33.9774 28.1148 33.8261 28.3202 33.7732 28.288C33.7203 28.2557 33.649 28.0239 33.6148 27.7728C33.5383 27.211 33.2086 26.9053 32.4342 26.6786C31.6403 26.4461 31.5888 26.4589 31.5888 26.8862C31.5888 27.4646 31.1372 28.5099 30.3375 29.783C29.277 31.4715 29.0987 31.8904 29.0975 32.6966C29.0958 33.8051 29.6348 34.5051 30.5699 34.609C30.9961 34.6563 31.0749 34.6273 31.373 34.3126C31.5547 34.1209 31.7309 33.9909 31.7644 34.0239C31.9959 34.2522 30.9859 35.3811 30.2594 35.7063C29.9696 35.836 29.5558 35.9124 29.1351 35.9139C28.4085 35.9165 28.3379 35.9763 28.3379 36.5881C28.3379 36.7755 28.6299 37.5299 29.0035 38.3072C29.3696 39.0691 29.6929 39.9004 29.7219 40.1547L29.7748 40.617L30.6005 40.6161C32.4286 40.6144 34.7052 39.9946 36.3334 39.0553L36.7976 38.7874L36.4856 38.3935C36.0367 37.8268 35.6526 37.1255 35.4212 36.4504C35.1631 35.697 35.1573 33.766 35.4108 32.999L35.5806 32.4856L35.2914 32.3793C34.3355 32.0279 33.4724 31.37 33.1339 30.7347C32.905 30.3052 32.7897 29.7716 32.8909 29.6101C33.0118 29.4173 33.2142 29.5859 33.2142 29.8794C33.2142 30.2958 33.3987 30.6516 33.8836 31.1703C34.706 32.05 35.3824 32.2661 38.3614 32.601C39.4342 32.7218 40.6106 32.9179 40.9757 33.0371C41.8883 33.3352 42.8182 33.9082 43.4068 34.5352C43.8419 34.9985 43.9534 35.0616 44.3388 35.0616C44.5796 35.0616 44.929 35.0092 45.115 34.9452L45.4534 34.829L44.8873 34.3146C44.5761 34.0317 44.3502 33.7711 44.3855 33.7355C44.4207 33.6999 44.7778 33.8396 45.1789 34.0458C45.5801 34.2519 45.9874 34.4205 46.084 34.4205C46.3706 34.4205 47.4062 33.2783 47.713 32.6238C47.9133 32.1967 47.9983 31.8363 47.9998 31.4079C48.0024 30.6901 47.8407 30.4287 46.966 29.7381C46.6438 29.4838 45.8465 28.8348 45.1939 28.2958C42.9959 26.4803 42.3469 26.0099 41.9355 25.9339C41.3636 25.8281 40.6649 25.1061 40.478 24.4279C40.3975 24.136 40.3214 23.8835 40.3087 23.8666C40.2961 23.8496 40.1611 23.8918 40.0089 23.9603C39.7753 24.0651 39.6727 24.0486 39.3551 23.8551C38.552 23.3658 37.7732 22.2451 37.7678 21.5709C37.7661 21.3492 37.6926 21.2472 37.4764 21.1662C37.0974 21.024 35.933 20.991 35.0835 21.0982C34.4566 21.1772 34.4062 21.1683 34.4062 20.9773C34.4062 20.4487 35.4849 18.1108 35.7804 17.9991C35.9627 17.9301 36.2484 18.217 36.2484 18.4691C36.2484 18.6992 36.0621 18.6272 35.9883 18.3685C35.9207 18.1314 35.9175 18.1309 35.7562 18.3393C35.626 18.5073 34.948 20.3892 34.948 20.5825C34.948 20.6089 35.3625 20.627 35.8691 20.6229C36.6723 20.6163 36.7902 20.5913 36.7902 20.4278C36.7902 20.0839 36.3609 17.0672 36.2388 16.5523C36.1726 16.2733 36.077 16.0449 36.0264 16.0449C35.9758 16.0449 35.6862 16.4415 35.3828 16.9263ZM39.2285 26.5077C39.5225 26.5941 39.5285 26.604 39.2912 26.6124C39.021 26.6219 38.6324 26.3534 38.6324 26.1573C38.6324 26.0964 38.6934 26.1288 38.768 26.2294C38.8425 26.3299 39.0498 26.4551 39.2285 26.5077ZM46.5378 31.3399C46.3528 31.9758 46.6948 32.4931 47.1964 32.3362C47.3565 32.2861 47.3929 32.3099 47.3449 32.4331C47.1882 32.8357 46.6217 32.744 46.3763 32.2761C46.1851 31.9115 46.1761 31.6364 46.3436 31.2739C46.5211 30.8896 46.6555 30.9354 46.5378 31.3399Z" fill="url(#paint1_linear)"/>
<path d="M44.1943 16.8749C44.2662 16.7781 44.8364 16.2974 45.4613 15.8068C46.1042 15.3022 46.6404 14.9541 46.6961 15.0049C46.7548 15.0588 46.7522 15.1506 46.6897 15.2331C45.5792 16.6976 44.1042 18.4041 44.0202 18.3213C43.8881 18.1911 44.0179 17.1129 44.1943 16.8749Z" fill="url(#paint2_linear)"/>
<path d="M42.1696 18.5471C42.2059 18.4134 42.5793 18.0409 42.9994 17.7191C43.4195 17.3972 43.7686 17.1339 43.7752 17.1339C43.7819 17.1339 43.7857 17.5189 43.7837 17.9895L43.7803 18.8449L43.078 19.7205L42.3757 20.596L42.2465 20.1737C42.1041 19.7082 42.0671 18.9244 42.1696 18.5471Z" fill="url(#paint3_linear)"/>
<path d="M40.3603 19.9822C40.4163 19.837 40.7698 19.4724 41.1459 19.172L41.8298 18.6259L41.904 19.3489C41.9448 19.7466 42.0287 20.2352 42.0906 20.4347C42.1993 20.7855 42.1771 20.8296 41.4258 21.7584L40.6485 22.7193L40.4619 22.1969C40.2567 21.6224 40.2004 20.3966 40.3603 19.9822Z" fill="url(#paint4_linear)"/>
<path d="M38.1451 21.8226C38.082 21.5707 38.1687 21.4695 39.0314 20.7879C39.5573 20.3724 39.9879 20.0293 39.9883 20.0254C39.9887 20.0216 39.994 20.391 40.0002 20.8465C40.0074 21.3801 40.0912 21.9022 40.2356 22.3154L40.4598 22.9563L40.1911 23.3036C40.0433 23.4946 39.8485 23.6509 39.7581 23.6509C39.3211 23.6509 38.3182 22.5143 38.1451 21.8226Z" fill="url(#paint5_linear)"/>
<defs>
<linearGradient id="paint0_linear" x1="26.5117" y1="17.4627" x2="26.5117" y2="46" gradientUnits="userSpaceOnUse">
<stop stop-color="#4770B8"/>
<stop offset="1" stop-color="#7AE6B1"/>
</linearGradient>
<linearGradient id="paint1_linear" x1="38.1689" y1="16.0449" x2="38.1689" y2="40.617" gradientUnits="userSpaceOnUse">
<stop stop-color="#825DAB"/>
<stop offset="1" stop-color="#C352DD"/>
</linearGradient>
<linearGradient id="paint2_linear" x1="42.4337" y1="15" x2="42.4337" y2="23.6509" gradientUnits="userSpaceOnUse">
<stop stop-color="#825DAB"/>
<stop offset="1" stop-color="#C352DD"/>
</linearGradient>
<linearGradient id="paint3_linear" x1="42.4337" y1="15" x2="42.4337" y2="23.6509" gradientUnits="userSpaceOnUse">
<stop stop-color="#825DAB"/>
<stop offset="1" stop-color="#C352DD"/>
</linearGradient>
<linearGradient id="paint4_linear" x1="42.4337" y1="15" x2="42.4337" y2="23.6509" gradientUnits="userSpaceOnUse">
<stop stop-color="#825DAB"/>
<stop offset="1" stop-color="#C352DD"/>
</linearGradient>
<linearGradient id="paint5_linear" x1="42.4337" y1="15" x2="42.4337" y2="23.6509" gradientUnits="userSpaceOnUse">
<stop stop-color="#825DAB"/>
<stop offset="1" stop-color="#C352DD"/>
</linearGradient>
</defs>
</svg>
