<svg width="60" height="60" viewBox="0 0 60 60" fill="none" xmlns="http://www.w3.org/2000/svg">
<path d="M30 60C46.5685 60 60 46.5685 60 30C60 13.4315 46.5685 0 30 0C13.4315 0 0 13.4315 0 30C0 46.5685 13.4315 60 30 60Z" fill="black"/>
<path d="M24.873 47.7369L24.8586 47.6712C23.9964 43.7971 21.8662 41.3908 20.231 40.0545C18.4566 38.6035 16.8627 38.0631 16.8467 38.0578L16.7517 38.0261L16.7425 37.9262C16.7355 37.8493 16.5891 35.9176 18.0954 24.9684C18.4459 22.4228 19.2921 20.145 20.6108 18.1995C21.6662 16.6418 23.0244 15.2926 24.6474 14.189C25.8128 13.4007 27.0703 12.758 28.3918 12.2751C29.3821 11.915 30.0231 11.7888 30.0498 11.7836L30.0789 11.7781L30.1081 11.7836C30.135 11.7888 30.7758 11.915 31.7661 12.2751C33.0877 12.7578 34.3451 13.4005 35.5105 14.1888C37.1337 15.2924 38.4917 16.6423 39.5471 18.1993C40.866 20.1459 41.7122 22.4236 42.0625 24.9693C43.5688 35.9185 43.4224 37.8499 43.4154 37.927L43.4064 38.0271L43.3112 38.0587C43.2952 38.0639 41.7024 38.6044 39.9269 40.0554C38.2919 41.3917 36.1615 43.798 35.2993 47.6721L35.2849 47.7378L32.2765 49.5161L33.3131 30.4532L33.4369 30.435C33.4432 30.435 34.0722 30.3382 34.8494 30.0243C35.5604 29.7373 36.5471 29.2035 37.2084 28.29C37.8465 27.4085 38.0792 26.3255 37.9009 25.0699L32.2507 27.2313L31.5738 34.1676L30.0789 34.6092L28.5839 34.1676L27.9072 27.2313L22.257 25.0681C22.0787 26.3255 22.3116 27.409 22.9508 28.2907C24.2235 30.0469 26.6967 30.4304 26.721 30.4342L26.8448 30.4523L27.8814 49.5152L24.873 47.7369Z" fill="#EE2D37"/>
<path d="M41.9106 24.9904C40.3894 13.9326 30.079 11.9346 30.079 11.9346C30.079 11.9346 19.7686 13.9328 18.2475 24.9904C16.7263 36.048 16.8952 37.9133 16.8952 37.9133C16.8952 37.9133 23.3182 40.045 25.0085 47.6395L27.7127 49.2386L26.6985 30.5869C26.6985 30.5869 21.2893 29.7865 22.1349 24.8572L28.0508 27.1221L28.7268 34.0498L30.079 34.4489L31.4317 34.0498L32.1077 27.1221L38.0232 24.8572C38.8683 29.7861 33.4595 30.5858 33.4595 30.5858L32.4453 49.2375L35.1498 47.6384C36.84 40.0445 43.2628 37.9122 43.2628 37.9122C43.2628 37.9122 43.4319 36.048 41.9106 24.9904Z" fill="#EE2D37"/>
<path d="M36.1491 23.4817C37.368 23.4817 38.3562 22.0575 38.3562 20.3005C38.3562 18.5436 37.368 17.1194 36.1491 17.1194C34.9303 17.1194 33.9421 18.5436 33.9421 20.3005C33.9421 22.0575 34.9303 23.4817 36.1491 23.4817Z" fill="#EE2D37"/>
<path d="M36.1689 23.4666C37.3821 23.4666 38.3656 22.049 38.3656 20.3003C38.3656 18.5516 37.3821 17.134 36.1689 17.134C34.9557 17.134 33.9722 18.5516 33.9722 20.3003C33.9722 22.049 34.9557 23.4666 36.1689 23.4666Z" fill="#EE2D37"/>
<path d="M36.1893 23.4514C37.3969 23.4514 38.3758 22.0404 38.3758 20.2998C38.3758 18.5592 37.3969 17.1482 36.1893 17.1482C34.9818 17.1482 34.0029 18.5592 34.0029 20.2998C34.0029 22.0404 34.9818 23.4514 36.1893 23.4514Z" fill="#EE2D37"/>
<path d="M36.211 23.436C37.4129 23.436 38.3872 22.0316 38.3872 20.2993C38.3872 18.5669 37.4129 17.1626 36.211 17.1626C35.0092 17.1626 34.0349 18.5669 34.0349 20.2993C34.0349 22.0316 35.0092 23.436 36.211 23.436Z" fill="#EE2D37"/>
<path d="M36.2339 23.4199C37.4301 23.4199 38.3998 22.0222 38.3998 20.2981C38.3998 18.5739 37.4301 17.1763 36.2339 17.1763C35.0378 17.1763 34.0681 18.5739 34.0681 20.2981C34.0681 22.0222 35.0378 23.4199 36.2339 23.4199Z" fill="#EE2D37"/>
<path d="M36.2576 23.4037C37.448 23.4037 38.4131 22.0127 38.4131 20.2968C38.4131 18.5809 37.448 17.1899 36.2576 17.1899C35.0671 17.1899 34.1021 18.5809 34.1021 20.2968C34.1021 22.0127 35.0671 23.4037 36.2576 23.4037Z" fill="#EE2D37"/>
<path d="M36.2822 23.3876C37.467 23.3876 38.4274 22.0031 38.4274 20.2953C38.4274 18.5876 37.467 17.2031 36.2822 17.2031C35.0974 17.2031 34.137 18.5876 34.137 20.2953C34.137 22.0031 35.0974 23.3876 36.2822 23.3876Z" fill="#EE2D37"/>
<path d="M36.308 23.3707C37.4871 23.3707 38.443 21.993 38.443 20.2934C38.443 18.5938 37.4871 17.2161 36.308 17.2161C35.1289 17.2161 34.1731 18.5938 34.1731 20.2934C34.1731 21.993 35.1289 23.3707 36.308 23.3707Z" fill="#EE2D37"/>
<path d="M36.3348 23.3536C37.5083 23.3536 38.4595 21.9825 38.4595 20.2912C38.4595 18.5999 37.5083 17.2288 36.3348 17.2288C35.1614 17.2288 34.2102 18.5999 34.2102 20.2912C34.2102 21.9825 35.1614 23.3536 36.3348 23.3536Z" fill="#EE2D37"/>
<path d="M36.3624 23.336C37.5301 23.336 38.4767 21.9716 38.4767 20.2885C38.4767 18.6054 37.5301 17.241 36.3624 17.241C35.1947 17.241 34.248 18.6054 34.248 20.2885C34.248 21.9716 35.1947 23.336 36.3624 23.336Z" fill="#EE2D37"/>
<path d="M36.3912 23.3182C37.5532 23.3182 38.4952 21.9605 38.4952 20.2856C38.4952 18.6107 37.5532 17.2529 36.3912 17.2529C35.2291 17.2529 34.2871 18.6107 34.2871 20.2856C34.2871 21.9605 35.2291 23.3182 36.3912 23.3182Z" fill="#EE2D37"/>
<path d="M36.4207 23.3003C37.577 23.3003 38.5144 21.9491 38.5144 20.2824C38.5144 18.6156 37.577 17.2644 36.4207 17.2644C35.2643 17.2644 34.3269 18.6156 34.3269 20.2824C34.3269 21.9491 35.2643 23.3003 36.4207 23.3003Z" fill="#EE2D37"/>
<path d="M36.4514 23.282C37.6019 23.282 38.5346 21.9375 38.5346 20.2789C38.5346 18.6204 37.6019 17.2759 36.4514 17.2759C35.3009 17.2759 34.3682 18.6204 34.3682 20.2789C34.3682 21.9375 35.3009 23.282 36.4514 23.282Z" fill="#EE2D37"/>
<path d="M36.4826 23.263C37.6275 23.263 38.5556 21.9251 38.5556 20.2748C38.5556 18.6245 37.6275 17.2866 36.4826 17.2866C35.3378 17.2866 34.4097 18.6245 34.4097 20.2748C34.4097 21.9251 35.3378 23.263 36.4826 23.263Z" fill="#EE2D37"/>
<path d="M36.515 23.2439C37.6542 23.2439 38.5777 21.9127 38.5777 20.2706C38.5777 18.6285 37.6542 17.2974 36.515 17.2974C35.3759 17.2974 34.4524 18.6285 34.4524 20.2706C34.4524 21.9127 35.3759 23.2439 36.515 23.2439Z" fill="#EE2D37"/>
<path d="M36.5482 23.2251C37.6817 23.2251 38.6006 21.9004 38.6006 20.2665C38.6006 18.6325 37.6817 17.3079 36.5482 17.3079C35.4147 17.3079 34.4958 18.6325 34.4958 20.2665C34.4958 21.9004 35.4147 23.2251 36.5482 23.2251Z" fill="#EE2D37"/>
<path d="M36.5823 23.2053C37.7101 23.2053 38.6244 21.8873 38.6244 20.2616C38.6244 18.6358 37.7101 17.3179 36.5823 17.3179C35.4545 17.3179 34.5403 18.6358 34.5403 20.2616C34.5403 21.8873 35.4545 23.2053 36.5823 23.2053Z" fill="#EE2D37"/>
<path d="M36.6175 23.185C37.7396 23.185 38.6492 21.8737 38.6492 20.2562C38.6492 18.6387 37.7396 17.3274 36.6175 17.3274C35.4953 17.3274 34.5857 18.6387 34.5857 20.2562C34.5857 21.8737 35.4953 23.185 36.6175 23.185Z" fill="#EE2D37"/>
<path d="M36.6531 23.1647C37.7695 23.1647 38.6745 21.8601 38.6745 20.2508C38.6745 18.6415 37.7695 17.3369 36.6531 17.3369C35.5366 17.3369 34.6316 18.6415 34.6316 20.2508C34.6316 21.8601 35.5366 23.1647 36.6531 23.1647Z" fill="#EE2D37"/>
<path d="M36.6896 23.144C37.8004 23.144 38.7008 21.846 38.7008 20.245C38.7008 18.6439 37.8004 17.3459 36.6896 17.3459C35.5789 17.3459 34.6785 18.6439 34.6785 20.245C34.6785 21.846 35.5789 23.144 36.6896 23.144Z" fill="#EE2D37"/>
<path d="M36.7272 23.1232C37.8322 23.1232 38.7281 21.8318 38.7281 20.2388C38.7281 18.6459 37.8322 17.3545 36.7272 17.3545C35.6221 17.3545 34.7263 18.6459 34.7263 20.2388C34.7263 21.8318 35.6221 23.1232 36.7272 23.1232Z" fill="#EE2D37"/>
<path d="M36.7655 23.1017C37.8649 23.1017 38.7561 21.817 38.7561 20.2322C38.7561 18.6475 37.8649 17.3628 36.7655 17.3628C35.6661 17.3628 34.7749 18.6475 34.7749 20.2322C34.7749 21.817 35.6661 23.1017 36.7655 23.1017Z" fill="#EE2D37"/>
<path d="M36.8045 23.0799C37.8982 23.0799 38.7848 21.8019 38.7848 20.2254C38.7848 18.6489 37.8982 17.3708 36.8045 17.3708C35.7108 17.3708 34.8242 18.6489 34.8242 20.2254C34.8242 21.8019 35.7108 23.0799 36.8045 23.0799Z" fill="#EE2D37"/>
<path d="M36.8443 23.0577C37.9323 23.0577 38.8142 21.7864 38.8142 20.2181C38.8142 18.6498 37.9323 17.3784 36.8443 17.3784C35.7563 17.3784 34.8743 18.6498 34.8743 20.2181C34.8743 21.7864 35.7563 23.0577 36.8443 23.0577Z" fill="#EE2D37"/>
<path d="M36.885 23.0354C37.9673 23.0354 38.8447 21.7707 38.8447 20.2105C38.8447 18.6503 37.9673 17.3855 36.885 17.3855C35.8027 17.3855 34.9253 18.6503 34.9253 20.2105C34.9253 21.7707 35.8027 23.0354 36.885 23.0354Z" fill="#EE2D37"/>
<path d="M36.9262 23.0127C38.0028 23.0127 38.8756 21.7546 38.8756 20.2027C38.8756 18.6507 38.0028 17.3926 36.9262 17.3926C35.8496 17.3926 34.9768 18.6507 34.9768 20.2027C34.9768 21.7546 35.8496 23.0127 36.9262 23.0127Z" fill="#EE2D37"/>
<path d="M36.9684 22.9895C38.0393 22.9895 38.9075 21.7381 38.9075 20.1944C38.9075 18.6506 38.0393 17.3992 36.9684 17.3992C35.8975 17.3992 35.0293 18.6506 35.0293 20.1944C35.0293 21.7381 35.8975 22.9895 36.9684 22.9895Z" fill="#EE2D37"/>
<path d="M37.0111 22.9658C38.0763 22.9658 38.9399 21.7211 38.9399 20.1856C38.9399 18.65 38.0763 17.4053 37.0111 17.4053C35.9458 17.4053 35.0823 18.65 35.0823 20.1856C35.0823 21.7211 35.9458 22.9658 37.0111 22.9658Z" fill="#EE2D37"/>
<path d="M37.0547 22.9419C38.1143 22.9419 38.9733 21.7038 38.9733 20.1765C38.9733 18.6492 38.1143 17.4111 37.0547 17.4111C35.9952 17.4111 35.1362 18.6492 35.1362 20.1765C35.1362 21.7038 35.9952 22.9419 37.0547 22.9419Z" fill="#EE2D37"/>
<path d="M37.0989 22.9179C38.1528 22.9179 39.0071 21.6864 39.0071 20.1672C39.0071 18.648 38.1528 17.4165 37.0989 17.4165C36.045 17.4165 35.1907 18.648 35.1907 20.1672C35.1907 21.6864 36.045 22.9179 37.0989 22.9179Z" fill="#EE2D37"/>
<path d="M37.1438 22.893C38.192 22.893 39.0417 21.6682 39.0417 20.1572C39.0417 18.6463 38.192 17.4214 37.1438 17.4214C36.0956 17.4214 35.2458 18.6463 35.2458 20.1572C35.2458 21.6682 36.0956 22.893 37.1438 22.893Z" fill="#EE2D37"/>
<path d="M37.1894 22.8681C38.2319 22.8681 39.077 21.6499 39.077 20.1472C39.077 18.6445 38.2319 17.4263 37.1894 17.4263C36.1469 17.4263 35.3018 18.6445 35.3018 20.1472C35.3018 21.6499 36.1469 22.8681 37.1894 22.8681Z" fill="#EE2D37"/>
<path d="M37.2357 22.8427C38.2725 22.8427 39.1131 21.6312 39.1131 20.1367C39.1131 18.6422 38.2725 17.4307 37.2357 17.4307C36.1989 17.4307 35.3584 18.6422 35.3584 20.1367C35.3584 21.6312 36.1989 22.8427 37.2357 22.8427Z" fill="#EE2D37"/>
<path d="M37.2826 22.817C38.3137 22.817 39.1496 21.6121 39.1496 20.1257C39.1496 18.6393 38.3137 17.4343 37.2826 17.4343C36.2514 17.4343 35.4155 18.6393 35.4155 20.1257C35.4155 21.6121 36.2514 22.817 37.2826 22.817Z" fill="#EE2D37"/>
<path d="M37.3299 22.7909C38.3553 22.7909 39.1866 21.5926 39.1866 20.1144C39.1866 18.6363 38.3553 17.438 37.3299 17.438C36.3044 17.438 35.4731 18.6363 35.4731 20.1144C35.4731 21.5926 36.3044 22.7909 37.3299 22.7909Z" fill="#EE2D37"/>
<path d="M37.3779 22.7643C38.3977 22.7643 39.2244 21.5727 39.2244 20.1027C39.2244 18.6328 38.3977 17.4412 37.3779 17.4412C36.3582 17.4412 35.5315 18.6328 35.5315 20.1027C35.5315 21.5727 36.3582 22.7643 37.3779 22.7643Z" fill="#EE2D37"/>
<path d="M37.4267 22.7374C38.4408 22.7374 39.2629 21.5525 39.2629 20.0908C39.2629 18.629 38.4408 17.4441 37.4267 17.4441C36.4126 17.4441 35.5906 18.629 35.5906 20.0908C35.5906 21.5525 36.4126 22.7374 37.4267 22.7374Z" fill="#EE2D37"/>
<path d="M37.476 22.7101C38.4844 22.7101 39.3018 21.5318 39.3018 20.0783C39.3018 18.6248 38.4844 17.4465 37.476 17.4465C36.4676 17.4465 35.6501 18.6248 35.6501 20.0783C35.6501 21.5318 36.4676 22.7101 37.476 22.7101Z" fill="#EE2D37"/>
<path d="M37.5258 22.6827C38.5285 22.6827 39.3413 21.511 39.3413 20.0656C39.3413 18.6202 38.5285 17.4485 37.5258 17.4485C36.5231 17.4485 35.7102 18.6202 35.7102 20.0656C35.7102 21.511 36.5231 22.6827 37.5258 22.6827Z" fill="#EE2D37"/>
<path d="M37.5763 22.6543C38.5733 22.6543 39.3815 21.4893 39.3815 20.0521C39.3815 18.615 38.5733 17.45 37.5763 17.45C36.5792 17.45 35.771 18.615 35.771 20.0521C35.771 21.4893 36.5792 22.6543 37.5763 22.6543Z" fill="#EE2D37"/>
<path d="M37.6272 22.6258C38.6186 22.6258 39.4222 21.4674 39.4222 20.0385C39.4222 18.6095 38.6186 17.4512 37.6272 17.4512C36.6359 17.4512 35.8323 18.6095 35.8323 20.0385C35.8323 21.4674 36.6359 22.6258 37.6272 22.6258Z" fill="#EE2D37"/>
<path d="M37.6787 22.5969C38.6644 22.5969 39.4634 21.4452 39.4634 20.0245C39.4634 18.6039 38.6644 17.4521 37.6787 17.4521C36.6931 17.4521 35.894 18.6039 35.894 20.0245C35.894 21.4452 36.6931 22.5969 37.6787 22.5969Z" fill="#EE2D37"/>
<path d="M37.7309 22.5678C38.7109 22.5678 39.5053 21.4227 39.5053 20.0101C39.5053 18.5975 38.7109 17.4524 37.7309 17.4524C36.751 17.4524 35.9565 18.5975 35.9565 20.0101C35.9565 21.4227 36.751 22.5678 37.7309 22.5678Z" fill="#EE2D37"/>
<path d="M37.7834 22.538C38.7576 22.538 39.5474 21.3996 39.5474 19.9952C39.5474 18.5909 38.7576 17.4524 37.7834 17.4524C36.8091 17.4524 36.0193 18.5909 36.0193 19.9952C36.0193 21.3996 36.8091 22.538 37.7834 22.538Z" fill="#EE2D37"/>
<path d="M37.8365 22.5078C38.8051 22.5078 39.5903 21.376 39.5903 19.9798C39.5903 18.5837 38.8051 17.4519 37.8365 17.4519C36.868 17.4519 36.0828 18.5837 36.0828 19.9798C36.0828 21.376 36.868 22.5078 37.8365 22.5078Z" fill="#EE2D37"/>
<path d="M37.89 22.4772C38.8529 22.4772 39.6335 21.3521 39.6335 19.9642C39.6335 18.5763 38.8529 17.4512 37.89 17.4512C36.9271 17.4512 36.1465 18.5763 36.1465 19.9642C36.1465 21.3521 36.9271 22.4772 37.89 22.4772Z" fill="#EE2D37"/>
<path d="M37.9439 22.4462C38.9011 22.4462 39.6771 21.3278 39.6771 19.9481C39.6771 18.5684 38.9011 17.45 37.9439 17.45C36.9867 17.45 36.2107 18.5684 36.2107 19.9481C36.2107 21.3278 36.9867 22.4462 37.9439 22.4462Z" fill="#EE2D37"/>
<path d="M37.9983 22.4152C38.9498 22.4152 39.7212 21.3033 39.7212 19.9317C39.7212 18.5601 38.9498 17.4482 37.9983 17.4482C37.0468 17.4482 36.2754 18.5601 36.2754 19.9317C36.2754 21.3033 37.0468 22.4152 37.9983 22.4152Z" fill="#EE2D37"/>
<path d="M38.0534 22.3834C38.9993 22.3834 39.766 21.2782 39.766 19.9149C39.766 18.5515 38.9993 17.4463 38.0534 17.4463C37.1076 17.4463 36.3408 18.5515 36.3408 19.9149C36.3408 21.2782 37.1076 22.3834 38.0534 22.3834Z" fill="#EE2D37"/>
<path d="M38.1086 22.3509C39.0487 22.3509 39.8109 21.2524 39.8109 19.8973C39.8109 18.5421 39.0487 17.4436 38.1086 17.4436C37.1684 17.4436 36.4062 18.5421 36.4062 19.8973C36.4062 21.2524 37.1684 22.3509 38.1086 22.3509Z" fill="#EE2D37"/>
<path d="M38.1642 22.3182C39.0986 22.3182 39.8562 21.2263 39.8562 19.8794C39.8562 18.5325 39.0986 17.4407 38.1642 17.4407C37.2297 17.4407 36.4722 18.5325 36.4722 19.8794C36.4722 21.2263 37.2297 22.3182 38.1642 22.3182Z" fill="#EE2D37"/>
<path d="M38.2205 22.2853C39.1493 22.2853 39.9022 21.2 39.9022 19.8614C39.9022 18.5227 39.1493 17.4375 38.2205 17.4375C37.2917 17.4375 36.5388 18.5227 36.5388 19.8614C36.5388 21.2 37.2917 22.2853 38.2205 22.2853Z" fill="#EE2D37"/>
<path d="M38.2769 22.252C39.2 22.252 39.9483 21.1734 39.9483 19.8428C39.9483 18.5122 39.2 17.4336 38.2769 17.4336C37.3538 17.4336 36.6055 18.5122 36.6055 19.8428C36.6055 21.1734 37.3538 22.252 38.2769 22.252Z" fill="#EE2D37"/>
<path d="M38.3337 22.2181C39.2511 22.2181 39.9948 21.1461 39.9948 19.8237C39.9948 18.5014 39.2511 17.4294 38.3337 17.4294C37.4163 17.4294 36.6726 18.5014 36.6726 19.8237C36.6726 21.1461 37.4163 22.2181 38.3337 22.2181Z" fill="#EE2D37"/>
<path d="M38.3908 22.1836C39.3025 22.1836 40.0416 21.1183 40.0416 19.8042C40.0416 18.4901 39.3025 17.4248 38.3908 17.4248C37.4791 17.4248 36.74 18.4901 36.74 19.8042C36.74 21.1183 37.4791 22.1836 38.3908 22.1836Z" fill="#EE2D37"/>
<path d="M38.4486 22.1487C39.3547 22.1487 40.0892 21.0901 40.0892 19.7842C40.0892 18.4783 39.3547 17.4197 38.4486 17.4197C37.5426 17.4197 36.8081 18.4783 36.8081 19.7842C36.8081 21.0901 37.5426 22.1487 38.4486 22.1487Z" fill="#EE2D37"/>
<path d="M38.5067 22.1137C39.407 22.1137 40.1369 21.0617 40.1369 19.7639C40.1369 18.4661 39.407 17.4141 38.5067 17.4141C37.6063 17.4141 36.8765 18.4661 36.8765 19.7639C36.8765 21.0617 37.6063 22.1137 38.5067 22.1137Z" fill="#EE2D37"/>
<path d="M38.5648 22.0778C39.4594 22.0778 40.1847 21.0325 40.1847 19.7429C40.1847 18.4533 39.4594 17.408 38.5648 17.408C37.6701 17.408 36.9448 18.4533 36.9448 19.7429C36.9448 21.0325 37.6701 22.0778 38.5648 22.0778Z" fill="#EE2D37"/>
<path d="M38.6233 22.0417C39.5122 22.0417 40.2328 21.003 40.2328 19.7217C40.2328 18.4403 39.5122 17.4016 38.6233 17.4016C37.7345 17.4016 37.0139 18.4403 37.0139 19.7217C37.0139 21.003 37.7345 22.0417 38.6233 22.0417Z" fill="#EE2D37"/>
<path d="M38.6821 22.0051C39.5653 22.0051 40.2813 20.973 40.2813 19.6999C40.2813 18.4268 39.5653 17.3948 38.6821 17.3948C37.799 17.3948 37.083 18.4268 37.083 19.6999C37.083 20.973 37.799 22.0051 38.6821 22.0051Z" fill="#EE2D37"/>
<path d="M38.7412 21.968C39.6187 21.968 40.33 20.9426 40.33 19.6777C40.33 18.4128 39.6187 17.3875 38.7412 17.3875C37.8637 17.3875 37.1523 18.4128 37.1523 19.6777C37.1523 20.9426 37.8637 21.968 38.7412 21.968Z" fill="#EE2D37"/>
<path d="M38.8005 21.9305C39.6723 21.9305 40.379 20.9117 40.379 19.655C40.379 18.3982 39.6723 17.3794 38.8005 17.3794C37.9287 17.3794 37.2219 18.3982 37.2219 19.655C37.2219 20.9117 37.9287 21.9305 38.8005 21.9305Z" fill="#EE2D37"/>
<path d="M38.8602 21.8927C39.7263 21.8927 40.4285 20.8806 40.4285 19.632C40.4285 18.3835 39.7263 17.3713 38.8602 17.3713C37.9941 17.3713 37.292 18.3835 37.292 19.632C37.292 20.8806 37.9941 21.8927 38.8602 21.8927Z" fill="#EE2D37"/>
<path d="M38.92 21.8541C39.7804 21.8541 40.4779 20.8486 40.4779 19.6083C40.4779 18.368 39.7804 17.3625 38.92 17.3625C38.0596 17.3625 37.3621 18.368 37.3621 19.6083C37.3621 20.8486 38.0596 21.8541 38.92 21.8541Z" fill="#EE2D37"/>
<path d="M38.9803 21.815C39.835 21.815 40.5279 20.8162 40.5279 19.5842C40.5279 18.3521 39.835 17.3533 38.9803 17.3533C38.1255 17.3533 37.4326 18.3521 37.4326 19.5842C37.4326 20.8162 38.1255 21.815 38.9803 21.815Z" fill="#EE2D37"/>
<path d="M39.0405 21.7762C39.8896 21.7762 40.5779 20.7839 40.5779 19.56C40.5779 18.336 39.8896 17.3438 39.0405 17.3438C38.1915 17.3438 37.5032 18.336 37.5032 19.56C37.5032 20.7839 38.1915 21.7762 39.0405 21.7762Z" fill="#EE2D37"/>
<path d="M39.1008 21.7361C39.9442 21.7361 40.6278 20.7506 40.6278 19.5348C40.6278 18.3191 39.9442 17.3335 39.1008 17.3335C38.2574 17.3335 37.5737 18.3191 37.5737 19.5348C37.5737 20.7506 38.2574 21.7361 39.1008 21.7361Z" fill="#EE2D37"/>
<path d="M39.1615 21.6958C39.9992 21.6958 40.6783 20.7169 40.6783 19.5094C40.6783 18.3019 39.9992 17.323 39.1615 17.323C38.3239 17.323 37.6448 18.3019 37.6448 19.5094C37.6448 20.7169 38.3239 21.6958 39.1615 21.6958Z" fill="#EE2D37"/>
<path d="M39.2225 21.6551C40.0545 21.6551 40.729 20.6828 40.729 19.4835C40.729 18.2842 40.0545 17.312 39.2225 17.312C38.3905 17.312 37.7161 18.2842 37.7161 19.4835C37.7161 20.6828 38.3905 21.6551 39.2225 21.6551Z" fill="#EE2D37"/>
<path d="M39.2833 21.6135C40.1096 21.6135 40.7794 20.648 40.7794 19.4569C40.7794 18.2658 40.1096 17.3003 39.2833 17.3003C38.457 17.3003 37.7871 18.2658 37.7871 19.4569C37.7871 20.648 38.457 21.6135 39.2833 21.6135Z" fill="#EE2D37"/>
<path d="M39.3445 21.5722C40.1651 21.5722 40.8304 20.6132 40.8304 19.4303C40.8304 18.2473 40.1651 17.2883 39.3445 17.2883C38.5239 17.2883 37.8586 18.2473 37.8586 19.4303C37.8586 20.6132 38.5239 21.5722 39.3445 21.5722Z" fill="#EE2D37"/>
<path d="M39.4058 21.53C40.2207 21.53 40.8813 20.5777 40.8813 19.4029C40.8813 18.2282 40.2207 17.2759 39.4058 17.2759C38.5908 17.2759 37.9302 18.2282 37.9302 19.4029C37.9302 20.5777 38.5908 21.53 39.4058 21.53Z" fill="#EE2D37"/>
<path d="M39.4672 21.487C40.2765 21.487 40.9325 20.5414 40.9325 19.3749C40.9325 18.2083 40.2765 17.2627 39.4672 17.2627C38.658 17.2627 38.002 18.2083 38.002 19.3749C38.002 20.5414 38.658 21.487 39.4672 21.487Z" fill="#EE2D37"/>
<path d="M39.5287 21.4438C40.3323 21.4438 40.9837 20.5048 40.9837 19.3465C40.9837 18.1882 40.3323 17.2493 39.5287 17.2493C38.7251 17.2493 38.0737 18.1882 38.0737 19.3465C38.0737 20.5048 38.7251 21.4438 39.5287 21.4438Z" fill="#EE2D37"/>
<path d="M39.5902 21.4003C40.3881 21.4003 41.0349 20.4679 41.0349 19.3177C41.0349 18.1675 40.3881 17.2351 39.5902 17.2351C38.7923 17.2351 38.1455 18.1675 38.1455 19.3177C38.1455 20.4679 38.7923 21.4003 39.5902 21.4003Z" fill="#EE2D37"/>
<path d="M39.6519 21.3558C40.4441 21.3558 41.0863 20.4301 41.0863 19.2881C41.0863 18.1462 40.4441 17.2205 39.6519 17.2205C38.8597 17.2205 38.2175 18.1462 38.2175 19.2881C38.2175 20.4301 38.8597 21.3558 39.6519 21.3558Z" fill="#EE2D37"/>
<path d="M39.7136 21.3112C40.5002 21.3112 41.1377 20.3921 41.1377 19.2584C41.1377 18.1246 40.5002 17.2056 39.7136 17.2056C38.9271 17.2056 38.2896 18.1246 38.2896 19.2584C38.2896 20.3921 38.9271 21.3112 39.7136 21.3112Z" fill="#EE2D37"/>
<path d="M39.7754 21.2662C40.5562 21.2662 41.1892 20.3538 41.1892 19.2283C41.1892 18.1028 40.5562 17.1904 39.7754 17.1904C38.9946 17.1904 38.3616 18.1028 38.3616 19.2283C38.3616 20.3538 38.9946 21.2662 39.7754 21.2662Z" fill="#EE2D37"/>
<path d="M39.8371 21.2203C40.6122 21.2203 41.2406 20.3146 41.2406 19.1973C41.2406 18.08 40.6122 17.1743 39.8371 17.1743C39.062 17.1743 38.4336 18.08 38.4336 19.1973C38.4336 20.3146 39.062 21.2203 39.8371 21.2203Z" fill="#EE2D37"/>
<path d="M39.8988 21.1744C40.6683 21.1744 41.292 20.2752 41.292 19.166C41.292 18.0569 40.6683 17.1577 39.8988 17.1577C39.1294 17.1577 38.5056 18.0569 38.5056 19.166C38.5056 20.2752 39.1294 21.1744 39.8988 21.1744Z" fill="#EE2D37"/>
<path d="M39.9608 21.1275C40.7246 21.1275 41.3437 20.235 41.3437 19.1341C41.3437 18.0331 40.7246 17.1406 39.9608 17.1406C39.197 17.1406 38.5779 18.0331 38.5779 19.1341C38.5779 20.235 39.197 21.1275 39.9608 21.1275Z" fill="#EE2D37"/>
<path d="M40.0225 21.0804C40.7806 21.0804 41.3951 20.1945 41.3951 19.1018C41.3951 18.0091 40.7806 17.1233 40.0225 17.1233C39.2644 17.1233 38.6499 18.0091 38.6499 19.1018C38.6499 20.1945 39.2644 21.0804 40.0225 21.0804Z" fill="#EE2D37"/>
<path d="M40.0842 21.0325C40.8366 21.0325 41.4466 20.1533 41.4466 19.0689C41.4466 17.9844 40.8366 17.1052 40.0842 17.1052C39.3319 17.1052 38.7219 17.9844 38.7219 19.0689C38.7219 20.1533 39.3319 21.0325 40.0842 21.0325Z" fill="#EE2D37"/>
<path d="M40.146 20.9843C40.8927 20.9843 41.498 20.1118 41.498 19.0354C41.498 17.959 40.8927 17.0864 40.146 17.0864C39.3993 17.0864 38.7939 17.959 38.7939 19.0354C38.7939 20.1118 39.3993 20.9843 40.146 20.9843Z" fill="#EE2D37"/>
<path d="M40.2077 20.9355C40.9487 20.9355 41.5494 20.0696 41.5494 19.0014C41.5494 17.9333 40.9487 17.0674 40.2077 17.0674C39.4667 17.0674 38.866 17.9333 38.866 19.0014C38.866 20.0696 39.4667 20.9355 40.2077 20.9355Z" fill="#EE2D37"/>
<path d="M40.2694 20.8862C41.0048 20.8862 41.6009 20.0269 41.6009 18.967C41.6009 17.9071 41.0048 17.0479 40.2694 17.0479C39.5341 17.0479 38.938 17.9071 38.938 18.967C38.938 20.0269 39.5341 20.8862 40.2694 20.8862Z" fill="#EE2D37"/>
<path d="M40.3311 20.8364C41.0608 20.8364 41.6523 19.9838 41.6523 18.9321C41.6523 17.8804 41.0608 17.0278 40.3311 17.0278C39.6015 17.0278 39.01 17.8804 39.01 18.9321C39.01 19.9838 39.6015 20.8364 40.3311 20.8364Z" fill="#EE2D37"/>
<path d="M40.3924 20.7861C41.1163 20.7861 41.7032 19.9402 41.7032 18.8967C41.7032 17.8532 41.1163 17.0073 40.3924 17.0073C39.6684 17.0073 39.0815 17.8532 39.0815 18.8967C39.0815 19.9402 39.6684 20.7861 40.3924 20.7861Z" fill="#EE2D37"/>
<path d="M40.4541 20.7355C41.1724 20.7355 41.7547 19.8962 41.7547 18.8608C41.7547 17.8254 41.1724 16.9861 40.4541 16.9861C39.7358 16.9861 39.1536 17.8254 39.1536 18.8608C39.1536 19.8962 39.7358 20.7355 40.4541 20.7355Z" fill="#EE2D37"/>
<path d="M40.5151 20.684C41.2277 20.684 41.8054 19.8513 41.8054 18.8242C41.8054 17.797 41.2277 16.9644 40.5151 16.9644C39.8025 16.9644 39.2249 17.797 39.2249 18.8242C39.2249 19.8513 39.8025 20.684 40.5151 20.684Z" fill="#EE2D37"/>
<path d="M40.5763 20.6317C41.2832 20.6317 41.8563 19.8057 41.8563 18.7868C41.8563 17.7679 41.2832 16.9419 40.5763 16.9419C39.8694 16.9419 39.2964 17.7679 39.2964 18.7868C39.2964 19.8057 39.8694 20.6317 40.5763 20.6317Z" fill="#EE2D37"/>
<path d="M40.6373 20.5792C41.3386 20.5792 41.907 19.7599 41.907 18.7492C41.907 17.7385 41.3386 16.9192 40.6373 16.9192C39.9361 16.9192 39.3677 17.7385 39.3677 18.7492C39.3677 19.7599 39.9361 20.5792 40.6373 20.5792Z" fill="#EE2D37"/>
<path d="M40.6983 20.5264C41.3939 20.5264 41.9577 19.7137 41.9577 18.7111C41.9577 17.7085 41.3939 16.8958 40.6983 16.8958C40.0028 16.8958 39.439 17.7085 39.439 18.7111C39.439 19.7137 40.0028 20.5264 40.6983 20.5264Z" fill="#EE2D37"/>
<path d="M40.7588 20.4727C41.4487 20.4727 42.0079 19.6666 42.0079 18.6723C42.0079 17.6779 41.4487 16.8718 40.7588 16.8718C40.069 16.8718 39.5098 17.6779 39.5098 18.6723C39.5098 19.6666 40.069 20.4727 40.7588 20.4727Z" fill="#EE2D37"/>
<path d="M40.8193 20.4185C41.5035 20.4185 42.0581 19.6191 42.0581 18.633C42.0581 17.6468 41.5035 16.8474 40.8193 16.8474C40.1352 16.8474 39.5806 17.6468 39.5806 18.633C39.5806 19.6191 40.1352 20.4185 40.8193 20.4185Z" fill="#EE2D37"/>
<path d="M40.8796 20.3638C41.5581 20.3638 42.1081 19.5711 42.1081 18.5932C42.1081 17.6153 41.5581 16.8225 40.8796 16.8225C40.2011 16.8225 39.6511 17.6153 39.6511 18.5932C39.6511 19.5711 40.2011 20.3638 40.8796 20.3638Z" fill="#EE2D37"/>
<path d="M40.9399 20.3086C41.6126 20.3086 42.158 19.5225 42.158 18.5529C42.158 17.5832 41.6126 16.7971 40.9399 16.7971C40.2671 16.7971 39.7217 17.5832 39.7217 18.5529C39.7217 19.5225 40.2671 20.3086 40.9399 20.3086Z" fill="#EE2D37"/>
<path d="M40.9996 20.2529C41.6667 20.2529 42.2075 19.4734 42.2075 18.5118C42.2075 17.5503 41.6667 16.7708 40.9996 16.7708C40.3325 16.7708 39.7917 17.5503 39.7917 18.5118C39.7917 19.4734 40.3325 20.2529 40.9996 20.2529Z" fill="#EE2D37"/>
<path d="M41.0592 20.1965C41.7206 20.1965 42.2568 19.4237 42.2568 18.4703C42.2568 17.517 41.7206 16.7441 41.0592 16.7441C40.3978 16.7441 39.8616 17.517 39.8616 18.4703C39.8616 19.4237 40.3978 20.1965 41.0592 20.1965Z" fill="#EE2D37"/>
<path d="M41.1187 20.1396C41.7744 20.1396 42.306 19.3734 42.306 18.4283C42.306 17.4832 41.7744 16.717 41.1187 16.717C40.463 16.717 39.9314 17.4832 39.9314 18.4283C39.9314 19.3734 40.463 20.1396 41.1187 20.1396Z" fill="#EE2D37"/>
<path d="M41.1777 20.0822C41.8278 20.0822 42.3547 19.3227 42.3547 18.3858C42.3547 17.449 41.8278 16.6895 41.1777 16.6895C40.5277 16.6895 40.0007 17.449 40.0007 18.3858C40.0007 19.3227 40.5277 20.0822 41.1777 20.0822Z" fill="#EE2D37"/>
<path d="M41.2368 20.0241C41.8811 20.0241 42.4035 19.2713 42.4035 18.3426C42.4035 17.414 41.8811 16.6611 41.2368 16.6611C40.5924 16.6611 40.0701 17.414 40.0701 18.3426C40.0701 19.2713 40.5924 20.0241 41.2368 20.0241Z" fill="#EE2D37"/>
<path d="M41.2951 19.9657C41.9337 19.9657 42.4515 19.2194 42.4515 18.2989C42.4515 17.3783 41.9337 16.6321 41.2951 16.6321C40.6564 16.6321 40.1387 17.3783 40.1387 18.2989C40.1387 19.2194 40.6564 19.9657 41.2951 19.9657Z" fill="#EE2D37"/>
<path d="M41.3534 19.9061C41.9863 19.9061 42.4993 19.1665 42.4993 18.2542C42.4993 17.3419 41.9863 16.6023 41.3534 16.6023C40.7206 16.6023 40.2075 17.3419 40.2075 18.2542C40.2075 19.1665 40.7206 19.9061 41.3534 19.9061Z" fill="#EE2D37"/>
<path d="M41.4112 19.8463C42.0384 19.8463 42.5468 19.1134 42.5468 18.2093C42.5468 17.3052 42.0384 16.5723 41.4112 16.5723C40.7841 16.5723 40.2756 17.3052 40.2756 18.2093C40.2756 19.1134 40.7841 19.8463 41.4112 19.8463Z" fill="#EE2D37"/>
<path d="M41.4688 19.7862C42.0903 19.7862 42.5941 19.06 42.5941 18.1641C42.5941 17.2682 42.0903 16.542 41.4688 16.542C40.8473 16.542 40.3435 17.2682 40.3435 18.1641C40.3435 19.06 40.8473 19.7862 41.4688 19.7862Z" fill="#EE2D37"/>
<path d="M41.5264 19.7254C42.1422 19.7254 42.6414 19.0057 42.6414 18.1179C42.6414 17.2302 42.1422 16.5105 41.5264 16.5105C40.9106 16.5105 40.4114 17.2302 40.4114 18.1179C40.4114 19.0057 40.9106 19.7254 41.5264 19.7254Z" fill="#EE2D37"/>
<path d="M41.5832 19.6636C42.1933 19.6636 42.6879 18.9506 42.6879 18.0711C42.6879 17.1915 42.1933 16.4785 41.5832 16.4785C40.9731 16.4785 40.4785 17.1915 40.4785 18.0711C40.4785 18.9506 40.9731 19.6636 41.5832 19.6636Z" fill="#EE2D37"/>
<path d="M41.6398 19.6018C42.2443 19.6018 42.7342 18.8955 42.7342 18.0242C42.7342 17.1529 42.2443 16.4465 41.6398 16.4465C41.0354 16.4465 40.5454 17.1529 40.5454 18.0242C40.5454 18.8955 41.0354 19.6018 41.6398 19.6018Z" fill="#EE2D37"/>
<path d="M41.6959 19.5389C42.2947 19.5389 42.7801 18.8392 42.7801 17.9761C42.7801 17.113 42.2947 16.4133 41.6959 16.4133C41.0972 16.4133 40.6118 17.113 40.6118 17.9761C40.6118 18.8392 41.0972 19.5389 41.6959 19.5389Z" fill="#EE2D37"/>
<path d="M41.7518 19.4756C42.3449 19.4756 42.8256 18.7826 42.8256 17.9277C42.8256 17.0729 42.3449 16.3799 41.7518 16.3799C41.1587 16.3799 40.678 17.0729 40.678 17.9277C40.678 18.7826 41.1587 19.4756 41.7518 19.4756Z" fill="#EE2D37"/>
<path d="M41.8069 19.4118C42.3943 19.4118 42.8705 18.7254 42.8705 17.8786C42.8705 17.0319 42.3943 16.3455 41.8069 16.3455C41.2196 16.3455 40.7434 17.0319 40.7434 17.8786C40.7434 18.7254 41.2196 19.4118 41.8069 19.4118Z" fill="#EE2D37"/>
<path d="M41.8618 19.3474C42.4435 19.3474 42.9151 18.6676 42.9151 17.8291C42.9151 16.9906 42.4435 16.3108 41.8618 16.3108C41.2801 16.3108 40.8086 16.9906 40.8086 17.8291C40.8086 18.6676 41.2801 19.3474 41.8618 19.3474Z" fill="#EE2D37"/>
<path d="M41.9165 19.2822C42.4925 19.2822 42.9594 18.6091 42.9594 17.7788C42.9594 16.9485 42.4925 16.2754 41.9165 16.2754C41.3405 16.2754 40.8735 16.9485 40.8735 17.7788C40.8735 18.6091 41.3405 19.2822 41.9165 19.2822Z" fill="#EE2D37"/>
<path d="M41.9704 19.2165C42.5407 19.2165 43.003 18.5501 43.003 17.728C43.003 16.9059 42.5407 16.2395 41.9704 16.2395C41.4001 16.2395 40.9377 16.9059 40.9377 17.728C40.9377 18.5501 41.4001 19.2165 41.9704 19.2165Z" fill="#EE2D37"/>
<path d="M42.0241 19.1505C42.5887 19.1505 43.0464 18.4907 43.0464 17.6767C43.0464 16.8627 42.5887 16.2029 42.0241 16.2029C41.4594 16.2029 41.0017 16.8627 41.0017 17.6767C41.0017 18.4907 41.4594 19.1505 42.0241 19.1505Z" fill="#EE2D37"/>
<path d="M42.077 19.0834C42.6359 19.0834 43.089 18.4302 43.089 17.6245C43.089 16.8187 42.6359 16.1655 42.077 16.1655C41.5181 16.1655 41.0649 16.8187 41.0649 17.6245C41.0649 18.4302 41.5181 19.0834 42.077 19.0834Z" fill="#EE2D37"/>
<path d="M42.1297 19.016C42.6829 19.016 43.1314 18.3695 43.1314 17.572C43.1314 16.7744 42.6829 16.1279 42.1297 16.1279C41.5764 16.1279 41.1279 16.7744 41.1279 17.572C41.1279 18.3695 41.5764 19.016 42.1297 19.016Z" fill="#EE2D37"/>
<path d="M42.1816 18.9476C42.7292 18.9476 43.1731 18.3078 43.1731 17.5185C43.1731 16.7292 42.7292 16.0894 42.1816 16.0894C41.6341 16.0894 41.1902 16.7292 41.1902 17.5185C41.1902 18.3078 41.6341 18.9476 42.1816 18.9476Z" fill="#EE2D37"/>
<path d="M42.2331 18.8788C42.775 18.8788 43.2143 18.2456 43.2143 17.4645C43.2143 16.6835 42.775 16.0503 42.2331 16.0503C41.6912 16.0503 41.252 16.6835 41.252 17.4645C41.252 18.2456 41.6912 18.8788 42.2331 18.8788Z" fill="#EE2D37"/>
<path d="M42.2843 18.8099C42.8205 18.8099 43.2552 18.1833 43.2552 17.4103C43.2552 16.6373 42.8205 16.0107 42.2843 16.0107C41.7481 16.0107 41.3135 16.6373 41.3135 17.4103C41.3135 18.1833 41.7481 18.8099 42.2843 18.8099Z" fill="#EE2D37"/>
<path d="M42.3346 18.7398C42.8651 18.7398 43.2952 18.1199 43.2952 17.3551C43.2952 16.5904 42.8651 15.9705 42.3346 15.9705C41.8041 15.9705 41.374 16.5904 41.374 17.3551C41.374 18.1199 41.8041 18.7398 42.3346 18.7398Z" fill="#EE2D37"/>
<path d="M42.3846 18.669C42.9094 18.669 43.3349 18.0557 43.3349 17.2992C43.3349 16.5427 42.9094 15.9294 42.3846 15.9294C41.8598 15.9294 41.4343 16.5427 41.4343 17.2992C41.4343 18.0557 41.8598 18.669 42.3846 18.669Z" fill="#EE2D37"/>
<path d="M42.4341 18.5977C42.9533 18.5977 43.3741 17.9911 43.3741 17.2428C43.3741 16.4945 42.9533 15.8879 42.4341 15.8879C41.915 15.8879 41.4941 16.4945 41.4941 17.2428C41.4941 17.9911 41.915 18.5977 42.4341 18.5977Z" fill="#EE2D37"/>
<path d="M42.4827 18.5261C42.9961 18.5261 43.4123 17.9261 43.4123 17.1859C43.4123 16.4457 42.9961 15.8457 42.4827 15.8457C41.9692 15.8457 41.553 16.4457 41.553 17.1859C41.553 17.9261 41.9692 18.5261 42.4827 18.5261Z" fill="#EE2D37"/>
<path d="M42.531 18.4536C43.0387 18.4536 43.4503 17.8602 43.4503 17.1283C43.4503 16.3963 43.0387 15.803 42.531 15.803C42.0232 15.803 41.6116 16.3963 41.6116 17.1283C41.6116 17.8602 42.0232 18.4536 42.531 18.4536Z" fill="#EE2D37"/>
<path d="M42.5785 18.3803C43.0806 18.3803 43.4876 17.7936 43.4876 17.0699C43.4876 16.3462 43.0806 15.7595 42.5785 15.7595C42.0764 15.7595 41.6694 16.3462 41.6694 17.0699C41.6694 17.7936 42.0764 18.3803 42.5785 18.3803Z" fill="#EE2D37"/>
<path d="M42.6254 18.3064C43.1217 18.3064 43.5242 17.7263 43.5242 17.0108C43.5242 16.2954 43.1217 15.7153 42.6254 15.7153C42.129 15.7153 41.7266 16.2954 41.7266 17.0108C41.7266 17.7263 42.129 18.3064 42.6254 18.3064Z" fill="#EE2D37"/>
<path d="M42.6715 18.2321C43.1622 18.2321 43.56 17.6588 43.56 16.9515C43.56 16.2442 43.1622 15.6709 42.6715 15.6709C42.1808 15.6709 41.783 16.2442 41.783 16.9515C41.783 17.6588 42.1808 18.2321 42.6715 18.2321Z" fill="#EE2D37"/>
<path d="M42.7173 18.1574C43.2023 18.1574 43.5955 17.5906 43.5955 16.8914C43.5955 16.1923 43.2023 15.6255 42.7173 15.6255C42.2323 15.6255 41.8391 16.1923 41.8391 16.8914C41.8391 17.5906 42.2323 18.1574 42.7173 18.1574Z" fill="#EE2D37"/>
<path d="M42.7622 18.0814C43.2415 18.0814 43.6301 17.5213 43.6301 16.8304C43.6301 16.1395 43.2415 15.5793 42.7622 15.5793C42.2829 15.5793 41.8943 16.1395 41.8943 16.8304C41.8943 17.5213 42.2829 18.0814 42.7622 18.0814Z" fill="#EE2D37"/>
<path d="M42.8066 18.005C43.2802 18.005 43.6642 17.4516 43.6642 16.7689C43.6642 16.0862 43.2802 15.5327 42.8066 15.5327C42.3329 15.5327 41.949 16.0862 41.949 16.7689C41.949 17.4516 42.3329 18.005 42.8066 18.005Z" fill="#EE2D37"/>
<path d="M42.85 17.9278C43.318 17.9278 43.6973 17.3811 43.6973 16.7066C43.6973 16.0321 43.318 15.4854 42.85 15.4854C42.382 15.4854 42.0027 16.0321 42.0027 16.7066C42.0027 17.3811 42.382 17.9278 42.85 17.9278Z" fill="#EE2D37"/>
<path d="M42.8929 17.8504C43.3552 17.8504 43.7299 17.3102 43.7299 16.6438C43.7299 15.9775 43.3552 15.4373 42.8929 15.4373C42.4307 15.4373 42.0559 15.9775 42.0559 16.6438C42.0559 17.3102 42.4307 17.8504 42.8929 17.8504Z" fill="#EE2D37"/>
<path d="M42.9351 17.7723C43.3917 17.7723 43.7618 17.2387 43.7618 16.5806C43.7618 15.9224 43.3917 15.3889 42.9351 15.3889C42.4785 15.3889 42.1084 15.9224 42.1084 16.5806C42.1084 17.2387 42.4785 17.7723 42.9351 17.7723Z" fill="#EE2D37"/>
<path d="M42.9766 17.6932C43.4275 17.6932 43.793 17.1663 43.793 16.5164C43.793 15.8665 43.4275 15.3396 42.9766 15.3396C42.5257 15.3396 42.1602 15.8665 42.1602 16.5164C42.1602 17.1663 42.5257 17.6932 42.9766 17.6932Z" fill="#EE2D37"/>
<path d="M43.0171 17.6133C43.4623 17.6133 43.8232 17.0931 43.8232 16.4514C43.8232 15.8097 43.4623 15.2896 43.0171 15.2896C42.5719 15.2896 42.2109 15.8097 42.2109 16.4514C42.2109 17.0931 42.5719 17.6133 43.0171 17.6133Z" fill="#EE2D37"/>
<path d="M43.0571 17.533C43.4966 17.533 43.8529 17.0195 43.8529 16.386C43.8529 15.7525 43.4966 15.239 43.0571 15.239C42.6175 15.239 42.2612 15.7525 42.2612 16.386C42.2612 17.0195 42.6175 17.533 43.0571 17.533Z" fill="#EE2D37"/>
<path d="M43.0961 17.4521C43.5299 17.4521 43.8816 16.9452 43.8816 16.3198C43.8816 15.6945 43.5299 15.1875 43.0961 15.1875C42.6622 15.1875 42.3105 15.6945 42.3105 16.3198C42.3105 16.9452 42.6622 17.4521 43.0961 17.4521Z" fill="#EE2D37"/>
<path d="M43.1344 17.3703C43.5625 17.3703 43.9096 16.87 43.9096 16.2529C43.9096 15.6358 43.5625 15.1355 43.1344 15.1355C42.7062 15.1355 42.3591 15.6358 42.3591 16.2529C42.3591 16.87 42.7062 17.3703 43.1344 17.3703Z" fill="#EE2D37"/>
<path d="M43.1719 17.288C43.5944 17.288 43.9369 16.7944 43.9369 16.1855C43.9369 15.5766 43.5944 15.083 43.1719 15.083C42.7495 15.083 42.407 15.5766 42.407 16.1855C42.407 16.7944 42.7495 17.288 43.1719 17.288Z" fill="#EE2D37"/>
<path d="M43.2088 17.205C43.6255 17.205 43.9634 16.7181 43.9634 16.1174C43.9634 15.5167 43.6255 15.0298 43.2088 15.0298C42.792 15.0298 42.4541 15.5167 42.4541 16.1174C42.4541 16.7181 42.792 17.205 43.2088 17.205Z" fill="#EE2D37"/>
<path d="M43.2446 17.1212C43.6557 17.1212 43.989 16.6409 43.989 16.0483C43.989 15.4557 43.6557 14.9753 43.2446 14.9753C42.8335 14.9753 42.5002 15.4557 42.5002 16.0483C42.5002 16.6409 42.8335 17.1212 43.2446 17.1212Z" fill="#EE2D37"/>
<path d="M43.2797 17.037C43.6851 17.037 44.0138 16.5633 44.0138 15.9789C44.0138 15.3946 43.6851 14.9209 43.2797 14.9209C42.8743 14.9209 42.5457 15.3946 42.5457 15.9789C42.5457 16.5633 42.8743 17.037 43.2797 17.037Z" fill="#EE2D37"/>
<path d="M43.3139 16.9518C43.7136 16.9518 44.0376 16.4848 44.0376 15.9086C44.0376 15.3325 43.7136 14.8655 43.3139 14.8655C42.9141 14.8655 42.5901 15.3325 42.5901 15.9086C42.5901 16.4848 42.9141 16.9518 43.3139 16.9518Z" fill="#EE2D37"/>
<path d="M43.347 16.8661C43.7411 16.8661 44.0605 16.4057 44.0605 15.8378C44.0605 15.2699 43.7411 14.8096 43.347 14.8096C42.953 14.8096 42.6335 15.2699 42.6335 15.8378C42.6335 16.4057 42.953 16.8661 43.347 16.8661Z" fill="#EE2D37"/>
<path d="M43.3794 16.7797C43.7678 16.7797 44.0826 16.326 44.0826 15.7663C44.0826 15.2066 43.7678 14.7529 43.3794 14.7529C42.9911 14.7529 42.6763 15.2066 42.6763 15.7663C42.6763 16.326 42.9911 16.7797 43.3794 16.7797Z" fill="#EE2D37"/>
<path d="M43.4109 16.6927C43.7936 16.6927 44.1038 16.2456 44.1038 15.694C44.1038 15.1424 43.7936 14.6953 43.4109 14.6953C43.0282 14.6953 42.718 15.1424 42.718 15.694C42.718 16.2456 43.0282 16.6927 43.4109 16.6927Z" fill="#EE2D37"/>
<path d="M43.4416 16.6045C43.8185 16.6045 44.124 16.1641 44.124 15.6208C44.124 15.0774 43.8185 14.637 43.4416 14.637C43.0648 14.637 42.7593 15.0774 42.7593 15.6208C42.7593 16.1641 43.0648 16.6045 43.4416 16.6045Z" fill="#EE2D37"/>
<path d="M43.4714 16.5162C43.8426 16.5162 44.1435 16.0824 44.1435 15.5473C44.1435 15.0122 43.8426 14.5784 43.4714 14.5784C43.1002 14.5784 42.7993 15.0122 42.7993 15.5473C42.7993 16.0824 43.1002 16.5162 43.4714 16.5162Z" fill="#EE2D37"/>
<path d="M43.4999 16.4268C43.8654 16.4268 44.1617 15.9997 44.1617 15.4728C44.1617 14.9459 43.8654 14.5188 43.4999 14.5188C43.1344 14.5188 42.8381 14.9459 42.8381 15.4728C42.8381 15.9997 43.1344 16.4268 43.4999 16.4268Z" fill="#EE2D37"/>
<path d="M43.5279 16.3369C43.8877 16.3369 44.1794 15.9165 44.1794 15.3978C44.1794 14.8792 43.8877 14.4587 43.5279 14.4587C43.1681 14.4587 42.8765 14.8792 42.8765 15.3978C42.8765 15.9165 43.1681 16.3369 43.5279 16.3369Z" fill="#EE2D37"/>
<path d="M43.5545 16.2463C43.9086 16.2463 44.1957 15.8324 44.1957 15.3219C44.1957 14.8113 43.9086 14.3975 43.5545 14.3975C43.2004 14.3975 42.9133 14.8113 42.9133 15.3219C42.9133 15.8324 43.2004 16.2463 43.5545 16.2463Z" fill="#EE2D37"/>
<path d="M43.5804 16.1548C43.9288 16.1548 44.2112 15.7475 44.2112 15.2452C44.2112 14.7429 43.9288 14.3357 43.5804 14.3357C43.2319 14.3357 42.9495 14.7429 42.9495 15.2452C42.9495 15.7475 43.2319 16.1548 43.5804 16.1548Z" fill="#EE2D37"/>
<path d="M43.6052 16.0627C43.948 16.0627 44.2258 15.6622 44.2258 15.1681C44.2258 14.674 43.948 14.2734 43.6052 14.2734C43.2625 14.2734 42.9846 14.674 42.9846 15.1681C42.9846 15.6622 43.2625 16.0627 43.6052 16.0627Z" fill="#EE2D37"/>
<path d="M43.6291 15.9699C43.9662 15.9699 44.2394 15.5761 44.2394 15.0902C44.2394 14.6043 43.9662 14.2104 43.6291 14.2104C43.292 14.2104 43.0188 14.6043 43.0188 15.0902C43.0188 15.5761 43.292 15.9699 43.6291 15.9699Z" fill="#EE2D37"/>
<path d="M43.6518 15.8764C43.9831 15.8764 44.2518 15.4891 44.2518 15.0113C44.2518 14.5335 43.9831 14.1462 43.6518 14.1462C43.3204 14.1462 43.0518 14.5335 43.0518 15.0113C43.0518 15.4891 43.3204 15.8764 43.6518 15.8764Z" fill="#EE2D37"/>
<path d="M43.6737 15.7824C43.9994 15.7824 44.2634 15.4017 44.2634 14.9322C44.2634 14.4627 43.9994 14.082 43.6737 14.082C43.348 14.082 43.084 14.4627 43.084 14.9322C43.084 15.4017 43.348 15.7824 43.6737 15.7824Z" fill="#EE2D37"/>
<path d="M43.6946 15.6871C44.0146 15.6871 44.2741 15.3132 44.2741 14.8519C44.2741 14.3906 44.0146 14.0166 43.6946 14.0166C43.3746 14.0166 43.1152 14.3906 43.1152 14.8519C43.1152 15.3132 43.3746 15.6871 43.6946 15.6871Z" fill="#EE2D37"/>
<path d="M43.7141 15.5914C44.0284 15.5914 44.2832 15.2241 44.2832 14.7711C44.2832 14.318 44.0284 13.9507 43.7141 13.9507C43.3998 13.9507 43.145 14.318 43.145 14.7711C43.145 15.2241 43.3998 15.5914 43.7141 15.5914Z" fill="#EE2D37"/>
<path d="M43.7326 15.4947C44.0413 15.4947 44.2915 15.1341 44.2915 14.6893C44.2915 14.2444 44.0413 13.8838 43.7326 13.8838C43.424 13.8838 43.1738 14.2444 43.1738 14.6893C43.1738 15.1341 43.424 15.4947 43.7326 15.4947Z" fill="#EE2D37"/>
<path d="M43.7502 15.398C44.0531 15.398 44.2987 15.044 44.2987 14.6072C44.2987 14.1705 44.0531 13.8164 43.7502 13.8164C43.4472 13.8164 43.2017 14.1705 43.2017 14.6072C43.2017 15.044 43.4472 15.398 43.7502 15.398Z" fill="#EE2D37"/>
<path d="M43.7665 15.3001C44.0638 15.3001 44.3047 14.9527 44.3047 14.5242C44.3047 14.0957 44.0638 13.7483 43.7665 13.7483C43.4692 13.7483 43.2283 14.0957 43.2283 14.5242C43.2283 14.9527 43.4692 15.3001 43.7665 15.3001Z" fill="#EE2D37"/>
<path d="M44.3098 14.4402C44.3098 14.8606 44.0734 15.2012 43.7818 15.2012C43.4903 15.2012 43.2539 14.8606 43.2539 14.4402C43.2539 14.0198 43.4903 13.6792 43.7818 13.6792C44.0734 13.6792 44.3098 14.0198 44.3098 14.4402Z" fill="#EE2D37"/>
<path d="M44.3138 14.3557C44.3138 14.7678 44.0821 15.1018 43.7962 15.1018C43.5103 15.1018 43.2786 14.7678 43.2786 14.3557C43.2786 13.9437 43.5103 13.6096 43.7962 13.6096C44.0821 13.6096 44.3138 13.9437 44.3138 14.3557Z" fill="#EE2D37"/>
<path d="M44.3164 14.2705C44.3164 14.6744 44.0893 15.0017 43.8091 15.0017C43.5289 15.0017 43.3018 14.6744 43.3018 14.2705C43.3018 13.8666 43.5289 13.5391 43.8091 13.5391C44.0893 13.5391 44.3164 13.8666 44.3164 14.2705Z" fill="#EE2D37"/>
<path d="M44.3183 14.1843C44.3183 14.5799 44.0957 14.9009 43.8213 14.9009C43.5468 14.9009 43.3242 14.5799 43.3242 14.1843C43.3242 13.7887 43.5466 13.4678 43.8213 13.4678C44.096 13.4678 44.3183 13.7887 44.3183 14.1843Z" fill="#EE2D37"/>
<path d="M44.3187 14.0984C44.3187 14.486 44.0996 14.7994 43.8317 14.7994C43.5638 14.7994 43.345 14.4853 43.345 14.0984C43.345 13.7116 43.564 13.3975 43.8317 13.3975C44.0994 13.3975 44.3187 13.7103 44.3187 14.0984Z" fill="#EE2D37"/>
<path d="M44.3176 14.0107C44.3176 14.3901 44.1043 14.6975 43.8412 14.6975C43.5781 14.6975 43.3647 14.3908 43.3647 14.0107C43.3647 13.6307 43.5781 13.324 43.8412 13.324C44.1043 13.324 44.3176 13.6309 44.3176 14.0107Z" fill="#EE2D37"/>
<path d="M44.3159 13.9219C44.3159 14.2929 44.1071 14.5939 43.8497 14.5939C43.5923 14.5939 43.3835 14.2929 43.3835 13.9219C43.3835 13.5508 43.5923 13.25 43.8497 13.25C44.1071 13.25 44.3159 13.5508 44.3159 13.9219Z" fill="#EE2D37"/>
<path d="M44.3124 13.833C44.3124 14.1957 44.1082 14.4901 43.8565 14.4901C43.6048 14.4901 43.4006 14.1959 43.4006 13.833C43.4006 13.47 43.6046 13.1758 43.8565 13.1758C44.1084 13.1758 44.3124 13.47 44.3124 13.833Z" fill="#EE2D37"/>
<path d="M44.3081 13.7431C44.3081 14.0978 44.1088 14.3854 43.8626 14.3854C43.6163 14.3854 43.417 14.0978 43.417 13.7431C43.417 13.3885 43.6166 13.1008 43.8626 13.1008C44.1086 13.1008 44.3081 13.3882 44.3081 13.7431Z" fill="#EE2D37"/>
<path d="M44.3027 13.6523C44.3027 13.9988 44.1077 14.2797 43.8674 14.2797C43.6271 14.2797 43.4321 13.9988 43.4321 13.6523C43.4321 13.3057 43.6269 13.0249 43.8674 13.0249C44.1079 13.0249 44.3027 13.3057 44.3027 13.6523Z" fill="#EE2D37"/>
<path d="M44.2957 13.5611C44.2957 13.8996 44.1056 14.1745 43.8708 14.1745C43.6359 14.1745 43.4458 13.9004 43.4458 13.5611C43.4458 13.2218 43.6362 12.9478 43.8708 12.9478C44.1054 12.9478 44.2957 13.2222 44.2957 13.5611Z" fill="#EE2D37"/>
<path d="M44.2876 13.4689C44.2876 13.799 44.102 14.0665 43.8729 14.0665C43.6438 14.0665 43.458 13.799 43.458 13.4689C43.458 13.1388 43.6438 12.8711 43.8727 12.8711C44.1016 12.8711 44.2876 13.1388 44.2876 13.4689Z" fill="#EE2D37"/>
<path d="M44.278 13.3754C44.278 13.6972 44.0971 13.9581 43.8736 13.9581C43.6502 13.9581 43.4692 13.6972 43.4692 13.3754C43.4692 13.0536 43.6504 12.7925 43.8736 12.7925C44.0968 12.7925 44.278 13.054 44.278 13.3754Z" fill="#EE2D37"/>
<path d="M44.2686 13.2824C44.2686 13.5961 44.0933 13.8504 43.8743 13.8504C43.6552 13.8504 43.48 13.5961 43.48 13.2824C43.48 12.9687 43.6565 12.7144 43.8743 12.7144C44.092 12.7144 44.2686 12.9687 44.2686 13.2824Z" fill="#EE2D37"/>
<path d="M44.2554 13.1879C44.2554 13.4935 44.0836 13.741 43.8716 13.741C43.6595 13.741 43.4878 13.4935 43.4878 13.1879C43.4878 12.8823 43.6598 12.6348 43.8716 12.6348C44.0834 12.6348 44.2554 12.8823 44.2554 13.1879Z" fill="#EE2D37"/>
<path d="M44.2419 13.0927C44.2419 13.3899 44.0747 13.6311 43.8695 13.6311C43.6642 13.6311 43.4971 13.3901 43.4971 13.0927C43.4971 12.7952 43.6642 12.5544 43.8695 12.5544C44.0747 12.5544 44.2419 12.7954 44.2419 13.0927Z" fill="#EE2D37"/>
<path d="M44.2274 12.9967C44.2274 13.2858 44.0649 13.5202 43.8644 13.5202C43.664 13.5202 43.5012 13.2858 43.5012 12.9967C43.5012 12.7075 43.6638 12.4731 43.8644 12.4731C44.0651 12.4731 44.2274 12.7075 44.2274 12.9967Z" fill="#EE2D37"/>
<path d="M44.2112 12.8998C44.2112 13.1806 44.0533 13.4084 43.8583 13.4084C43.6633 13.4084 43.5056 13.1806 43.5056 12.8998C43.5056 12.6189 43.6636 12.3911 43.8583 12.3911C44.053 12.3911 44.2112 12.6189 44.2112 12.8998Z" fill="#EE2D37"/>
<path d="M44.194 12.8024C44.194 13.0751 44.0407 13.2961 43.8514 13.2961C43.6621 13.2961 43.5088 13.0751 43.5088 12.8024C43.5088 12.5296 43.6621 12.3086 43.8514 12.3086C44.0407 12.3086 44.194 12.5296 44.194 12.8024Z" fill="#EE2D37"/>
<path d="M44.1751 12.7039C44.1751 12.9683 44.0264 13.1828 43.8431 13.1828C43.6597 13.1828 43.5107 12.9683 43.5107 12.7039C43.5107 12.4395 43.6595 12.2249 43.8431 12.2249C44.0266 12.2249 44.1751 12.4393 44.1751 12.7039Z" fill="#EE2D37"/>
<path d="M44.155 12.6048C44.155 12.8611 44.0109 13.0688 43.8332 13.0688C43.6556 13.0688 43.5112 12.8611 43.5112 12.6048C43.5112 12.3485 43.6554 12.1406 43.8332 12.1406C44.0111 12.1406 44.155 12.3485 44.155 12.6048Z" fill="#EE2D37"/>
<path d="M44.1335 12.505C44.1335 12.7529 43.9939 12.954 43.8218 12.954C43.6496 12.954 43.5103 12.7529 43.5103 12.505C43.5103 12.257 43.6498 12.0557 43.8218 12.0557C43.9937 12.0557 44.1335 12.2568 44.1335 12.505Z" fill="#EE2D37"/>
<path d="M44.1104 12.4041C44.1104 12.6451 43.9757 12.8385 43.8092 12.8385C43.6428 12.8385 43.5078 12.644 43.5078 12.4041C43.5078 12.1643 43.6428 11.9697 43.8092 11.9697C43.9757 11.9697 44.1104 12.164 44.1104 12.4041Z" fill="#EE2D37"/>
<path d="M44.0862 12.3021C44.0862 12.5338 43.9548 12.7216 43.7953 12.7216C43.6358 12.7216 43.5042 12.5343 43.5042 12.3021C43.5042 12.0699 43.6356 11.8826 43.7953 11.8826C43.955 11.8826 44.0862 12.0707 44.0862 12.3021Z" fill="#EE2D37"/>
<path d="M44.0605 12.2002C44.0605 12.4237 43.9349 12.6048 43.7799 12.6048C43.6248 12.6048 43.499 12.4237 43.499 12.2002C43.499 11.9768 43.6248 11.7954 43.7799 11.7954C43.9349 11.7954 44.0605 11.9766 44.0605 12.2002Z" fill="#EE2D37"/>
<path d="M44.0333 12.097C44.0333 12.3121 43.9121 12.4867 43.7628 12.4867C43.6134 12.4867 43.4924 12.3114 43.4924 12.097C43.4924 11.8825 43.6136 11.707 43.7628 11.707C43.9119 11.707 44.0333 11.8816 44.0333 12.097Z" fill="#EE2D37"/>
<path d="M44.0056 11.9929C44.0056 12.2 43.8891 12.368 43.7454 12.368C43.6017 12.368 43.4854 12.2 43.4854 11.9929C43.4854 11.7859 43.6017 11.6179 43.7454 11.6179C43.8891 11.6179 44.0056 11.7857 44.0056 11.9929Z" fill="#EE2D37"/>
<path d="M43.9743 11.888C43.9743 12.0869 43.8623 12.2481 43.7243 12.2481C43.5863 12.2481 43.4746 12.0869 43.4746 11.888C43.4746 11.6891 43.5865 11.5278 43.7243 11.5278C43.8621 11.5278 43.9743 11.6886 43.9743 11.888Z" fill="#EE2D37"/>
<path d="M43.9425 11.7825C43.9425 11.9733 43.8353 12.1277 43.703 12.1277C43.5707 12.1277 43.4634 11.9733 43.4634 11.7825C43.4634 11.5917 43.5707 11.4373 43.703 11.4373C43.8353 11.4373 43.9425 11.5919 43.9425 11.7825Z" fill="#EE2D37"/>
<path d="M43.9094 11.676C43.9094 11.8585 43.8067 12.0066 43.6801 12.0066C43.5534 12.0066 43.4509 11.8585 43.4509 11.676C43.4509 11.4936 43.5534 11.3457 43.6801 11.3457C43.8067 11.3457 43.9094 11.4936 43.9094 11.676Z" fill="#EE2D37"/>
<path d="M43.8742 11.5688C43.8742 11.743 43.7762 11.8843 43.6551 11.8843C43.534 11.8843 43.436 11.743 43.436 11.5688C43.436 11.3947 43.5342 11.2532 43.6551 11.2532C43.776 11.2532 43.8742 11.3945 43.8742 11.5688Z" fill="#EE2D37"/>
<path d="M43.8384 11.4607C43.8384 11.6267 43.7449 11.7614 43.6297 11.7614C43.5145 11.7614 43.4211 11.6267 43.4211 11.4607C43.4211 11.2946 43.5145 11.1599 43.6297 11.1599C43.7449 11.1599 43.8384 11.2944 43.8384 11.4607Z" fill="#EE2D37"/>
<path d="M43.8005 11.3519C43.8005 11.5099 43.7118 11.6378 43.6023 11.6378C43.4927 11.6378 43.4038 11.5099 43.4038 11.3519C43.4038 11.194 43.4927 11.0671 43.6023 11.0671C43.7118 11.0671 43.8005 11.194 43.8005 11.3519Z" fill="#EE2D37"/>
<path d="M43.7612 11.2422C43.7612 11.3918 43.677 11.5131 43.5732 11.5131C43.4694 11.5131 43.3853 11.3918 43.3853 11.2422C43.3853 11.0925 43.4694 10.9712 43.5732 10.9712C43.677 10.9712 43.7612 11.0925 43.7612 11.2422Z" fill="#EE2D37"/>
<path d="M43.7208 11.1315C43.7208 11.2731 43.641 11.3878 43.5429 11.3878C43.4448 11.3878 43.3652 11.2731 43.3652 11.1315C43.3652 10.99 43.4448 10.8752 43.5429 10.8752C43.641 10.8752 43.7208 10.99 43.7208 11.1315Z" fill="#EE2D37"/>
<path d="M43.677 11.02C43.677 11.1534 43.6021 11.261 43.5096 11.261C43.4172 11.261 43.3423 11.153 43.3423 11.02C43.3423 10.887 43.4172 10.7791 43.5096 10.7791C43.6021 10.7791 43.677 10.8868 43.677 11.02Z" fill="#EE2D37"/>
<path d="M43.6332 10.9079C43.6332 11.033 43.5629 11.1344 43.4761 11.1344C43.3894 11.1344 43.3188 11.033 43.3188 10.9079C43.3188 10.7828 43.3896 10.6812 43.4766 10.6812C43.5635 10.6812 43.6332 10.7828 43.6332 10.9079Z" fill="#EE2D37"/>
<path d="M43.588 10.7948C43.588 10.9116 43.5223 11.0064 43.4412 11.0064C43.3601 11.0064 43.2944 10.9116 43.2944 10.7948C43.2944 10.6781 43.3601 10.583 43.4412 10.583C43.5223 10.583 43.588 10.6779 43.588 10.7948Z" fill="#EE2D37"/>
<path d="M43.5405 10.681C43.5405 10.7906 43.4794 10.8782 43.404 10.8782C43.3287 10.8782 43.2673 10.7906 43.2673 10.681C43.2673 10.5715 43.3285 10.4839 43.404 10.4839C43.4796 10.4839 43.5405 10.5715 43.5405 10.681Z" fill="#EE2D37"/>
<path d="M23.8508 23.4817C25.0697 23.4817 26.0578 22.0575 26.0578 20.3005C26.0578 18.5436 25.0697 17.1194 23.8508 17.1194C22.6319 17.1194 21.6438 18.5436 21.6438 20.3005C21.6438 22.0575 22.6319 23.4817 23.8508 23.4817Z" fill="#EE2D37"/>
<path d="M23.8312 23.4666C25.0444 23.4666 26.0279 22.049 26.0279 20.3003C26.0279 18.5516 25.0444 17.134 23.8312 17.134C22.618 17.134 21.6345 18.5516 21.6345 20.3003C21.6345 22.049 22.618 23.4666 23.8312 23.4666Z" fill="#EE2D37"/>
<path d="M23.8107 23.4514C25.0182 23.4514 25.9971 22.0404 25.9971 20.2998C25.9971 18.5592 25.0182 17.1482 23.8107 17.1482C22.6032 17.1482 21.6243 18.5592 21.6243 20.2998C21.6243 22.0404 22.6032 23.4514 23.8107 23.4514Z" fill="#EE2D37"/>
<path d="M23.7889 23.436C24.9908 23.436 25.965 22.0316 25.965 20.2993C25.965 18.5669 24.9908 17.1626 23.7889 17.1626C22.5871 17.1626 21.6128 18.5669 21.6128 20.2993C21.6128 22.0316 22.5871 23.436 23.7889 23.436Z" fill="#EE2D37"/>
<path d="M23.7662 23.4199C24.9623 23.4199 25.932 22.0222 25.932 20.2981C25.932 18.5739 24.9623 17.1763 23.7662 17.1763C22.57 17.1763 21.6003 18.5739 21.6003 20.2981C21.6003 22.0222 22.57 23.4199 23.7662 23.4199Z" fill="#EE2D37"/>
<path d="M23.7422 23.4037C24.9327 23.4037 25.8977 22.0127 25.8977 20.2968C25.8977 18.5809 24.9327 17.1899 23.7422 17.1899C22.5517 17.1899 21.5867 18.5809 21.5867 20.2968C21.5867 22.0127 22.5517 23.4037 23.7422 23.4037Z" fill="#EE2D37"/>
<path d="M23.7175 23.3876C24.9023 23.3876 25.8627 22.0031 25.8627 20.2953C25.8627 18.5876 24.9023 17.2031 23.7175 17.2031C22.5327 17.2031 21.5723 18.5876 21.5723 20.2953C21.5723 22.0031 22.5327 23.3876 23.7175 23.3876Z" fill="#EE2D37"/>
<path d="M23.6918 23.3707C24.8709 23.3707 25.8268 21.993 25.8268 20.2934C25.8268 18.5938 24.8709 17.2161 23.6918 17.2161C22.5127 17.2161 21.5569 18.5938 21.5569 20.2934C21.5569 21.993 22.5127 23.3707 23.6918 23.3707Z" fill="#EE2D37"/>
<path d="M23.6652 23.3536C24.8386 23.3536 25.7898 21.9825 25.7898 20.2912C25.7898 18.5999 24.8386 17.2288 23.6652 17.2288C22.4918 17.2288 21.5405 18.5999 21.5405 20.2912C21.5405 21.9825 22.4918 23.3536 23.6652 23.3536Z" fill="#EE2D37"/>
<path d="M23.6373 23.336C24.805 23.336 25.7516 21.9716 25.7516 20.2885C25.7516 18.6054 24.805 17.241 23.6373 17.241C22.4696 17.241 21.5229 18.6054 21.5229 20.2885C21.5229 21.9716 22.4696 23.336 23.6373 23.336Z" fill="#EE2D37"/>
<path d="M23.6087 23.3182C24.7707 23.3182 25.7127 21.9605 25.7127 20.2856C25.7127 18.6107 24.7707 17.2529 23.6087 17.2529C22.4467 17.2529 21.5046 18.6107 21.5046 20.2856C21.5046 21.9605 22.4467 23.3182 23.6087 23.3182Z" fill="#EE2D37"/>
<path d="M23.5791 23.3003C24.7355 23.3003 25.6729 21.9491 25.6729 20.2824C25.6729 18.6156 24.7355 17.2644 23.5791 17.2644C22.4228 17.2644 21.4854 18.6156 21.4854 20.2824C21.4854 21.9491 22.4228 23.3003 23.5791 23.3003Z" fill="#EE2D37"/>
<path d="M23.5486 23.282C24.6991 23.282 25.6318 21.9375 25.6318 20.2789C25.6318 18.6204 24.6991 17.2759 23.5486 17.2759C22.398 17.2759 21.4653 18.6204 21.4653 20.2789C21.4653 21.9375 22.398 23.282 23.5486 23.282Z" fill="#EE2D37"/>
<path d="M23.517 23.263C24.6619 23.263 25.59 21.9251 25.59 20.2748C25.59 18.6245 24.6619 17.2866 23.517 17.2866C22.3722 17.2866 21.4441 18.6245 21.4441 20.2748C21.4441 21.9251 22.3722 23.263 23.517 23.263Z" fill="#EE2D37"/>
<path d="M23.485 23.2439C24.6242 23.2439 25.5477 21.9127 25.5477 20.2706C25.5477 18.6285 24.6242 17.2974 23.485 17.2974C22.3458 17.2974 21.4224 18.6285 21.4224 20.2706C21.4224 21.9127 22.3458 23.2439 23.485 23.2439Z" fill="#EE2D37"/>
<path d="M23.4515 23.2251C24.585 23.2251 25.5039 21.9004 25.5039 20.2665C25.5039 18.6325 24.585 17.3079 23.4515 17.3079C22.318 17.3079 21.3992 18.6325 21.3992 20.2665C21.3992 21.9004 22.318 23.2251 23.4515 23.2251Z" fill="#EE2D37"/>
<path d="M23.4175 23.2053C24.5453 23.2053 25.4596 21.8873 25.4596 20.2616C25.4596 18.6358 24.5453 17.3179 23.4175 17.3179C22.2897 17.3179 21.3755 18.6358 21.3755 20.2616C21.3755 21.8873 22.2897 23.2053 23.4175 23.2053Z" fill="#EE2D37"/>
<path d="M23.3826 23.185C24.5047 23.185 25.4144 21.8737 25.4144 20.2562C25.4144 18.6387 24.5047 17.3274 23.3826 17.3274C22.2605 17.3274 21.3508 18.6387 21.3508 20.2562C21.3508 21.8737 22.2605 23.185 23.3826 23.185Z" fill="#EE2D37"/>
<path d="M23.3469 23.1647C24.4633 23.1647 25.3684 21.8601 25.3684 20.2508C25.3684 18.6415 24.4633 17.3369 23.3469 17.3369C22.2305 17.3369 21.3254 18.6415 21.3254 20.2508C21.3254 21.8601 22.2305 23.1647 23.3469 23.1647Z" fill="#EE2D37"/>
<path d="M23.31 23.144C24.4207 23.144 25.3212 21.846 25.3212 20.245C25.3212 18.6439 24.4207 17.3459 23.31 17.3459C22.1993 17.3459 21.2988 18.6439 21.2988 20.245C21.2988 21.846 22.1993 23.144 23.31 23.144Z" fill="#EE2D37"/>
<path d="M23.2726 23.1232C24.3777 23.1232 25.2735 21.8318 25.2735 20.2388C25.2735 18.6459 24.3777 17.3545 23.2726 17.3545C22.1676 17.3545 21.2717 18.6459 21.2717 20.2388C21.2717 21.8318 22.1676 23.1232 23.2726 23.1232Z" fill="#EE2D37"/>
<path d="M23.2345 23.1017C24.3338 23.1017 25.2251 21.817 25.2251 20.2322C25.2251 18.6475 24.3338 17.3628 23.2345 17.3628C22.1351 17.3628 21.2439 18.6475 21.2439 20.2322C21.2439 21.817 22.1351 23.1017 23.2345 23.1017Z" fill="#EE2D37"/>
<path d="M23.1954 23.0799C24.2891 23.0799 25.1757 21.8019 25.1757 20.2254C25.1757 18.6489 24.2891 17.3708 23.1954 17.3708C22.1017 17.3708 21.2151 18.6489 21.2151 20.2254C21.2151 21.8019 22.1017 23.0799 23.1954 23.0799Z" fill="#EE2D37"/>
<path d="M23.1555 23.0577C24.2435 23.0577 25.1255 21.7864 25.1255 20.2181C25.1255 18.6498 24.2435 17.3784 23.1555 17.3784C22.0675 17.3784 21.1855 18.6498 21.1855 20.2181C21.1855 21.7864 22.0675 23.0577 23.1555 23.0577Z" fill="#EE2D37"/>
<path d="M23.115 23.0354C24.1973 23.0354 25.0747 21.7707 25.0747 20.2105C25.0747 18.6503 24.1973 17.3855 23.115 17.3855C22.0327 17.3855 21.1553 18.6503 21.1553 20.2105C21.1553 21.7707 22.0327 23.0354 23.115 23.0354Z" fill="#EE2D37"/>
<path d="M23.0737 23.0127C24.1503 23.0127 25.0231 21.7546 25.0231 20.2027C25.0231 18.6507 24.1503 17.3926 23.0737 17.3926C21.997 17.3926 21.1243 18.6507 21.1243 20.2027C21.1243 21.7546 21.997 23.0127 23.0737 23.0127Z" fill="#EE2D37"/>
<path d="M23.0316 22.9895C24.1026 22.9895 24.9707 21.7381 24.9707 20.1944C24.9707 18.6506 24.1026 17.3992 23.0316 17.3992C21.9607 17.3992 21.0925 18.6506 21.0925 20.1944C21.0925 21.7381 21.9607 22.9895 23.0316 22.9895Z" fill="#EE2D37"/>
<path d="M22.9886 22.9658C24.0539 22.9658 24.9174 21.7211 24.9174 20.1856C24.9174 18.65 24.0539 17.4053 22.9886 17.4053C21.9234 17.4053 21.0598 18.65 21.0598 20.1856C21.0598 21.7211 21.9234 22.9658 22.9886 22.9658Z" fill="#EE2D37"/>
<path d="M22.9454 22.9419C24.0049 22.9419 24.8639 21.7038 24.8639 20.1765C24.8639 18.6492 24.0049 17.4111 22.9454 17.4111C21.8858 17.4111 21.0269 18.6492 21.0269 20.1765C21.0269 21.7038 21.8858 22.9419 22.9454 22.9419Z" fill="#EE2D37"/>
<path d="M22.9011 22.9179C23.955 22.9179 24.8093 21.6864 24.8093 20.1672C24.8093 18.648 23.955 17.4165 22.9011 17.4165C21.8473 17.4165 20.9929 18.648 20.9929 20.1672C20.9929 21.6864 21.8473 22.9179 22.9011 22.9179Z" fill="#EE2D37"/>
<path d="M22.8562 22.893C23.9044 22.893 24.7541 21.6682 24.7541 20.1572C24.7541 18.6463 23.9044 17.4214 22.8562 17.4214C21.808 17.4214 20.9583 18.6463 20.9583 20.1572C20.9583 21.6682 21.808 22.893 22.8562 22.893Z" fill="#EE2D37"/>
<path d="M22.8107 22.8681C23.8532 22.8681 24.6983 21.6499 24.6983 20.1472C24.6983 18.6445 23.8532 17.4263 22.8107 17.4263C21.7682 17.4263 20.9231 18.6445 20.9231 20.1472C20.9231 21.6499 21.7682 22.8681 22.8107 22.8681Z" fill="#EE2D37"/>
<path d="M22.7645 22.8427C23.8014 22.8427 24.6419 21.6312 24.6419 20.1367C24.6419 18.6422 23.8014 17.4307 22.7645 17.4307C21.7277 17.4307 20.8872 18.6422 20.8872 20.1367C20.8872 21.6312 21.7277 22.8427 22.7645 22.8427Z" fill="#EE2D37"/>
<path d="M22.7176 22.817C23.7488 22.817 24.5846 21.6121 24.5846 20.1257C24.5846 18.6393 23.7488 17.4343 22.7176 17.4343C21.6865 17.4343 20.8506 18.6393 20.8506 20.1257C20.8506 21.6121 21.6865 22.817 22.7176 22.817Z" fill="#EE2D37"/>
<path d="M22.67 22.7909C23.6954 22.7909 24.5267 21.5926 24.5267 20.1144C24.5267 18.6363 23.6954 17.438 22.67 17.438C21.6445 17.438 20.8132 18.6363 20.8132 20.1144C20.8132 21.5926 21.6445 22.7909 22.67 22.7909Z" fill="#EE2D37"/>
<path d="M22.6218 22.7643C23.6416 22.7643 24.4683 21.5727 24.4683 20.1027C24.4683 18.6328 23.6416 17.4412 22.6218 17.4412C21.6021 17.4412 20.7754 18.6328 20.7754 20.1027C20.7754 21.5727 21.6021 22.7643 22.6218 22.7643Z" fill="#EE2D37"/>
<path d="M22.5732 22.7374C23.5873 22.7374 24.4093 21.5525 24.4093 20.0908C24.4093 18.629 23.5873 17.4441 22.5732 17.4441C21.5591 17.4441 20.7371 18.629 20.7371 20.0908C20.7371 21.5525 21.5591 22.7374 22.5732 22.7374Z" fill="#EE2D37"/>
<path d="M22.5238 22.7101C23.5322 22.7101 24.3497 21.5318 24.3497 20.0783C24.3497 18.6248 23.5322 17.4465 22.5238 17.4465C21.5155 17.4465 20.698 18.6248 20.698 20.0783C20.698 21.5318 21.5155 22.7101 22.5238 22.7101Z" fill="#EE2D37"/>
<path d="M22.474 22.6827C23.4767 22.6827 24.2896 21.511 24.2896 20.0656C24.2896 18.6202 23.4767 17.4485 22.474 17.4485C21.4713 17.4485 20.6584 18.6202 20.6584 20.0656C20.6584 21.511 21.4713 22.6827 22.474 22.6827Z" fill="#EE2D37"/>
<path d="M22.4237 22.6543C23.4207 22.6543 24.2289 21.4893 24.2289 20.0521C24.2289 18.615 23.4207 17.45 22.4237 17.45C21.4266 17.45 20.6184 18.615 20.6184 20.0521C20.6184 21.4893 21.4266 22.6543 22.4237 22.6543Z" fill="#EE2D37"/>
<path d="M22.3726 22.6258C23.3639 22.6258 24.1676 21.4674 24.1676 20.0385C24.1676 18.6095 23.3639 17.4512 22.3726 17.4512C21.3813 17.4512 20.5776 18.6095 20.5776 20.0385C20.5776 21.4674 21.3813 22.6258 22.3726 22.6258Z" fill="#EE2D37"/>
<path d="M22.321 22.5969C23.3067 22.5969 24.1057 21.4452 24.1057 20.0245C24.1057 18.6039 23.3067 17.4521 22.321 17.4521C21.3354 17.4521 20.5364 18.6039 20.5364 20.0245C20.5364 21.4452 21.3354 22.5969 22.321 22.5969Z" fill="#EE2D37"/>
<path d="M22.2692 22.5678C23.2492 22.5678 24.0436 21.4227 24.0436 20.0101C24.0436 18.5975 23.2492 17.4524 22.2692 17.4524C21.2893 17.4524 20.4949 18.5975 20.4949 20.0101C20.4949 21.4227 21.2893 22.5678 22.2692 22.5678Z" fill="#EE2D37"/>
<path d="M22.2165 22.538C23.1907 22.538 23.9805 21.3996 23.9805 19.9952C23.9805 18.5909 23.1907 17.4524 22.2165 17.4524C21.2422 17.4524 20.4524 18.5909 20.4524 19.9952C20.4524 21.3996 21.2422 22.538 22.2165 22.538Z" fill="#EE2D37"/>
<path d="M22.1634 22.5078C23.132 22.5078 23.9172 21.376 23.9172 19.9798C23.9172 18.5837 23.132 17.4519 22.1634 17.4519C21.1949 17.4519 20.4097 18.5837 20.4097 19.9798C20.4097 21.376 21.1949 22.5078 22.1634 22.5078Z" fill="#EE2D37"/>
<path d="M22.1099 22.4772C23.0728 22.4772 23.8534 21.3521 23.8534 19.9642C23.8534 18.5763 23.0728 17.4512 22.1099 17.4512C21.147 17.4512 20.3665 18.5763 20.3665 19.9642C20.3665 21.3521 21.147 22.4772 22.1099 22.4772Z" fill="#EE2D37"/>
<path d="M22.0559 22.4462C23.0132 22.4462 23.7891 21.3278 23.7891 19.9481C23.7891 18.5684 23.0132 17.45 22.0559 17.45C21.0987 17.45 20.3228 18.5684 20.3228 19.9481C20.3228 21.3278 21.0987 22.4462 22.0559 22.4462Z" fill="#EE2D37"/>
<path d="M22.0017 22.4152C22.9532 22.4152 23.7246 21.3033 23.7246 19.9317C23.7246 18.5601 22.9532 17.4482 22.0017 17.4482C21.0502 17.4482 20.2788 18.5601 20.2788 19.9317C20.2788 21.3033 21.0502 22.4152 22.0017 22.4152Z" fill="#EE2D37"/>
<path d="M21.9467 22.3834C22.8926 22.3834 23.6593 21.2782 23.6593 19.9149C23.6593 18.5515 22.8926 17.4463 21.9467 17.4463C21.0009 17.4463 20.2341 18.5515 20.2341 19.9149C20.2341 21.2782 21.0009 22.3834 21.9467 22.3834Z" fill="#EE2D37"/>
<path d="M21.8915 22.3509C22.8317 22.3509 23.5938 21.2524 23.5938 19.8973C23.5938 18.5421 22.8317 17.4436 21.8915 17.4436C20.9514 17.4436 20.1892 18.5421 20.1892 19.8973C20.1892 21.2524 20.9514 22.3509 21.8915 22.3509Z" fill="#EE2D37"/>
<path d="M21.8356 22.3182C22.77 22.3182 23.5276 21.2263 23.5276 19.8794C23.5276 18.5325 22.77 17.4407 21.8356 17.4407C20.9011 17.4407 20.1436 18.5325 20.1436 19.8794C20.1436 21.2263 20.9011 22.3182 21.8356 22.3182Z" fill="#EE2D37"/>
<path d="M21.7796 22.2853C22.7084 22.2853 23.4613 21.2 23.4613 19.8614C23.4613 18.5227 22.7084 17.4375 21.7796 17.4375C20.8508 17.4375 20.0979 18.5227 20.0979 19.8614C20.0979 21.2 20.8508 22.2853 21.7796 22.2853Z" fill="#EE2D37"/>
<path d="M21.7229 22.252C22.646 22.252 23.3943 21.1734 23.3943 19.8428C23.3943 18.5122 22.646 17.4336 21.7229 17.4336C20.7998 17.4336 20.0515 18.5122 20.0515 19.8428C20.0515 21.1734 20.7998 22.252 21.7229 22.252Z" fill="#EE2D37"/>
<path d="M21.666 22.2181C22.5834 22.2181 23.3271 21.1461 23.3271 19.8237C23.3271 18.5014 22.5834 17.4294 21.666 17.4294C20.7486 17.4294 20.0049 18.5014 20.0049 19.8237C20.0049 21.1461 20.7486 22.2181 21.666 22.2181Z" fill="#EE2D37"/>
<path d="M21.6088 22.1836C22.5206 22.1836 23.2597 21.1183 23.2597 19.8042C23.2597 18.4901 22.5206 17.4248 21.6088 17.4248C20.6971 17.4248 19.958 18.4901 19.958 19.8042C19.958 21.1183 20.6971 22.1836 21.6088 22.1836Z" fill="#EE2D37"/>
<path d="M21.5512 22.1487C22.4572 22.1487 23.1917 21.0901 23.1917 19.7842C23.1917 18.4783 22.4572 17.4197 21.5512 17.4197C20.6451 17.4197 19.9106 18.4783 19.9106 19.7842C19.9106 21.0901 20.6451 22.1487 21.5512 22.1487Z" fill="#EE2D37"/>
<path d="M21.4935 22.1137C22.3939 22.1137 23.1237 21.0617 23.1237 19.7639C23.1237 18.4661 22.3939 17.4141 21.4935 17.4141C20.5932 17.4141 19.8633 18.4661 19.8633 19.7639C19.8633 21.0617 20.5932 22.1137 21.4935 22.1137Z" fill="#EE2D37"/>
<path d="M21.4351 22.0778C22.3298 22.0778 23.0551 21.0325 23.0551 19.7429C23.0551 18.4533 22.3298 17.408 21.4351 17.408C20.5405 17.408 19.8152 18.4533 19.8152 19.7429C19.8152 21.0325 20.5405 22.0778 21.4351 22.0778Z" fill="#EE2D37"/>
<path d="M21.3768 22.0417C22.2656 22.0417 22.9862 21.003 22.9862 19.7217C22.9862 18.4403 22.2656 17.4016 21.3768 17.4016C20.4879 17.4016 19.7673 18.4403 19.7673 19.7217C19.7673 21.003 20.4879 22.0417 21.3768 22.0417Z" fill="#EE2D37"/>
<path d="M21.3179 22.0051C22.201 22.0051 22.917 20.973 22.917 19.6999C22.917 18.4268 22.201 17.3948 21.3179 17.3948C20.4347 17.3948 19.7188 18.4268 19.7188 19.6999C19.7188 20.973 20.4347 22.0051 21.3179 22.0051Z" fill="#EE2D37"/>
<path d="M21.2587 21.968C22.1362 21.968 22.8476 20.9426 22.8476 19.6777C22.8476 18.4128 22.1362 17.3875 21.2587 17.3875C20.3813 17.3875 19.6699 18.4128 19.6699 19.6777C19.6699 20.9426 20.3813 21.968 21.2587 21.968Z" fill="#EE2D37"/>
<path d="M21.1994 21.9305C22.0712 21.9305 22.7779 20.9117 22.7779 19.655C22.7779 18.3982 22.0712 17.3794 21.1994 17.3794C20.3276 17.3794 19.6208 18.3982 19.6208 19.655C19.6208 20.9117 20.3276 21.9305 21.1994 21.9305Z" fill="#EE2D37"/>
<path d="M21.1398 21.8927C22.0059 21.8927 22.708 20.8806 22.708 19.632C22.708 18.3835 22.0059 17.3713 21.1398 17.3713C20.2737 17.3713 19.5715 18.3835 19.5715 19.632C19.5715 20.8806 20.2737 21.8927 21.1398 21.8927Z" fill="#EE2D37"/>
<path d="M21.0799 21.8541C21.9403 21.8541 22.6379 20.8486 22.6379 19.6083C22.6379 18.368 21.9403 17.3625 21.0799 17.3625C20.2195 17.3625 19.522 18.368 19.522 19.6083C19.522 20.8486 20.2195 21.8541 21.0799 21.8541Z" fill="#EE2D37"/>
<path d="M21.0198 21.815C21.8746 21.815 22.5675 20.8162 22.5675 19.5842C22.5675 18.3521 21.8746 17.3533 21.0198 17.3533C20.1651 17.3533 19.4722 18.3521 19.4722 19.5842C19.4722 20.8162 20.1651 21.815 21.0198 21.815Z" fill="#EE2D37"/>
<path d="M20.9597 21.7762C21.8088 21.7762 22.4971 20.7839 22.4971 19.56C22.4971 18.336 21.8088 17.3438 20.9597 17.3438C20.1107 17.3438 19.4224 18.336 19.4224 19.56C19.4224 20.7839 20.1107 21.7762 20.9597 21.7762Z" fill="#EE2D37"/>
<path d="M20.8991 21.7361C21.7425 21.7361 22.4262 20.7506 22.4262 19.5348C22.4262 18.3191 21.7425 17.3335 20.8991 17.3335C20.0558 17.3335 19.3721 18.3191 19.3721 19.5348C19.3721 20.7506 20.0558 21.7361 20.8991 21.7361Z" fill="#EE2D37"/>
<path d="M20.8385 21.6958C21.6762 21.6958 22.3553 20.7169 22.3553 19.5094C22.3553 18.3019 21.6762 17.323 20.8385 17.323C20.0009 17.323 19.3218 18.3019 19.3218 19.5094C19.3218 20.7169 20.0009 21.6958 20.8385 21.6958Z" fill="#EE2D37"/>
<path d="M20.7775 21.6551C21.6095 21.6551 22.2839 20.6828 22.2839 19.4835C22.2839 18.2842 21.6095 17.312 20.7775 17.312C19.9455 17.312 19.271 18.2842 19.271 19.4835C19.271 20.6828 19.9455 21.6551 20.7775 21.6551Z" fill="#EE2D37"/>
<path d="M20.7166 21.6135C21.5429 21.6135 22.2128 20.648 22.2128 19.4569C22.2128 18.2658 21.5429 17.3003 20.7166 17.3003C19.8903 17.3003 19.2205 18.2658 19.2205 19.4569C19.2205 20.648 19.8903 21.6135 20.7166 21.6135Z" fill="#EE2D37"/>
<path d="M20.6553 21.5722C21.4759 21.5722 22.1412 20.6132 22.1412 19.4303C22.1412 18.2473 21.4759 17.2883 20.6553 17.2883C19.8347 17.2883 19.1694 18.2473 19.1694 19.4303C19.1694 20.6132 19.8347 21.5722 20.6553 21.5722Z" fill="#EE2D37"/>
<path d="M20.5942 21.53C21.4092 21.53 22.0698 20.5777 22.0698 19.4029C22.0698 18.2282 21.4092 17.2759 20.5942 17.2759C19.7793 17.2759 19.1187 18.2282 19.1187 19.4029C19.1187 20.5777 19.7793 21.53 20.5942 21.53Z" fill="#EE2D37"/>
<path d="M20.5329 21.487C21.3422 21.487 21.9982 20.5414 21.9982 19.3749C21.9982 18.2083 21.3422 17.2627 20.5329 17.2627C19.7237 17.2627 19.0676 18.2083 19.0676 19.3749C19.0676 20.5414 19.7237 21.487 20.5329 21.487Z" fill="#EE2D37"/>
<path d="M20.4713 21.4438C21.2749 21.4438 21.9263 20.5048 21.9263 19.3465C21.9263 18.1882 21.2749 17.2493 20.4713 17.2493C19.6678 17.2493 19.0164 18.1882 19.0164 19.3465C19.0164 20.5048 19.6678 21.4438 20.4713 21.4438Z" fill="#EE2D37"/>
<path d="M20.4098 21.4003C21.2077 21.4003 21.8545 20.4679 21.8545 19.3177C21.8545 18.1675 21.2077 17.2351 20.4098 17.2351C19.6119 17.2351 18.9651 18.1675 18.9651 19.3177C18.9651 20.4679 19.6119 21.4003 20.4098 21.4003Z" fill="#EE2D37"/>
<path d="M20.348 21.3558C21.1402 21.3558 21.7824 20.4301 21.7824 19.2881C21.7824 18.1462 21.1402 17.2205 20.348 17.2205C19.5558 17.2205 18.9136 18.1462 18.9136 19.2881C18.9136 20.4301 19.5558 21.3558 20.348 21.3558Z" fill="#EE2D37"/>
<path d="M20.2864 21.3112C21.0729 21.3112 21.7105 20.3921 21.7105 19.2584C21.7105 18.1246 21.0729 17.2056 20.2864 17.2056C19.4999 17.2056 18.8623 18.1246 18.8623 19.2584C18.8623 20.3921 19.4999 21.3112 20.2864 21.3112Z" fill="#EE2D37"/>
<path d="M20.2246 21.2662C21.0054 21.2662 21.6384 20.3538 21.6384 19.2283C21.6384 18.1028 21.0054 17.1904 20.2246 17.1904C19.4438 17.1904 18.8108 18.1028 18.8108 19.2283C18.8108 20.3538 19.4438 21.2662 20.2246 21.2662Z" fill="#EE2D37"/>
<path d="M20.1628 21.2203C20.9379 21.2203 21.5663 20.3146 21.5663 19.1973C21.5663 18.08 20.9379 17.1743 20.1628 17.1743C19.3876 17.1743 18.7593 18.08 18.7593 19.1973C18.7593 20.3146 19.3876 21.2203 20.1628 21.2203Z" fill="#EE2D37"/>
<path d="M20.1012 21.1744C20.8707 21.1744 21.4944 20.2752 21.4944 19.166C21.4944 18.0569 20.8707 17.1577 20.1012 17.1577C19.3318 17.1577 18.708 18.0569 18.708 19.166C18.708 20.2752 19.3318 21.1744 20.1012 21.1744Z" fill="#EE2D37"/>
<path d="M20.0392 21.1275C20.8029 21.1275 21.4221 20.235 21.4221 19.1341C21.4221 18.0331 20.8029 17.1406 20.0392 17.1406C19.2754 17.1406 18.6562 18.0331 18.6562 19.1341C18.6562 20.235 19.2754 21.1275 20.0392 21.1275Z" fill="#EE2D37"/>
<path d="M19.9774 21.0804C20.7354 21.0804 21.35 20.1945 21.35 19.1018C21.35 18.0091 20.7354 17.1233 19.9774 17.1233C19.2193 17.1233 18.6047 18.0091 18.6047 19.1018C18.6047 20.1945 19.2193 21.0804 19.9774 21.0804Z" fill="#EE2D37"/>
<path d="M19.9155 21.0325C20.6679 21.0325 21.2779 20.1533 21.2779 19.0689C21.2779 17.9844 20.6679 17.1052 19.9155 17.1052C19.1632 17.1052 18.5532 17.9844 18.5532 19.0689C18.5532 20.1533 19.1632 21.0325 19.9155 21.0325Z" fill="#EE2D37"/>
<path d="M19.8537 20.9843C20.6004 20.9843 21.2058 20.1118 21.2058 19.0354C21.2058 17.959 20.6004 17.0864 19.8537 17.0864C19.107 17.0864 18.5017 17.959 18.5017 19.0354C18.5017 20.1118 19.107 20.9843 19.8537 20.9843Z" fill="#EE2D37"/>
<path d="M19.7922 20.9355C20.5332 20.9355 21.1339 20.0696 21.1339 19.0014C21.1339 17.9333 20.5332 17.0674 19.7922 17.0674C19.0512 17.0674 18.4504 17.9333 18.4504 19.0014C18.4504 20.0696 19.0512 20.9355 19.7922 20.9355Z" fill="#EE2D37"/>
<path d="M19.7304 20.8862C20.4657 20.8862 21.0618 20.0269 21.0618 18.967C21.0618 17.9071 20.4657 17.0479 19.7304 17.0479C18.995 17.0479 18.3989 17.9071 18.3989 18.967C18.3989 20.0269 18.995 20.8862 19.7304 20.8862Z" fill="#EE2D37"/>
<path d="M19.6688 20.8364C20.3984 20.8364 20.9899 19.9838 20.9899 18.9321C20.9899 17.8804 20.3984 17.0278 19.6688 17.0278C18.9392 17.0278 18.3477 17.8804 18.3477 18.9321C18.3477 19.9838 18.9392 20.8364 19.6688 20.8364Z" fill="#EE2D37"/>
<path d="M19.6075 20.7861C20.3314 20.7861 20.9183 19.9402 20.9183 18.8967C20.9183 17.8532 20.3314 17.0073 19.6075 17.0073C18.8835 17.0073 18.2966 17.8532 18.2966 18.8967C18.2966 19.9402 18.8835 20.7861 19.6075 20.7861Z" fill="#EE2D37"/>
<path d="M19.5459 20.7355C20.2642 20.7355 20.8465 19.8962 20.8465 18.8608C20.8465 17.8254 20.2642 16.9861 19.5459 16.9861C18.8276 16.9861 18.2454 17.8254 18.2454 18.8608C18.2454 19.8962 18.8276 20.7355 19.5459 20.7355Z" fill="#EE2D37"/>
<path d="M19.4846 20.684C20.1972 20.684 20.7748 19.8513 20.7748 18.8242C20.7748 17.797 20.1972 16.9644 19.4846 16.9644C18.772 16.9644 18.1943 17.797 18.1943 18.8242C18.1943 19.8513 18.772 20.684 19.4846 20.684Z" fill="#EE2D37"/>
<path d="M19.4235 20.6317C20.1304 20.6317 20.7035 19.8057 20.7035 18.7868C20.7035 17.7679 20.1304 16.9419 19.4235 16.9419C18.7166 16.9419 18.1436 17.7679 18.1436 18.7868C18.1436 19.8057 18.7166 20.6317 19.4235 20.6317Z" fill="#EE2D37"/>
<path d="M19.3627 20.5792C20.0639 20.5792 20.6323 19.7599 20.6323 18.7492C20.6323 17.7385 20.0639 16.9192 19.3627 16.9192C18.6615 16.9192 18.093 17.7385 18.093 18.7492C18.093 19.7599 18.6615 20.5792 19.3627 20.5792Z" fill="#EE2D37"/>
<path d="M19.3018 20.5264C19.9974 20.5264 20.5612 19.7137 20.5612 18.7111C20.5612 17.7085 19.9974 16.8958 19.3018 16.8958C18.6063 16.8958 18.0425 17.7085 18.0425 18.7111C18.0425 19.7137 18.6063 20.5264 19.3018 20.5264Z" fill="#EE2D37"/>
<path d="M19.241 20.4727C19.9309 20.4727 20.4901 19.6666 20.4901 18.6723C20.4901 17.6779 19.9309 16.8718 19.241 16.8718C18.5512 16.8718 17.9919 17.6779 17.9919 18.6723C17.9919 19.6666 18.5512 20.4727 19.241 20.4727Z" fill="#EE2D37"/>
<path d="M19.1807 20.4185C19.8648 20.4185 20.4194 19.6191 20.4194 18.633C20.4194 17.6468 19.8648 16.8474 19.1807 16.8474C18.4965 16.8474 17.9419 17.6468 17.9419 18.633C17.9419 19.6191 18.4965 20.4185 19.1807 20.4185Z" fill="#EE2D37"/>
<path d="M19.1201 20.3638C19.7985 20.3638 20.3486 19.5711 20.3486 18.5932C20.3486 17.6153 19.7985 16.8225 19.1201 16.8225C18.4416 16.8225 17.8916 17.6153 17.8916 18.5932C17.8916 19.5711 18.4416 20.3638 19.1201 20.3638Z" fill="#EE2D37"/>
<path d="M19.0602 20.3086C19.733 20.3086 20.2784 19.5225 20.2784 18.5529C20.2784 17.5832 19.733 16.7971 19.0602 16.7971C18.3874 16.7971 17.842 17.5832 17.842 18.5529C17.842 19.5225 18.3874 20.3086 19.0602 20.3086Z" fill="#EE2D37"/>
<path d="M19.0004 20.2529C19.6675 20.2529 20.2083 19.4734 20.2083 18.5118C20.2083 17.5503 19.6675 16.7708 19.0004 16.7708C18.3333 16.7708 17.7925 17.5503 17.7925 18.5118C17.7925 19.4734 18.3333 20.2529 19.0004 20.2529Z" fill="#EE2D37"/>
<path d="M18.9405 20.1965C19.6019 20.1965 20.1381 19.4237 20.1381 18.4703C20.1381 17.517 19.6019 16.7441 18.9405 16.7441C18.2791 16.7441 17.7429 17.517 17.7429 18.4703C17.7429 19.4237 18.2791 20.1965 18.9405 20.1965Z" fill="#EE2D37"/>
<path d="M18.8811 20.1396C19.5369 20.1396 20.0684 19.3734 20.0684 18.4283C20.0684 17.4832 19.5369 16.717 18.8811 16.717C18.2254 16.717 17.6938 17.4832 17.6938 18.4283C17.6938 19.3734 18.2254 20.1396 18.8811 20.1396Z" fill="#EE2D37"/>
<path d="M18.822 20.0822C19.4721 20.0822 19.999 19.3227 19.999 18.3858C19.999 17.449 19.4721 16.6895 18.822 16.6895C18.172 16.6895 17.645 17.449 17.645 18.3858C17.645 19.3227 18.172 20.0822 18.822 20.0822Z" fill="#EE2D37"/>
<path d="M18.7634 20.0241C19.4077 20.0241 19.9301 19.2713 19.9301 18.3426C19.9301 17.414 19.4077 16.6611 18.7634 16.6611C18.119 16.6611 17.5967 17.414 17.5967 18.3426C17.5967 19.2713 18.119 20.0241 18.7634 20.0241Z" fill="#EE2D37"/>
<path d="M18.7045 19.9657C19.3432 19.9657 19.8609 19.2194 19.8609 18.2989C19.8609 17.3783 19.3432 16.6321 18.7045 16.6321C18.0658 16.6321 17.5481 17.3783 17.5481 18.2989C17.5481 19.2194 18.0658 19.9657 18.7045 19.9657Z" fill="#EE2D37"/>
<path d="M18.6466 19.9061C19.2795 19.9061 19.7925 19.1665 19.7925 18.2542C19.7925 17.3419 19.2795 16.6023 18.6466 16.6023C18.0138 16.6023 17.5007 17.3419 17.5007 18.2542C17.5007 19.1665 18.0138 19.9061 18.6466 19.9061Z" fill="#EE2D37"/>
<path d="M18.5885 19.8463C19.2157 19.8463 19.7241 19.1134 19.7241 18.2093C19.7241 17.3052 19.2157 16.5723 18.5885 16.5723C17.9613 16.5723 17.4529 17.3052 17.4529 18.2093C17.4529 19.1134 17.9613 19.8463 18.5885 19.8463Z" fill="#EE2D37"/>
<path d="M18.5308 19.7862C19.1523 19.7862 19.6561 19.06 19.6561 18.1641C19.6561 17.2682 19.1523 16.542 18.5308 16.542C17.9093 16.542 17.4055 17.2682 17.4055 18.1641C17.4055 19.06 17.9093 19.7862 18.5308 19.7862Z" fill="#EE2D37"/>
<path d="M18.4736 19.7254C19.0894 19.7254 19.5887 19.0057 19.5887 18.1179C19.5887 17.2302 19.0894 16.5105 18.4736 16.5105C17.8578 16.5105 17.3586 17.2302 17.3586 18.1179C17.3586 19.0057 17.8578 19.7254 18.4736 19.7254Z" fill="#EE2D37"/>
<path d="M18.4167 19.6636C19.0268 19.6636 19.5214 18.9506 19.5214 18.0711C19.5214 17.1915 19.0268 16.4785 18.4167 16.4785C17.8066 16.4785 17.312 17.1915 17.312 18.0711C17.312 18.9506 17.8066 19.6636 18.4167 19.6636Z" fill="#EE2D37"/>
<path d="M18.3603 19.6018C18.9647 19.6018 19.4547 18.8955 19.4547 18.0242C19.4547 17.1529 18.9647 16.4465 18.3603 16.4465C17.7559 16.4465 17.2659 17.1529 17.2659 18.0242C17.2659 18.8955 17.7559 19.6018 18.3603 19.6018Z" fill="#EE2D37"/>
<path d="M18.3041 19.5389C18.9028 19.5389 19.3882 18.8392 19.3882 17.9761C19.3882 17.113 18.9028 16.4133 18.3041 16.4133C17.7053 16.4133 17.22 17.113 17.22 17.9761C17.22 18.8392 17.7053 19.5389 18.3041 19.5389Z" fill="#EE2D37"/>
<path d="M18.2484 19.4756C18.8414 19.4756 19.3222 18.7826 19.3222 17.9277C19.3222 17.0729 18.8414 16.3799 18.2484 16.3799C17.6553 16.3799 17.1746 17.0729 17.1746 17.9277C17.1746 18.7826 17.6553 19.4756 18.2484 19.4756Z" fill="#EE2D37"/>
<path d="M18.1929 19.4118C18.7803 19.4118 19.2564 18.7254 19.2564 17.8786C19.2564 17.0319 18.7803 16.3455 18.1929 16.3455C17.6056 16.3455 17.1294 17.0319 17.1294 17.8786C17.1294 18.7254 17.6056 19.4118 18.1929 19.4118Z" fill="#EE2D37"/>
<path d="M18.1382 19.3474C18.7199 19.3474 19.1914 18.6676 19.1914 17.8291C19.1914 16.9906 18.7199 16.3108 18.1382 16.3108C17.5565 16.3108 17.085 16.9906 17.085 17.8291C17.085 18.6676 17.5565 19.3474 18.1382 19.3474Z" fill="#EE2D37"/>
<path d="M18.0837 19.2822C18.6597 19.2822 19.1266 18.6091 19.1266 17.7788C19.1266 16.9485 18.6597 16.2754 18.0837 16.2754C17.5077 16.2754 17.0408 16.9485 17.0408 17.7788C17.0408 18.6091 17.5077 19.2822 18.0837 19.2822Z" fill="#EE2D37"/>
<path d="M18.0295 19.2165C18.5998 19.2165 19.0621 18.5501 19.0621 17.728C19.0621 16.9059 18.5998 16.2395 18.0295 16.2395C17.4592 16.2395 16.9968 16.9059 16.9968 17.728C16.9968 18.5501 17.4592 19.2165 18.0295 19.2165Z" fill="#EE2D37"/>
<path d="M17.976 19.1505C18.5406 19.1505 18.9983 18.4907 18.9983 17.6767C18.9983 16.8627 18.5406 16.2029 17.976 16.2029C17.4113 16.2029 16.9536 16.8627 16.9536 17.6767C16.9536 18.4907 17.4113 19.1505 17.976 19.1505Z" fill="#EE2D37"/>
<path d="M17.9229 19.0834C18.4819 19.0834 18.935 18.4302 18.935 17.6245C18.935 16.8187 18.4819 16.1655 17.9229 16.1655C17.364 16.1655 16.9109 16.8187 16.9109 17.6245C16.9109 18.4302 17.364 19.0834 17.9229 19.0834Z" fill="#EE2D37"/>
<path d="M17.8704 19.016C18.4237 19.016 18.8722 18.3695 18.8722 17.572C18.8722 16.7744 18.4237 16.1279 17.8704 16.1279C17.3172 16.1279 16.8687 16.7744 16.8687 17.572C16.8687 18.3695 17.3172 19.016 17.8704 19.016Z" fill="#EE2D37"/>
<path d="M17.8184 18.9476C18.3659 18.9476 18.8098 18.3078 18.8098 17.5185C18.8098 16.7292 18.3659 16.0894 17.8184 16.0894C17.2708 16.0894 16.8269 16.7292 16.8269 17.5185C16.8269 18.3078 17.2708 18.9476 17.8184 18.9476Z" fill="#EE2D37"/>
<path d="M17.7666 18.8788C18.3084 18.8788 18.7477 18.2456 18.7477 17.4645C18.7477 16.6835 18.3084 16.0503 17.7666 16.0503C17.2247 16.0503 16.7854 16.6835 16.7854 17.4645C16.7854 18.2456 17.2247 18.8788 17.7666 18.8788Z" fill="#EE2D37"/>
<path d="M17.7157 18.8099C18.2519 18.8099 18.6866 18.1833 18.6866 17.4103C18.6866 16.6373 18.2519 16.0107 17.7157 16.0107C17.1795 16.0107 16.7449 16.6373 16.7449 17.4103C16.7449 18.1833 17.1795 18.8099 17.7157 18.8099Z" fill="#EE2D37"/>
<path d="M17.6652 18.7398C18.1957 18.7398 18.6257 18.1199 18.6257 17.3551C18.6257 16.5904 18.1957 15.9705 17.6652 15.9705C17.1347 15.9705 16.7046 16.5904 16.7046 17.3551C16.7046 18.1199 17.1347 18.7398 17.6652 18.7398Z" fill="#EE2D37"/>
<path d="M17.6153 18.669C18.1401 18.669 18.5656 18.0557 18.5656 17.2992C18.5656 16.5427 18.1401 15.9294 17.6153 15.9294C17.0905 15.9294 16.665 16.5427 16.665 17.2992C16.665 18.0557 17.0905 18.669 17.6153 18.669Z" fill="#EE2D37"/>
<path d="M17.566 18.5977C18.0851 18.5977 18.5059 17.9911 18.5059 17.2428C18.5059 16.4945 18.0851 15.8879 17.566 15.8879C17.0468 15.8879 16.626 16.4945 16.626 17.2428C16.626 17.9911 17.0468 18.5977 17.566 18.5977Z" fill="#EE2D37"/>
<path d="M17.5171 18.5261C18.0305 18.5261 18.4468 17.9261 18.4468 17.1859C18.4468 16.4457 18.0305 15.8457 17.5171 15.8457C17.0036 15.8457 16.5874 16.4457 16.5874 17.1859C16.5874 17.9261 17.0036 18.5261 17.5171 18.5261Z" fill="#EE2D37"/>
<path d="M17.4692 18.4536C17.977 18.4536 18.3886 17.8602 18.3886 17.1283C18.3886 16.3963 17.977 15.803 17.4692 15.803C16.9614 15.803 16.5498 16.3963 16.5498 17.1283C16.5498 17.8602 16.9614 18.4536 17.4692 18.4536Z" fill="#EE2D37"/>
<path d="M17.4213 18.3803C17.9234 18.3803 18.3304 17.7936 18.3304 17.0699C18.3304 16.3462 17.9234 15.7595 17.4213 15.7595C16.9192 15.7595 16.5122 16.3462 16.5122 17.0699C16.5122 17.7936 16.9192 18.3803 17.4213 18.3803Z" fill="#EE2D37"/>
<path d="M17.3744 18.3064C17.8708 18.3064 18.2732 17.7263 18.2732 17.0108C18.2732 16.2954 17.8708 15.7153 17.3744 15.7153C16.878 15.7153 16.4756 16.2954 16.4756 17.0108C16.4756 17.7263 16.878 18.3064 17.3744 18.3064Z" fill="#EE2D37"/>
<path d="M17.3282 18.2321C17.8189 18.2321 18.2167 17.6588 18.2167 16.9515C18.2167 16.2442 17.8189 15.6709 17.3282 15.6709C16.8375 15.6709 16.4397 16.2442 16.4397 16.9515C16.4397 17.6588 16.8375 18.2321 17.3282 18.2321Z" fill="#EE2D37"/>
<path d="M17.2827 18.1574C17.7678 18.1574 18.1609 17.5906 18.1609 16.8914C18.1609 16.1923 17.7678 15.6255 17.2827 15.6255C16.7977 15.6255 16.4045 16.1923 16.4045 16.8914C16.4045 17.5906 16.7977 18.1574 17.2827 18.1574Z" fill="#EE2D37"/>
<path d="M17.2378 18.0814C17.7171 18.0814 18.1057 17.5213 18.1057 16.8304C18.1057 16.1395 17.7171 15.5793 17.2378 15.5793C16.7584 15.5793 16.3699 16.1395 16.3699 16.8304C16.3699 17.5213 16.7584 18.0814 17.2378 18.0814Z" fill="#EE2D37"/>
<path d="M17.1935 18.005C17.6672 18.005 18.0512 17.4516 18.0512 16.7689C18.0512 16.0862 17.6672 15.5327 17.1935 15.5327C16.7199 15.5327 16.3359 16.0862 16.3359 16.7689C16.3359 17.4516 16.7199 18.005 17.1935 18.005Z" fill="#EE2D37"/>
<path d="M17.1501 17.9278C17.618 17.9278 17.9974 17.3811 17.9974 16.7066C17.9974 16.0321 17.618 15.4854 17.1501 15.4854C16.6821 15.4854 16.3027 16.0321 16.3027 16.7066C16.3027 17.3811 16.6821 17.9278 17.1501 17.9278Z" fill="#EE2D37"/>
<path d="M17.107 17.8504C17.5693 17.8504 17.9441 17.3102 17.9441 16.6438C17.9441 15.9775 17.5693 15.4373 17.107 15.4373C16.6448 15.4373 16.27 15.9775 16.27 16.6438C16.27 17.3102 16.6448 17.8504 17.107 17.8504Z" fill="#EE2D37"/>
<path d="M17.065 17.7723C17.5216 17.7723 17.8917 17.2387 17.8917 16.5806C17.8917 15.9224 17.5216 15.3889 17.065 15.3889C16.6084 15.3889 16.2383 15.9224 16.2383 16.5806C16.2383 17.2387 16.6084 17.7723 17.065 17.7723Z" fill="#EE2D37"/>
<path d="M17.0235 17.6932C17.4744 17.6932 17.8399 17.1663 17.8399 16.5164C17.8399 15.8665 17.4744 15.3396 17.0235 15.3396C16.5726 15.3396 16.207 15.8665 16.207 16.5164C16.207 17.1663 16.5726 17.6932 17.0235 17.6932Z" fill="#EE2D37"/>
<path d="M16.9829 17.6133C17.4281 17.6133 17.789 17.0931 17.789 16.4514C17.789 15.8097 17.4281 15.2896 16.9829 15.2896C16.5377 15.2896 16.1768 15.8097 16.1768 16.4514C16.1768 17.0931 16.5377 17.6133 16.9829 17.6133Z" fill="#EE2D37"/>
<path d="M16.9431 17.533C17.3826 17.533 17.7389 17.0195 17.7389 16.386C17.7389 15.7525 17.3826 15.239 16.9431 15.239C16.5035 15.239 16.1472 15.7525 16.1472 16.386C16.1472 17.0195 16.5035 17.533 16.9431 17.533Z" fill="#EE2D37"/>
<path d="M16.9037 17.4521C17.3375 17.4521 17.6892 16.9452 17.6892 16.3198C17.6892 15.6945 17.3375 15.1875 16.9037 15.1875C16.4699 15.1875 16.1182 15.6945 16.1182 16.3198C16.1182 16.9452 16.4699 17.4521 16.9037 17.4521Z" fill="#EE2D37"/>
<path d="M16.8653 17.3703C17.2935 17.3703 17.6406 16.87 17.6406 16.2529C17.6406 15.6358 17.2935 15.1355 16.8653 15.1355C16.4372 15.1355 16.0901 15.6358 16.0901 16.2529C16.0901 16.87 16.4372 17.3703 16.8653 17.3703Z" fill="#EE2D37"/>
<path d="M16.8279 17.288C17.2504 17.288 17.5929 16.7944 17.5929 16.1855C17.5929 15.5766 17.2504 15.083 16.8279 15.083C16.4055 15.083 16.063 15.5766 16.063 16.1855C16.063 16.7944 16.4055 17.288 16.8279 17.288Z" fill="#EE2D37"/>
<path d="M16.7913 17.205C17.2081 17.205 17.5459 16.7181 17.5459 16.1174C17.5459 15.5167 17.2081 15.0298 16.7913 15.0298C16.3745 15.0298 16.0366 15.5167 16.0366 16.1174C16.0366 16.7181 16.3745 17.205 16.7913 17.205Z" fill="#EE2D37"/>
<path d="M16.7553 17.1212C17.1664 17.1212 17.4997 16.6409 17.4997 16.0483C17.4997 15.4557 17.1664 14.9753 16.7553 14.9753C16.3442 14.9753 16.011 15.4557 16.011 16.0483C16.011 16.6409 16.3442 17.1212 16.7553 17.1212Z" fill="#EE2D37"/>
<path d="M16.7204 17.037C17.1258 17.037 17.4545 16.5633 17.4545 15.9789C17.4545 15.3946 17.1258 14.9209 16.7204 14.9209C16.315 14.9209 15.9863 15.3946 15.9863 15.9789C15.9863 16.5633 16.315 17.037 16.7204 17.037Z" fill="#EE2D37"/>
<path d="M16.6862 16.9518C17.0859 16.9518 17.4099 16.4848 17.4099 15.9086C17.4099 15.3325 17.0859 14.8655 16.6862 14.8655C16.2864 14.8655 15.9624 15.3325 15.9624 15.9086C15.9624 16.4848 16.2864 16.9518 16.6862 16.9518Z" fill="#EE2D37"/>
<path d="M16.6529 16.8661C17.047 16.8661 17.3664 16.4057 17.3664 15.8378C17.3664 15.2699 17.047 14.8096 16.6529 14.8096C16.2589 14.8096 15.9395 15.2699 15.9395 15.8378C15.9395 16.4057 16.2589 16.8661 16.6529 16.8661Z" fill="#EE2D37"/>
<path d="M16.6204 16.7797C17.0088 16.7797 17.3236 16.326 17.3236 15.7663C17.3236 15.2066 17.0088 14.7529 16.6204 14.7529C16.2321 14.7529 15.9172 15.2066 15.9172 15.7663C15.9172 16.326 16.2321 16.7797 16.6204 16.7797Z" fill="#EE2D37"/>
<path d="M16.5889 16.6927C16.9715 16.6927 17.2818 16.2456 17.2818 15.694C17.2818 15.1424 16.9715 14.6953 16.5889 14.6953C16.2062 14.6953 15.896 15.1424 15.896 15.694C15.896 16.2456 16.2062 16.6927 16.5889 16.6927Z" fill="#EE2D37"/>
<path d="M16.5583 16.6045C16.9352 16.6045 17.2407 16.1641 17.2407 15.6208C17.2407 15.0774 16.9352 14.637 16.5583 14.637C16.1815 14.637 15.876 15.0774 15.876 15.6208C15.876 16.1641 16.1815 16.6045 16.5583 16.6045Z" fill="#EE2D37"/>
<path d="M16.5288 16.5162C16.8999 16.5162 17.2008 16.0824 17.2008 15.5473C17.2008 15.0122 16.8999 14.5784 16.5288 14.5784C16.1576 14.5784 15.8567 15.0122 15.8567 15.5473C15.8567 16.0824 16.1576 16.5162 16.5288 16.5162Z" fill="#EE2D37"/>
<path d="M16.4999 16.4268C16.8654 16.4268 17.1617 15.9997 17.1617 15.4728C17.1617 14.9459 16.8654 14.5188 16.4999 14.5188C16.1344 14.5188 15.8381 14.9459 15.8381 15.4728C15.8381 15.9997 16.1344 16.4268 16.4999 16.4268Z" fill="#EE2D37"/>
<path d="M16.4723 16.3369C16.8321 16.3369 17.1238 15.9165 17.1238 15.3978C17.1238 14.8792 16.8321 14.4587 16.4723 14.4587C16.1125 14.4587 15.8208 14.8792 15.8208 15.3978C15.8208 15.9165 16.1125 16.3369 16.4723 16.3369Z" fill="#EE2D37"/>
<path d="M16.4451 16.2463C16.7993 16.2463 17.0863 15.8324 17.0863 15.3219C17.0863 14.8113 16.7993 14.3975 16.4451 14.3975C16.091 14.3975 15.804 14.8113 15.804 15.3219C15.804 15.8324 16.091 16.2463 16.4451 16.2463Z" fill="#EE2D37"/>
<path d="M16.4197 16.1548C16.7681 16.1548 17.0506 15.7475 17.0506 15.2452C17.0506 14.7429 16.7681 14.3357 16.4197 14.3357C16.0713 14.3357 15.7888 14.7429 15.7888 15.2452C15.7888 15.7475 16.0713 16.1548 16.4197 16.1548Z" fill="#EE2D37"/>
<path d="M16.3948 16.0627C16.7375 16.0627 17.0154 15.6622 17.0154 15.1681C17.0154 14.674 16.7375 14.2734 16.3948 14.2734C16.052 14.2734 15.7742 14.674 15.7742 15.1681C15.7742 15.6622 16.052 16.0627 16.3948 16.0627Z" fill="#EE2D37"/>
<path d="M16.3708 15.9699C16.7079 15.9699 16.9811 15.5761 16.9811 15.0902C16.9811 14.6043 16.7079 14.2104 16.3708 14.2104C16.0337 14.2104 15.7605 14.6043 15.7605 15.0902C15.7605 15.5761 16.0337 15.9699 16.3708 15.9699Z" fill="#EE2D37"/>
<path d="M16.348 15.8764C16.6794 15.8764 16.948 15.4891 16.948 15.0113C16.948 14.5335 16.6794 14.1462 16.348 14.1462C16.0167 14.1462 15.748 14.5335 15.748 15.0113C15.748 15.4891 16.0167 15.8764 16.348 15.8764Z" fill="#EE2D37"/>
<path d="M16.3263 15.7824C16.652 15.7824 16.916 15.4017 16.916 14.9322C16.916 14.4627 16.652 14.082 16.3263 14.082C16.0006 14.082 15.7366 14.4627 15.7366 14.9322C15.7366 15.4017 16.0006 15.7824 16.3263 15.7824Z" fill="#EE2D37"/>
<path d="M16.3055 15.6871C16.6255 15.6871 16.8849 15.3132 16.8849 14.8519C16.8849 14.3906 16.6255 14.0166 16.3055 14.0166C15.9855 14.0166 15.7261 14.3906 15.7261 14.8519C15.7261 15.3132 15.9855 15.6871 16.3055 15.6871Z" fill="#EE2D37"/>
<path d="M16.2857 15.5914C16.6 15.5914 16.8548 15.2241 16.8548 14.7711C16.8548 14.318 16.6 13.9507 16.2857 13.9507C15.9714 13.9507 15.7166 14.318 15.7166 14.7711C15.7166 15.2241 15.9714 15.5914 16.2857 15.5914Z" fill="#EE2D37"/>
<path d="M16.2671 15.4947C16.5757 15.4947 16.8259 15.1341 16.8259 14.6893C16.8259 14.2444 16.5757 13.8838 16.2671 13.8838C15.9584 13.8838 15.7083 14.2444 15.7083 14.6893C15.7083 15.1341 15.9584 15.4947 16.2671 15.4947Z" fill="#EE2D37"/>
<path d="M16.2497 15.398C16.5526 15.398 16.7982 15.044 16.7982 14.6072C16.7982 14.1705 16.5526 13.8164 16.2497 13.8164C15.9468 13.8164 15.7012 14.1705 15.7012 14.6072C15.7012 15.044 15.9468 15.398 16.2497 15.398Z" fill="#EE2D37"/>
<path d="M16.2333 15.3001C16.5305 15.3001 16.7715 14.9527 16.7715 14.5242C16.7715 14.0957 16.5305 13.7483 16.2333 13.7483C15.936 13.7483 15.6951 14.0957 15.6951 14.5242C15.6951 14.9527 15.936 15.3001 16.2333 15.3001Z" fill="#EE2D37"/>
<path d="M15.6899 14.4402C15.6899 14.8606 15.9263 15.2012 16.2179 15.2012C16.5094 15.2012 16.746 14.8606 16.746 14.4402C16.746 14.0198 16.5094 13.6792 16.2179 13.6792C15.9263 13.6792 15.6899 14.0198 15.6899 14.4402Z" fill="#EE2D37"/>
<path d="M15.6863 14.3557C15.6863 14.7678 15.918 15.1018 16.2039 15.1018C16.4898 15.1018 16.7215 14.7678 16.7215 14.3557C16.7215 13.9437 16.4898 13.6096 16.2039 13.6096C15.918 13.6096 15.6863 13.9437 15.6863 14.3557Z" fill="#EE2D37"/>
<path d="M15.6833 14.2705C15.6833 14.6744 15.9105 15.0017 16.1907 15.0017C16.4709 15.0017 16.698 14.6744 16.698 14.2705C16.698 13.8666 16.47 13.5391 16.1907 13.5391C15.9114 13.5391 15.6833 13.8666 15.6833 14.2705Z" fill="#EE2D37"/>
<path d="M15.6814 14.1843C15.6814 14.5802 15.9044 14.9009 16.1789 14.9009C16.4534 14.9009 16.6759 14.5802 16.6759 14.1843C16.6759 13.7885 16.4534 13.4678 16.1789 13.4678C15.9044 13.4678 15.6814 13.7887 15.6814 14.1843Z" fill="#EE2D37"/>
<path d="M15.6814 14.0984C15.6814 14.486 15.9005 14.7994 16.1681 14.7994C16.4358 14.7994 16.6549 14.4853 16.6549 14.0984C16.6549 13.7116 16.4369 13.3975 16.1681 13.3975C15.8994 13.3975 15.6814 13.7103 15.6814 14.0984Z" fill="#EE2D37"/>
<path d="M15.6814 14.0107C15.6814 14.3901 15.8945 14.6975 16.1578 14.6975C16.4212 14.6975 16.6343 14.3908 16.6343 14.0107C16.6343 13.6307 16.4209 13.324 16.1578 13.324C15.8948 13.324 15.6814 13.6309 15.6814 14.0107Z" fill="#EE2D37"/>
<path d="M15.6843 13.9219C15.6843 14.2929 15.8929 14.5939 16.1505 14.5939C16.4081 14.5939 16.6166 14.2929 16.6166 13.9219C16.6166 13.5508 16.4079 13.25 16.1505 13.25C15.8931 13.25 15.6843 13.5508 15.6843 13.9219Z" fill="#EE2D37"/>
<path d="M15.6873 13.833C15.6873 14.1957 15.8914 14.4901 16.1431 14.4901C16.3948 14.4901 16.599 14.1959 16.599 13.833C16.599 13.47 16.3948 13.1758 16.1431 13.1758C15.8914 13.1758 15.6873 13.47 15.6873 13.833Z" fill="#EE2D37"/>
<path d="M15.6917 13.7431C15.6917 14.0984 15.8912 14.3854 16.1372 14.3854C16.3832 14.3854 16.5828 14.0984 16.5828 13.7431C16.5828 13.3878 16.3823 13.1008 16.1372 13.1008C15.8921 13.1008 15.6917 13.3882 15.6917 13.7431Z" fill="#EE2D37"/>
<path d="M15.6975 13.6523C15.6975 13.9988 15.8923 14.2797 16.1328 14.2797C16.3733 14.2797 16.568 13.9988 16.568 13.6523C16.568 13.3057 16.3731 13.0249 16.1328 13.0249C15.8925 13.0249 15.6975 13.3057 15.6975 13.6523Z" fill="#EE2D37"/>
<path d="M15.7034 13.5611C15.7034 13.8996 15.8937 14.1745 16.1283 14.1745C16.363 14.1745 16.5533 13.9004 16.5533 13.5611C16.5533 13.2218 16.3632 12.9478 16.1283 12.9478C15.8935 12.9478 15.7034 13.2222 15.7034 13.5611Z" fill="#EE2D37"/>
<path d="M15.7124 13.469C15.7124 13.7991 15.8979 14.0665 16.1269 14.0665C16.3558 14.0665 16.5415 13.7991 16.5415 13.469C16.5415 13.1388 16.356 12.8716 16.1269 12.8716C15.8977 12.8716 15.7124 13.1388 15.7124 13.469Z" fill="#EE2D37"/>
<path d="M15.7219 13.3755C15.7219 13.6973 15.9029 13.9582 16.1261 13.9582C16.3493 13.9582 16.5305 13.6979 16.5305 13.3755C16.5305 13.053 16.3495 12.7932 16.1261 12.7932C15.9026 12.7932 15.7219 13.0541 15.7219 13.3755Z" fill="#EE2D37"/>
<path d="M15.7324 13.2824C15.7324 13.5961 15.909 13.8504 16.1267 13.8504C16.3445 13.8504 16.521 13.5961 16.521 13.2824C16.521 12.9687 16.3458 12.7144 16.1267 12.7144C15.9077 12.7144 15.7324 12.9687 15.7324 13.2824Z" fill="#EE2D37"/>
<path d="M15.7444 13.1879C15.7444 13.4935 15.9163 13.741 16.1282 13.741C16.34 13.741 16.512 13.4935 16.512 13.1879C16.512 12.8823 16.3402 12.6348 16.1282 12.6348C15.9161 12.6348 15.7444 12.8823 15.7444 13.1879Z" fill="#EE2D37"/>
<path d="M15.7578 13.0927C15.7578 13.3899 15.9252 13.6311 16.1302 13.6311C16.3352 13.6311 16.5037 13.3901 16.5037 13.0927C16.5037 12.7952 16.3385 12.5544 16.1313 12.5544C15.9241 12.5544 15.7578 12.7954 15.7578 13.0927Z" fill="#EE2D37"/>
<path d="M15.7725 12.9967C15.7725 13.2858 15.935 13.5202 16.1357 13.5202C16.3363 13.5202 16.4989 13.2858 16.4989 12.9967C16.4989 12.7075 16.3363 12.4731 16.1357 12.4731C15.935 12.4731 15.7725 12.7075 15.7725 12.9967Z" fill="#EE2D37"/>
<path d="M15.7886 12.8998C15.7886 13.1806 15.9467 13.4084 16.1415 13.4084C16.3362 13.4084 16.4944 13.1806 16.4944 12.8998C16.4944 12.6189 16.3364 12.3911 16.1415 12.3911C15.9465 12.3911 15.7886 12.6189 15.7886 12.8998Z" fill="#EE2D37"/>
<path d="M15.8062 12.8024C15.8062 13.0751 15.9595 13.2961 16.1485 13.2961C16.3376 13.2961 16.492 13.0751 16.492 12.8024C16.492 12.5296 16.3387 12.3086 16.1485 12.3086C15.9584 12.3086 15.8062 12.5296 15.8062 12.8024Z" fill="#EE2D37"/>
<path d="M15.8247 12.7039C15.8247 12.9683 15.9734 13.1828 16.157 13.1828C16.3406 13.1828 16.4893 12.9683 16.4893 12.7039C16.4893 12.4395 16.3406 12.2249 16.157 12.2249C15.9734 12.2249 15.8247 12.4393 15.8247 12.7039Z" fill="#EE2D37"/>
<path d="M15.8447 12.6048C15.8447 12.8611 15.988 13.0688 16.1667 13.0688C16.3455 13.0688 16.4888 12.8611 16.4888 12.6048C16.4888 12.3485 16.3446 12.1406 16.1667 12.1406C15.9889 12.1406 15.8447 12.3485 15.8447 12.6048Z" fill="#EE2D37"/>
<path d="M15.8662 12.505C15.8662 12.7529 16.0058 12.954 16.1779 12.954C16.3501 12.954 16.4897 12.7529 16.4897 12.505C16.4897 12.257 16.3501 12.0557 16.1779 12.0557C16.0058 12.0557 15.8662 12.2568 15.8662 12.505Z" fill="#EE2D37"/>
<path d="M15.8894 12.4041C15.8894 12.6451 16.0243 12.8385 16.1908 12.8385C16.3573 12.8385 16.492 12.644 16.492 12.4041C16.492 12.1643 16.3573 11.9697 16.1908 11.9697C16.0243 11.9697 15.8894 12.164 15.8894 12.4041Z" fill="#EE2D37"/>
<path d="M15.9136 12.3021C15.9136 12.5339 16.045 12.7216 16.2047 12.7216C16.3644 12.7216 16.4958 12.5343 16.4958 12.3021C16.4958 12.0699 16.3655 11.8831 16.2047 11.8831C16.0439 11.8831 15.9136 12.0708 15.9136 12.3021Z" fill="#EE2D37"/>
<path d="M15.9395 12.2002C15.9395 12.4237 16.0652 12.6048 16.2203 12.6048C16.3754 12.6048 16.5009 12.4237 16.5009 12.2002C16.5009 11.9768 16.3754 11.7954 16.2203 11.7954C16.0652 11.7954 15.9395 11.9766 15.9395 12.2002Z" fill="#EE2D37"/>
<path d="M15.9661 12.097C15.9661 12.3121 16.087 12.4867 16.2364 12.4867C16.3858 12.4867 16.5069 12.3114 16.5069 12.097C16.5069 11.8825 16.3858 11.707 16.2364 11.707C16.087 11.707 15.9661 11.8816 15.9661 12.097Z" fill="#EE2D37"/>
<path d="M15.9956 11.9929C15.9956 12.2 16.1119 12.3678 16.2556 12.3678C16.3993 12.3678 16.5159 12.1997 16.5159 11.9927C16.5159 11.7857 16.3993 11.6179 16.2556 11.6179C16.1119 11.6179 15.9956 11.7857 15.9956 11.9929Z" fill="#EE2D37"/>
<path d="M16.0256 11.888C16.0256 12.0869 16.1374 12.2481 16.2754 12.2481C16.4134 12.2481 16.5253 12.0869 16.5253 11.888C16.5253 11.6891 16.4134 11.5278 16.2754 11.5278C16.1374 11.5278 16.0256 11.6886 16.0256 11.888Z" fill="#EE2D37"/>
<path d="M16.0574 11.7825C16.0574 11.9735 16.1647 12.1269 16.297 12.1269C16.4293 12.1269 16.5358 11.9735 16.5358 11.7825C16.5358 11.5915 16.4293 11.4373 16.297 11.4373C16.1647 11.4373 16.0574 11.5919 16.0574 11.7825Z" fill="#EE2D37"/>
<path d="M16.0906 11.676C16.0906 11.8585 16.1931 12.0066 16.3197 12.0066C16.4463 12.0066 16.5491 11.8585 16.5491 11.676C16.5491 11.4936 16.4463 11.3457 16.3197 11.3457C16.1931 11.3457 16.0906 11.4936 16.0906 11.676Z" fill="#EE2D37"/>
<path d="M16.1252 11.5688C16.1252 11.743 16.2234 11.8843 16.3443 11.8843C16.4652 11.8843 16.5634 11.743 16.5634 11.5688C16.5634 11.3947 16.4654 11.2532 16.3443 11.2532C16.2232 11.2532 16.1252 11.3945 16.1252 11.5688Z" fill="#EE2D37"/>
<path d="M16.1616 11.4607C16.1616 11.6267 16.2549 11.7614 16.3702 11.7614C16.4854 11.7614 16.5796 11.6267 16.5796 11.4607C16.5796 11.2946 16.4854 11.1599 16.3702 11.1599C16.2549 11.1599 16.1616 11.2944 16.1616 11.4607Z" fill="#EE2D37"/>
<path d="M16.1992 11.3519C16.1992 11.5099 16.2882 11.6378 16.3977 11.6378C16.5072 11.6378 16.5948 11.5099 16.5948 11.3519C16.5948 11.194 16.5072 11.0671 16.3977 11.0671C16.2882 11.0671 16.1992 11.194 16.1992 11.3519Z" fill="#EE2D37"/>
<path d="M16.2388 11.2422C16.2388 11.3918 16.3229 11.5136 16.4263 11.5136C16.5297 11.5136 16.6142 11.3922 16.6142 11.2426C16.6142 11.093 16.5308 10.9712 16.4263 10.9712C16.3218 10.9712 16.2388 11.0925 16.2388 11.2422Z" fill="#EE2D37"/>
<path d="M16.2795 11.1315C16.2795 11.2731 16.3591 11.3878 16.4572 11.3878C16.5553 11.3878 16.6351 11.2731 16.6351 11.1315C16.6351 10.99 16.5556 10.8752 16.4572 10.8752C16.3588 10.8752 16.2795 10.99 16.2795 11.1315Z" fill="#EE2D37"/>
<path d="M16.322 11.02C16.322 11.1534 16.3969 11.261 16.4896 11.261C16.5823 11.261 16.657 11.153 16.657 11.02C16.657 10.887 16.582 10.7791 16.4896 10.7791C16.3972 10.7791 16.322 10.8868 16.322 11.02Z" fill="#EE2D37"/>
<path d="M16.3665 10.9079C16.3665 11.033 16.4368 11.1344 16.5235 11.1344C16.6103 11.1344 16.6806 11.033 16.6806 10.9079C16.6806 10.7828 16.6103 10.6812 16.5235 10.6812C16.4368 10.6812 16.3665 10.7828 16.3665 10.9079Z" fill="#EE2D37"/>
<path d="M16.4119 10.7948C16.4119 10.9116 16.4776 11.0064 16.5589 11.0064C16.6401 11.0064 16.7056 10.9116 16.7056 10.7948C16.7056 10.6781 16.6399 10.583 16.5589 10.583C16.4778 10.583 16.4119 10.6779 16.4119 10.7948Z" fill="#EE2D37"/>
<path d="M16.4595 10.681C16.4595 10.7906 16.5206 10.8782 16.5959 10.8782C16.6713 10.8782 16.7329 10.7906 16.7329 10.681C16.7329 10.5715 16.6717 10.4839 16.5964 10.4839C16.521 10.4839 16.4595 10.5715 16.4595 10.681Z" fill="#EE2D37"/>
<path d="M24.8348 28.4022C25.0706 28.5424 25.366 28.6081 25.6365 28.6081C25.8044 28.6092 25.9714 28.5835 26.1312 28.532C26.3177 28.4692 26.4895 28.3694 26.6365 28.2386C25.7282 28.0142 25.044 27.6952 24.5828 27.4287C24.6587 27.7199 24.7964 27.9914 24.9866 28.2246L24.8348 28.4022Z" fill="#DCDDE1"/>
<path d="M35.1653 28.4276C34.9292 28.5678 34.6338 28.6335 34.3633 28.6335C34.1954 28.6347 34.0285 28.609 33.8688 28.5574C33.6823 28.4946 33.5104 28.3948 33.3633 28.264C34.2716 28.0396 34.9558 27.7206 35.417 27.4541C35.3411 27.7453 35.2034 28.0168 35.0132 28.25L35.1653 28.4276Z" fill="#DCDDE1"/>
</svg>
