<svg width="60" height="60" viewBox="0 0 60 60" fill="none" xmlns="http://www.w3.org/2000/svg">
<circle cx="30" cy="30" r="30" fill="#31CB9E"/>
<path d="M28 29.7607L40.5 36.9207C40.7045 37.0436 40.9595 37.0466 41.1668 36.9284C41.3742 36.8102 41.5016 36.5893 41.5 36.3507V23.1607C41.503 22.9216 41.3755 22.6998 41.1673 22.5822C40.959 22.4645 40.7033 22.4697 40.5 22.5957L28 29.7607Z" fill="#F5F5F9"/>
<path d="M40.235 19.4256L31.69 13.1406C31.5103 13.0027 31.2738 12.9633 31.0591 13.0355C30.8444 13.1077 30.6798 13.2821 30.62 13.5006L27.5 27.5006L40.16 20.5006C40.3559 20.3998 40.485 20.204 40.5003 19.9843C40.5156 19.7645 40.415 19.5526 40.235 19.4256Z" fill="#F5F5F9"/>
<path d="M31.68 46.3756L40.235 40.0906C40.4174 39.9624 40.52 39.7485 40.5057 39.526C40.4914 39.3035 40.3623 39.1045 40.165 39.0006L27.5 32.0006L30.62 46.0006C30.6726 46.2216 30.8327 46.4013 31.0462 46.4788C31.2597 46.5564 31.4979 46.5214 31.68 46.3856" fill="#F5F5F9"/>
<path d="M24.7502 29.5007L28.0002 14.3007C28.051 14.043 27.9405 13.7803 27.7208 13.6364C27.5011 13.4925 27.2161 13.4962 27.0002 13.6457L18.6752 20.0307C18.2479 20.3585 17.9982 20.8671 18.0002 21.4057V37.6057C17.9919 38.1512 18.2422 38.6686 18.6752 39.0007L26.9602 45.3657C27.1761 45.5151 27.4611 45.5188 27.6808 45.3749C27.9005 45.231 28.011 44.9683 27.9602 44.7107L24.7502 29.5007Z" fill="#F5F5F9"/>
</svg>
