<svg width="60" height="60" viewBox="0 0 60 60" fill="none" xmlns="http://www.w3.org/2000/svg">
<circle cx="30" cy="30" r="30" fill="#263035"/>
<path d="M53.1392 40.4751C53.3768 40.4751 53.5793 40.3876 53.7473 40.2136C53.9153 40.0391 53.9998 39.8286 53.9998 39.5831V32.0781C53.9998 31.3396 53.8611 30.6421 53.5841 29.9861C53.3072 29.3301 52.9313 28.7561 52.4561 28.2636C51.9814 27.7716 51.4275 27.3816 50.7944 27.0946C50.1612 26.8076 49.4888 26.6641 48.7764 26.6641C47.886 26.6641 47.06 26.8791 46.2982 27.3101C45.536 27.7406 44.9177 28.3351 44.443 29.0941C43.9486 28.3351 43.3198 27.7406 42.5585 27.3101C41.7968 26.8796 40.9707 26.6641 40.0803 26.6641C39.368 26.6641 38.695 26.8076 38.0619 27.0946C37.4288 27.3816 36.8748 27.7716 36.3996 28.2636C35.9249 28.7556 35.5491 29.3301 35.2716 29.9861C34.9952 30.6421 34.8564 31.3396 34.8564 32.0776V39.5826C34.8564 39.8291 34.9457 40.0391 35.1238 40.2136C35.3014 40.3876 35.5092 40.4751 35.7468 40.4751C35.9844 40.4751 36.187 40.3876 36.3555 40.2136C36.5235 40.0391 36.6075 39.8286 36.6075 39.5831V32.0781C36.6075 31.5856 36.7016 31.1191 36.8897 30.6781C37.0774 30.2371 37.3251 29.8531 37.6313 29.5246C37.9385 29.1966 38.3043 28.9401 38.7296 28.7556C39.1553 28.5711 39.6051 28.4791 40.0803 28.4791C40.555 28.4791 41.0052 28.5711 41.4305 28.7556C41.8558 28.9406 42.2273 29.1966 42.5436 29.5246C42.8604 29.8526 43.1076 30.2371 43.2857 30.6781C43.4633 31.1191 43.5526 31.5856 43.5526 32.0781V39.5831C43.5526 39.8291 43.6419 40.0391 43.82 40.2131C43.9976 40.3881 44.2054 40.4751 44.443 40.4751C44.6806 40.4751 44.8832 40.3876 45.0516 40.2136C45.2196 40.0391 45.3036 39.8286 45.3036 39.5831V32.0781C45.3036 31.5856 45.3977 31.1191 45.5859 30.6781C45.7736 30.2371 46.0208 29.8531 46.3275 29.5246C46.6347 29.1966 47.0004 28.9401 47.4257 28.7556C47.851 28.5711 48.3012 28.4791 48.7764 28.4791C49.2512 28.4791 49.7014 28.5711 50.1267 28.7556C50.552 28.9406 50.9235 29.1966 51.2398 29.5246C51.5566 29.8526 51.8033 30.2371 51.9814 30.6781C52.1595 31.1191 52.2488 31.5856 52.2488 32.0781V39.5831C52.2488 39.8291 52.3376 40.0391 52.5156 40.2131C52.6937 40.3881 52.9016 40.4751 53.1392 40.4751Z" fill="#78D5FF"/>
<path d="M35.7712 40.4751C36.0078 40.4751 36.2099 40.3876 36.3774 40.2136C36.5454 40.0391 36.629 39.8286 36.629 39.5831V32.0781C36.629 31.3396 36.4907 30.6421 36.2147 29.9861C35.9392 29.3301 35.5643 28.7561 35.0915 28.2636C34.6182 27.7716 34.0662 27.3816 33.4355 27.0946C32.8048 26.8076 32.1347 26.6641 31.4243 26.6641C30.5378 26.6641 29.7146 26.8791 28.9557 27.3101C28.1968 27.7406 27.5805 28.3351 27.1077 29.0941C26.6147 28.3351 25.9888 27.7406 25.2299 27.3101C24.471 26.8796 23.6478 26.6641 22.7608 26.6641C22.0514 26.6641 21.3808 26.8076 20.7501 27.0946C20.1194 27.3816 19.5674 27.7716 19.0941 28.2636C18.6213 28.7556 18.2464 29.3301 17.9709 29.9861C17.6944 30.6421 17.5566 31.3396 17.5566 32.0776V39.5826C17.5566 39.8291 17.6454 40.0391 17.8226 40.2136C18.0002 40.3876 18.207 40.4751 18.4437 40.4751C18.6803 40.4751 18.8824 40.3876 19.0499 40.2136C19.2174 40.0391 19.301 39.8286 19.301 39.5831V32.0781C19.301 31.5856 19.3946 31.1191 19.5822 30.6781C19.7694 30.2371 20.0157 29.8531 20.3214 29.5246C20.6267 29.1966 20.9915 28.9401 21.4154 28.7556C21.8392 28.5711 22.2875 28.4791 22.7608 28.4791C23.2341 28.4791 23.6824 28.5711 24.1062 28.7556C24.5301 28.9406 24.8997 29.1966 25.215 29.5246C25.5304 29.8526 25.7766 30.2371 25.9542 30.6781C26.1318 31.1191 26.2206 31.5856 26.2206 32.0781V39.5831C26.2206 39.8291 26.309 40.0391 26.4866 40.2131C26.6642 40.3881 26.8706 40.4751 27.1077 40.4751C27.3438 40.4751 27.5459 40.3876 27.7139 40.2136C27.8814 40.0391 27.965 39.8286 27.965 39.5831V32.0781C27.965 31.5856 28.0586 31.1191 28.2458 30.6781C28.433 30.2371 28.6797 29.8531 28.985 29.5246C29.2907 29.1966 29.6555 28.9401 30.0794 28.7556C30.5032 28.5711 30.9515 28.4791 31.4248 28.4791C31.8976 28.4791 32.3464 28.5711 32.7702 28.7556C33.1941 28.9406 33.5637 29.1966 33.879 29.5246C34.1944 29.8526 34.4406 30.2371 34.6182 30.6781C34.7958 31.1191 34.8842 31.5856 34.8842 32.0781V39.5831C34.8842 39.8291 34.973 40.0391 35.1506 40.2131C35.3282 40.3881 35.5346 40.4751 35.7712 40.4751Z" fill="#08A1E7"/>
<path d="M18.4042 19.5C18.6394 19.5 18.841 19.587 19.008 19.7605C19.175 19.934 19.2586 20.1435 19.2586 20.389V33.874L19.2557 34.095C19.2312 34.972 19.0603 35.792 18.743 36.556C18.3994 37.3835 17.9227 38.114 17.3141 38.7475C16.705 39.381 15.9979 39.8765 15.1925 40.234C14.387 40.5915 13.5326 40.7705 12.6293 40.7705C11.7062 40.7705 10.8466 40.5915 10.0512 40.234C9.25584 39.8765 8.5536 39.381 7.94448 38.7475C7.33584 38.114 6.85968 37.3835 6.51552 36.556C6.17184 35.7285 6 34.835 6 33.875C6 32.935 6.17184 32.046 6.51552 31.2085C6.8592 30.3705 7.33584 29.635 7.94448 29.0015C8.5536 28.368 9.25584 27.8725 10.0512 27.515C10.8466 27.1575 11.7062 26.979 12.6288 26.979C13.7294 26.979 14.7701 27.2545 15.7522 27.8065C16.44 28.1945 17.029 28.6745 17.52 29.2465V20.3895L17.5238 20.2995C17.5426 20.0925 17.6246 19.913 17.7706 19.761C17.9376 19.587 18.1488 19.5 18.4042 19.5ZM12.7354 28.658C12.0677 28.658 11.4341 28.791 10.8346 29.057C10.2355 29.323 9.71472 29.6865 9.27264 30.147C8.83104 30.607 8.48208 31.15 8.22624 31.774C7.97136 32.398 7.8432 33.058 7.8432 33.754C7.8432 34.4705 7.97136 35.1355 8.22672 35.7495C8.48208 36.3635 8.83056 36.9005 9.27312 37.361C9.71472 37.8215 10.2355 38.185 10.8346 38.451C11.4341 38.717 12.0677 38.85 12.7354 38.85C13.4035 38.85 14.0371 38.717 14.6362 38.451C15.2362 38.185 15.7565 37.8215 16.1986 37.361C16.6402 36.901 16.9891 36.3635 17.245 35.7495C17.4998 35.1355 17.628 34.4705 17.628 33.7545C17.628 33.058 17.4998 32.398 17.2445 31.774C16.9891 31.15 16.6406 30.6075 16.1981 30.147C15.7565 29.6865 15.2357 29.323 14.6366 29.057C14.0371 28.791 13.4035 28.658 12.7358 28.658H12.7354Z" fill="#1183B7"/>
<path fill-rule="evenodd" clip-rule="evenodd" d="M52.464 25.5L36.72 25.5V20.6C36.72 19.7165 37.4078 19 38.256 19H52.464C53.3122 19 54 19.7165 54 20.6V23.9C54 24.7835 53.3122 25.5 52.464 25.5Z" fill="#667681"/>
<path d="M41.1836 24.071C41.5014 24.071 41.751 23.9425 41.9324 23.686C42.1148 23.43 42.206 23.076 42.206 22.6255C42.206 22.181 42.1148 21.8325 41.9338 21.5795C41.7529 21.3265 41.5042 21.1995 41.1889 21.1995C41.0295 21.1995 40.8889 21.2355 40.7679 21.307C40.647 21.3785 40.5519 21.4815 40.4833 21.6145V20.201H40.0518V24H40.4833V23.656C40.5553 23.791 40.6508 23.894 40.7703 23.9645C40.8898 24.0355 41.0276 24.071 41.1841 24.071H41.1836ZM41.1207 23.69C40.9114 23.69 40.7526 23.6 40.645 23.4215C40.537 23.2425 40.4833 22.9805 40.4833 22.6355C40.4833 22.2885 40.537 22.026 40.645 21.848C40.7526 21.6695 40.9114 21.5805 41.1202 21.5805C41.3286 21.5805 41.4855 21.6695 41.5916 21.8465C41.6982 22.024 41.751 22.2865 41.751 22.6355C41.751 22.9835 41.6982 23.2465 41.5916 23.424C41.4855 23.601 41.3286 23.69 41.1207 23.69ZM44.0785 24.071C44.2206 24.071 44.3679 24.0535 44.5201 24.0185C44.6727 23.9835 44.8306 23.931 44.9953 23.861V23.414C44.8244 23.507 44.6641 23.576 44.5143 23.6215C44.3646 23.667 44.2206 23.69 44.0833 23.69C43.8111 23.69 43.6009 23.6085 43.4516 23.446C43.3023 23.283 43.2342 23.0155 43.2466 22.6425V22.6275H45.1143V22.408C45.1018 22.0745 44.9991 21.7895 44.8062 21.5535C44.6132 21.3175 44.3497 21.2 44.0156 21.2C43.6407 21.2 43.3407 21.33 43.1156 21.591C42.8905 21.851 42.7782 22.1995 42.7782 22.636C42.7782 23.0835 42.8934 23.4345 43.1228 23.689C43.3522 23.944 43.671 24.0715 44.079 24.0715L44.0785 24.071ZM43.2625 22.279C43.2754 22.1 43.3489 21.939 43.4833 21.7955C43.6177 21.652 43.7886 21.5805 43.9969 21.5805C44.209 21.5805 44.3718 21.6495 44.485 21.787C44.5983 21.9245 44.6646 22.0875 44.6833 22.2765L43.2625 22.279ZM47.799 24V23.641H47.3132C47.1308 23.641 47.0026 23.601 46.9292 23.5215C46.8558 23.4415 46.8188 23.301 46.8188 23.099V21.615H47.7985V21.266H46.8193V20.49H46.3873V21.265H45.6865V21.614H46.3873V23.1C46.3873 23.43 46.454 23.663 46.587 23.798C46.7194 23.933 46.9479 24.0005 47.271 24.0005H47.799V24ZM49.4602 24.071C49.6604 24.071 49.8298 24.032 49.97 23.955C50.1097 23.8775 50.2258 23.7575 50.318 23.595V24H50.7514V22.44C50.7514 22.2005 50.739 22.021 50.714 21.9015C50.689 21.782 50.6468 21.6815 50.5878 21.6C50.4922 21.4665 50.3674 21.3665 50.2134 21.3C50.0598 21.233 49.8745 21.2 49.657 21.2C49.5198 21.2 49.3777 21.2155 49.2318 21.2475C49.0858 21.279 48.9327 21.3265 48.7734 21.39V21.8395C48.9159 21.7545 49.0614 21.6905 49.2116 21.6465C49.3618 21.6025 49.5102 21.5805 49.657 21.5805C49.887 21.5805 50.054 21.63 50.1586 21.7285C50.2633 21.8265 50.3166 21.985 50.318 22.2035V22.2735H49.7391C49.3594 22.2735 49.0719 22.353 48.8751 22.5105C48.6793 22.6685 48.5814 22.8995 48.5814 23.204C48.5814 23.468 48.661 23.678 48.8204 23.835C48.9798 23.9925 49.1929 24.071 49.4602 24.071ZM49.5514 23.695C49.383 23.695 49.251 23.6495 49.1554 23.558C49.0604 23.467 49.0124 23.339 49.0124 23.175C49.0124 22.9925 49.0762 22.855 49.2034 22.7635C49.3311 22.6715 49.5202 22.6255 49.7718 22.6255H50.318V22.7255C50.3166 23.0285 50.2479 23.2655 50.1116 23.4375C49.9758 23.609 49.789 23.695 49.5514 23.695Z" fill="#C9D2D7"/>
</svg>
