<svg width="60" height="60" viewBox="0 0 60 60" fill="none" xmlns="http://www.w3.org/2000/svg">
<circle cx="30" cy="30" r="30" fill="#EDF0F4"/>
<path fill-rule="evenodd" clip-rule="evenodd" d="M30.0086 14.5L37.7864 26.6766L30.0086 31.2091L22.2324 26.6766L30.0086 14.5ZM24.6135 26.0999L30.0087 17.651L35.4055 26.0999L30.0087 29.2462L24.6135 26.0983V26.0999Z" fill="#273852"/>
<path d="M29.9979 33.8855L20.9771 28.6285L20.7303 29.0135C19.6682 30.676 19.0727 32.5935 19.0062 34.565C18.9398 36.5366 19.4048 38.4899 20.3525 40.2201C21.3002 41.9502 22.6958 43.3936 24.3931 44.3991C26.0904 45.4046 28.0268 45.9351 29.9995 45.9351C31.9722 45.9351 33.9087 45.4046 35.606 44.3991C37.3031 43.3936 38.6989 41.9502 39.6465 40.2201C40.5942 38.4899 41.0592 36.5366 40.9927 34.565C40.9263 32.5935 40.3308 30.676 39.2687 29.0135L39.022 28.6285L29.9979 33.887V33.8855Z" fill="#273852"/>
</svg>
