<svg width="60" height="60" viewBox="0 0 60 60" fill="none" xmlns="http://www.w3.org/2000/svg">
<path d="M30 60C46.5685 60 60 46.5685 60 30C60 13.4315 46.5685 0 30 0C13.4315 0 0 13.4315 0 30C0 46.5685 13.4315 60 30 60Z" fill="#2A5BDB"/>
<path d="M28.0312 18.4688L20.9062 15L14.0156 18.7969V30.75L20.4375 28.4531L20.3906 22.5469L28.0312 18.4688Z" fill="#F5F5F9"/>
<path d="M44.4844 10.2187L40.5 11.625L41.9531 16.125L30.0469 9.98434L22.875 13.9218L39.3281 21.8906L34.7344 23.5781L36.1875 27.75L48.8906 23.2031L44.4844 10.2187Z" fill="#F5F5F9"/>
<path d="M37.2188 46.2187L20.8125 38.2968L25.4062 36.5624L23.9531 32.3906L11.25 36.9374L15.6563 49.9218L19.6406 48.5624L18.1875 44.0156L30.0469 50.1562L37.2188 46.2187Z" fill="#F5F5F9"/>
<path d="M39.7031 31.6875L39.75 37.6406L32.0625 41.6718L39.1875 45.1406L46.125 41.3437V29.4375L39.7031 31.6875Z" fill="#F5F5F9"/>
</svg>
