<svg width="60" height="60" viewBox="0 0 60 60" fill="none" xmlns="http://www.w3.org/2000/svg">
<rect width="60" height="60" rx="30" fill="#141633"/>
<path d="M24.8616 24.0364C26.445 25.5212 27.6925 26.6671 29.036 27.926C23.2622 31.864 28.6361 38.2068 32.9865 34.4786C34.5059 32.9454 34.4739 30.7827 32.8905 29.2979C29.8197 26.4412 26.7169 23.6168 23.6621 20.744C21.279 18.0648 17.0726 20.0661 17.3285 23.5845C17.3285 31.0248 17.4724 38.4651 17.3605 45.8892C14.6096 46.5832 11.9386 43.9041 12.0345 40.999C12.0345 34.9789 11.9386 28.9428 12.0665 22.9228C12.0026 15.0467 21.8707 11.0441 27.2127 16.5477C30.5394 19.6949 33.7702 22.9712 37.2088 25.9893C40.3276 28.733 40.1357 35.2695 36.4891 38.6587C26.365 47.0997 14.9294 32.5742 24.8616 24.0364Z" fill="white"/>
<path d="M34.6977 21.906C33.3862 20.7116 32.2027 19.6464 31.0511 18.5812C35.3055 10.9796 48.0686 13.9008 47.9566 22.7936C48.0526 28.975 47.9726 35.1403 47.8767 41.3217C47.8287 44.2107 45.0138 46.3572 42.6627 45.7439C42.6787 38.5457 42.6947 31.2991 42.7906 24.0848C42.8226 22.0674 42.2788 20.4857 40.3755 19.6626C37.9445 18.5651 36.3611 20.2759 34.6977 21.906Z" fill="#64A7D7"/>
</svg>
