<svg width="60" height="66" viewBox="0 0 60 66" fill="none" xmlns="http://www.w3.org/2000/svg">
<g clip-path="url(#clip0_13861_105577)">
<path d="M13.1958 18.9913L2.01702 15.9099C1.36905 16.9382 0.867501 18.0518 0.526855 19.2186L3.52821 42.9613L13.196 18.9913H13.1958Z" fill="#C8A8FF"/>
<path d="M56.4114 42.961L31.1677 0.0532006C30.2137 -0.0323516 29.2533 -0.0146786 28.3031 0.105912L13.1958 18.9912L56.4114 42.961Z" fill="#875FE3"/>
<path d="M59.4129 19.2185L56.4114 42.9612L58.8178 47.8449C59.4215 46.4774 59.7883 45.0171 59.9026 43.5266V21.8983C59.8331 20.9904 59.669 20.0923 59.4129 19.2185Z" fill="#9B65EA"/>
<path d="M3.52808 42.9609L27.5923 65.2079C29.1589 65.4955 30.7648 65.4955 32.3315 65.2079L56.3904 42.9609H3.52808Z" fill="#875FE3"/>
<path d="M3.52808 42.9612H56.4115L13.1959 18.9912L3.52808 42.9612Z" fill="#AB83F2"/>
<path d="M0.526696 19.2185C0.273005 20.0929 0.108884 20.9908 0.0368652 21.8983V43.5266C0.150322 45.0179 0.519013 46.4785 1.12687 47.8449L3.52805 42.9612L0.526696 19.2185ZM28.3031 0.105957C26.925 0.286143 25.5845 0.685895 24.3328 1.29002L5.67653 12.0988C4.21059 13.1076 2.96541 14.4043 2.01687 15.9099L13.1958 18.9912L28.3031 0.105957Z" fill="#9B65EA"/>
<path d="M59.4128 19.2184C58.5699 16.3231 56.7525 13.8079 54.2681 12.0987L35.6065 1.28993C34.2124 0.616466 32.7091 0.197565 31.1676 0.0529785L56.4113 42.9609L59.4128 19.2184ZM32.3523 65.2079C33.4785 64.999 34.5725 64.6436 35.6065 64.1508L54.2681 53.3365C56.2628 51.966 57.8379 50.0685 58.8177 47.8555L56.4113 42.9716L32.3523 65.2079ZM1.12671 47.8448C2.10488 50.0589 3.68027 51.9569 5.67637 53.326L24.3326 64.1401C25.3687 64.6323 26.4644 64.9877 27.5921 65.1972L3.5279 42.9609L1.12671 47.8448Z" fill="#6D33CC"/>
</g>
<defs>
<clipPath id="clip0_13861_105577">
<rect width="60" height="65.4237" fill="white"/>
</clipPath>
</defs>
</svg>
