<svg width="60" height="60" viewBox="0 0 60 60" fill="none" xmlns="http://www.w3.org/2000/svg">
<rect width="60" height="60" rx="30" fill="#2F2F2F"/>
<path d="M38.0206 33.6069C39.2822 31.304 40.4146 28.9202 40.281 26.115L40.2806 26.1064L40.2796 26.0979C40.2516 25.8584 40.2301 25.6101 40.2083 25.3578C40.1628 24.8328 40.1158 24.2905 40.0058 23.7747L40.0058 23.7747C39.6437 22.0778 38.7567 20.764 37.5206 19.9772C36.2843 19.1904 34.7213 18.9451 33.0341 19.3435C32.1787 19.5448 31.2667 19.8119 30.4915 20.2832C24.5681 23.8817 21.0991 29.101 20.5321 36.0766L20.5321 36.077C20.3284 38.6338 20.8278 41.1238 22.1134 43.4094L22.1139 43.4104C22.5334 44.1488 22.911 44.7362 23.2883 45.1676C23.6669 45.6004 24.0596 45.8927 24.5126 46.0145C24.9673 46.1368 25.4463 46.0777 25.9779 45.8794C26.5064 45.6822 27.1048 45.3409 27.8091 44.8755L27.8096 44.8752C32.156 41.991 35.5227 38.1796 38.0206 33.6069ZM38.0206 33.6069C38.0206 33.6069 38.0206 33.607 38.0206 33.607L37.8013 33.4869L38.0207 33.6067C38.0207 33.6068 38.0207 33.6068 38.0206 33.6069ZM36.1582 12.2569L36.1582 12.257L36.167 12.2568C38.8006 12.1974 40.7942 12.524 42.7347 13.3374L42.7351 13.3376C46.6238 14.9595 48.6616 18.002 49.598 21.9841L49.598 21.9845C51.1451 28.5177 49.0243 34.1314 45.0643 39.2029C42.729 42.1913 39.7568 44.5314 36.4183 46.4193L36.5413 46.6369L36.4183 46.4193C33.7963 47.9021 31.0717 48.4067 28.1521 47.6744C25.477 47.0007 22.8257 47.3677 20.2309 47.7269C20.1529 47.7377 20.075 47.7485 19.9972 47.7592C17.4908 48.1046 15.1628 47.9122 13.0439 46.4415L13.0437 46.4414C11.3313 45.2544 10.2078 43.6743 9.69336 41.6843L9.69335 41.6842C9.11367 39.4441 9.0943 37.1973 9.68329 34.9297L9.68333 34.9296C11.3791 28.3847 14.9676 23.0594 20.1594 18.8205L20.1595 18.8205C22.0545 17.2727 24.161 15.9308 26.3127 14.7354L26.313 14.7353C29.5015 12.9584 33.0178 12.2174 36.1582 12.2569Z" fill="url(#paint0_linear_12942_100915)"/>
<path d="M38.0206 33.6069C39.2822 31.304 40.4146 28.9202 40.281 26.115L40.2806 26.1064L40.2796 26.0979C40.2516 25.8584 40.2301 25.6101 40.2083 25.3578C40.1628 24.8328 40.1158 24.2905 40.0058 23.7747L40.0058 23.7747C39.6437 22.0778 38.7567 20.764 37.5206 19.9772C36.2843 19.1904 34.7213 18.9451 33.0341 19.3435C32.1787 19.5448 31.2667 19.8119 30.4915 20.2832C24.5681 23.8817 21.0991 29.101 20.5321 36.0766L20.5321 36.077C20.3284 38.6338 20.8278 41.1238 22.1134 43.4094L22.1139 43.4104C22.5334 44.1488 22.911 44.7362 23.2883 45.1676C23.6669 45.6004 24.0596 45.8927 24.5126 46.0145C24.9673 46.1368 25.4463 46.0777 25.9779 45.8794C26.5064 45.6822 27.1048 45.3409 27.8091 44.8755L27.8096 44.8752C32.156 41.991 35.5227 38.1796 38.0206 33.6069ZM38.0206 33.6069C38.0206 33.6069 38.0206 33.607 38.0206 33.607L37.8013 33.4869L38.0207 33.6067C38.0207 33.6068 38.0207 33.6068 38.0206 33.6069ZM36.1582 12.2569L36.1582 12.257L36.167 12.2568C38.8006 12.1974 40.7942 12.524 42.7347 13.3374L42.7351 13.3376C46.6238 14.9595 48.6616 18.002 49.598 21.9841L49.598 21.9845C51.1451 28.5177 49.0243 34.1314 45.0643 39.2029C42.729 42.1913 39.7568 44.5314 36.4183 46.4193L36.5413 46.6369L36.4183 46.4193C33.7963 47.9021 31.0717 48.4067 28.1521 47.6744C25.477 47.0007 22.8257 47.3677 20.2309 47.7269C20.1529 47.7377 20.075 47.7485 19.9972 47.7592C17.4908 48.1046 15.1628 47.9122 13.0439 46.4415L13.0437 46.4414C11.3313 45.2544 10.2078 43.6743 9.69336 41.6843L9.69335 41.6842C9.11367 39.4441 9.0943 37.1973 9.68329 34.9297L9.68333 34.9296C11.3791 28.3847 14.9676 23.0594 20.1594 18.8205L20.1595 18.8205C22.0545 17.2727 24.161 15.9308 26.3127 14.7354L26.313 14.7353C29.5015 12.9584 33.0178 12.2174 36.1582 12.2569Z" fill="url(#paint1_linear_12942_100915)"/>
<path d="M38.0206 33.6069C39.2822 31.304 40.4146 28.9202 40.281 26.115L40.2806 26.1064L40.2796 26.0979C40.2516 25.8584 40.2301 25.6101 40.2083 25.3578C40.1628 24.8328 40.1158 24.2905 40.0058 23.7747L40.0058 23.7747C39.6437 22.0778 38.7567 20.764 37.5206 19.9772C36.2843 19.1904 34.7213 18.9451 33.0341 19.3435C32.1787 19.5448 31.2667 19.8119 30.4915 20.2832C24.5681 23.8817 21.0991 29.101 20.5321 36.0766L20.5321 36.077C20.3284 38.6338 20.8278 41.1238 22.1134 43.4094L22.1139 43.4104C22.5334 44.1488 22.911 44.7362 23.2883 45.1676C23.6669 45.6004 24.0596 45.8927 24.5126 46.0145C24.9673 46.1368 25.4463 46.0777 25.9779 45.8794C26.5064 45.6822 27.1048 45.3409 27.8091 44.8755L27.8096 44.8752C32.156 41.991 35.5227 38.1796 38.0206 33.6069ZM38.0206 33.6069C38.0206 33.6069 38.0206 33.607 38.0206 33.607L37.8013 33.4869L38.0207 33.6067C38.0207 33.6068 38.0207 33.6068 38.0206 33.6069ZM36.1582 12.2569L36.1582 12.257L36.167 12.2568C38.8006 12.1974 40.7942 12.524 42.7347 13.3374L42.7351 13.3376C46.6238 14.9595 48.6616 18.002 49.598 21.9841L49.598 21.9845C51.1451 28.5177 49.0243 34.1314 45.0643 39.2029C42.729 42.1913 39.7568 44.5314 36.4183 46.4193L36.5413 46.6369L36.4183 46.4193C33.7963 47.9021 31.0717 48.4067 28.1521 47.6744C25.477 47.0007 22.8257 47.3677 20.2309 47.7269C20.1529 47.7377 20.075 47.7485 19.9972 47.7592C17.4908 48.1046 15.1628 47.9122 13.0439 46.4415L13.0437 46.4414C11.3313 45.2544 10.2078 43.6743 9.69336 41.6843L9.69335 41.6842C9.11367 39.4441 9.0943 37.1973 9.68329 34.9297L9.68333 34.9296C11.3791 28.3847 14.9676 23.0594 20.1594 18.8205L20.1595 18.8205C22.0545 17.2727 24.161 15.9308 26.3127 14.7354L26.313 14.7353C29.5015 12.9584 33.0178 12.2174 36.1582 12.2569Z" stroke="url(#paint2_linear_12942_100915)" stroke-width="0.5"/>
<path d="M36 12.5C38.66 12.44 40.0201 12.6698 42 13.4998L37.5 19.6835C36.3571 19.0254 34.5461 18.6347 33 18.9999C32.15 19.1999 30.24 20.0499 29.5 20.4999C24.2092 24.468 21.9486 28.1585 20.5 33.9999C20.1721 35.3223 19.9873 36.7113 20.2012 38.0569C20.4858 39.8473 21.1145 41.9255 22 43.4999L24.5 47C21.96 47.35 15.6901 48.02 13.5001 46.5C11.7401 45.28 10.53 43.55 9.99996 41.5C9.40996 39.22 9.39998 36.81 9.99998 34.5C10.429 32.844 11.2964 30.9177 11.7244 30.0554L12 29.5C12.0608 29.3587 12.1235 29.2174 12.1878 29.0761C13.8727 25.3756 16.7407 21.6866 20.0314 18.9999C21.6676 17.6635 23.6038 16.5427 25.5 15.5C25.8173 15.3255 26.1904 15.172 26.5 15C26.9693 14.7393 27.034 14.7176 27.5 14.5C30.216 13.2314 33.2857 12.4658 36 12.5Z" fill="url(#paint3_linear_12942_100915)"/>
<defs>
<linearGradient id="paint0_linear_12942_100915" x1="45.5" y1="14" x2="9" y2="49" gradientUnits="userSpaceOnUse">
<stop stop-color="#8DE186"/>
<stop offset="0.260417" stop-color="#E3B9A4"/>
<stop offset="0.489583" stop-color="#DF7C92"/>
<stop offset="0.598958" stop-color="#D980A0"/>
<stop offset="0.755208" stop-color="#A766AD"/>
<stop offset="0.885417" stop-color="#A766AD"/>
</linearGradient>
<linearGradient id="paint1_linear_12942_100915" x1="43" y1="14.5" x2="29" y2="46.5" gradientUnits="userSpaceOnUse">
<stop stop-color="#90E087"/>
<stop offset="0.260417" stop-color="#81E6B2"/>
<stop offset="0.489583" stop-color="#63D5B2"/>
<stop offset="0.598958" stop-color="#51B1A6"/>
<stop offset="0.755208" stop-color="#4F9CB3"/>
<stop offset="0.885417" stop-color="#5882AC"/>
</linearGradient>
<linearGradient id="paint2_linear_12942_100915" x1="14.5" y1="46.5" x2="41.5" y2="16.5" gradientUnits="userSpaceOnUse">
<stop stop-color="#5460DF"/>
<stop offset="0.3125" stop-color="#49784D"/>
<stop offset="0.708333" stop-color="#F0E76C"/>
<stop offset="1" stop-color="#EC9568"/>
</linearGradient>
<linearGradient id="paint3_linear_12942_100915" x1="42" y1="13.5" x2="4.96609" y2="44.1213" gradientUnits="userSpaceOnUse">
<stop stop-color="#90E189"/>
<stop offset="0.140625" stop-color="#86E5A5"/>
<stop offset="0.260417" stop-color="#E3B9A4"/>
<stop offset="0.489583" stop-color="#DF7C92"/>
<stop offset="0.598958" stop-color="#D980A0"/>
<stop offset="0.755208" stop-color="#A766AD"/>
<stop offset="0.885417" stop-color="#A766AD"/>
</linearGradient>
</defs>
</svg>
