<svg width="60" height="60" viewBox="0 0 60 60" fill="none" xmlns="http://www.w3.org/2000/svg">
<path d="M30 60C46.5685 60 60 46.5685 60 30C60 13.4315 46.5685 0 30 0C13.4315 0 0 13.4315 0 30C0 46.5685 13.4315 60 30 60Z" fill="#303030"/>
<path d="M32.9999 33C32.6249 32.25 31.8749 31.3125 31.1249 30.5625C30.9374 30.75 30.7499 31.3125 30.7499 31.5C30.5624 32.25 30.9374 32.25 31.6874 32.4375C32.0624 32.4375 32.4374 32.625 32.9999 33Z" fill="#303030"/>
<path fill-rule="evenodd" clip-rule="evenodd" d="M32.3974 7.1442C23.5128 8.00937 16.3205 14.9308 14.9103 23.8709C15.4744 23.8709 15.8974 23.7267 16.0385 23.7267C16.0385 22.8616 16.3205 21.2754 17.3077 20.266C20.1282 13.7772 26.3333 9.30714 33.6667 9.30714C43.5385 9.30714 51.5769 17.5263 51.5769 27.7642C51.5769 35.4066 47.0641 41.8954 40.7179 44.7793C45.5128 41.7512 48.7564 36.1276 48.7564 29.783C48.7564 20.1218 41.141 12.1911 31.6923 12.1911C25.6282 12.1911 20.4103 15.3634 17.4487 20.266C17.7308 19.9776 18.1538 19.8334 18.5769 19.8334C18.4359 21.4196 19.5641 21.8522 20.5513 20.987C20.9744 20.1218 21.5385 19.2567 22.3846 18.6799C23.3718 18.1031 24.641 17.9589 25.6282 17.9589C26.4744 17.9589 27.3205 18.2473 28.0256 18.5357C27.8846 17.9589 27.0385 17.2379 26.8974 17.2379C29.0128 16.0843 32.5385 17.5263 32.9615 19.9776C33.1026 18.8241 32.9615 17.6705 32.9615 17.6705C35.0769 18.5357 35.2179 21.5638 35.0769 22.5732L37.8974 19.9776L35.2179 26.1781C35.359 26.3223 35.359 26.6107 35.5 26.899L35.641 27.0432C35.7821 27.4758 35.9231 27.7642 36.0641 28.1968C36.2051 28.4852 36.3462 28.7736 36.4872 29.2062C36.4872 29.4946 36.3462 29.9272 36.2051 30.5039C36.0641 31.0807 35.9231 31.6575 35.9231 31.9459C36.0641 32.5227 36.0641 33.0995 36.2051 33.6763C36.3462 34.5414 36.6282 35.4066 36.9103 35.9834C37.0513 36.2718 37.0513 36.5602 37.1923 36.7044C38.0385 37.4254 38.0385 38.7231 38.0385 39.2999C38.0385 40.3093 36.6282 41.3186 36.0641 41.7512C35.9231 41.7512 35.9231 41.8954 35.7821 41.8954C35.359 42.1838 34.9359 42.328 34.6538 42.4722C34.3718 42.6164 34.0897 42.6164 33.8077 42.6164C32.9615 42.6164 30.8462 41.3186 30.5641 40.8861C30.4231 40.7419 30.2821 40.0209 30.141 39.2999C30 38.7231 29.859 38.1463 29.7179 37.7137C29.4359 36.9928 29.1538 36.8486 28.8718 36.5602C28.4487 36.2718 28.0256 35.9834 27.3205 34.974C27.0385 35.5508 26.3333 37.2812 25.9103 39.5883C25.7692 40.3093 25.7692 41.4628 25.7692 42.9048C25.7692 43.6258 25.7692 44.3468 25.6282 45.0677C28.3077 46.3655 31.1282 47.2307 34.2308 47.2307C42.1282 47.2307 48.8974 42.328 52 35.4066C49.6026 45.5003 40.859 52.9985 30.2821 52.9985C18.0128 53.1427 8 42.7606 8 30.0714C8 17.3821 18.0128 7 30.2821 7C30.9872 7 31.6923 7 32.3974 7.1442ZM14.7692 24.8803C14.7692 25.4571 14.6282 26.1781 14.6282 26.7548C15.0513 26.6107 15.6154 26.6107 16.0385 26.6107H15.8974C15.4744 26.7548 15.0513 26.899 14.6282 27.0432V27.1874C14.6282 28.9178 14.7692 30.5039 15.1923 32.0901C15.1923 31.9459 15.1923 31.8017 15.1923 31.5133C15.1923 31.3691 15.4744 29.9272 16.7436 28.0526C16.7436 28.1968 16.7436 28.4852 16.6026 28.6294C16.4615 29.3504 16.3205 30.0714 16.6026 30.9365C16.6026 30.2156 17.0256 28.0526 18.4359 27.3316C18.0128 28.0526 17.7308 30.2156 18.1538 30.7923C18.1538 29.6388 18.859 28.4852 19.8462 27.7642C20.5513 27.1874 24.0769 25.1687 24.0769 25.1687C24.0769 25.1687 23.3718 28.1968 24.9231 28.4852C24.641 27.7642 25.0641 26.4665 25.7692 25.6013C26.0513 25.3129 26.4744 25.0245 26.7564 24.8803V24.7361C26.6154 24.0151 26.6154 23.15 26.8974 22.5732C27.1795 22.8616 27.7436 23.15 28.3077 23.2941C28.8718 23.4383 29.4359 23.7267 30 24.0151C30.4231 24.3035 30.7051 24.8803 30.9872 25.4571L31.2692 25.8897L31.4103 26.1781V26.0339L33.6667 23.7267C34.2308 22.7174 34.3718 20.1218 33.2436 18.9683C33.2436 19.6892 33.2436 22.8616 32.1154 23.4383C32.9615 21.4196 32.1154 17.6705 27.8846 17.6705C28.5897 18.2473 29.1538 19.2567 29.4359 19.8334C29.7179 20.1218 30 20.4102 30.141 20.8428L30 20.6986C30 19.9776 28.8718 18.8241 25.7692 18.8241C24.7821 18.8241 23.7949 18.9683 22.9487 19.4009C24.359 18.9683 25.9103 19.8334 27.1795 20.6986C27.0385 20.6986 26.7564 20.5544 26.6154 20.4102C25.7692 20.1218 24.641 19.6892 23.3718 19.9776C22.6667 20.1218 22.2436 20.5544 21.6795 21.1312C21.3974 21.4196 21.1154 21.708 20.6923 21.9964C19.8462 22.429 18.7179 22.2848 18.2949 21.4196C18.1538 21.2754 18.0128 20.987 18.0128 20.6986C17.7308 20.987 17.5897 21.2754 17.4487 21.5638C17.0256 22.1406 16.8846 23.0058 17.0256 23.7267C17.4487 23.7267 17.8718 23.7267 18.2949 23.7267C18.7179 23.7267 19.141 23.8709 19.5641 23.7267C20.1282 23.5825 20.8333 23.4383 21.2564 23.1499C21.3974 23.0058 21.6795 22.8616 21.8205 22.7174C21.6795 22.8616 21.6795 23.0058 21.5385 23.1499C21.1154 23.7267 20.5513 24.0151 19.8462 24.1593C19.2821 24.3035 18.7179 24.3035 18.1538 24.1593C17.7308 24.1593 17.1667 24.0151 16.7436 24.1593C16.4615 24.1593 16.1795 24.3035 15.8974 24.4477C15.6154 24.5919 15.1923 24.7361 14.7692 24.8803ZM35.0769 23.5825L36.4872 22.1406L33.9487 27.4758C33.6667 27.62 33.2436 27.4758 32.8205 27.1874C32.5385 26.899 32.2564 26.6107 32.3974 26.3223L32.9615 25.7455C32.9615 25.8897 33.1026 26.0339 33.2436 26.1781C33.5256 26.4665 33.8077 26.6107 34.2308 26.4665C34.0897 26.4665 33.9487 26.4665 33.9487 26.3223C33.5256 26.1781 33.3846 25.7455 33.2436 25.4571L34.0897 24.5919C34.2308 24.8803 34.5128 25.1687 34.9359 25.0245C34.6538 25.0245 34.3718 24.5919 34.2308 24.3035L34.7949 23.5825C34.9359 23.7267 35.0769 23.7267 35.2179 23.7267C35.2179 23.8709 35.0769 23.7267 35.0769 23.5825ZM30.4231 31.9459C30.141 31.6575 30.141 31.3691 30.141 30.9365C30.141 30.6481 30.2821 30.2156 30.5641 29.9272C30.2821 29.6388 29.859 29.4946 29.4359 29.4946C30.4231 29.2062 31.1282 29.6388 31.8333 30.3597C32.2564 30.7923 32.8205 31.9459 32.9615 32.3785C33.1026 32.8111 33.9487 32.5227 33.9487 32.5227C33.8077 32.8111 33.3846 33.0995 32.9615 33.0995C32.6795 33.0995 32.6795 32.9553 32.5385 32.8111V32.6669C32.1154 32.5227 31.6923 32.3785 31.2692 32.2343C30.8462 32.2343 30.5641 32.0901 30.4231 31.9459ZM35.641 39.0115C35.5 38.1463 35.359 37.5695 34.9359 37.5695C34.9359 37.5695 35.0769 37.2812 35.359 37.4254C35.7821 37.7137 35.641 38.4347 35.641 39.0115ZM35.9231 39.1557C36.0641 38.4347 35.7821 36.8486 35.0769 36.8486C34.6538 36.8486 34.3718 36.9928 34.2308 37.137C34.2308 36.9928 34.2308 36.9928 34.2308 36.8486C34.2308 36.1276 33.9487 35.5508 33.6667 34.8298C33.5256 34.5414 33.5256 34.3972 33.3846 34.1088C33.9487 34.6856 34.3718 35.4066 34.6538 36.1276C34.7949 35.9834 35.0769 35.9834 35.359 36.2718C36.3462 36.9928 36.3462 38.5789 35.9231 39.1557ZM34.3718 40.7419C33.5256 40.4535 31.8333 39.7325 31.8333 39.2999C31.8333 39.0115 31.8333 38.5789 32.1154 38.4347C32.2564 38.8673 32.6795 39.1557 33.2436 39.4441C33.2436 39.4441 32.5385 38.7231 32.5385 38.1463H32.6795C32.9615 38.1463 33.1026 38.5789 33.2436 39.0115C33.3846 39.5883 33.8077 40.3093 34.3718 40.7419ZM31.9744 32.9553C31.4103 33.2437 30.5641 33.0995 30.141 32.8111C29.5769 32.5227 29.2949 31.8017 29.2949 31.2249C29.4359 31.3691 29.4359 31.5133 29.4359 31.6575C29.5769 32.0901 29.859 32.3785 30.2821 32.6669C30.5641 32.8111 31.1282 32.9553 31.5513 32.9553C31.6923 32.9553 31.8333 32.9553 31.9744 32.9553ZM20.1282 38.0021C20.1282 38.4347 20.1282 38.7231 20.1282 39.0115C19.7051 38.4347 19.5641 37.7137 19.7051 36.9928C19.9872 33.0995 23.0897 30.5039 23.2308 30.3597C21.2564 33.0995 20.5513 35.2624 20.2692 36.7044C20.1282 36.9928 20.1282 37.5695 20.1282 38.0021Z" fill="white"/>
<path d="M48.1875 29.625C48.1875 38.25 43.3125 45.9375 36.375 49.6875C45.375 47.625 51.9375 39.5625 51.9375 30C51.9375 21.1875 46.3125 13.6875 38.625 10.875C44.4375 15 48.1875 21.9375 48.1875 29.625Z" fill="#303030"/>
<path d="M42.375 29.2499C42.375 29.2499 42.1875 27.5624 41.625 26.9999C40.875 26.4374 39.375 26.2499 39.375 26.2499C39.375 26.2499 40.875 26.0624 41.625 25.4999C42.1875 24.9374 42.375 23.2499 42.375 23.2499C42.375 23.2499 42.5625 24.9374 43.125 25.4999C43.6875 26.0624 45.375 26.2499 45.375 26.2499C45.375 26.2499 43.875 26.4374 43.125 26.9999C42.375 27.5624 42.375 29.2499 42.375 29.2499Z" fill="#303030"/>
<path d="M26.8125 46.3125C27.375 46.875 27.375 48 27.375 48C27.375 48 27.375 46.875 27.9375 46.3125C28.5 45.75 29.625 45.75 29.625 45.75C29.625 45.75 28.5 45.75 27.9375 45.1875C27.375 44.625 27.375 43.5 27.375 43.5C27.375 43.5 27.375 44.625 26.8125 45.1875C26.25 45.75 25.125 45.75 25.125 45.75C25.125 45.75 26.4375 45.75 26.8125 46.3125Z" fill="#303030"/>
<path d="M44.4375 33.7499C44.4375 33.7499 44.4375 32.9999 44.0625 32.6249C43.6875 32.2499 42.9375 32.2499 42.9375 32.2499C42.9375 32.2499 43.6875 32.2499 44.0625 31.8749C44.4375 31.4999 44.4375 30.7499 44.4375 30.7499C44.4375 30.7499 44.4375 31.4999 44.8125 31.8749C45.1875 32.2499 45.9375 32.2499 45.9375 32.2499C45.9375 32.2499 45.1875 32.2499 44.8125 32.6249C44.625 32.9999 44.4375 33.7499 44.4375 33.7499Z" fill="#303030"/>
</svg>
