<svg width="60" height="60" viewBox="0 0 60 60" fill="none" xmlns="http://www.w3.org/2000/svg">
<ellipse cx="30.0149" cy="29.9881" rx="28.0363" ry="28.0396" fill="#50CD6D"/>
<path fill-rule="evenodd" clip-rule="evenodd" d="M29.0783 0.0148635C24.8175 0.131175 20.6349 1.1698 16.7617 3.07327C12.7446 5.04751 9.20796 7.9112 6.42365 11.4443C2.83647 15.9963 0.654787 21.4602 0.122721 27.2248C-0.0409071 28.9979 -0.0409071 31.0096 0.122721 32.7827C0.536741 37.2684 1.94696 41.575 4.26845 45.4434C6.36964 48.9447 9.22223 52.0335 12.5625 54.4243C17.4082 57.8925 23.1846 59.8361 29.1061 59.9906C29.5974 60.0034 30.4068 60.0031 30.9047 59.9899C36.8257 59.8325 42.5927 57.891 47.4362 54.4243C50.4014 52.3019 52.9384 49.6795 54.9766 46.6299C57.5361 42.8004 59.2053 38.3277 59.7657 33.7975C60.0348 31.622 60.0728 29.3578 59.876 27.2248C59.4619 22.7391 58.0517 18.4324 55.7302 14.5641C53.6173 11.0431 50.7303 7.92481 47.3758 5.53995C43.3695 2.69177 38.7464 0.877784 33.8863 0.246986C33.0166 0.13411 31.9408 0.046931 31.1836 0.0279777C30.8242 0.0189851 30.3896 0.00727587 30.2179 0.00196771C30.0462 -0.00334046 29.5334 0.00246736 29.0783 0.0148635ZM31.8882 3.16542C35.6464 3.46633 38.8563 4.34845 42.0662 5.96248C44.668 7.27072 46.943 8.91638 49.013 10.9876C50.7404 12.7159 52.1472 14.5516 53.3444 16.6396C56.1436 21.5215 57.319 27.0811 56.754 32.7671C56.044 39.9123 52.396 46.5624 46.7077 51.0807C41.3038 55.3732 34.4963 57.4061 27.5797 56.793C19.5178 56.0783 12.1959 51.7346 7.65191 44.9709C5.4234 41.6538 3.9489 37.8287 3.38683 33.9068C3.17712 32.4436 3.12027 31.6111 3.12027 30.0037C3.12027 28.3904 3.1764 27.5649 3.38543 26.1038C3.96117 22.0798 5.50214 18.1523 7.83702 14.758C9.66669 12.0982 12.0959 9.6687 14.7554 7.83882C18.7413 5.09634 23.3884 3.47844 28.1729 3.16748C28.4563 3.14906 28.7653 3.12882 28.8598 3.12255C29.1973 3.10006 31.4747 3.13229 31.8882 3.16542ZM28.7973 4.79287C25.2916 4.95112 21.9439 5.80052 18.7911 7.3317C13.0308 10.1292 8.55832 14.972 6.20105 20.9642C4.50385 25.2785 4.02867 30.0975 4.8371 34.7967C5.5751 39.0867 7.51392 43.2836 10.3091 46.642C13.081 49.9723 16.5426 52.4834 20.567 54.0835C24.9081 55.8094 29.7469 56.2955 34.4795 55.4812C41.2414 54.3176 47.3661 50.3368 51.2073 44.6087C54.5647 39.6021 56.0131 33.7575 55.4109 27.6463C54.9213 22.6778 52.8779 17.8106 49.6658 13.9621C46.5517 10.2311 42.5629 7.52708 37.9342 6.00916C35.0664 5.06871 31.9313 4.65139 28.7973 4.79287ZM46.3903 23.5279C48.5549 23.6963 50.4815 24.4125 51.8539 25.5593C52.9856 26.5048 53.6477 27.599 53.8725 28.8953C53.9325 29.2412 53.9227 30.0908 53.8544 30.4721C53.6702 31.4997 53.1884 32.5636 52.4071 33.6685C51.7915 34.5389 50.7574 35.5743 49.7308 36.348C47.8126 37.7938 45.2803 38.8269 42.9404 39.1185C41.7189 39.2706 40.4669 39.2714 39.4347 39.1204C36.9705 38.7602 34.9456 37.3726 33.558 35.0933C33.1738 34.4623 32.7948 33.6262 32.484 32.7243C32.4138 32.5204 32.3177 32.2817 32.2706 32.1939C32.0865 31.8509 31.6619 31.526 31.2638 31.4232C31.0623 31.3712 29.2196 31.3453 28.9209 31.3902C28.4662 31.4587 28.0267 31.7568 27.8057 32.1468C27.7535 32.2389 27.6518 32.483 27.5797 32.689C27.0746 34.1325 26.3 35.5035 25.3922 36.5609C24.0648 38.107 22.2617 38.9743 19.9685 39.1698C19.3266 39.2245 17.9063 39.1917 17.2768 39.1077C14.4696 38.7331 12.1555 37.8251 10.1117 36.2963C8.00899 34.7234 6.63224 32.7706 6.20367 30.7531C6.12375 30.3768 6.11738 30.2936 6.11641 29.6134C6.1155 28.9582 6.12325 28.8431 6.18884 28.5378C6.41797 27.4715 6.90842 26.5844 7.70412 25.7969C8.95164 24.5622 10.8228 23.8099 13.2493 23.5675C13.9163 23.5009 15.5375 23.4917 16.2153 23.5507C19.1556 23.8069 21.9287 24.5087 24.4502 25.6348C25.0843 25.9179 25.6183 26.2051 26.0635 26.5022C26.442 26.7549 26.6201 26.92 27.4392 27.7781C27.7701 28.1247 27.9476 28.2463 28.2978 28.3663C28.4951 28.434 28.5416 28.4361 29.9681 28.4428C31.59 28.4503 31.6334 28.4464 32.012 28.2557C32.3089 28.1062 32.527 27.9162 32.8585 27.5184C33.5007 26.7479 34.2694 26.2287 35.7128 25.5905C37.039 25.0041 38.5104 24.5355 40.3803 24.1042C42.8224 23.5409 44.4949 23.3805 46.3903 23.5279Z" fill="black"/>
</svg>
