<svg width="60" height="60" viewBox="0 0 60 60" fill="none" xmlns="http://www.w3.org/2000/svg">
<circle cx="30" cy="30" r="30" fill="black"/>
<path d="M16.0254 39.132H43.7603V43.7184H16.0254V39.132Z" fill="white"/>
<path d="M16.1984 20.009C16.1984 18.8165 16.1292 17.6598 16.0254 16.4656H20.966L21.1376 18.8913C21.6868 18.0697 23.0276 16.0556 26.5122 16.0556C30.5142 16.0556 31.6517 18.7058 31.9905 19.599C33.4322 16.5779 35.785 16.093 37.5799 16.093C41.0976 16.093 42.5119 18.3691 42.891 19.1142C43.8224 20.7557 43.756 23.0302 43.756 24.6717V34.9886H38.6194V24.2321C38.6194 22.218 38.344 19.9794 35.6884 19.9794C32.6176 19.9794 32.5485 23.0754 32.5485 25.8736V34.9886H27.4088V24.112C27.4088 22.6576 27.3743 19.9716 24.5457 19.9716C21.338 19.9716 21.338 22.9569 21.338 24.2321V34.9886H16.1984V20.009Z" fill="white"/>
</svg>
