<svg width="60" height="60" viewBox="0 0 60 60" fill="none" xmlns="http://www.w3.org/2000/svg">
<path opacity="0.98" d="M30 60C46.5685 60 60 46.5685 60 30C60 13.4315 46.5685 0 30 0C13.4315 0 0 13.4315 0 30C0 46.5685 13.4315 60 30 60Z" fill="#222222"/>
<path fill-rule="evenodd" clip-rule="evenodd" d="M31.6406 6.15234C31.6406 7.0908 30.8799 7.85156 29.9414 7.85156C29.003 7.85156 28.2422 7.0908 28.2422 6.15234C28.2422 5.21389 29.003 4.45312 29.9414 4.45312C30.8799 4.45312 31.6406 5.21389 31.6406 6.15234ZM9.55078 19.8047C10.4892 19.8047 11.25 19.0439 11.25 18.1055C11.25 18.0853 11.2496 18.0651 11.2489 18.0451L11.25 18.0468L18.5892 13.4877C18.9006 13.8402 19.356 14.0625 19.8633 14.0625C20.3282 14.0625 20.7496 13.8758 21.0564 13.5732L27.8969 17.9435C27.8928 17.997 27.8906 18.051 27.8906 18.1055C27.8906 19.2381 28.8088 20.1562 29.9414 20.1562C31.074 20.1562 31.9922 19.2381 31.9922 18.1055C31.9922 18.0687 31.9912 18.0321 31.9893 17.9958L39.0752 13.7044C39.3807 13.9987 39.7962 14.1797 40.2539 14.1797C41.1924 14.1797 41.9531 13.4189 41.9531 12.4805C41.9531 11.542 41.1924 10.7812 40.2539 10.7812C39.3311 10.7812 38.5801 11.5169 38.5553 12.4338L38.5293 12.3909L31.4274 16.6921C31.0538 16.2994 30.5262 16.0547 29.9414 16.0547C29.3754 16.0547 28.8629 16.284 28.4918 16.6548L21.5569 12.2242C21.4861 11.3508 20.7549 10.6641 19.8633 10.6641C19.0207 10.6641 18.3213 11.2773 18.1873 12.0819L10.6186 16.7836C10.3268 16.5476 9.95529 16.4062 9.55078 16.4062C8.61233 16.4062 7.85156 17.167 7.85156 18.1055C7.85156 19.0439 8.61233 19.8047 9.55078 19.8047ZM11.2491 29.9984C11.219 30.9105 10.4702 31.6406 9.55078 31.6406C8.61233 31.6406 7.85156 30.8799 7.85156 29.9414C7.85156 29.003 8.61233 28.2422 9.55078 28.2422C9.99281 28.2422 10.3954 28.411 10.6977 28.6876L17.5187 24.4503C17.481 24.2946 17.4609 24.1321 17.4609 23.9648C17.4609 22.8322 18.3791 21.9141 19.5117 21.9141C20.6443 21.9141 21.5625 22.8322 21.5625 23.9648C21.5625 23.9975 21.5617 24.03 21.5602 24.0623L28.0637 28.2172C28.5472 27.6583 29.2616 27.3047 30.0586 27.3047C30.778 27.3047 31.4302 27.5928 31.9059 28.06L38.2208 24.2354C38.2091 24.1469 38.2031 24.0566 38.2031 23.9648C38.2031 22.8322 39.1213 21.9141 40.2539 21.9141C40.7878 21.9141 41.2741 22.1181 41.639 22.4525L48.7505 18.1455L48.7501 18.1251L48.75 18.1055C48.75 17.167 49.5108 16.4062 50.4492 16.4062C51.3877 16.4062 52.1484 17.167 52.1484 18.1055C52.1484 19.0439 51.3877 19.8047 50.4492 19.8047C50.0382 19.8047 49.6613 19.6588 49.3674 19.4159L42.2882 23.7034C42.2991 23.789 42.3047 23.8763 42.3047 23.9648C42.3047 25.0975 41.3865 26.0156 40.2539 26.0156C39.7231 26.0156 39.2394 25.814 38.8753 25.4831L32.6109 29.277C32.666 29.4893 32.6953 29.7119 32.6953 29.9414C32.6953 30.2157 32.6534 30.4802 32.5757 30.7288L38.6052 34.581C38.9788 34.0768 39.5782 33.75 40.2539 33.75C40.8475 33.75 41.3822 34.0022 41.7567 34.4053L48.7641 30.1614C48.7548 30.0894 48.75 30.0159 48.75 29.9414C48.75 29.003 49.5108 28.2422 50.4492 28.2422C51.3877 28.2422 52.1484 29.003 52.1484 29.9414C52.1484 30.8799 51.3877 31.6406 50.4492 31.6406C50.1006 31.6406 49.7765 31.5356 49.5068 31.3556L42.3031 35.7184L42.3038 35.7409L42.3044 35.7634C42.3045 35.7706 42.3046 35.7779 42.3046 35.7852C42.3047 35.7904 42.3047 35.7956 42.3047 35.8008C42.3047 36.9334 41.3865 37.8516 40.2539 37.8516C39.1881 37.8516 38.3122 37.0386 38.2126 35.9989L31.8127 31.9101C31.3466 32.3256 30.7321 32.5781 30.0586 32.5781C29.3787 32.5781 28.7588 32.3208 28.2912 31.8981L21.9137 35.7606C21.9139 35.774 21.9141 35.7874 21.9141 35.8008C21.9141 36.9334 20.9959 37.8516 19.8633 37.8516C19.3397 37.8516 18.8619 37.6553 18.4995 37.3324L11.25 41.8359L11.2491 41.8344C11.219 42.7464 10.4702 43.4766 9.55078 43.4766C8.61233 43.4766 7.85156 42.7158 7.85156 41.7773C7.85156 40.8389 8.61233 40.0781 9.55078 40.0781C9.99281 40.0781 10.3954 40.2469 10.6977 40.5235L17.8329 36.091C17.8194 35.9962 17.8125 35.8993 17.8125 35.8008C17.8125 34.6682 18.7307 33.75 19.8633 33.75C20.4703 33.75 21.0158 34.0138 21.3913 34.4329L27.5361 30.7114C27.4618 30.4678 27.4219 30.2093 27.4219 29.9414C27.4219 29.7908 27.4345 29.6432 27.4587 29.4995L21.0016 25.3741C20.6278 25.7692 20.0985 26.0156 19.5117 26.0156C19.0587 26.0156 18.64 25.8687 18.3007 25.62L11.25 30L11.2491 29.9984ZM19.8633 49.3359C20.8017 49.3359 21.5625 48.5752 21.5625 47.6367C21.5625 47.6165 21.5621 47.5964 21.5614 47.5764L21.5625 47.5781L28.673 43.2718C29.022 43.5468 29.4626 43.7109 29.9414 43.7109C30.5252 43.7109 31.052 43.467 31.4255 43.0755L38.5589 47.633C38.5561 47.6729 38.5547 47.7132 38.5547 47.7539C38.5547 48.6924 39.3155 49.4531 40.2539 49.4531C41.1924 49.4531 41.9531 48.6924 41.9531 47.7539C41.9531 47.6725 41.9474 47.5924 41.9363 47.514L49.3168 43.0442C49.6173 43.3131 50.0142 43.4766 50.4492 43.4766C51.3877 43.4766 52.1484 42.7158 52.1484 41.7773C52.1484 40.8389 51.3877 40.0781 50.4492 40.0781C49.5222 40.0781 48.7685 40.8205 48.7503 41.7432L41.1793 46.3285C40.913 46.1553 40.5952 46.0547 40.2539 46.0547C39.8709 46.0547 39.5176 46.1814 39.2334 46.3951L31.9895 41.767C31.9913 41.7316 31.9922 41.696 31.9922 41.6602C31.9922 40.5275 31.074 39.6094 29.9414 39.6094C28.8088 39.6094 27.8906 40.5275 27.8906 41.6602C27.8906 41.8026 27.9052 41.9417 27.9328 42.076L20.9323 46.3158C20.6403 46.0792 20.2683 45.9375 19.8633 45.9375C18.9248 45.9375 18.1641 46.6983 18.1641 47.6367C18.1641 48.5752 18.9248 49.3359 19.8633 49.3359ZM31.6406 53.8477C31.6406 54.7861 30.8799 55.5469 29.9414 55.5469C29.003 55.5469 28.2422 54.7861 28.2422 53.8477C28.2422 52.9092 29.003 52.1484 29.9414 52.1484C30.8799 52.1484 31.6406 52.9092 31.6406 53.8477Z" fill="#734CE2"/>
</svg>
