<svg width="60" height="60" viewBox="0 0 60 60" fill="none" xmlns="http://www.w3.org/2000/svg">
<path fill-rule="evenodd" clip-rule="evenodd" d="M30 0C46.566 0 60 13.434 60 30C60 46.566 46.566 60 30 60C13.434 60 0 46.566 0 30C0 13.434 13.434 0 30 0Z" fill="white"/>
<path d="M42.5878 14.2327L40.6091 24.9643L34.3899 24.3802L34.1921 13.5424C34.1483 11.1419 36.1075 9.18549 38.5079 9.23265C41.1191 9.28395 43.0614 11.6643 42.5878 14.2327Z" fill="#CF884E"/>
<path d="M17.4102 14.2327L19.389 24.9643L25.6081 24.3802L25.8059 13.5424C25.8497 11.1419 23.8906 9.18549 21.4902 9.23265C18.879 9.28395 16.9367 11.6643 17.4102 14.2327Z" fill="#CF884E"/>
<path d="M51.1639 38.6727C51.1639 45.7479 41.6884 51.4835 29.9999 51.4835C18.3114 51.4835 8.83594 45.7479 8.83594 38.6727C8.83594 31.5976 18.3114 25.862 29.9999 25.862C41.6884 25.862 51.1639 31.5976 51.1639 38.6727Z" fill="#FFDE91"/>
<path d="M51.1639 35.3204C51.1639 42.3955 41.6884 48.1311 29.9999 48.1311C18.3114 48.1311 8.83594 42.3955 8.83594 35.3204C8.83594 28.2452 18.3114 22.5096 29.9999 22.5096C41.6884 22.5096 51.1639 28.2452 51.1639 35.3204Z" fill="#CF884E"/>
<path fill-rule="evenodd" clip-rule="evenodd" d="M21.6461 9.60066C19.3697 9.60066 17.6242 11.6219 17.9556 13.8741L19.6343 25.2826L18.8342 25.5992C13.2116 27.8241 9.92207 31.4976 9.92207 35.3198V38.6734C9.92207 41.6843 11.9433 44.5911 15.5972 46.8029C19.2309 49.0024 24.3204 50.3981 30 50.3981C35.6796 50.3981 40.7691 49.0024 44.4028 46.8029C48.0567 44.5911 50.0779 41.6843 50.0779 38.6734V35.3198C50.0779 31.5355 46.8549 27.8976 41.3294 25.6646L40.5375 25.3446L42.2246 13.8795C42.556 11.6273 40.8104 9.6061 38.534 9.6061C36.4738 9.6061 34.8037 11.2762 34.8037 13.3364V23.9149L33.6018 23.7859C32.4335 23.6606 31.2299 23.5951 30 23.5951C28.8312 23.5951 27.6861 23.6543 26.5725 23.7677L25.3765 23.8895V13.331C25.3765 11.2708 23.7063 9.60066 21.6461 9.60066ZM15.8066 14.1903C15.2823 10.6267 18.0442 7.42859 21.6461 7.42859C24.9059 7.42859 27.5485 10.0712 27.5485 13.331V21.5055C28.3537 21.451 29.1716 21.4231 30 21.4231C30.8902 21.4231 31.7684 21.4554 32.6316 21.5182V13.3364C32.6316 10.0766 35.2742 7.43404 38.534 7.43404C42.1359 7.43404 44.8979 10.6322 44.3735 14.1957L42.933 23.9854C48.3659 26.3968 52.25 30.443 52.25 35.3198V38.6734C52.25 42.7376 49.5336 46.2362 45.5276 48.661C41.5014 51.0981 36.0089 52.5702 30 52.5702C23.991 52.5702 18.4986 51.0981 14.4724 48.661C10.4664 46.2362 7.75 42.7376 7.75 38.6734V35.3198C7.75 30.393 11.7127 26.3145 17.237 23.9108L15.8066 14.1903Z" fill="#613204"/>
<path d="M24.557 34.4359C24.557 36.3807 23.4547 37.9573 22.0949 37.9573C20.7351 37.9573 19.6328 36.3807 19.6328 34.4359C19.6328 32.4911 20.7351 30.9145 22.0949 30.9145C23.4547 30.9145 24.557 32.4911 24.557 34.4359Z" fill="#633100"/>
<path d="M40.3685 34.4359C40.3685 36.3807 39.2662 37.9573 37.9064 37.9573C36.5467 37.9573 35.4443 36.3807 35.4443 34.4359C35.4443 32.4911 36.5467 30.9145 37.9064 30.9145C39.2662 30.9145 40.3685 32.4911 40.3685 34.4359Z" fill="#633100"/>
</svg>
