<svg width="60" height="60" viewBox="0 0 60 60" fill="none" xmlns="http://www.w3.org/2000/svg">
<circle cx="30" cy="30" r="30" fill="#ECF0F2"/>
<path d="M16.7389 40.2465C16.8406 40.43 16.9034 40.5642 16.9303 40.6239C17.5657 41.8529 18.3447 43.0924 19.4107 43.7963L19.5153 43.862C20.7204 44.6062 22.8793 45.2506 25.0996 45.607C25.2476 43.8978 26.2747 42.3481 27.2929 41.2071C25.9622 41.607 24.5801 41.811 23.1903 41.8126C20.945 41.8152 18.732 41.278 16.7389 40.2465ZM33.7338 33.742C32.4675 33.3349 30.5702 31.4391 27.6891 32.1267C25.3119 32.6935 24.5987 34.3461 24.2204 34.9472C23.3338 34.0761 22.3934 33.4855 21.613 33.3513C21.0194 33.2513 20.6307 33.4318 20.4079 33.5989C20.0042 33.9061 19.9938 33.9166 22.6835 39.4993L22.9077 39.9632C22.9107 39.9721 22.9182 39.9781 22.9227 39.987L23.1649 40.4852C23.1649 40.4852 23.3189 41.0072 24.213 40.7596C24.213 40.7596 30.4057 40.169 32.762 35.8943C33.1058 35.1854 33.4298 34.4673 33.7338 33.7406V33.742ZM9.24391 26.28C9.26334 25.922 9.23942 25.1241 8.7251 24.7139C8.31144 26.2304 8.07366 27.7893 8.01642 29.36C8.50364 29.4098 8.96564 29.6005 9.34557 29.9089C9.23045 29.1706 8.98675 27.9207 9.2454 26.28H9.24391ZM32.5647 45.0045C31.554 43.9127 31.382 41.8708 32.0578 38.9072C32.1116 38.6745 32.17 38.4433 32.2283 38.2151C31.2669 39.2428 29.6641 40.2465 28.6789 41.1981C27.5889 42.2511 26.2164 43.9366 26.0848 45.7458C27.2466 45.886 28.3888 45.9531 29.3846 45.88C31.2983 45.7398 32.2193 45.1581 32.5647 45.0045ZM44.234 19.2788C44.7145 19.8729 45.1165 20.526 45.4301 21.2223C46.1208 22.5199 48.374 26.2114 51.3478 25.5044C51.1791 24.4404 50.9445 23.3878 50.6451 22.3528C50.6241 22.2902 50.6032 22.2276 50.5793 22.1634L50.5897 22.1604C50.2907 21.1641 49.9169 20.1618 49.4579 19.17C47.7505 19.8829 45.7426 19.6532 44.234 19.2788ZM41.1346 11.6512C41.2098 11.7199 41.2619 11.81 41.2841 11.9092C41.3063 12.0084 41.2975 12.112 41.2587 12.2061C40.5216 13.981 38.8441 15.4427 37.4088 16.433C38.7245 16.4136 40.4648 16.6717 42.5027 17.659C43.153 17.9335 46.5484 19.2699 49.0214 18.2795C49.0139 18.2661 49.0034 18.2497 48.9974 18.2348C48.9481 18.1393 48.8943 18.0454 48.8434 17.9514C47.1211 14.9131 44.6805 12.3407 41.7342 10.458C39.5733 9.15008 37.1598 8.31244 34.6518 8C34.8922 9.23087 34.759 10.5053 34.2691 11.6602C38.0637 9.99863 40.0851 10.6937 41.1346 11.6512ZM33.5484 44.557C35.1057 43.8455 36.6312 43.0667 38.1205 42.2228C38.0203 42.1825 37.9276 42.1393 37.8424 42.093C35.9989 41.0878 34.9673 37.6274 34.5023 34.6041C34.4369 34.7754 34.3671 34.945 34.293 35.1128C33.7766 36.4235 33.3544 37.7693 33.0296 39.1398C32.2253 42.6643 32.8293 44.038 33.5484 44.5555V44.557ZM45.4735 27.1302C43.156 28.4144 40.873 29.0602 38.6483 29.0602C37.3979 29.0599 36.1561 28.8533 34.9733 28.4487C35.3844 30.0953 35.0839 31.7554 35.3261 33.2558C35.4383 33.2946 35.5534 33.3349 35.67 33.3707C39.0863 34.4878 41.7402 34.6817 43.3444 33.9315C43.7834 33.7318 44.169 33.4319 44.4702 33.056C45.5916 31.6465 45.5243 28.7037 45.472 27.1302H45.4735Z" fill="#FF6B00"/>
<path d="M40.103 40.9774L40.106 40.9819C42.4877 39.5799 43.9186 36.3418 44.4209 34.4565C44.2191 34.5967 44.0023 34.722 43.7676 34.8324C42.9467 35.2157 41.9779 35.3738 40.9418 35.3738C39.1776 35.3738 37.219 34.9174 35.4727 34.3551C35.9182 37.268 36.893 40.4419 38.3224 41.222C38.8561 41.5129 39.4392 41.4338 40.103 40.9774ZM34.7176 27.2957C35.1242 27.4593 35.54 27.5988 35.9631 27.7134C38.9697 28.5158 42.1528 27.9445 45.4271 26.013C45.3942 24.2083 45.0414 22.7779 44.5271 21.6444C44.388 21.3789 44.3133 21.2118 44.3028 21.191H44.3043C43.7406 20.109 42.9217 19.18 41.9181 18.4839C39.6964 17.4428 37.8768 17.3503 36.6867 17.4831C40.0896 18.818 40.6697 20.7405 40.6966 20.833L40.7205 20.9135C40.7454 21.0015 40.7388 21.0955 40.7016 21.1791C40.6645 21.2627 40.5993 21.3307 40.5172 21.3714L40.4424 21.4087C37.1711 23.0613 34.0762 22.1381 32.3853 21.3461C32.8831 22.5199 33.544 24.089 33.8011 24.696L33.8071 24.693C33.9133 24.9347 34.0164 25.1867 34.1181 25.4477L34.1241 25.4627C34.3439 26.0384 34.5472 26.6499 34.7162 27.2957H34.7176ZM45.8069 41.6486C44.9323 40.3897 44.6452 38.5567 44.6033 36.8713C44.2998 37.5857 43.9844 38.2226 43.6808 38.77L43.6823 38.7715C43.6375 38.8759 43.5822 38.9773 43.5194 39.0817C43.011 40.078 41.3694 43.5682 42.1319 45.8099C42.3532 46.4632 42.7599 46.9435 43.3669 47.2701C43.9844 46.8152 45.78 45.3908 47.5293 43.0044C46.8258 42.7464 46.2227 42.2721 45.8069 41.6501V41.6486ZM12.4166 36.746C11.2863 35.2694 10.4699 33.9986 10.0588 32.6592C9.83301 31.9224 9.0705 30.5353 8 30.3653C8.01495 32.5399 8.35135 34.64 8.96435 36.6207C10.3055 36.394 11.4507 36.4805 12.4166 36.746Z" fill="#FF6B00"/>
<path d="M41.187 46.1261C40.6682 44.5928 41.0525 42.6733 41.5757 41.1206C41.2785 41.354 40.9738 41.5778 40.6622 41.7918L40.6652 41.7962L40.5037 41.8977C40.1204 42.1584 39.7305 42.4096 39.3346 42.6509L39.3376 42.6554C39.1043 42.8 33.7249 46.1947 36.292 51.0407C38.534 50.3491 40.6494 49.301 42.5565 47.9368C41.9086 47.5044 41.426 46.8664 41.187 46.1261ZM51.4853 26.4918C51.1848 26.556 50.8843 26.5903 50.5853 26.5903C49.1081 26.5903 47.6459 25.8012 46.2973 24.2605C46.2938 24.2556 46.2898 24.2511 46.2854 24.2471C46.3766 24.8914 46.4244 25.5686 46.4244 26.2726C46.4393 26.4814 46.4513 26.6902 46.4603 26.8975C46.5649 28.0803 46.9776 30.7053 48.5759 32.1133C49.3548 32.8009 50.3401 33.1141 51.5108 33.0515C51.5212 33.0053 51.5317 32.9516 51.5407 32.8964C51.6513 32.0042 51.7067 31.1061 51.7066 30.2072C51.7081 29.0841 51.6498 27.8267 51.4853 26.4918Z" fill="#FF6B00"/>
<path d="M47.915 32.8546C47.1884 32.2132 46.674 31.3854 46.3107 30.5323C46.2107 31.3341 46.0689 32.1301 45.8861 32.9172C45.756 33.6824 44.9875 38.7312 46.6247 41.0848C47.0164 41.65 47.5083 41.9976 48.1228 42.1497C48.8816 41.0076 49.5256 39.7936 50.0455 38.5253L50.0515 38.5283C50.6436 37.1039 51.0906 35.6049 51.3687 34.0493C50.0156 34.0836 48.8569 33.6839 47.915 32.8546ZM17.0648 42.797C16.5807 42.0826 16.1523 41.3322 15.7835 40.5523C15.1601 39.465 13.2717 36.9801 9.28726 37.5737C10.0902 39.793 11.2485 41.8678 12.7171 43.7173C13.9057 42.4674 15.5802 42.4167 17.0648 42.797ZM29.6671 46.8644C28.2139 46.9852 26.5095 46.8614 24.8589 46.5825C23.6538 46.4557 20.2943 46.3319 17.944 48.4767C20.6993 50.2738 23.8282 51.4223 27.094 51.8356C27.0537 50.3754 27.7325 48.8675 29.0825 47.4416C29.2769 47.2328 29.4743 47.0419 29.6656 46.8644H29.6671ZM18.9337 44.6704C18.385 44.3422 15.1391 42.53 13.3869 44.4511C13.8713 45.0462 15.1257 46.4602 17.1097 47.898C18.4 46.6407 19.9549 46.0217 21.3752 45.7398C20.5163 45.4961 19.6948 45.1363 18.9337 44.6704ZM36.0184 44.4675C34.7924 45.082 31.4912 46.1962 29.6028 48.3469C28.7566 49.3105 28.015 50.5439 28.0928 51.9072C28.7596 51.9803 30.2861 52.0892 32.2791 51.8714L32.5721 51.8386L32.6917 51.8237C33.5828 51.7088 34.459 51.5403 35.3157 51.3195C33.9237 48.5215 34.7939 46.1455 36.0184 44.4675ZM16.6417 33.2752C16.703 33.3229 16.8092 33.3915 17.153 33.3915C17.5657 33.3915 18.3222 33.2916 19.7605 32.9277C21.0015 32.6145 22.8704 32.0551 24.956 31.1379C25.1878 31.0305 25.7783 30.7441 26.4601 30.407C26.6874 30.6606 26.8847 30.9589 27.0133 31.3109C30.9006 30.4637 32.3793 32.1461 34.006 32.7755C34.3394 31.1915 34.2855 29.1169 33.8804 28.0206C30.1037 26.3382 27.6981 23.0732 26.81 21.6906C25.9219 22.3797 24.5972 23.297 23.7928 24.9197C22.1572 28.219 20.4318 31.1856 17.3489 32.1312C16.8211 32.2938 16.4773 32.4235 16.4324 32.8054C16.4241 32.895 16.439 32.9852 16.4757 33.0675C16.5123 33.1498 16.5695 33.2213 16.6417 33.2752Z" fill="#FF6B00"/>
<path d="M19.2522 26.2651C20.1538 25.6178 21.779 24.4603 22.3471 23.995C23.3817 23.1463 26.2419 20.8926 26.9625 20.3244C26.9828 20.3084 27.0065 20.2971 27.0317 20.2914C27.057 20.2858 27.0832 20.2858 27.1084 20.2915C27.1336 20.2972 27.1572 20.3085 27.1775 20.3245C27.1978 20.3405 27.2143 20.3609 27.2257 20.384C29.4534 24.8064 33.5216 26.7364 33.5216 26.7364C33.3467 26.1965 33.1373 25.6476 32.8936 25.0898L32.8981 25.0883L31.5077 21.8159C31.2027 21.1044 30.9664 20.5481 30.8977 20.396L30.2488 18.9149C30.2279 18.8657 30.2847 18.8209 30.3295 18.8522L31.6452 19.7964C31.6826 19.8232 35.4772 22.4677 39.5469 20.7316C39.1342 20.0753 37.9172 18.7031 34.6638 17.8783L33.553 17.5964C33.4737 17.577 33.4633 17.4681 33.538 17.4323L34.5741 16.9461C34.6175 16.9267 38.7694 14.9519 40.1808 12.1613C38.3239 10.8935 35.0825 12.2806 33.2555 13.2561L31.1728 14.3717C31.1234 14.3971 31.0741 14.3359 31.11 14.2927L32.641 12.4984C32.7067 12.4208 34.1944 10.6161 33.6576 8.1029C32.6425 7.94629 29.2022 7.70765 26.1597 10.8801L25.5526 11.514C25.5403 11.5266 25.5247 11.5354 25.5075 11.5394C25.4904 11.5434 25.4724 11.5424 25.4558 11.5366C25.4392 11.5309 25.4246 11.5205 25.4136 11.5067C25.4027 11.4929 25.396 11.4763 25.3942 11.4588L25.14 8.94859C23.621 9.5974 19.6066 11.8391 19.013 17.5845C18.8022 19.6278 18.4703 21.3848 18.0173 22.8778L18.0143 22.8749L17.9545 23.0852C17.796 23.5818 17.6241 24.0472 17.4387 24.4842C17.2938 24.7985 17.1249 25.1012 16.9333 25.3896C16.5999 25.8877 16.7494 26.2203 16.8885 26.3575C17.1576 26.632 18.4882 26.814 19.2522 26.2651ZM23.7585 16.8596C24.4328 16.427 25.149 17.143 24.7169 17.8171C24.6885 17.8619 24.6496 17.9007 24.6047 17.929C23.9289 18.3615 23.2128 17.6456 23.6449 16.9729C23.6748 16.9282 23.7137 16.8894 23.7585 16.8596ZM20.2016 16.8596C20.8774 16.427 21.5921 17.143 21.16 17.8171C21.1316 17.8619 21.0927 17.9007 21.0479 17.929C20.3721 18.3615 19.6559 17.6456 20.0895 16.9729C20.1194 16.9282 20.1568 16.8894 20.2016 16.8596Z" fill="#FF6B00"/>
</svg>
