<svg width="60" height="60" viewBox="0 0 60 60" fill="none" xmlns="http://www.w3.org/2000/svg">
<circle cx="30" cy="30" r="30" fill="url(#paint0_linear_12942_100894)"/>
<path d="M31.841 24.44C32.8025 25.0085 33.7277 25.6364 34.611 26.32C35.3766 27.0643 36.0946 27.8558 36.761 28.69C37.301 28.77 37.501 28.39 37.761 28.03C38.181 27.37 38.581 26.69 39.041 26.03C39.1842 25.7875 39.3882 25.5864 39.6329 25.4468C39.8775 25.3071 40.1543 25.2337 40.436 25.2337C40.7177 25.2337 40.9945 25.3071 41.2392 25.4468C41.4838 25.5864 41.6878 25.7875 41.831 26.03C42.441 26.91 42.991 27.84 43.571 28.75C44.841 30.75 46.131 32.75 47.391 34.7C47.791 35.33 48.161 35.98 48.521 36.63C48.6429 36.7984 48.7205 36.9947 48.7467 37.2009C48.773 37.4071 48.7469 37.6165 48.671 37.81C48.5448 38.055 48.5107 38.3371 48.5749 38.605C48.6391 38.873 48.7974 39.109 49.021 39.27C49.8353 40.0495 50.3696 41.0759 50.541 42.19C50.6555 42.6339 50.6559 43.0995 50.5423 43.5435C50.4286 43.9876 50.2046 44.3957 49.891 44.73C48.7898 45.9211 47.3285 46.7184 45.731 47C44.731 47.2 43.731 47.4 42.731 47.56C41.7043 47.7101 40.6573 47.6368 39.6615 47.3452C38.6656 47.0535 37.7445 46.5503 36.961 45.87C34.9993 44.3382 33.1999 42.6091 31.591 40.71C31.2215 40.2662 30.7656 39.9022 30.251 39.64C29.5221 39.2984 28.9301 38.7205 28.571 38C28.3971 37.5547 28.3197 37.0775 28.3438 36.6C28.3679 36.1225 28.4931 35.6556 28.711 35.23C28.9858 34.681 29.3212 34.1644 29.711 33.69C29.911 33.39 30.111 33.08 30.301 32.76C30.7151 31.9592 31.4038 31.3344 32.241 31C33.0638 30.5951 33.95 30.3346 34.861 30.23C35.1873 30.1574 35.5008 30.036 35.791 29.87C35.3258 28.9238 34.6782 28.0789 33.8853 27.3838C33.0924 26.6888 32.17 26.1573 31.171 25.82C29.551 25.33 27.891 24.97 26.241 24.6C25.7888 24.51 25.3233 24.51 24.871 24.6C22.8232 24.9373 20.9071 25.8297 19.331 27.18C17.7658 28.5917 16.3021 30.1122 14.951 31.73C13.4205 33.6734 12.103 35.7755 11.021 38L10.341 39.3C10.2085 39.3204 10.0736 39.3204 9.94102 39.3C7.68102 38.3 7.50102 37.63 8.85102 35.42C10.921 32.07 12.971 28.71 15.081 25.42C16.691 22.86 18.391 20.36 20.021 17.82C21.371 15.69 22.661 13.53 24.021 11.4C24.9744 9.8867 25.9444 8.39337 26.931 6.92003C27.0864 6.68867 27.2978 6.50043 27.5456 6.37289C27.7934 6.24534 28.0695 6.18263 28.3481 6.19062C28.6267 6.19861 28.8987 6.27703 29.1388 6.41857C29.3788 6.5601 29.5792 6.76015 29.721 7.00003C30.921 8.93003 32.151 10.84 33.361 12.76C33.911 13.63 34.491 14.48 34.991 15.38C35.3909 16.0999 35.5709 16.9213 35.5087 17.7425C35.4465 18.5637 35.1448 19.3486 34.641 20C33.681 21.45 32.791 22.93 31.841 24.44ZM37.541 32.12C36.8515 32.0621 36.1592 32.1935 35.5389 32.5002C34.9185 32.8068 34.3937 33.277 34.021 33.86C33.951 33.96 33.861 34.05 33.781 34.15C33.6034 34.4309 33.3515 34.6571 33.0532 34.8036C32.7549 34.9501 32.4219 35.0112 32.091 34.98C31.7571 34.9612 31.4238 35.0263 31.1215 35.1696C30.8193 35.3128 30.5578 35.5296 30.361 35.8C29.361 36.8 29.451 37.54 30.601 38.32C31.7358 39.1532 32.7814 40.1016 33.721 41.15C34.931 42.39 36.181 43.6 37.501 44.73C38.114 45.2759 38.829 45.6948 39.6049 45.9625C40.3807 46.2303 41.2019 46.3416 42.021 46.29C43.5914 46.2513 45.145 45.9575 46.621 45.42C47.2727 45.2625 47.8743 44.9436 48.3706 44.4928C48.8668 44.042 49.2418 43.4736 49.461 42.84C49.2389 42.2113 48.9784 41.5968 48.681 41C47.997 39.8223 46.942 38.9045 45.681 38.39C44.781 37.98 43.861 37.6 42.991 37.12C41.691 36.41 40.401 35.67 39.161 34.85C38.7959 34.5327 38.5085 34.1359 38.321 33.69C38.021 33.19 37.771 32.62 37.541 32.12ZM31.041 34.12C31.4909 34.2982 31.9901 34.3072 32.4461 34.1454C32.9021 33.9835 33.284 33.6619 33.521 33.24C33.8321 32.7709 34.2371 32.3713 34.7104 32.0667C35.1838 31.762 35.7152 31.5589 36.271 31.47C36.5181 31.3773 36.7505 31.2493 36.961 31.09C36.942 30.9832 36.8981 30.8824 36.8328 30.7958C36.7675 30.7091 36.6827 30.6391 36.5853 30.5914C36.4879 30.5436 36.3806 30.5195 36.2721 30.5211C36.1637 30.5226 36.0571 30.5496 35.961 30.6C34.925 30.8822 33.9037 31.2159 32.901 31.6C32.3931 31.8083 31.9506 32.1493 31.6198 32.5874C31.2891 33.0255 31.0822 33.5445 31.021 34.09L31.041 34.12Z" fill="white"/>
<path d="M19.121 28.64C19.2963 28.5864 19.4779 28.5561 19.661 28.55C22.0803 28.8901 24.5183 29.0805 26.961 29.1201C27.2412 29.1762 27.5133 29.2669 27.771 29.39C27.771 30.39 27.771 31.45 27.771 32.48C27.714 32.8413 27.5208 33.1669 27.231 33.39C26.0777 34.3434 24.9044 35.26 23.711 36.14C22.931 36.7 22.621 36.65 21.821 36.01C21.021 35.37 20.321 34.7 19.491 34.16C19.2239 34.0045 19.0113 33.7701 18.8824 33.4891C18.7535 33.208 18.7146 32.894 18.771 32.59C18.871 31.31 19.021 30 19.121 28.64ZM19.781 29.38C19.611 30.7 19.431 31.79 19.351 32.89C19.351 33.14 19.641 33.48 19.881 33.66C20.681 34.24 21.501 34.8 22.351 35.3C22.4893 35.3688 22.6416 35.4045 22.796 35.4045C22.9505 35.4045 23.1028 35.3688 23.241 35.3C24.391 34.45 25.501 33.54 26.601 32.62C26.8105 32.4297 26.9452 32.1708 26.981 31.89C26.981 31.33 26.981 30.7601 26.981 30.1201C24.581 29.6101 22.271 29.71 19.781 29.38Z" fill="white"/>
<path d="M25.321 31.8701C24.771 32.5501 24.131 32.2501 23.551 32.2801C22.971 32.3101 22.341 32.4001 21.641 32.4701C23.021 31.3601 24.241 31.1601 25.321 31.8701Z" fill="white"/>
<defs>
<linearGradient id="paint0_linear_12942_100894" x1="-2.32282" y1="-0.240478" x2="58.6787" y2="60.0632" gradientUnits="userSpaceOnUse">
<stop stop-color="#15A567"/>
<stop offset="1" stop-color="#0282CB"/>
</linearGradient>
</defs>
</svg>
