<svg width="60" height="60" viewBox="0 0 60 60" fill="none" xmlns="http://www.w3.org/2000/svg">
<path d="M40.1249 57.7929C39.9774 57.7929 39.8299 57.788 39.6826 57.7784L16.9457 56.3411C15.7599 56.2662 14.6124 55.8925 13.61 55.255C12.6076 54.6174 11.783 53.7366 11.2129 52.6947L1.52782 35.1949C0.865661 33.9935 0.559015 32.6286 0.643662 31.2596C0.728309 29.8906 1.20076 28.5738 2.00588 27.463L3.38006 25.577L2.85361 25.1378C2.59567 24.9212 2.38467 24.6542 2.23354 24.3532C2.0824 24.0522 1.99431 23.7236 1.97465 23.3874C1.955 23.0512 2.00418 22.7146 2.11921 22.3981C2.23423 22.0815 2.41268 21.7918 2.64361 21.5466L10.1435 13.6058C10.3882 13.3467 10.6867 13.1444 11.0182 13.0134C11.3496 12.8824 11.7058 12.8257 12.0616 12.8475L12.6297 12.8833L13.7687 11.3202C14.4669 10.3616 15.3951 9.59386 16.4679 9.08765C17.5407 8.58145 18.7237 8.35303 19.908 8.42343L28.8334 8.98732C29.324 7.72317 30.4224 5.49374 32.4372 4.09902C32.3734 3.86647 32.3411 3.62637 32.3414 3.38522C32.3414 1.86573 33.5666 0.628662 35.0733 0.628662C36.5801 0.628662 37.8052 1.86476 37.8052 3.38522C37.8052 4.90568 36.5781 6.14178 35.0714 6.14178C34.9804 6.14178 34.8885 6.13597 34.7956 6.12437C34.392 6.93973 33.9488 8.14681 34.0988 9.32004L42.6449 9.86168C43.8308 9.93615 44.9785 10.3096 45.981 10.9472C46.9834 11.5849 47.808 12.4659 48.3777 13.5081L58.0628 31.0079C58.7248 32.2095 59.0314 33.5745 58.9467 34.9436C58.8621 36.3128 58.3897 37.6297 57.5847 38.7407L45.821 54.8835C45.1668 55.7815 44.3102 56.5128 43.3206 57.0182C42.331 57.5237 41.2362 57.7891 40.1249 57.7929Z" fill="#0C2866"/>
<path d="M35.0712 1.25738C36.2325 1.25738 37.1741 2.21008 37.1741 3.38525C37.1741 4.56041 36.2325 5.51311 35.0712 5.51311C34.8573 5.51311 34.6551 5.47152 34.4606 5.41156C33.8867 6.43487 33.126 8.22615 33.5751 9.9178L42.605 10.4885C43.6847 10.5592 44.7291 10.9008 45.6418 11.4817C46.5545 12.0625 47.306 12.8639 47.8269 13.8118L57.512 31.3116C58.1178 32.4079 58.3984 33.654 58.3211 34.9039C58.2438 36.1539 57.8118 37.356 57.0755 38.3693L45.3127 54.5121C44.6784 55.3868 43.8335 56.0873 42.8562 56.5487C41.8789 57.0102 40.8009 57.2175 39.7221 57.1517L16.9843 55.7134C15.9046 55.6426 14.8601 55.301 13.9474 54.7202C13.0347 54.1393 12.2833 53.3379 11.7624 52.3901L2.0773 34.8903C1.4715 33.794 1.19082 32.5479 1.26811 31.2979C1.34541 30.048 1.77749 28.8459 2.51374 27.8325L4.23437 25.4716L3.25696 24.6543C3.06476 24.4927 2.90755 24.2936 2.79498 24.0692C2.6824 23.8448 2.61681 23.5998 2.60223 23.3492C2.58764 23.0986 2.62437 22.8476 2.71016 22.6117C2.79594 22.3758 2.92899 22.1598 3.10116 21.977L10.6001 14.0362C10.7811 13.8439 11.0021 13.6938 11.2477 13.5965C11.4932 13.4992 11.7571 13.4571 12.0208 13.4733L12.9343 13.5313L14.2765 11.6888C14.9108 10.8141 15.7557 10.1136 16.733 9.65216C17.7103 9.19075 18.7883 8.98337 19.8671 9.04925L29.2609 9.64312C29.5832 8.70202 30.7038 5.9087 33.0622 4.43757L33.2615 4.45015C33.0711 4.1267 32.9699 3.75858 32.9683 3.38331C32.9683 2.21008 33.9099 1.25738 35.0712 1.25738ZM35.0712 0C33.218 0 31.7103 1.51852 31.7103 3.38525C31.7103 3.53323 31.7209 3.68121 31.7403 3.82823C30.008 5.16298 28.9706 7.04615 28.42 8.33157L19.9465 7.79574C18.6568 7.71898 17.3684 7.96752 16.1999 8.51849C15.0315 9.06947 14.0203 9.9052 13.2595 10.9489L12.3237 12.2333L12.1001 12.2188C11.6522 12.1919 11.2038 12.2634 10.7864 12.4284C10.3691 12.5933 9.99305 12.8476 9.68465 13.1734L2.18471 21.1152C1.89511 21.4234 1.67136 21.7873 1.52711 22.1847C1.38285 22.5822 1.32113 23.0048 1.34569 23.4269C1.37101 23.8481 1.48188 24.2597 1.67155 24.6367C1.86122 25.0136 2.12571 25.3481 2.44891 25.6195L2.52342 25.6814L1.49569 27.0916C0.620523 28.2995 0.10699 29.7312 0.0149787 31.2198C-0.0770327 32.7083 0.25627 34.1923 0.976016 35.4987L10.6611 52.9984C11.2821 54.1329 12.1803 55.0919 13.2721 55.7859C14.3638 56.48 15.6136 56.8866 16.9049 56.9679L39.6418 58.4061C40.9315 58.4829 42.2198 58.2344 43.3883 57.6834C44.5568 57.1324 45.568 56.2967 46.3288 55.253L58.0916 39.1102C58.9668 37.9023 59.4803 36.4706 59.5723 34.9821C59.6644 33.4936 59.331 32.0096 58.6113 30.7032L48.9282 13.2025C48.307 12.0681 47.4087 11.1092 46.317 10.4152C45.2253 9.72114 43.9756 9.31446 42.6843 9.23302L34.6986 8.72813C34.7199 8.03077 34.9425 7.33438 35.1893 6.76759C36.9883 6.70472 38.4321 5.21134 38.4321 3.38428C38.4321 1.51852 36.9244 0 35.0712 0V0Z" fill="#0C2866"/>
<path d="M56.192 29.3868C56.0796 29.3866 55.9693 29.3564 55.8725 29.2992C55.7756 29.2421 55.6959 29.1601 55.6414 29.0618L48.4782 16.1186C48.4251 16.0229 48.398 15.9149 48.3995 15.8055C48.4009 15.6961 48.431 15.5889 48.4866 15.4946C48.5422 15.4003 48.6215 15.3222 48.7166 15.2679C48.8117 15.2137 48.9193 15.1852 49.0289 15.1852L49.9821 15.2452C50.3382 15.2679 50.6849 15.3686 50.9977 15.5403C51.3104 15.712 51.5815 15.9504 51.7917 16.2385L58.2552 25.0624C58.4546 25.3339 58.5964 25.6433 58.6717 25.9716C58.747 26.2999 58.7544 26.6401 58.6933 26.9713C58.6322 27.3025 58.5039 27.6177 58.3164 27.8976C58.1289 28.1774 57.8861 28.416 57.603 28.5986L56.5327 29.2862C56.4312 29.3519 56.3129 29.3868 56.192 29.3868Z" fill="#0C2866"/>
<path d="M49.0289 15.8149L49.9424 15.8729C50.4747 15.9068 50.9653 16.1766 51.2837 16.6099L57.7472 25.4348C57.8955 25.6372 58.0009 25.8678 58.057 26.1124C58.1131 26.357 58.1187 26.6104 58.0734 26.8572C58.0281 27.1041 57.9329 27.339 57.7936 27.5478C57.6543 27.7566 57.4739 27.9347 57.2633 28.0714L56.193 28.7581L49.0289 15.8149ZM49.0289 14.5575C48.8101 14.5576 48.5951 14.6148 48.4051 14.7233C48.2152 14.8318 48.0568 14.988 47.9457 15.1764C47.8346 15.3648 47.7746 15.5789 47.7716 15.7975C47.7686 16.0162 47.8227 16.2319 47.9285 16.4232L55.0917 29.3665C55.1753 29.5168 55.2888 29.6484 55.4252 29.7532C55.5616 29.858 55.718 29.9338 55.8848 29.9759C56.0516 30.018 56.2253 30.0256 56.3951 29.9981C56.5649 29.9707 56.7273 29.9088 56.8723 29.8162L57.9427 29.1295C58.2975 28.9001 58.6017 28.6007 58.8367 28.2496C59.0717 27.8985 59.2325 27.5032 59.3092 27.0878C59.3859 26.6724 59.377 26.2458 59.283 25.834C59.1889 25.4222 59.0118 25.0339 58.7623 24.6929L52.2988 15.8681C52.0343 15.5057 51.6933 15.206 51.2999 14.99C50.9066 14.7741 50.4706 14.6472 50.0227 14.6184L49.1082 14.5604C49.0811 14.5575 49.055 14.5575 49.0289 14.5575Z" fill="#0C2866"/>
<path d="M29.1582 9.96713C29.1582 9.96713 30.1995 6.22401 33.063 4.43854L34.9994 4.56137C34.9994 4.56137 32.7011 7.6081 33.6736 10.2525" fill="#0C2866"/>
<path d="M29.1582 9.96713C29.1582 9.96713 30.1995 6.22401 33.063 4.43854L34.9994 4.56137C34.9994 4.56137 32.7011 7.6081 33.6736 10.2525" stroke="#0C2866" stroke-width="0.8138" stroke-miterlimit="10" stroke-linecap="round" stroke-linejoin="round"/>
<path d="M40.1272 57.5578C39.985 57.5578 39.8418 57.553 39.6976 57.5443L16.9597 56.107C15.8135 56.0343 14.7043 55.6729 13.7355 55.0565C12.7666 54.4401 11.9695 53.5887 11.4185 52.5815L1.73339 35.0817C1.09264 33.9196 0.795802 32.5994 0.877537 31.275C0.959272 29.9507 1.4162 28.6769 2.195 27.6023L13.9588 11.4595C14.6336 10.5328 15.5308 9.79069 16.5677 9.30138C17.6047 8.81208 18.7482 8.59131 19.8929 8.65941L42.6308 10.0967C43.777 10.1692 44.8863 10.5305 45.8552 11.147C46.8241 11.7634 47.6211 12.6149 48.172 13.6222L57.8571 31.122C58.4976 32.2843 58.7943 33.6047 58.7125 34.9291C58.6308 36.2536 58.174 37.5275 57.3955 38.6024L45.6317 54.7442C44.9999 55.6125 44.1723 56.3197 43.2159 56.8085C42.2596 57.2974 41.2014 57.5541 40.1272 57.5578Z" fill="#0C2866"/>
<path d="M19.4648 9.03762C19.5983 9.03762 19.7328 9.04149 19.8673 9.05019L42.6052 10.4884C43.6849 10.5592 44.7293 10.9008 45.642 11.4817C46.5547 12.0625 47.3062 12.8639 47.8271 13.8118L57.5122 31.3116C58.1179 32.4078 58.3986 33.6539 58.3213 34.9039C58.244 36.1539 57.812 37.356 57.0757 38.3693L45.3129 54.5121C44.6787 55.3869 43.8338 56.0874 42.8565 56.5488C41.8792 57.0103 40.8011 57.2176 39.7223 57.1516L16.9845 55.7134C15.9048 55.6426 14.8603 55.301 13.9476 54.7202C13.0349 54.1393 12.2834 53.3379 11.7626 52.39L2.07749 34.8903C1.4717 33.794 1.19101 32.5479 1.26831 31.2979C1.3456 30.0479 1.77768 28.8459 2.51394 27.8325L14.2777 11.6887C14.8719 10.8693 15.6515 10.202 16.553 9.74126C17.4545 9.2805 18.4522 9.03939 19.4648 9.03762ZM19.4648 8.25031C18.3283 8.25419 17.2087 8.52557 16.1968 9.04246C15.1848 9.55935 14.3089 10.3072 13.64 11.2255L1.87717 27.3692C1.05424 28.5044 0.571324 29.8502 0.484791 31.2493C0.398259 32.6485 0.711676 34.0435 1.38846 35.2713L11.0735 52.7711C11.6564 53.8364 12.4996 54.7369 13.5245 55.3887C14.5494 56.0405 15.7227 56.4223 16.9351 56.4988L39.673 57.937C40.8837 58.0089 42.0931 57.7753 43.1899 57.2578C44.2867 56.7402 45.2358 55.9554 45.9497 54.9754L57.7134 38.8326C58.5363 37.6973 59.0191 36.3516 59.1056 34.9525C59.1922 33.5533 58.8788 32.1584 58.2021 30.9305L48.5161 13.4297C47.9328 12.3648 47.0896 11.4646 46.0647 10.8129C45.0399 10.1612 43.8668 9.77904 42.6545 9.70209L19.9167 8.26481C19.7662 8.25515 19.6155 8.25031 19.4648 8.25031Z" fill="#0C2866"/>
<path d="M37.9547 52.5033C37.8407 52.5031 37.7268 52.4995 37.613 52.4926L19.6509 51.3561C18.7317 51.2977 17.8421 51.0078 17.065 50.5135C16.2879 50.0192 15.6484 49.3365 15.2061 48.529L7.55621 34.7056C7.0424 33.7738 6.80442 32.7153 6.87005 31.6534C6.93568 30.5916 7.30221 29.5703 7.92685 28.7088L17.219 15.9552C17.7605 15.2123 18.4801 14.6172 19.3117 14.2248C20.1433 13.8324 21.0603 13.6551 21.9783 13.7093L39.9404 14.8458C40.8598 14.904 41.7494 15.1938 42.5266 15.6881C43.3038 16.1824 43.9431 16.8652 44.3852 17.6729L52.0361 31.4973C52.5498 32.4293 52.7877 33.488 52.7221 34.55C52.6564 35.6119 52.29 36.6333 51.6655 37.495L42.3724 50.2467C41.8651 50.9432 41.2008 51.5105 40.4332 51.9025C39.6657 52.2946 38.8166 52.5004 37.9547 52.5033Z" fill="#0C2866"/>
<path d="M21.6344 14.0923C21.7399 14.0923 21.8463 14.0952 21.9528 14.102L39.9139 15.2385C40.7668 15.2945 41.5918 15.5643 42.3129 16.0231C43.0339 16.4819 43.6276 17.1148 44.0394 17.8635L51.6903 31.6869C52.169 32.5529 52.3908 33.5374 52.3298 34.525C52.2688 35.5125 51.9274 36.4623 51.3457 37.2629L42.0536 50.0156C41.5526 50.7067 40.8851 51.2602 40.113 51.6248C39.3409 51.9893 38.4892 52.1531 37.6368 52.1009L19.6757 50.9644C18.8228 50.9084 17.9978 50.6385 17.2767 50.1797C16.5557 49.721 15.962 49.088 15.5503 48.3394L7.89935 34.515C7.42063 33.649 7.19878 32.6645 7.2598 31.6769C7.32082 30.6894 7.66217 29.7396 8.24387 28.939L17.536 16.1863C18.0058 15.5392 18.6219 15.0122 19.3341 14.6483C20.0463 14.2844 20.8345 14.0939 21.6344 14.0923ZM21.6344 13.305C20.7107 13.3081 19.8008 13.5287 18.9783 13.9488C18.1558 14.3689 17.4439 14.9767 16.9002 15.723L7.60807 28.4757C6.93969 29.3982 6.5475 30.4916 6.47725 31.6284C6.407 32.7651 6.66158 33.8984 7.2113 34.8961L14.8622 48.7195C15.336 49.5852 16.0213 50.317 16.8544 50.8467C17.6874 51.3764 18.641 51.6867 19.6263 51.7488L37.5875 52.8853C38.5715 52.9437 39.5545 52.7539 40.446 52.3334C41.3375 51.9129 42.1089 51.2752 42.6894 50.4789L51.9815 37.7262C52.6499 36.8037 53.0421 35.7103 53.1124 34.5735C53.1826 33.4368 52.928 32.3035 52.3783 31.3058L44.7274 17.4824C44.2534 16.6166 43.5679 15.8848 42.7347 15.3551C41.9016 14.8254 40.9478 14.5151 39.9623 14.4531L22.0012 13.3166C21.8791 13.3089 21.7567 13.305 21.6344 13.305Z" fill="#0C2866"/>
<path d="M38.2058 52.5206C38.0975 52.5206 37.9871 52.5167 37.8778 52.51L19.3854 51.3396C18.5455 51.2844 17.7313 51.028 17.0115 50.5922C16.2916 50.1564 15.6872 49.5539 15.2493 48.8355L7.66998 36.4542C7.09845 35.5172 6.82828 34.4275 6.89594 33.3321C6.96361 32.2368 7.36584 31.1885 8.04837 30.3289L17.0928 18.9989C17.6145 18.3393 18.2886 17.816 19.0573 17.474C19.8259 17.132 20.6661 16.9815 21.5057 17.0355L39.9981 18.2049C40.8377 18.2603 41.6517 18.5167 42.3714 18.9525C43.0911 19.3883 43.6954 19.9908 44.1332 20.709L51.7135 33.0903C52.2851 34.0275 52.5552 35.1175 52.4874 36.213C52.4195 37.3086 52.017 38.3569 51.3341 39.2166L42.2906 50.5465C41.8031 51.1624 41.1823 51.66 40.4748 52.0019C39.7674 52.3438 38.9916 52.5211 38.2058 52.5206Z" fill="#0C2866"/>
<path d="M21.1771 17.4185C21.2778 17.4185 21.3794 17.4214 21.48 17.4282L39.9724 18.5976C40.7492 18.6483 41.5023 18.8852 42.168 19.2885C42.8338 19.6917 43.3925 20.2493 43.7969 20.914L51.3772 33.2953C51.9075 34.1632 52.1583 35.1728 52.0956 36.1878C52.033 37.2027 51.6599 38.1739 51.0269 38.97L41.9824 50.2999C41.4987 50.9083 40.8752 51.3911 40.1649 51.7074C39.4547 52.0236 38.6785 52.1639 37.9025 52.1163L19.41 50.947C18.6333 50.8961 17.8803 50.659 17.2146 50.2558C16.5489 49.8526 15.9902 49.2951 15.5856 48.6305L8.0053 36.2492C7.47498 35.3814 7.22418 34.3717 7.28684 33.3568C7.3495 32.3418 7.72259 31.3706 8.35562 30.5746L17.4001 19.2446C17.8519 18.6762 18.4261 18.2168 19.08 17.9006C19.7339 17.5845 20.4507 17.4197 21.1771 17.4185ZM21.1771 16.6312C19.4623 16.6312 17.8607 17.405 16.7846 18.7533L7.74014 30.0842C7.00698 31.0069 6.57486 32.1323 6.50217 33.3084C6.42948 34.4844 6.71973 35.6544 7.3337 36.6603L14.914 49.0416C15.385 49.8136 16.0349 50.461 16.8088 50.9293C17.5827 51.3976 18.4579 51.673 19.3607 51.7324L37.8531 52.9017C38.7559 52.9596 39.6593 52.7978 40.4859 52.4302C41.3124 52.0627 42.0374 51.5003 42.5989 50.7913L51.6433 39.4613C52.3765 38.5386 52.8086 37.4132 52.8813 36.2372C52.954 35.0611 52.6637 33.8911 52.0497 32.8852L44.4695 20.504C43.9985 19.732 43.3486 19.0845 42.5747 18.6162C41.8007 18.1479 40.9255 17.8725 40.0228 17.8132L21.5303 16.6438C21.4128 16.6353 21.295 16.6311 21.1771 16.6312Z" fill="#0C2866"/>
<path d="M37.8361 41.1259C35.6954 40.9905 34.0958 38.5715 34.2709 35.7347C34.4413 32.9839 36.2035 30.829 38.2832 30.829C38.3461 30.829 38.409 30.8309 38.4728 30.8348C40.6135 30.9721 42.2131 33.3902 42.038 36.226C41.8676 38.9768 40.1054 41.1317 38.0257 41.1317C37.9625 41.1307 37.8993 41.1288 37.8361 41.1259Z" fill="#0C2866"/>
<path d="M38.2832 31.2216C38.3384 31.2216 38.3926 31.2236 38.4477 31.2265C40.3755 31.3483 41.8067 33.5749 41.6451 36.1999C41.4874 38.7495 39.8848 40.7371 38.0258 40.7371C37.9706 40.7371 37.9164 40.7351 37.8613 40.7322C35.9336 40.6104 34.5023 38.3839 34.6639 35.7588C34.8216 33.2093 36.4252 31.2216 38.2832 31.2216ZM38.2832 30.4343C35.9955 30.4343 34.061 32.7518 33.8781 35.7105C33.6894 38.764 35.4536 41.3696 37.811 41.5176C37.8826 41.5225 37.9542 41.5244 38.0258 41.5244C40.3135 41.5244 42.248 39.207 42.4309 36.2482C42.6196 33.1948 40.8554 30.5891 38.498 30.4411C38.4265 30.4369 38.3549 30.4347 38.2832 30.4343Z" fill="#0C2866"/>
<path d="M35.071 5.90585C33.6949 5.90585 32.5742 4.77421 32.5742 3.38529C32.5742 1.99444 33.6939 0.86377 35.071 0.86377C36.4481 0.86377 37.5677 1.99541 37.5677 3.38529C37.5677 4.77518 36.4481 5.90585 35.071 5.90585Z" fill="#0C2866"/>
<path d="M35.0713 1.2574C36.2326 1.2574 37.1742 2.21011 37.1742 3.38527C37.1742 4.56044 36.2326 5.51314 35.0713 5.51314C33.91 5.51314 32.9684 4.56044 32.9684 3.38527C32.9684 2.21011 33.91 1.2574 35.0713 1.2574ZM35.0713 0.470093C33.4774 0.470093 32.1807 1.77776 32.1807 3.38527C32.1807 4.99278 33.4774 6.30045 35.0713 6.30045C36.6651 6.30045 37.9619 4.99278 37.9619 3.38527C37.9619 1.77776 36.6651 0.470093 35.0713 0.470093Z" fill="#0C2866"/>
<path d="M4.23448 25.8652C4.14205 25.8655 4.05254 25.8329 3.9819 25.7733L3.00352 24.956C2.77028 24.7598 2.57952 24.5182 2.44289 24.2458C2.30626 23.9734 2.22664 23.6761 2.20888 23.3719C2.19113 23.0677 2.23562 22.7631 2.33964 22.4767C2.44366 22.1903 2.60501 21.9281 2.81385 21.7062L10.3138 13.7654C10.5193 13.5483 10.7668 13.3752 11.0413 13.2567C11.3158 13.1381 11.6115 13.0766 11.9105 13.0757L12.046 13.0796L12.9596 13.1376C13.0299 13.1421 13.0978 13.1653 13.1561 13.2049C13.2144 13.2445 13.261 13.299 13.2911 13.3627C13.3211 13.4264 13.3335 13.497 13.327 13.5672C13.3204 13.6373 13.2951 13.7044 13.2538 13.7615L4.55383 25.7017C4.51719 25.7521 4.46918 25.7932 4.4137 25.8216C4.35822 25.85 4.29682 25.8649 4.23448 25.8652Z" fill="#0C2866"/>
<path d="M11.9087 13.4704C11.9464 13.4704 11.9832 13.4713 12.021 13.4733L12.9345 13.5313L4.23457 25.4706L3.25716 24.6542C3.06495 24.4926 2.90775 24.2936 2.79517 24.0692C2.68259 23.8448 2.61701 23.5998 2.60242 23.3492C2.58784 23.0985 2.62456 22.8476 2.71035 22.6117C2.79614 22.3757 2.92919 22.1598 3.10135 21.977L10.6003 14.0362C10.7683 13.8577 10.971 13.7154 11.196 13.618C11.421 13.5207 11.6635 13.4705 11.9087 13.4704ZM11.9087 12.683C11.2013 12.683 10.5152 12.979 10.0274 13.4955L2.52749 21.4363C2.28214 21.6975 2.0926 22.0058 1.97044 22.3426C1.84829 22.6794 1.79608 23.0375 1.817 23.3951C1.83792 23.7527 1.93153 24.1023 2.09212 24.4226C2.25271 24.7428 2.47691 25.027 2.75103 25.2578L3.72844 26.0741C3.8111 26.144 3.90735 26.1959 4.01113 26.2267C4.1149 26.2575 4.22393 26.2665 4.33134 26.253C4.43848 26.2402 4.54178 26.2053 4.63473 26.1505C4.72768 26.0958 4.80825 26.0223 4.87134 25.9348L13.5713 13.9956C13.6542 13.8816 13.705 13.7474 13.7183 13.6072C13.7317 13.4669 13.7071 13.3256 13.6472 13.198C13.5873 13.0705 13.4942 12.9613 13.3777 12.8819C13.2612 12.8026 13.1255 12.7559 12.9848 12.7469L12.0713 12.6888C12.0172 12.685 11.9629 12.6831 11.9087 12.683Z" fill="#0C2866"/>
<path d="M56.1913 29.1518C56.1209 29.1521 56.0517 29.1334 55.9911 29.0976C55.9305 29.0619 55.8806 29.0104 55.8468 28.9487L48.6836 16.0055C48.6511 15.9455 48.6346 15.8781 48.6358 15.8098C48.637 15.7416 48.6559 15.6748 48.6906 15.616C48.7252 15.5572 48.7746 15.5083 48.8337 15.4742C48.8929 15.4401 48.9598 15.4219 49.0281 15.4213L49.9659 15.4803C50.2875 15.5009 50.6006 15.5921 50.883 15.7474C51.1653 15.9027 51.4099 16.1183 51.5994 16.3788L58.0639 25.2017C58.2442 25.4475 58.3724 25.7274 58.4406 26.0245C58.5087 26.3215 58.5154 26.6294 58.4602 26.9291C58.405 27.2288 58.2891 27.5141 58.1196 27.7674C57.9501 28.0207 57.7306 28.2368 57.4745 28.4022L56.4042 29.0899C56.3403 29.1299 56.2666 29.1513 56.1913 29.1518Z" fill="#0C2866"/>
<path d="M49.0284 15.8149L49.9419 15.8729C50.4742 15.9068 50.9648 16.1766 51.2832 16.6099L57.7467 25.4348C57.895 25.6373 58.0004 25.8678 58.0565 26.1124C58.1126 26.357 58.1182 26.6105 58.0729 26.8573C58.0276 27.1041 57.9324 27.3391 57.7931 27.5478C57.6538 27.7566 57.4734 27.9348 57.2628 28.0714L56.1925 28.7581L49.0284 15.8149ZM49.0284 15.0276C48.8913 15.0275 48.7566 15.0632 48.6376 15.1312C48.5186 15.1992 48.4195 15.297 48.3499 15.4151C48.2804 15.5331 48.243 15.6673 48.2413 15.8042C48.2396 15.9412 48.2737 16.0763 48.3403 16.196L55.5035 29.1392C55.5556 29.2335 55.6266 29.3161 55.712 29.3818C55.7974 29.4475 55.8954 29.4951 55.9999 29.5215C56.1044 29.5478 56.2132 29.5525 56.3195 29.5352C56.4259 29.5178 56.5276 29.4789 56.6183 29.4207L57.6886 28.734C57.9889 28.54 58.2464 28.2868 58.4454 27.99C58.6444 27.6931 58.7807 27.3588 58.846 27.0075C58.9113 26.6541 58.9039 26.2912 58.8242 25.9408C58.7445 25.5905 58.5942 25.26 58.3825 24.9696L51.919 16.1457C51.6954 15.8388 51.4069 15.5849 51.0741 15.4021C50.7413 15.2192 50.3722 15.1118 49.9932 15.0876L49.0787 15.0295L49.0284 15.0276Z" fill="#0C2866"/>
<path d="M37.9547 52.5033C37.8407 52.5031 37.7268 52.4995 37.613 52.4926L19.6509 51.3561C18.7317 51.2977 17.8421 51.0078 17.065 50.5135C16.2879 50.0192 15.6484 49.3365 15.2061 48.529L7.55621 34.7056C7.0424 33.7738 6.80442 32.7153 6.87005 31.6534C6.93568 30.5916 7.30221 29.5703 7.92685 28.7088L17.219 15.9552C17.7605 15.2123 18.4801 14.6172 19.3117 14.2248C20.1433 13.8324 21.0603 13.6551 21.9783 13.7093L39.9404 14.8458C40.8598 14.904 41.7494 15.1938 42.5266 15.6881C43.3038 16.1824 43.9431 16.8652 44.3852 17.6729L52.0361 31.4973C52.5498 32.4293 52.7877 33.488 52.7221 34.55C52.6564 35.6119 52.29 36.6333 51.6655 37.495L42.3724 50.2467C41.8651 50.9432 41.2008 51.5105 40.4332 51.9025C39.6657 52.2946 38.8166 52.5004 37.9547 52.5033Z" fill="#0C2866"/>
<path d="M21.6344 14.0923C21.7399 14.0923 21.8463 14.0952 21.9528 14.102L39.9139 15.2385C40.7668 15.2945 41.5918 15.5643 42.3129 16.0231C43.0339 16.4819 43.6276 17.1148 44.0394 17.8635L51.6903 31.6869C52.169 32.5529 52.3908 33.5374 52.3298 34.525C52.2688 35.5125 51.9274 36.4623 51.3457 37.2629L42.0536 50.0156C41.5526 50.7067 40.8851 51.2602 40.113 51.6248C39.3409 51.9893 38.4892 52.1531 37.6368 52.1009L19.6757 50.9644C18.8228 50.9084 17.9978 50.6385 17.2767 50.1797C16.5557 49.721 15.962 49.088 15.5503 48.3394L7.89935 34.515C7.42063 33.649 7.19878 32.6645 7.2598 31.6769C7.32082 30.6894 7.66217 29.7396 8.24387 28.939L17.536 16.1863C18.0058 15.5392 18.6219 15.0122 19.3341 14.6483C20.0463 14.2844 20.8345 14.0939 21.6344 14.0923ZM21.6344 13.305C20.7107 13.3081 19.8008 13.5287 18.9783 13.9488C18.1558 14.3689 17.4439 14.9767 16.9002 15.723L7.60807 28.4757C6.93969 29.3982 6.5475 30.4916 6.47725 31.6284C6.407 32.7651 6.66158 33.8984 7.2113 34.8961L14.8622 48.7195C15.336 49.5852 16.0213 50.317 16.8544 50.8467C17.6874 51.3764 18.641 51.6867 19.6263 51.7488L37.5875 52.8853C38.5715 52.9437 39.5545 52.7539 40.446 52.3334C41.3375 51.9129 42.1089 51.2752 42.6894 50.4789L51.9815 37.7262C52.6499 36.8037 53.0421 35.7103 53.1124 34.5735C53.1826 33.4368 52.928 32.3035 52.3783 31.3058L44.7274 17.4824C44.2534 16.6166 43.5679 15.8848 42.7347 15.3551C41.9016 14.8254 40.9478 14.5151 39.9623 14.4531L22.0012 13.3166C21.8791 13.3089 21.7567 13.305 21.6344 13.305Z" fill="#0C2866"/>
<path d="M17.5791 34.6794C17.5791 34.6794 21.8304 32.3804 24.9174 35.9803C24.9174 35.9803 25.0355 34.2403 24.5816 33.5729" fill="#0C2866"/>
<path d="M17.5791 34.6794C17.5791 34.6794 21.8304 32.3804 24.9174 35.9803C24.9174 35.9803 25.0355 34.2403 24.5816 33.5729" stroke="#0C2866" stroke-width="0.8138" stroke-miterlimit="10" stroke-linecap="round" stroke-linejoin="round"/>
<path d="M29.1582 9.96713C29.1582 9.96713 30.1995 6.22401 33.063 4.43854L34.9994 4.56137C34.9994 4.56137 32.7011 7.6081 33.6736 10.2525" fill="white"/>
<path d="M29.1582 9.96713C29.1582 9.96713 30.1995 6.22401 33.063 4.43854L34.9994 4.56137C34.9994 4.56137 32.7011 7.6081 33.6736 10.2525" stroke="#0C2866" stroke-width="0.8504" stroke-miterlimit="10"/>
<path d="M42.6053 10.4884L19.8674 9.05018C18.7886 8.98386 17.7104 9.19103 16.733 9.65248C15.7557 10.1139 14.9108 10.8147 14.2768 11.6897L2.51405 27.8325C1.7778 28.8459 1.34572 30.0479 1.26842 31.2979C1.19112 32.5479 1.47181 33.794 2.0776 34.8903L11.7627 52.39C12.2836 53.3379 13.0351 54.1392 13.9478 54.72C14.8605 55.3009 15.9049 55.6425 16.9846 55.7134L39.7224 57.1516C40.8013 57.218 41.8795 57.0108 42.8568 56.5493C43.8342 56.0879 44.6791 55.3871 45.313 54.5121L57.0768 38.3693C57.813 37.3559 58.2451 36.1539 58.3224 34.9039C58.3997 33.6539 58.119 32.4078 57.5132 31.3116L47.8272 13.8108C47.306 12.8633 46.5544 12.0622 45.6417 11.4816C44.7291 10.9009 43.6848 10.5594 42.6053 10.4884Z" fill="white" stroke="#0C2866" stroke-width="0.8504" stroke-miterlimit="10"/>
<path opacity="0.3" d="M39.9141 15.2384L21.9529 14.1019C21.1008 14.0494 20.2492 14.213 19.4772 14.5774C18.7053 14.9418 18.0379 15.4952 17.5372 16.1863L8.24402 28.939C7.6623 29.7394 7.32092 30.689 7.2599 31.6764C7.19889 32.6638 7.42076 33.6481 7.89951 34.514L15.5504 48.3384C15.962 49.0872 16.5557 49.7202 17.2768 50.179C17.9978 50.6378 18.8229 50.9076 19.6759 50.9634L37.637 52.0999C38.4891 52.1524 39.3407 51.9889 40.1127 51.6245C40.8847 51.2601 41.552 50.7066 42.0528 50.0155L51.3449 37.2628C51.9267 36.4624 52.268 35.5129 52.329 34.5254C52.3901 33.538 52.1682 32.5537 51.6894 31.6878L44.0385 17.8634C43.6273 17.1146 43.0337 16.4816 42.3128 16.0227C41.5919 15.5639 40.7669 15.2942 39.9141 15.2384Z" fill="white"/>
<path d="M39.9726 18.5976L21.4802 17.4282C20.704 17.3802 19.9277 17.5203 19.2174 17.8365C18.507 18.1528 17.8836 18.6359 17.4002 19.2446L8.35576 30.5746C7.7226 31.3706 7.34943 32.3418 7.28677 33.3568C7.22411 34.3718 7.47499 35.3815 8.00544 36.2492L15.5857 48.6305C15.9902 49.2952 16.5489 49.8528 17.2146 50.256C17.8803 50.6592 18.6334 50.8962 19.4102 50.947L37.9026 52.1164C38.6788 52.1644 39.455 52.0243 40.1654 51.708C40.8757 51.3918 41.4991 50.9087 41.9826 50.2999L51.027 38.97C51.6602 38.174 52.0333 37.2028 52.096 36.1878C52.1586 35.1728 51.9078 34.1631 51.3773 33.2954L43.7971 20.9141C43.3924 20.2495 42.8337 19.692 42.168 19.2888C41.5023 18.8856 40.7493 18.6485 39.9726 18.5976Z" fill="white"/>
<path d="M41.6441 36.1883C41.8014 33.5633 40.3659 31.3417 38.4378 31.2262C36.5097 31.1108 34.8192 33.1453 34.6618 35.7703C34.5045 38.3954 35.94 40.617 37.8681 40.7324C39.7962 40.8478 41.4868 38.8134 41.6441 36.1883Z" fill="#0C2866"/>
<path d="M35.0716 5.51312C36.233 5.51312 37.1745 4.56044 37.1745 3.38525C37.1745 2.21006 36.233 1.25739 35.0716 1.25739C33.9102 1.25739 32.9688 2.21006 32.9688 3.38525C32.9688 4.56044 33.9102 5.51312 35.0716 5.51312Z" fill="white" stroke="#0C2866" stroke-width="0.9217" stroke-miterlimit="10"/>
<path d="M4.23389 25.4715L3.25648 24.6542C3.06428 24.4926 2.90708 24.2936 2.7945 24.0691C2.68192 23.8447 2.61633 23.5997 2.60175 23.3491C2.58716 23.0985 2.62389 22.8476 2.70968 22.6117C2.79547 22.3757 2.92851 22.1598 3.10068 21.977L10.5996 14.0362C10.7807 13.8438 11.002 13.6936 11.2477 13.5963C11.4934 13.499 11.7575 13.457 12.0212 13.4732L12.9348 13.5313L4.23389 25.4715ZM56.1915 28.7581L57.2618 28.0704C57.4724 27.9338 57.6528 27.7556 57.7921 27.5468C57.9314 27.3381 58.0266 27.1031 58.0719 26.8563C58.1172 26.6095 58.1116 26.356 58.0555 26.1114C57.9994 25.8668 57.894 25.6363 57.7457 25.4338L51.2822 16.6099C51.1263 16.3963 50.9254 16.2196 50.6936 16.0923C50.4618 15.9649 50.2048 15.89 49.9409 15.8729L49.0274 15.8149L56.1915 28.7581Z" fill="white" stroke="#0C2866" stroke-width="0.9217" stroke-miterlimit="10"/>
<path d="M39.9141 15.2384L21.9529 14.1019C21.1008 14.0494 20.2492 14.213 19.4772 14.5774C18.7053 14.9418 18.0379 15.4952 17.5372 16.1863L8.24402 28.939C7.6623 29.7394 7.32092 30.689 7.2599 31.6764C7.19889 32.6638 7.42076 33.6481 7.89951 34.514L15.5504 48.3384C15.962 49.0871 16.5557 49.7202 17.2768 50.179C17.9978 50.6378 18.8229 50.9076 19.6759 50.9634L37.637 52.0999C38.4891 52.1524 39.3407 51.9889 40.1127 51.6245C40.8847 51.2601 41.552 50.7066 42.0528 50.0155L51.3449 37.2628C51.9267 36.4624 52.268 35.5129 52.329 34.5254C52.3901 33.538 52.1682 32.5537 51.6894 31.6878L44.0385 17.8634C43.6273 17.1146 43.0337 16.4816 42.3128 16.0227C41.5919 15.5639 40.7669 15.2942 39.9141 15.2384V15.2384Z" stroke="#0C2866" stroke-width="0.9217" stroke-miterlimit="10"/>
<path d="M17.5791 34.6794C17.5791 34.6794 21.8304 32.3804 24.9174 35.9803C24.9174 35.9803 25.0355 34.2403 24.5816 33.5729" stroke="#0C2866" stroke-width="0.9217" stroke-miterlimit="10" stroke-linecap="round" stroke-linejoin="round"/>
</svg>
