<svg width="60" height="60" viewBox="0 0 60 60" fill="none" xmlns="http://www.w3.org/2000/svg">
<path d="M30 60C46.5685 60 60 46.5685 60 30C60 13.4315 46.5685 0 30 0C13.4315 0 0 13.4315 0 30C0 46.5685 13.4315 60 30 60Z" fill="#FFFFE9"/>
<path d="M42.4858 17.8895C42.4858 17.8895 44.1656 13.7186 43.9483 12.7628C43.7456 11.8361 43.7311 11.5464 42.2106 10.4168C41.6023 10.692 40.5162 11.083 39.6328 10.9092C38.3294 10.663 37.6633 10.2141 37.0405 9.66379C36.4178 9.11348 36.0847 8.30251 36.0269 7.82461C36.0124 7.70876 36.1427 7.62187 36.2441 7.69428C36.7799 8.08528 37.2144 8.79489 38.7349 9.30175C39.6038 9.59138 40.3134 9.50449 40.7479 9.35967C38.8218 8.02736 36.0269 6.20265 34.3614 5.65234C32.2326 4.95722 31.2768 6.31851 31.2768 6.31851L29.2783 9.47553C29.2783 9.47553 32.6381 9.9679 36.0703 11.894C39.488 13.8055 42.4858 17.8895 42.4858 17.8895Z" fill="#3800D6"/>
<path d="M47.8447 22.6249C47.4247 22.6828 46.7875 22.6828 45.9331 22.4655C42.5878 21.5242 40.5314 16.0068 34.7386 12.5311C25.4848 7.75211 20.5175 12.0676 20.5175 12.0676C19.8803 12.5022 20.5321 12.7773 20.5321 12.7773L23.5732 14.3124L25.007 15.0654C25.007 15.0654 24.0946 16.2384 22.2409 15.3405C21.6327 15.0799 20.4163 15.0075 19.4749 15.8474C18.4467 16.4122 18.8956 18.0487 18.1426 19.0914C17.404 20.134 15.9268 19.9603 15.7676 21.4663C15.6373 23.0014 16.8537 23.291 16.8826 24.4351C16.9117 25.5792 16.4917 26.2309 16.3757 26.535C16.3323 26.6653 16.3034 26.8245 16.3034 26.9839C16.3179 27.2011 16.4193 27.4183 16.564 27.5922C16.6799 27.7225 16.7813 27.8094 16.8971 27.8817C17.3895 28.2148 17.8095 28.6492 18.0847 29.1706C18.1281 29.2575 18.1715 29.3444 18.2295 29.4313C18.2729 29.5038 18.3164 29.5906 18.3743 29.6919C18.6929 30.2568 18.8233 30.9229 18.7073 31.5746C18.6784 31.7484 18.6929 31.9512 18.7508 32.1394C18.8667 32.487 19.1708 32.7476 19.5328 32.849C20.0686 32.9793 20.5321 33.2979 20.8507 33.7468C20.8796 33.7758 20.8941 33.8193 20.923 33.8482C21.3575 34.4565 21.2707 35.4122 21.4444 36.1074C21.6182 36.8025 22.1974 37.0197 23.0374 37.4977C23.8773 37.9755 24.0512 38.7285 23.7035 39.0907C23.356 39.4527 21.2996 38.5693 20.4741 39.554C19.8659 40.1188 20.1266 40.4809 19.8225 41.5525C19.5183 42.6386 18.5915 41.8422 18.0992 42.5952C17.6067 43.3483 17.5343 44.1592 17.7806 45.7668C18.0267 47.3742 19.5908 49.59 19.5908 49.59C19.5908 49.59 18.7508 46.6646 20.5755 44.1592C22.1251 42.3345 23.3126 42.0884 25.0648 42.0594C26.8316 42.0159 29.4383 43.6089 29.9741 46.737C30.2493 48.8079 29.1197 50.0098 29.0329 50.1258C28.8301 50.3575 27.1647 52.1966 24.949 50.9656C24.3407 50.5456 23.8049 50.1112 23.4429 49.2714C23.1823 48.5037 23.1098 47.4756 23.5443 46.7804C23.9063 46.2012 24.4856 46.0274 24.6593 46.0129C24.92 45.984 25.4848 45.9984 25.8469 46.2735C26.2089 46.5487 26.5999 46.9542 26.5275 47.6493C26.4551 48.3445 25.7311 48.5472 25.4559 48.4893C25.2242 48.4459 25.3834 48.4748 25.4414 48.4893C24.9925 48.4603 24.7897 48.1128 24.7028 47.8665C24.6884 47.8087 24.6014 47.8231 24.587 47.881C24.4567 48.8368 25.1807 49.4451 25.6151 49.5464C26.0931 49.6478 26.8027 49.6334 27.3819 49.0396C27.8888 48.5328 28.1639 48.0982 28.1639 46.9832C28.1639 46.0708 27.7874 45.4336 27.1647 44.8833C26.3537 44.1303 25.282 43.8406 24.5435 43.8986C23.8484 43.9564 22.6319 44.2461 21.8354 45.506C21.0969 46.6646 20.7783 48.2576 21.401 50.0389L21.4299 50.0967C22.8491 53.413 26.1655 54.253 28.4536 54.253C28.9171 54.253 29.3369 54.224 29.6846 54.1662C29.7569 54.1516 31.3934 53.9055 32.9864 52.9207C34.9559 51.6174 36.1289 49.7347 36.1289 46.8238C36.1289 42.9572 34.4345 40.3795 30.959 36.3536C30.2927 35.5281 27.5847 32.1829 27.0923 31.5312C24.6739 28.4031 21.9657 24.7248 23.3126 21.9297C23.356 21.8428 23.3995 21.7705 23.4429 21.6836C25.4559 17.9907 31.1327 18.9031 29.8873 19.1348C27.7295 19.4968 26.4406 20.4526 26.0497 20.8725C25.6586 21.2925 25.4414 21.6546 25.1807 22.3352C24.7318 23.4504 25.0939 25.1737 26.0497 26.6798C30.2059 32.5738 36.3461 39.916 37.0991 41.6829C38.0695 43.913 38.2143 45.6799 38.1998 46.766C38.1854 47.8521 37.9246 49.59 37.9246 49.59C37.9246 49.59 39.3584 48.4459 40.039 47.0556C40.7197 45.6654 40.8355 44.9991 40.6328 44.4778C40.4155 43.9564 39.8797 43.942 39.6625 43.0876C39.4453 42.2331 40.0534 41.4801 39.4162 40.1188C39.1411 39.5251 37.6785 38.6562 36.9254 37.7004C36.1724 36.7446 34.7966 35.0358 33.7684 33.66C31.9148 31.198 31.3065 30.3582 30.2349 28.9678C31.3934 29.3155 32.8415 29.7933 36.1724 28.2438C39.257 29.8224 41.3713 29.7354 42.1099 29.6919C42.8485 29.6485 43.5436 29.3155 44.0794 28.8955C44.4269 28.6203 44.6876 28.07 44.8469 27.708C44.9049 27.5776 44.7746 27.4617 44.6441 27.5052C42.0519 28.5769 39.6625 27.708 36.7227 26.0715L36.2013 25.7818L35.68 26.057C32.5954 27.708 29.3515 26.419 29.0618 26.3032C28.946 26.2453 28.0625 25.7818 27.6716 24.9999C27.2806 24.2179 27.1936 23.3924 27.4833 22.6972C27.715 22.1325 28.2653 21.756 29.1632 21.5677C29.9018 21.4808 30.8576 21.756 31.6251 22.06C31.7989 22.1325 31.9582 21.9588 31.8857 21.7994C31.7989 21.5677 31.7409 21.3216 31.7409 21.0608C31.7409 20.6264 31.8857 20.2353 32.1175 19.9167L33.1456 20.3947C32.9719 20.5684 32.8705 20.8291 32.8995 21.1188C32.9429 21.4953 33.2615 21.8139 33.6381 21.8574C34.1449 21.9297 34.5649 21.5532 34.6083 21.0753L35.5786 21.5242C35.4049 22.2339 34.8545 22.7841 34.1449 22.958C34.0001 22.9869 33.9856 23.1752 34.1305 23.2186C35.4483 23.8413 39.3004 25.6371 39.3004 25.6371C39.3004 25.6371 41.5306 26.8825 43.4857 26.6364C45.3682 26.535 46.2082 25.0434 45.0931 25.1881C43.978 25.3329 41.3423 24.1888 41.3423 24.1888L39.5756 23.3635L40.3142 22.2194C40.3142 22.2194 42.8339 23.653 45.0641 24.1454C46.5413 24.464 47.5406 23.6241 48.0473 23.0158C48.2067 22.8566 48.0619 22.596 47.8447 22.6249ZM27.2227 17.5996C26.2814 17.7156 24.8476 18.15 24.0367 18.541C23.7326 18.6859 23.4718 18.8306 23.2546 18.961C22.5451 19.4244 21.9079 20.1195 21.401 21.0753C19.417 24.9274 23.0519 29.6485 25.9772 33.4428C26.4695 34.08 26.9185 34.6737 27.3241 35.224C27.9467 36.0784 28.6274 36.9183 29.2935 37.7149C31.0024 39.8148 32.885 42.045 33.6959 44.5213C33.9133 45.3902 33.9422 46.2012 33.8408 46.8529C33.4933 48.8803 31.7265 49.5754 31.7265 49.5754C31.9871 48.7354 32.132 47.6493 31.9726 46.404V46.3749C31.4368 43.4641 29.0763 40.8864 29.0763 40.8864C28.5115 40.1334 27.9033 39.3513 27.4109 38.7141C22.4437 32.3276 21.9513 31.6035 20.7783 29.4747L20.7638 29.4458C20.7349 29.3878 20.6914 29.3155 20.6479 29.243C19.9672 28.0989 18.1426 25.0434 18.9391 21.8428C19.1273 21.1042 19.4605 20.4381 19.9383 19.8589C22.8491 16.0791 28.4246 17.368 27.2227 17.5996Z" fill="#3800D6"/>
</svg>
