<svg width="60" height="60" viewBox="0 0 60 60" fill="none" xmlns="http://www.w3.org/2000/svg">
<path fill-rule="evenodd" clip-rule="evenodd" d="M30 60C13.5 60 0 46.5003 0 29.8506C0.15 13.351 13.5 -0.148759 30.15 0.00123801C46.65 0.151235 60 13.501 60 30.3006C59.85 46.6503 46.5 60 30 60Z" fill="#0E1018"/>
<path fill-rule="evenodd" clip-rule="evenodd" d="M30.5376 52C32.5398 52 37.6761 51.0974 42.2029 47.4868C47.4083 43.3349 47.8988 41.0194 48.2151 39.5264C48.2426 39.3966 48.2688 39.2728 48.2968 39.1546C48.3495 38.9309 48.3804 38.6271 48.391 38.266C47.2976 38.089 45.7651 37.9876 43.9766 38.1999C41.0516 38.5471 38.7533 40.5433 37.9698 41.498C37.5345 39.3282 35.4104 34.9885 30.396 34.9885C25.3817 34.9885 22.6772 39.3282 21.9517 41.498C21.4874 40.6879 19.7579 38.8942 16.5543 38.1999C14.5735 37.7706 12.8456 37.9827 11.6094 38.344C11.707 39.9574 12.2373 41.6784 13.6489 43.4943C16.0777 46.6188 19.8463 48.5482 21.5277 49.4091C21.7145 49.5047 21.8756 49.5872 22.0061 49.6566C23.312 50.3509 26.8812 52 30.5376 52Z" fill="white"/>
<path fill-rule="evenodd" clip-rule="evenodd" d="M48.3868 38.2025C47.294 38.026 45.7624 37.9249 43.975 38.1366C41.0517 38.4828 38.7547 40.4733 37.9717 41.4253C37.5367 39.2617 35.4138 34.9344 30.4023 34.9344C25.3909 34.9344 22.6879 39.2617 21.9629 41.4253C21.4989 40.6175 19.7704 38.8289 16.5686 38.1366C14.589 37.7085 12.8621 37.92 11.6266 38.2804C11.5376 36.8131 11.8083 35.4352 12.0988 34.1555C12.586 32.0092 13.8099 29.1648 14.3609 28.0108C13.8679 26.828 12.7252 23.4759 12.0988 19.5294C11.4724 15.583 12.5338 12.9231 13.1429 12.0865C14.1289 12.3462 16.4838 13.1597 18.0151 14.3367C19.5464 15.5137 21.9013 18.1158 22.8874 19.2698C24.1634 18.9236 27.4464 18.2312 30.3698 18.2312C33.2931 18.2312 36.1121 18.9236 37.1561 19.2698C38.0262 18.2312 40.1665 15.7907 41.7674 14.3367C43.3682 12.8828 45.9724 12.1731 47.0746 12C47.3645 12.375 47.9795 13.4713 48.1187 14.856C48.2927 16.5869 47.7707 20.2218 47.0746 22.645C46.5178 24.5836 45.7984 26.8569 45.5085 27.7512C45.6535 28.0685 46.1524 29.1013 46.9876 30.6937C47.8733 32.3824 48.4458 36.1885 48.3868 38.2025Z" fill="#FFAA35"/>
<path d="M34.1092 45.9044C33.9023 46.1812 33.6782 46.7119 33.592 46.9425V46.856L33.3334 44.7797C32.8449 44.8373 31.5748 44.9527 30.4023 44.9527C29.2299 44.9527 27.8449 44.8373 27.2989 44.7797L27.2127 46.856C27.1552 46.7695 27.0058 46.5273 26.8679 46.2504C26.6954 45.9044 26.092 45.3853 26.092 45.1258C26.092 44.9181 25.8046 44.4625 25.661 44.2606L25.4023 43.9146H26.9541L27.2989 44.1741C27.5863 44.1452 28.3161 44.1222 28.9368 44.2606C29.5575 44.399 29.9425 43.8569 30.0575 43.5685V42.1843C29.7989 42.0113 29.161 41.6133 28.6782 41.4057C28.0748 41.1461 27.4713 40.108 27.6437 39.0698C27.8161 38.0316 28.3334 37.6856 28.6782 37.7721C29.023 37.8586 31.2644 37.6856 31.6092 37.7721C31.9541 37.8586 32.5575 38.0316 32.8161 38.4642C33.0748 38.8968 32.9023 40.6271 32.3851 41.2326C31.9713 41.7171 31.1782 42.0689 30.8334 42.1843V43.5685C30.8334 43.7415 31.4368 44.1741 31.523 44.2606C31.6092 44.3471 32.9023 44.2606 33.161 44.2606C33.3679 44.2606 33.5346 44.0876 33.592 44.0011H35.0575V44.3471C35.0575 44.5202 34.7989 45.2988 34.7127 45.3853C34.6265 45.4718 34.3679 45.5583 34.1092 45.9044Z" fill="black"/>
<path d="M31.3359 45.3333L30.4602 46.023L29.7596 45.3333L29.1465 45.6399L28.6211 45.1035H32.2993L31.7738 45.7165L31.3359 45.3333Z" fill="black"/>
<path d="M21.9108 31.1866C20.8848 30.7622 19.7733 30.4792 19.3458 30.3908C19.2318 30.4497 19.0038 30.6384 19.0038 30.9213C19.0038 31.275 18.9183 31.6287 19.0038 32.336C19.0893 33.0433 19.7733 33.4854 20.9703 34.0159C22.1673 34.5464 24.2193 34.9885 25.6728 34.9885C27.1263 34.9885 25.7583 33.4854 25.2453 33.1317C24.7323 32.7781 23.1933 31.7171 21.9108 31.1866Z" fill="black"/>
<path d="M23.3151 28.8401C22.5484 28.9772 21.4854 29.0115 21.0498 29.0115C20.6141 28.9544 19.6905 28.6858 19.4814 28.0688C19.22 27.2975 19.9171 26.4406 20.7884 26.0121C21.6597 25.5836 22.7923 25.755 23.4894 26.7834C24.1864 27.8117 24.2735 28.6687 23.3151 28.8401Z" fill="white"/>
<path d="M39.009 30.7268C40.035 30.3024 41.1465 30.0194 41.574 29.931C41.688 29.9899 41.916 30.1786 41.916 30.4615C41.916 30.8152 42.0015 31.1689 41.916 31.8762C41.8305 32.5836 41.1465 33.0256 39.9495 33.5561C38.7525 34.0866 36.7005 34.5287 35.247 34.5287C33.7935 34.5287 35.1615 33.0256 35.6745 32.672C36.1875 32.3183 37.7265 31.2573 39.009 30.7268Z" fill="black"/>
<path d="M36.2259 28.8401C36.9927 28.9772 38.0557 29.0115 38.4913 29.0115C38.927 28.9543 39.8505 28.6858 40.0596 28.0688C40.321 27.2975 39.624 26.4406 38.7527 26.0121C37.8814 25.5836 36.7487 25.755 36.0517 26.7834C35.3546 27.8117 35.2675 28.6687 36.2259 28.8401Z" fill="white"/>
<path d="M17.3238 22.425C16.6972 23.1093 15.4963 24.649 14.9742 25.3333C14.6261 24.592 13.8604 22.6132 13.5819 20.6287C13.3034 18.6442 13.5239 15.5819 13.6689 14.2988C14.046 14.3273 15.1483 14.641 16.5406 15.6674C17.9329 16.6939 19.9634 18.6043 20.8046 19.4311C19.9054 20.144 17.9503 21.7407 17.3238 22.425Z" fill="#FF8C30"/>
<path fill-rule="evenodd" clip-rule="evenodd" d="M13.4482 15.9282C14.8167 16.4993 16.6181 17.3722 17.373 18.1612C18.1388 18.9616 18.8125 20.0211 19.2124 20.7356C19.8128 20.2378 20.4095 19.7595 20.8046 19.4487C19.954 18.619 17.9009 16.7021 16.4931 15.6721C15.0853 14.6422 13.9708 14.3274 13.5895 14.2988C13.544 14.6985 13.4911 15.2702 13.4482 15.9282Z" fill="#FF9A32"/>
<path d="M42.2162 22.425C42.8427 23.1093 44.0436 24.649 44.5657 25.3333C44.9138 24.592 45.6796 22.6132 45.958 20.6287C46.2365 18.6442 46.016 15.5819 45.871 14.2988C45.4939 14.3273 44.3917 14.641 42.9993 15.6674C41.607 16.6939 39.5765 18.6043 38.7354 19.4311C39.6346 20.144 41.5896 21.7407 42.2162 22.425Z" fill="#FF8C30"/>
<path fill-rule="evenodd" clip-rule="evenodd" d="M46.0917 15.9282C44.7231 16.4993 42.9218 17.3722 42.1669 18.1612C41.401 18.9616 40.7274 20.0211 40.3276 20.7356C39.7272 20.2378 39.1304 19.7595 38.7354 19.4487C39.5858 18.619 41.639 16.7021 43.0468 15.6721C44.4546 14.6422 45.569 14.3274 45.9504 14.2988C45.9959 14.6985 46.0487 15.2702 46.0917 15.9282Z" fill="#FF9A32"/>
</svg>
