<svg width="60" height="60" viewBox="0 0 60 60" fill="none" xmlns="http://www.w3.org/2000/svg">
<path fill-rule="evenodd" clip-rule="evenodd" d="M30 60C46.5 60 60 46.5 60 30C60 13.5 46.5 0 30 0C13.5 0 0 13.5 0 30C0 46.5 13.5 60 30 60Z" fill="url(#paint0_linear)"/>
<path fill-rule="evenodd" clip-rule="evenodd" d="M44.0169 37.593L47.4357 39.5465C48.1683 40.0349 48.1684 40.7674 47.1915 41.5C46.9473 42.2326 46.2147 42.2326 45.4821 41.9884L42.0633 40.0349L42.7959 42.7209C43.0401 43.6977 42.3075 44.4302 41.5749 44.4302C41.0865 44.4302 40.5981 43.9419 40.3539 43.4535L39.6213 40.2791C39.3771 39.0581 38.4003 37.8372 37.1793 37.1047C35.9583 36.3721 34.493 36.3721 33.272 37.1047L33.0278 37.3488C31.8068 38.0814 31.0742 39.3023 31.0742 40.7674C31.0742 42.2326 31.8068 43.6977 32.7836 44.6744L34.9814 46.8721C35.7141 47.6047 35.2256 49.0698 34.0046 49.0698C33.5162 49.0698 33.272 48.8256 33.0278 48.5814L31.0742 46.6279V50.7791C31.0742 51.5116 30.5858 52 29.8532 52C29.1206 52 28.6322 51.5116 28.6322 50.7791V46.6279L26.6786 48.5814C26.1902 49.0698 25.4576 49.0698 24.9692 48.5814C24.4808 47.8488 24.4808 47.1163 24.9692 46.6279L26.9228 44.6744C28.1438 43.6977 28.6322 42.2326 28.6322 40.7674C28.6322 39.3023 27.8996 38.0814 26.6786 37.3488L26.4344 37.1047C25.2134 36.3721 23.7482 36.3721 22.5271 37.1047C21.3061 37.8372 20.3293 38.814 20.0851 40.2791L19.3525 43.4535C19.3525 44.186 18.6199 44.6744 17.8873 44.4302C17.1547 44.186 16.6663 43.4535 16.9105 42.7209L17.6431 40.0349C14.2925 41.9195 13.9948 42.188 13.6699 42.2262C13.616 42.2326 13.5613 42.2326 13.4917 42.2326C12.0265 42.2326 11.5381 40.5233 12.7591 39.7907L16.1779 37.8372L13.4917 37.1047C12.7591 36.8605 12.2707 36.1279 12.5149 35.3953C12.5149 34.6628 13.2475 34.1744 13.9801 34.4186L16.9105 34.907C18.3757 35.3953 19.8409 35.1512 21.0619 34.4186C22.2829 33.686 23.0156 32.4651 23.0156 31V30.5116C23.0156 29.0465 22.2829 27.8256 21.0619 27.093C19.8409 26.3605 18.3757 26.1163 16.9105 26.6047C13.8874 27.4683 13.7284 27.5683 13.5633 27.5799C13.5417 27.5814 13.5199 27.5814 13.4917 27.5814C13.0033 27.5814 12.5149 27.093 12.2707 26.6047C12.0265 25.8721 12.5149 25.1395 13.2475 24.8953L15.9337 24.1628L12.5149 22.2093C12.0265 21.9651 11.7823 20.9884 12.0265 20.5C12.5149 19.7674 13.2475 19.5233 13.9801 20.0116L17.3989 21.9651L16.6663 19.2791C16.4221 18.5465 16.9105 17.814 17.3989 17.5698C18.1315 17.3256 18.8641 17.814 19.1083 18.5465L20.3293 21.7209C20.5735 22.9419 21.5503 24.1628 22.7713 24.8953C23.9924 25.6279 25.4576 25.6279 26.6786 24.8953L26.9228 24.6512C28.1438 23.9186 28.8764 22.6977 28.8764 21.2326C28.8764 19.7674 28.1438 18.3023 27.167 17.3256L25.946 15.3721C25.4576 14.6395 25.4576 13.907 25.946 13.4186C26.4344 12.9302 27.167 12.9302 27.6554 13.4186L29.609 15.3721V11.2209C29.609 10.4884 30.0974 10 30.83 10C31.5626 10 32.051 10.4884 32.051 11.2209V15.1279L34.0046 13.1744C34.493 12.686 35.2256 12.686 35.7141 13.1744C36.2025 13.907 36.2025 14.6395 35.7141 15.1279L33.5162 17.3256C32.2952 18.3023 31.8068 19.7674 31.8068 21.2326C31.8068 22.6977 32.5394 23.9186 33.7604 24.6512L34.0046 24.8953C35.2256 25.6279 36.6909 25.6279 37.9119 24.8953C39.1329 24.1628 40.1097 23.186 40.3539 21.7209L41.0865 18.5465C41.0865 17.814 41.8191 17.3256 42.5517 17.5698C43.2843 17.814 43.7727 18.5465 43.5285 19.2791L42.7959 21.9651L46.2147 20.0116C46.7031 19.7674 47.6799 19.7674 47.9241 20.5C48.1684 20.9884 48.1683 21.9651 47.4357 22.2093L44.2611 24.1628L46.9473 24.8953C47.6799 25.1395 48.1684 25.8721 47.9241 26.6047C47.6799 27.093 47.1915 27.5814 46.7031 27.5814C46.6749 27.5814 46.6532 27.5814 46.6315 27.5799C46.4664 27.5683 46.3074 27.4683 43.2843 26.6047C41.8191 26.1163 40.3539 26.3605 39.1329 27.093C37.9119 27.8256 37.1793 29.0465 37.1793 30.5116V31C37.1793 32.4651 37.9119 33.686 39.1329 34.4186C40.3539 35.1512 41.8191 35.3953 43.2843 34.907L46.2147 34.1744C46.7031 33.9302 47.4357 34.4186 47.6799 35.1512C47.9241 35.8837 47.4357 36.6163 46.7031 36.8605L44.0169 37.593ZM32.0512 34.6628C33.5164 33.9302 34.249 32.4651 34.249 31C34.249 29.2907 33.5164 27.8256 32.0512 27.3372C30.5859 26.6047 29.1207 26.6047 27.6555 27.3372C26.1903 28.0698 25.4577 29.5349 25.4577 31C25.4577 32.4651 26.4345 33.9302 27.6555 34.6628C29.1207 35.3953 30.5859 35.3953 32.0512 34.6628Z" fill="white"/>
<defs>
<linearGradient id="paint0_linear" x1="58.6268" y1="-5.86737" x2="-6.277" y2="1.04263" gradientUnits="userSpaceOnUse">
<stop stop-color="#1ADBC5"/>
<stop offset="1" stop-color="#04D3DD"/>
</linearGradient>
</defs>
</svg>
