<svg width="60" height="60" viewBox="0 0 60 60" fill="none" xmlns="http://www.w3.org/2000/svg">
<circle cx="30" cy="30" r="30" fill="#EDF0F4"/>
<g opacity="0.9">
<path opacity="0.9" d="M47.3502 33.8643C47.2443 32.0657 46.7988 33.1335 45.4914 32.9374C41.1068 31.1076 41.9021 24.6323 41.9021 24.6323C41.9021 17.2168 35.8882 11 28.1437 11H26.9046C19.4699 11 13.1606 17.3304 13.1606 24.7459V32.2436C13.1606 36.2604 13.8633 38.7283 16.3415 42.1271C19.1295 45.5258 24.1295 50.6834 31.5642 48.8296C31.5642 48.8296 32.6704 48.4631 32.8139 47.9208C32.9573 47.3784 33.8363 45.1943 37.2444 45.1943C40.3421 44.5763 40.0844 41.4454 40.0844 41.4454C40.0844 41.4454 40.198 38.2637 43.6061 37.9238C46.7038 37.6148 47.4561 35.6631 47.3502 33.8643Z" fill="#BFD2D3"/>
<path opacity="0.9" fill-rule="evenodd" clip-rule="evenodd" d="M27.4745 12.2496C24.1801 12.704 17.9319 17.0209 17.9319 27.4723C17.8941 30.0473 17.9547 35.5154 18.5 36.7877C18.5477 36.8993 18.6011 37.0343 18.6626 37.1897C19.4783 39.2525 21.7241 44.931 31.337 47.4664C31.9072 47.6168 32.4004 47.7551 32.8245 47.8822C32.8206 47.8958 32.817 47.9087 32.8139 47.9208C32.6704 48.4631 31.5642 48.8296 31.5642 48.8296C24.1295 50.6834 19.1295 45.5258 16.3415 42.1271C13.8633 38.7283 13.1606 36.2604 13.1606 32.2436V24.7459C13.1606 17.3304 19.4699 11 26.9046 11H27.3275L27.4745 12.2496Z" fill="#A6B6B7"/>
<path opacity="0.9" fill-rule="evenodd" clip-rule="evenodd" d="M35.0156 12.8071L29.9737 11.4543L27.3608 12.2496C28.6105 12.401 31.5395 13.4149 33.041 15.0896C35.9946 18.3841 37.2442 22.133 37.2442 26.5635C37.2442 31.7941 37.8123 34.1748 40.4251 35.5381C43.038 36.9013 45.4236 37.3557 45.878 36.2197C46.2416 35.3109 46.3324 34.402 46.3324 34.0612L45.9464 32.9595C45.8078 32.9667 45.6565 32.9621 45.4913 32.9374C41.1067 31.1076 41.9019 24.6322 41.9019 24.6322C41.9019 19.6334 39.1691 15.1793 35.0156 12.8071Z" fill="#768182"/>
<path opacity="0.9" fill-rule="evenodd" clip-rule="evenodd" d="M45.1222 34.2605L44.9664 34.1956C42.1468 33.0188 41.0959 30.3776 40.7131 28.3519C40.5172 27.3159 40.4766 26.3557 40.4832 25.6597C40.4866 25.3094 40.5018 25.0204 40.5168 24.8149C40.5243 24.712 40.5318 24.6297 40.5377 24.5707C40.5379 24.5674 40.5384 24.5641 40.5386 24.5609C40.5002 17.9248 35.1054 12.3632 28.1437 12.3632H26.9046C20.2242 12.3632 14.5239 18.0818 14.5239 24.7459V32.2436C14.5239 34.1733 14.6932 35.6438 15.1222 37.0081C15.5475 38.3611 16.2526 39.6866 17.4203 41.2925C20.2 44.6754 24.6645 49.1088 31.1706 47.5225C31.1863 47.5166 31.2059 47.5091 31.2284 47.5C31.3029 47.4698 31.3966 47.4282 31.4863 47.3798C31.5191 47.3621 31.5467 47.3457 31.5695 47.3316C31.7401 46.8347 32.1177 46.0577 32.8793 45.3534C33.7879 44.5129 35.1497 43.8645 37.0928 43.8322C38.0116 43.6146 38.3683 43.0927 38.5499 42.6092C38.6548 42.3295 38.7003 42.0505 38.7173 41.8356C38.7257 41.7308 38.7269 41.6479 38.7264 41.5968C38.726 41.5715 38.7253 41.5547 38.725 41.5475C38.725 41.5472 38.725 41.5472 38.725 41.547L38.7191 41.4773L38.7221 41.3968L40.0844 41.4454C40.0844 41.4454 40.3421 44.5763 37.2444 45.1943C33.8363 45.1943 32.9573 47.3784 32.8139 47.9208C32.6704 48.4631 31.5642 48.8296 31.5642 48.8296C24.1295 50.6834 19.1295 45.5258 16.3415 42.1271C13.8633 38.7283 13.1606 36.2604 13.1606 32.2436V24.7459C13.1606 17.3304 19.4699 11 26.9046 11H28.1437C35.8882 11 41.9021 17.2168 41.9021 24.6323C41.9021 24.6323 41.1068 31.1076 45.4914 32.9374C45.9429 33.0051 46.2914 32.9222 46.5588 32.8585C47.066 32.7378 47.2809 32.6867 47.3502 33.8643C47.4561 35.6631 46.7038 37.6148 43.6061 37.9238C40.198 38.2637 40.0844 41.4454 40.0844 41.4454C38.7221 41.3968 38.7221 41.3961 38.7221 41.3952V41.3939L38.7223 41.3905L38.7225 41.383C38.7228 41.3775 38.7232 41.3714 38.7235 41.3643C38.7244 41.3502 38.7253 41.333 38.7266 41.313C38.7296 41.2725 38.7341 41.2201 38.7412 41.1571C38.755 41.0317 38.7794 40.8622 38.8214 40.6623C38.9048 40.2662 39.0631 39.7257 39.3689 39.1623C40.0101 37.9799 41.2607 36.7877 43.4709 36.5674C44.7364 36.441 45.3074 36.0112 45.588 35.6363C45.8368 35.3034 45.9742 34.8565 45.994 34.3221C45.7823 34.3319 45.5464 34.3242 45.2892 34.2855L45.1222 34.2605ZM31.1304 47.5373L31.1309 47.537C31.1298 47.5375 31.1297 47.5375 31.1304 47.5373ZM31.65 47.2748C31.6495 47.2753 31.6488 47.276 31.6481 47.2764C31.6558 47.2687 31.6575 47.2682 31.65 47.2748Z" fill="#1F2B46"/>
<path opacity="0.9" d="M21.4538 27.3587C23.9634 27.3587 25.9979 25.3242 25.9979 22.8146C25.9979 20.305 23.9634 18.2705 21.4538 18.2705C18.9441 18.2705 16.9097 20.305 16.9097 22.8146C16.9097 25.3242 18.9441 27.3587 21.4538 27.3587Z" fill="#1F2B46"/>
<path opacity="0.9" d="M21.4537 20.5425C20.8511 20.5425 20.2732 20.7819 19.8471 21.2079C19.421 21.634 19.1816 22.2119 19.1816 22.8145C19.1816 23.4171 19.421 23.995 19.8471 24.4211C20.2732 24.8472 20.8511 25.0866 21.4537 25.0866V22.8145V20.5425Z" fill="#52D784"/>
<path opacity="0.9" d="M33.0412 27.3587C35.5508 27.3587 37.5853 25.3242 37.5853 22.8146C37.5853 20.305 35.5508 18.2705 33.0412 18.2705C30.5315 18.2705 28.4971 20.305 28.4971 22.8146C28.4971 25.3242 30.5315 27.3587 33.0412 27.3587Z" fill="#1F2B46"/>
<path opacity="0.9" d="M33.0411 20.5425C32.4385 20.5425 31.8606 20.7819 31.4345 21.2079C31.0084 21.634 30.769 22.2119 30.769 22.8145C30.769 23.4171 31.0084 23.995 31.4345 24.4211C31.8606 24.8472 32.4385 25.0866 33.0411 25.0866V22.8145V20.5425Z" fill="#60D5DC"/>
</g>
</svg>
