<svg width="60" height="60" viewBox="0 0 60 60" fill="none" xmlns="http://www.w3.org/2000/svg">
<g clip-path="url(#clip0_12941_100867)">
<path d="M0 30C0 35.9334 1.75947 41.7336 5.05592 46.6671C8.35236 51.6006 13.0377 55.4458 18.5195 57.7164C24.0013 59.9871 30.0332 60.5811 35.8526 59.4236C41.6721 58.266 47.0177 55.4087 51.2132 51.2132C55.4087 47.0177 58.266 41.6721 59.4236 35.8526C60.5811 30.0332 59.9871 24.0013 57.7164 18.5195C55.4458 13.0377 51.6006 8.35236 46.6671 5.05592C41.7336 1.75947 35.9334 0 30 0C22.0434 0 14.4129 3.16071 8.78679 8.78679C3.16071 14.4129 0 22.0434 0 30Z" fill="#121122"/>
<path fill-rule="evenodd" clip-rule="evenodd" d="M9.05156 22.3985C8.68488 24.7583 9.11657 27.1867 9.5649 29.5201C9.73766 29.8928 10.1162 30.1439 10.5828 30.3046C9.62583 32.3247 9.09978 34.5275 9.09978 36.8333C9.09978 46.5983 18.5531 54.5217 30.2131 54.5217C41.8732 54.5217 51.3331 46.6167 51.3331 36.8333C51.3331 34.5033 50.7965 32.279 49.8211 30.2423C50.2113 30.0815 50.5226 29.8478 50.675 29.5201C51.1233 27.1867 51.5533 24.7583 51.1867 22.3985C50.8434 19.2318 49.7566 18.2651 46.4934 19.0767C44.8333 19.4622 42.6451 20.4421 40.9625 21.5947C37.8131 20.0318 34.1377 19.135 30.2131 19.135C26.2436 19.135 22.5298 20.0534 19.3574 21.6505C17.6648 20.4738 15.4321 19.4684 13.7466 19.0767C10.4816 18.2651 9.39656 19.2318 9.05156 22.3985ZM21.3448 36.3601C18.8698 35.2685 14.6398 35.545 14.6398 35.545C14.6398 35.545 14.8381 39.5268 17.2665 40.8785C20.1464 42.4801 25.5014 41.6868 25.5014 41.6868C25.5014 41.6868 25.0464 37.9835 21.3448 36.3518V36.3601ZM35.0964 41.6933C35.0964 41.6933 40.4514 42.4868 43.3314 40.885C45.7597 39.5333 45.9581 35.5518 45.9581 35.5518C45.9581 35.5518 41.7281 35.275 39.2531 36.3668C35.5514 37.9835 35.0964 41.6783 35.0964 41.6783V41.6933ZM29.1564 44.5C29.1564 44.7935 29.7014 45.0318 30.3731 45.0318C31.0447 45.0318 31.5898 44.7935 31.5898 44.5C31.5898 44.2068 31.0447 43.9702 30.3731 43.9702C29.7014 43.9702 29.1564 44.1983 29.1564 44.5Z" fill="#F2F4F8"/>
<path fill-rule="evenodd" clip-rule="evenodd" d="M54.2751 42.0484C52.2988 41.2853 50.1999 40.89 48.0816 40.8818H48.0849C47.5483 40.8818 47.5483 40.0483 48.0849 40.0483C50.2785 40.0555 52.4526 40.4627 54.5001 41.25C54.6036 41.2817 54.6911 41.352 54.7447 41.4462C54.7984 41.5403 54.8139 41.6515 54.7882 41.7567C54.7583 41.8632 54.6876 41.9533 54.5916 42.0079C54.4954 42.0625 54.3818 42.0771 54.2751 42.0484ZM6.06504 41.2684C8.11314 40.4813 10.2876 40.074 12.4817 40.0667V40.0716C13.0184 40.0716 13.0167 40.905 12.4817 40.905C10.3628 40.9125 8.26318 41.308 6.2867 42.0717C6.18022 42.0998 6.0669 42.0852 5.9712 42.0306C5.87548 41.976 5.80503 41.886 5.77505 41.7799C5.74852 41.6738 5.76382 41.5615 5.8178 41.4662C5.87178 41.371 5.9603 41.3001 6.06504 41.2684ZM10.3134 43.6566C11.3384 43.3303 12.4045 43.1515 13.4797 43.125C14.0134 43.128 14.0124 43.9583 13.4768 43.9583C12.496 43.984 11.5238 44.1473 10.5884 44.4433C9.71844 44.6983 8.72343 45.0583 8.08845 45.6467C7.69511 46.0116 7.1051 45.4234 7.50011 45.0583C8.27176 44.3451 9.33345 43.9517 10.3134 43.6566ZM13.4797 43.125H13.4801H13.4768H13.4797ZM14.43 45.2067C13.5943 45.5644 12.7907 45.9932 12.0284 46.4884C11.2583 46.963 10.5806 47.5735 10.0284 48.2899C9.97293 48.3853 9.95743 48.4988 9.98522 48.6055C10.013 48.7123 10.0818 48.8037 10.1767 48.8599C10.2728 48.9133 10.3858 48.9278 10.4922 48.9C10.5986 48.8725 10.6903 48.805 10.7484 48.7116C11.2167 48.0649 11.8884 47.5633 12.5534 47.1349C13.2833 46.6718 14.0491 46.2677 14.8434 45.9267C14.9382 45.8704 15.0071 45.7791 15.0351 45.6724C15.0632 45.5657 15.0482 45.4523 14.9934 45.3567C14.9356 45.2635 14.8443 45.196 14.7383 45.168C14.6322 45.1401 14.5195 45.154 14.4234 45.2067H14.43ZM47.0835 43.9416C48.0643 43.9662 49.0367 44.1287 49.9717 44.425C50.4551 44.5624 50.9271 44.7368 51.3834 44.9466C51.7774 45.1189 52.143 45.3492 52.4685 45.63C52.8619 45.9934 53.4517 45.4067 53.0586 45.04C52.2919 44.3284 51.2368 43.9333 50.2502 43.6384C49.2251 43.312 48.1588 43.1337 47.0835 43.1083C46.5469 43.1083 46.5452 43.9416 47.0835 43.9416ZM48.0036 47.11C47.2826 46.6643 46.5289 46.2743 45.7485 45.9433V45.9351C45.654 45.8785 45.5854 45.7872 45.5574 45.6807C45.5293 45.5742 45.5441 45.4607 45.5985 45.3651C45.6572 45.2723 45.7489 45.2053 45.855 45.1778C45.9611 45.1502 46.0738 45.1641 46.1702 45.2168C47.7936 45.925 49.5019 46.8351 50.5635 48.3C50.6184 48.3955 50.6338 48.5087 50.6061 48.6154C50.5783 48.7221 50.5097 48.8134 50.4152 48.87C50.3192 48.9231 50.2063 48.9372 50.1002 48.9092C49.9939 48.8813 49.9026 48.8136 49.8452 48.72C49.3652 48.0583 48.6868 47.545 48.0036 47.11Z" fill="#F2F4F8"/>
<path d="M2.89837 31.6432C3.28337 31.0432 6.66669 29.2384 10.8534 28.1666C11.757 25.6005 12.8719 23.1135 14.1867 20.7317C14.17 20.7317 17.535 14.6917 17.52 14.6883C16.5551 14.2492 15.6285 13.7302 14.75 13.1367C14.6013 13.0222 14.4665 12.8908 14.3484 12.745C14.2592 12.5978 14.213 12.4287 14.215 12.2567C14.215 12.1167 14.4134 11.8667 14.5017 11.7567C14.7271 11.4915 14.9759 11.2472 15.245 11.0267C15.8866 10.5013 16.5607 10.017 17.2634 9.57666C17.5967 9.35667 17.9434 9.14166 18.285 8.92499C20.6851 7.39666 22 6.24666 24.1984 4.98332C26.2984 3.78001 27.3184 3.03833 29.7533 3.16334C32.8133 3.16334 40.42 12.8533 43.8501 17.8467C45.9066 20.8466 48.6666 26.2483 49.6834 28.2801C49.9266 28.3417 50.1467 28.4001 50.35 28.4601C53.47 29.3966 56.53 30.7701 57.2783 31.6432C57.9451 32.4201 55.0317 32.7667 52.1599 33.2666C49.2884 33.7667 39.5466 34.0149 30.1851 34.0783C20.8234 34.1417 9.8967 33.8284 7.51837 33.4534C5.14003 33.0784 2.42004 32.3917 2.89837 31.6432Z" fill="#6665DD"/>
<path d="M47.0732 23.2735C47.0732 23.2735 40.9066 21.7285 30.0417 21.7285C18.3749 21.7285 12.7566 23.5285 12.7566 23.5285C12.7566 23.5285 12.0899 24.7951 11.7999 25.5284C11.5099 26.2617 10.8533 28.1667 10.8533 28.1667C10.8533 28.1667 19.3416 26.6468 30.205 26.6468C36.7463 26.6738 43.2751 27.2256 49.7282 28.2968C49.7282 28.2968 48.7433 25.9917 48.1532 25.0085C47.5632 24.025 47.0732 23.2735 47.0732 23.2735Z" fill="#FF99A5"/>
<path d="M10.3717 10.2382C11.0784 10.1349 12.0384 12.2982 12.0384 12.2982C12.0384 12.2982 14.2617 11.6999 14.6083 12.2982C14.955 12.8965 13.045 14.3332 13.045 14.3332C13.045 14.3332 14.1984 16.3615 13.8334 16.7832C13.4683 17.2049 11.4117 15.9249 11.4117 15.9249C11.4117 15.9249 9.84335 17.6915 9.33168 17.4249C8.82002 17.1582 9.40003 14.8565 9.40003 14.8565C9.40003 14.8565 7.1817 13.9132 7.33337 13.3532C7.48502 12.7932 9.79668 12.6232 9.79668 12.6232C9.79668 12.6232 9.66669 10.3415 10.3717 10.2382Z" fill="#FFE600"/>
</g>
<defs>
<clipPath id="clip0_12941_100867">
<rect width="60" height="60" fill="white"/>
</clipPath>
</defs>
</svg>
