<svg width="60" height="60" viewBox="0 0 60 60" fill="none" xmlns="http://www.w3.org/2000/svg">
<circle cx="30" cy="30" r="30" fill="#EDF0F4"/>
<path d="M18.1336 14.5L49 35.341L41.3664 46.5L10.5 25.4949L18.1336 14.5Z" fill="url(#paint0_linear)"/>
<path d="M49.3352 35.3833C46.6969 39.2347 37.7926 37.7276 29.3829 31.6993C20.8084 25.8384 16.1914 17.9682 18.6648 14.1167C21.3031 10.2653 30.2074 11.7724 38.6171 17.8007C47.1916 23.4941 51.8086 31.5318 49.3352 35.3833Z" fill="url(#paint1_linear)"/>
<path d="M41.3321 46.3971C38.6853 50.2234 29.7525 48.7261 21.3159 42.7371C12.8793 36.7482 8.08202 29.0956 10.7288 25.1029C13.3756 21.2767 22.3084 22.7739 30.745 28.7629C39.1816 34.7518 43.8134 42.5708 41.3321 46.3971Z" fill="url(#paint2_linear)"/>
<path d="M48.8774 35.2096L41.2396 46.4524C38.583 50.2551 29.617 48.6017 21.1491 42.815C19.4887 41.6576 17.9943 40.5003 16.5 39.1776C17.6623 39.0123 19.1566 38.3509 20.6509 36.6976C23.3075 33.8869 24.6358 33.2256 25.7981 33.3909C26.9604 33.3909 28.2887 34.5482 30.4472 37.3589C32.6057 40.1696 35.5943 40.9963 37.4208 39.5083C37.5868 39.343 37.7528 39.343 37.9189 39.1776C39.4132 38.0203 39.9113 37.5243 42.734 32.2335C43.3981 30.9109 45.7226 28.7615 48.8774 29.7535C49.7075 31.9029 49.7075 33.7216 48.8774 35.2096Z" fill="#0E0F23"/>
<path fill-rule="evenodd" clip-rule="evenodd" d="M47.4745 34.7942C45.1645 38.1143 37.0798 36.4542 29.3251 30.9761C21.4054 25.498 16.7856 18.5259 19.0955 15.2058C21.4054 11.8857 29.4901 13.5458 37.2448 19.0239C44.9995 24.502 49.6194 31.4741 47.4745 34.7942ZM40.2147 29.8141C39.0598 31.4742 35.0999 30.6441 31.1401 27.9881C27.3452 25.332 25.0353 21.846 26.1902 20.1859C27.3452 18.5259 31.305 19.3559 35.2649 22.012C39.0598 24.668 41.3697 28.1541 40.2147 29.8141Z" fill="white"/>
<path d="M17.4439 17.6959C17.4439 17.5574 17.2939 17.4189 17.1439 17.5574C16.9939 17.6959 16.8439 17.6959 16.8439 17.8344C16.9939 18.25 17.1439 18.527 17.1439 18.8041C17.1439 18.9426 17.2939 19.0811 17.4439 18.9426C17.5939 18.9426 17.7439 18.8041 17.5939 18.6656C17.5939 18.3885 17.5939 18.1115 17.4439 17.6959Z" fill="white"/>
<path d="M18.4893 20.2361C18.4893 20.0692 18.3262 19.9022 18.1631 20.0692C18 20.2361 18 20.2361 18 20.4031C19.7941 24.5777 23.5453 29.0862 28.4382 32.4258C28.6013 32.5928 28.7644 32.4258 28.9275 32.4258C29.0906 32.2588 28.9275 32.0918 28.9275 31.9248C23.8715 28.5852 20.2834 24.2437 18.4893 20.2361Z" fill="white"/>
<path d="M38.3077 36.8C38.1538 36.8 38 36.8 38 36.95C38 37.1 38 37.25 38.1538 37.25C38.6154 37.4 39.2308 37.55 39.6923 37.7C39.8462 37.7 40 37.7 40 37.55C40 37.4 40 37.25 39.8462 37.25C39.3846 37.1 38.7692 36.95 38.3077 36.8Z" fill="white"/>
<path d="M41.3214 37.3439C41.1607 37.3439 41 37.4939 41 37.6439C41 37.7939 41.1607 37.9439 41.3214 37.9439C42.6071 38.0939 44.0536 38.2439 45.1786 38.0939C45.3393 38.0939 45.5 37.9439 45.5 37.7939C45.5 37.6439 45.3393 37.4939 45.1786 37.4939C43.8929 37.6439 42.6071 37.4939 41.3214 37.3439Z" fill="white"/>
<defs>
<linearGradient id="paint0_linear" x1="11.6773" y1="14.0807" x2="15.9813" y2="35.2359" gradientUnits="userSpaceOnUse">
<stop stop-color="#03B8FF"/>
<stop offset="1" stop-color="#FA52A0"/>
</linearGradient>
<linearGradient id="paint1_linear" x1="16.3744" y1="12.0351" x2="20.3081" y2="33.6365" gradientUnits="userSpaceOnUse">
<stop stop-color="#03B8FF"/>
<stop offset="1" stop-color="#FA52A0"/>
</linearGradient>
<linearGradient id="paint2_linear" x1="5.97038" y1="15.0174" x2="9.91804" y2="36.4853" gradientUnits="userSpaceOnUse">
<stop stop-color="#03B8FF"/>
<stop offset="1" stop-color="#FA52A0"/>
</linearGradient>
</defs>
</svg>
