<svg width="60" height="60" viewBox="0 0 60 60" fill="none" xmlns="http://www.w3.org/2000/svg">
<circle cx="30" cy="30" r="30" fill="#212426"/>
<path fill-rule="evenodd" clip-rule="evenodd" d="M36.8401 12.1383C37.2159 12.2787 37.2524 12.4165 36.946 12.538C36.4832 12.7215 36.0952 12.9328 35.8988 13.1084L35.6887 13.2963L35.874 13.2631C36.0238 13.2363 36.54 13.0464 37.0386 12.8347C37.104 12.8069 37.1064 12.8151 37.0523 12.8811C37.0161 12.9252 36.7977 13.0618 36.567 13.1846C36.3363 13.3075 36.08 13.4782 35.9975 13.564L35.8475 13.72L36.1651 13.5777C36.7463 13.3173 37.4083 13.0825 37.5613 13.0825C37.6445 13.0825 37.7782 13.1336 37.8585 13.1961C38.0117 13.3153 38.0118 13.3162 37.9261 13.9449C37.9156 14.0223 37.9514 14.0551 38.0709 14.0774C38.2221 14.1056 38.2293 14.1189 38.2213 14.3522C38.2144 14.5541 38.1276 14.7518 37.7297 15.4718C37.2765 16.2916 37.2485 16.3601 37.2802 16.5695C37.3167 16.8099 37.2458 16.9445 36.7634 17.5521C36.6071 17.7491 36.5622 17.8521 36.5622 18.0139C36.5622 18.2819 36.5835 18.3189 37.2187 19.1518C37.5127 19.5372 37.8535 19.985 37.9758 20.1469C38.0982 20.3087 38.3781 20.819 38.5978 21.2809C39.1178 22.3737 39.1248 22.568 38.6697 23.2648C38.5585 23.4351 38.4775 23.5842 38.4896 23.5963C38.5018 23.6083 38.5734 23.5782 38.6487 23.5294C38.8145 23.4219 38.826 23.4926 38.6737 23.684C38.574 23.8094 38.5524 23.8164 38.4752 23.748C38.3974 23.679 38.3322 23.7213 37.8327 24.1646C37.0382 24.8697 36.668 24.9808 36.668 24.514C36.668 24.3361 36.6634 24.332 36.496 24.3631C35.956 24.4633 35.9506 24.4631 35.8074 24.3356C35.628 24.1759 35.3127 23.5444 35.2643 23.2479C35.2211 22.9839 35.0388 22.7712 34.8573 22.7731C34.7905 22.7737 34.5928 22.8332 34.4181 22.9053C34.2434 22.9773 33.9933 23.0512 33.8623 23.0695L33.624 23.1029L33.8093 22.9531C33.9112 22.8707 34.0035 22.7972 34.0144 22.7898C34.0253 22.7824 34.0204 22.7408 34.0036 22.6975C33.9607 22.5869 33.5755 22.7238 32.6236 23.1878C31.6345 23.6701 31.0721 23.995 30.4117 24.4656C29.603 25.042 29.2036 25.4899 29.2036 25.8205C29.2036 25.9119 29.2483 25.8879 29.4815 25.6714C30.145 25.0555 31.8502 23.9163 32.7766 23.4701C33.1554 23.2877 33.486 23.1385 33.5114 23.1385C33.6827 23.1383 33.0244 23.6035 32.4452 23.8918C31.0979 24.5627 29.5212 25.868 29.5212 26.3129C29.5212 26.4712 29.8965 26.7171 31.022 27.2962C33.0211 28.3249 33.6078 28.8219 34.9401 30.6152C35.5379 31.4198 35.843 31.9142 36.0989 32.4929C36.3104 32.9713 36.5382 33.6516 36.5879 33.9538C36.6071 34.0698 36.6976 34.2569 36.7909 34.3728C36.9493 34.57 36.9602 34.6115 36.9765 35.0798C37.0018 35.8121 36.8964 36.2395 36.5048 36.9916C36.3249 37.3372 36.1334 37.7217 36.0792 37.8459L35.9808 38.0717L36.1445 37.9506C36.5431 37.656 36.5184 37.6595 36.4294 37.9091C36.3244 38.2036 36.1837 38.4231 35.9768 38.6152L35.8075 38.7723L35.8444 38.5628C35.8646 38.4476 35.8942 38.2944 35.9102 38.2224C35.931 38.1282 35.6806 38.343 35.0198 38.9861C33.994 39.9844 33.8479 40.1077 32.918 40.76C32.1987 41.2647 31.6013 41.627 31.1915 41.8073C31.0445 41.8719 30.8363 41.9842 30.7289 42.0567C30.5259 42.1937 29.0624 42.7131 28.4625 42.861C28.2732 42.9077 27.8831 42.9903 27.5956 43.0445C27.0092 43.1551 26.7727 43.29 26.6659 43.5745C26.5284 43.9408 26.4503 44.0881 26.2683 44.3239C26.0543 44.6014 26.0232 44.7438 26.1861 44.7017C26.2443 44.6866 26.292 44.6941 26.292 44.7184C26.292 44.8304 26.1609 45.0806 25.9739 45.3257C25.8357 45.5068 25.7782 45.629 25.7973 45.7011C25.8138 45.7633 25.7363 46.0118 25.6116 46.2968C25.494 46.5656 25.3813 46.9035 25.3613 47.0475C25.3202 47.3433 25.1839 47.6552 24.9967 47.8818C24.8889 48.0123 24.8575 48.025 24.7868 47.9671C24.7412 47.9296 24.7038 47.8693 24.7038 47.8331C24.7038 47.6645 24.5689 47.6517 23.9676 47.7629C23.3741 47.8726 23.3707 47.8727 23.2302 47.7702C23.1311 47.6979 23.0405 47.5294 22.9256 47.2036C22.8114 46.88 22.6854 46.6451 22.5085 46.4259C22.1368 45.9651 22.0875 45.8236 22.0865 45.2144C22.0856 44.591 22.1543 44.2173 22.4615 43.1752C22.784 42.0812 22.7671 41.8407 22.3415 41.471C21.9278 41.1116 21.6678 40.7436 21.2674 39.9507C21.042 39.5042 20.7161 38.8679 20.5432 38.5366C20.3704 38.2053 20.1843 37.7693 20.1297 37.5677C20.0061 37.1112 19.9612 36.2196 20.0374 35.7341C20.2321 34.4942 20.9488 32.891 21.4565 32.5599C21.6976 32.4026 22.0502 32.4301 22.4684 32.6387C22.9733 32.8905 23.0309 32.9661 22.9864 33.3189L22.9503 33.6046L23.2844 33.788C23.4682 33.8889 23.7247 33.9991 23.8545 34.033C24.132 34.1055 24.4927 34.3385 24.6163 34.5251C24.7332 34.7017 24.7267 34.9661 24.5979 35.2632C24.404 35.7107 24.4965 35.8254 24.8992 35.6371C25.1779 35.5068 25.3111 35.5791 25.266 35.836C25.2506 35.9242 25.2314 36.252 25.2234 36.5644C25.2104 37.0738 25.2194 37.1401 25.3105 37.206C25.5137 37.353 26.0635 37.2505 27.2184 36.8504C27.8812 36.6207 29.3487 35.8708 29.7429 35.5604C30.2584 35.1543 30.8091 34.5627 31.2088 33.9852C31.8392 33.0746 31.9393 32.6843 31.6188 32.3852C31.5205 32.2935 31.3239 32.1753 31.1821 32.1225C30.5685 31.8945 28.7655 30.8906 27.8029 30.241C26.9513 29.6664 26.113 28.7888 25.671 28.0093C25.4467 27.6137 24.7514 25.8624 24.5266 25.1269C24.0747 23.6482 24.078 22.7065 24.5382 21.8563C24.6828 21.5893 24.828 21.415 25.0773 21.2097C25.2649 21.055 25.7821 20.6227 26.2265 20.2487C26.8269 19.7437 27.1182 19.5354 27.36 19.4382C27.539 19.3662 27.771 19.2498 27.8755 19.1795C27.9799 19.1092 28.256 18.9938 28.4889 18.923C28.7988 18.8289 28.9902 18.7309 29.2021 18.5581C29.4035 18.3938 29.6937 18.2411 30.155 18.0567C30.5198 17.9108 30.9636 17.7325 31.1413 17.6603C31.319 17.5882 31.5378 17.4537 31.6276 17.3615C31.7174 17.2693 31.9673 16.8757 32.183 16.4868C32.3988 16.0979 32.7693 15.4308 33.0066 15.0043C33.6246 13.8932 34.2338 13.0243 34.6147 12.7107C34.9367 12.4456 35.1535 12.3201 35.6622 12.1041C36.0132 11.9551 36.3781 11.9657 36.8401 12.1383ZM31.2418 19.3722C30.2186 19.7134 27.4037 21.2874 27.4037 21.5183C27.4037 21.6409 27.7105 21.5387 28.3635 21.1986C29.2762 20.7232 30.3015 20.23 31.023 19.9192C31.7653 19.5994 31.9565 19.4854 31.9565 19.3623C31.9565 19.227 31.6648 19.2311 31.2418 19.3722ZM30.7653 20.3577C29.8606 20.8006 28.532 21.5678 28.4228 21.7104C28.3335 21.8269 28.3395 21.8814 28.4419 21.8814C28.4888 21.8814 28.995 21.6366 29.5668 21.3375C30.1386 21.0383 30.9162 20.6436 31.2947 20.4602C32.0154 20.1112 32.1449 19.9814 31.7976 19.9564C31.6561 19.9461 31.4123 20.0409 30.7653 20.3577ZM33.4195 21.5728C33.1608 21.633 31.9124 22.1818 31.322 22.495C30.7807 22.7821 30.1416 23.2037 29.4832 23.7081C28.9554 24.1124 28.8232 24.2701 28.9665 24.3245C29.0779 24.3668 29.2227 24.2982 29.8691 23.8968C30.4263 23.5507 32.9733 22.2465 33.501 22.037C33.6662 21.9714 33.868 21.8652 33.9494 21.801C34.0771 21.7003 34.0877 21.6727 34.0263 21.5995C33.9487 21.5071 33.7418 21.498 33.4195 21.5728ZM37.8316 24.6324C37.7948 24.6763 37.7509 24.6986 37.734 24.6819C37.7172 24.6653 37.7385 24.6297 37.7813 24.6029C37.8934 24.5327 37.908 24.5413 37.8316 24.6324ZM35.8475 36.5987C35.8295 36.6276 35.8519 36.6511 35.8973 36.6511C35.9427 36.6511 35.9798 36.6276 35.9798 36.5987C35.9798 36.5699 35.9574 36.5464 35.93 36.5464C35.9026 36.5464 35.8655 36.5699 35.8475 36.5987ZM30.9241 36.9307C30.6434 37.0831 29.2822 37.8469 28.1448 38.4903C27.888 38.6357 27.78 38.7217 27.839 38.7341C27.9708 38.7618 28.6696 38.5625 29.1981 38.3466C30.3016 37.8958 31.6514 36.8837 31.2947 36.7746C31.2656 36.7657 31.0988 36.8359 30.9241 36.9307ZM30.919 37.7952C30.2101 38.1985 29.5229 38.6629 29.5221 38.7396C29.5197 38.9456 30.5293 38.4898 31.1227 38.017C31.5204 37.7001 31.6311 37.5362 31.4403 37.5465C31.3893 37.5492 31.1548 37.6612 30.919 37.7952ZM35.7635 38.9425C35.5764 39.4334 34.7077 40.3267 33.9061 40.8525C33.1615 41.3408 31.9638 41.9498 31.6918 41.9783C31.4578 42.0028 31.4636 41.9976 32.0094 41.6918C32.9885 41.143 33.9844 40.5218 34.3488 40.2325C34.5436 40.0778 34.8733 39.7567 35.0815 39.5189C35.4057 39.1485 35.757 38.7985 35.8044 38.7985C35.8121 38.7985 35.7937 38.8633 35.7635 38.9425ZM33.0417 39.1547C32.8961 39.2356 32.4456 39.5097 32.0405 39.7639C31.6355 40.018 31.0042 40.3788 30.6376 40.5657C29.7699 41.0081 29.6691 41.0989 29.8665 41.261C30.0555 41.4162 31.8159 40.6464 32.5684 40.0794C33.021 39.7384 33.5612 39.1885 33.5315 39.0991C33.4931 38.9838 33.3126 39.0043 33.0417 39.1547ZM30.6859 42.2814C30.6859 42.3246 30.676 42.36 30.6638 42.36C30.6516 42.36 30.6012 42.3753 30.5517 42.3941C30.4741 42.4236 30.4702 42.4128 30.5228 42.3156C30.5931 42.1857 30.6859 42.1662 30.6859 42.2814Z" fill="white"/>
</svg>
