<svg width="60" height="60" viewBox="0 0 60 60" fill="none" xmlns="http://www.w3.org/2000/svg">
<circle cx="30" cy="30" r="30" fill="#EDF0F4"/>
<path fill-rule="evenodd" clip-rule="evenodd" d="M34.5004 15.8614C29.6805 18.0304 24.1619 22.403 21.8382 24.8213C21.7491 24.9005 21.6618 24.9824 21.5765 25.067C18.6792 27.9461 19.1328 33.058 22.4857 36.8418L22.4159 36.8416C17.0873 36.8416 12.6985 38.5628 12.1224 40.7763C11.9388 41.2815 12.0066 42.7035 12.0421 43.4474C12.0511 43.6391 12.0583 43.7857 12.0583 43.86C12.0583 45.8926 16.753 48 22.431 48C28.1089 48 32.7115 46.1798 32.7115 43.9351C32.7115 43.8884 32.7146 43.7619 32.7189 43.5853C32.7306 43.1 32.7515 42.2366 32.7434 41.6131C32.7996 41.2984 32.7775 40.9747 32.679 40.6706C33.8416 40.4015 34.9014 39.864 35.7674 39.0483L35.7037 39.1125C35.4936 39.3214 35.2691 39.5152 35.0319 39.6927C36.484 38.9451 37.5489 37.357 38.8838 35.298C43.1179 28.0269 47.1688 20.4813 47.9021 15.2262C48.4211 11.5067 46.8819 11.6215 43.149 12.5372C41.3386 12.9814 36.0829 15.149 34.5004 15.8614V15.8614ZM32.4473 40.1646C31.3632 38.3626 27.6953 37.0044 23.2332 36.8553C19.6773 33.1687 19.2473 28.143 21.9572 25.45C24.7526 22.6722 30.1064 23.1343 33.9357 26.8419C37.7643 30.5512 38.2935 35.7789 35.5093 38.5466H35.5091C34.6788 39.3723 33.6225 39.9117 32.4473 40.1646V40.1646ZM41.6844 22.4751C41.6844 21.5595 40.0655 18.4752 38.8848 17.896C37.0173 16.9803 37.0173 17.896 38.8848 19.7271C39.6734 20.5015 40.2955 21.2755 40.7509 21.8421C41.3733 22.6166 41.6844 23.0038 41.6844 22.4751V22.4751ZM39.9382 29.4647C40.1173 28.8887 39.701 26.6438 39.0722 26.0562C38.0759 25.1285 37.8955 25.7047 38.7128 27.2088C39.0575 27.8436 39.2974 28.4472 39.4734 28.8894C39.7141 29.4948 39.8345 29.7977 39.9382 29.4647V29.4647ZM31.5756 42.6169C32.0328 42.1547 32.2336 41.7009 32.2336 41.2722C32.2336 40.8434 32.0328 40.3894 31.5756 39.9272C31.1162 39.4628 30.4248 39.0196 29.5275 38.6359C27.7349 37.8691 25.221 37.3816 22.4157 37.3816C19.6107 37.3816 17.0967 37.8691 15.3042 38.6359C14.4069 39.0196 13.7154 39.4628 13.256 39.9272C12.7988 40.3894 12.5981 40.8434 12.5981 41.2722C12.5981 41.7009 12.799 42.1547 13.256 42.6169C13.7154 43.0815 14.4069 43.5247 15.3042 43.9084C17.0967 44.675 19.6107 45.1625 22.4159 45.1625C25.221 45.1625 27.7349 44.675 29.5275 43.9084C30.4248 43.5247 31.1162 43.0815 31.5756 42.6169Z" fill="#8878C3"/>
</svg>
