<svg width="60" height="60" viewBox="0 0 60 60" fill="none" xmlns="http://www.w3.org/2000/svg">
<path fill-rule="evenodd" clip-rule="evenodd" d="M30 0C46.566 0 60 13.434 60 30C60 46.566 46.566 60 30 60C13.434 60 0 46.566 0 30C0 13.434 13.434 0 30 0Z" fill="url(#paint0_linear)"/>
<path d="M26.827 25.7564C27.9642 27.7675 25.4207 28.391 24.2271 28.5057C22.4185 28.6823 22.0441 27.6351 22.3973 26.3196C22.5134 25.8486 22.7706 25.4249 23.1344 25.106C23.4983 24.7868 23.9509 24.5879 24.4311 24.5361C24.9042 24.4926 25.3801 24.584 25.8038 24.7998C26.2276 25.0158 26.5823 25.3473 26.827 25.7564Z" fill="#D800A8"/>
<path d="M33.9265 22.0349C32.6047 32.1916 50.4248 30.0781 50.0856 38.1618C51.8435 35.8662 52.5993 29.6296 47.4245 26.4194C42.8138 23.557 36.8058 25.1232 33.9265 22.0349Z" fill="#D800A8"/>
<path d="M44.1904 18.2053C44.0744 18.0976 43.9547 17.9917 43.8389 17.8857C43.9566 17.9934 44.0744 18.1065 44.1904 18.2053Z" fill="#D800A8"/>
<path d="M48.3317 25.6082L48.3212 25.5923C48.1603 25.2921 47.977 25.0047 47.7728 24.7324C47.172 23.9147 46.3103 23.3288 45.3313 23.0725C44.6796 22.9036 44.0132 22.7984 43.3414 22.7582C42.6611 22.7087 41.9668 22.6804 41.2656 22.6435C39.8593 22.5657 38.4197 22.4209 37.0135 22.0184C36.6619 21.9177 36.3105 21.8082 35.9711 21.6758C35.7955 21.6122 35.632 21.5434 35.458 21.4692C35.284 21.3951 35.1064 21.3102 34.9305 21.2202C34.2694 20.8564 33.6568 20.4096 33.1078 19.8906C32.025 18.8789 31.1743 17.731 30.3218 16.6186C29.5181 15.5019 28.6555 14.4291 27.7378 13.4049C26.8324 12.4015 25.7621 11.5618 24.574 10.9222C23.3434 10.2996 22.0069 9.91622 20.6348 9.79211C22.0583 9.63684 23.4983 9.81328 24.8428 10.3077C26.1996 10.8368 27.4399 11.6281 28.4936 12.6368C29.1816 13.2849 29.8275 13.9767 30.4271 14.708C34.8919 13.8251 38.5129 14.6092 41.2954 16.1312L41.3588 16.163C42.2443 16.6456 43.0744 17.2247 43.8336 17.89C43.9549 17.9959 44.0745 18.1019 44.1851 18.2096C44.7778 18.7566 45.3295 19.3469 45.8357 19.9754L45.8743 20.0266C47.518 22.1172 48.33 24.2909 48.3317 25.6082Z" fill="#D800A8"/>
<path d="M48.3298 25.6078L48.3193 25.5864L48.3298 25.6078Z" fill="#D800A8"/>
<path d="M20.8623 11.1003C22.0014 11.2663 23.1633 11.7218 23.912 12.5906C24.6609 13.4594 24.9369 14.5895 25.1531 15.6648C25.3287 16.4983 25.4677 17.3476 25.7947 18.1369C25.9527 18.5219 26.1849 18.8591 26.3782 19.2229C26.5381 19.5247 26.8299 19.7968 26.9424 20.1199C26.9626 20.1664 26.9701 20.2172 26.9641 20.2674C26.9583 20.3177 26.9394 20.3655 26.909 20.406C26.5119 20.8474 25.4396 20.3565 25.0353 20.1587C24.3363 19.8107 23.7104 19.3312 23.1914 18.7461C21.569 16.9362 20.7305 14.3317 20.7815 11.9602C20.7927 11.6723 20.8197 11.3852 20.8623 11.1003Z" fill="#D800A8"/>
<path d="M39.9123 31.5105C37.4514 38.4094 48.6133 43.0376 44.4314 50.0512C48.7222 48.2713 50.7594 42.8946 48.9789 38.6284C47.4215 34.8832 42.8161 33.5182 39.9123 31.5105Z" fill="#D800A8"/>
<path d="M25.1494 40.5322C25.8199 40.0245 26.5532 39.606 27.3308 39.2874C28.1174 38.9711 28.9335 38.7345 29.767 38.5811C31.4211 38.265 33.0576 38.1873 34.4322 37.631C35.1113 37.3646 35.7362 36.9757 36.276 36.4833C36.7986 35.9956 37.1985 35.3904 37.4432 34.7175C37.6937 34.0074 37.7955 33.2529 37.7419 32.5014C37.6799 31.6942 37.498 30.9009 37.2023 30.1477C37.815 30.7878 38.2613 31.5699 38.5013 32.4245C38.7413 33.2793 38.7679 34.1803 38.5787 35.0476C38.3637 35.966 37.8994 36.8064 37.2375 37.4756C36.5824 38.124 35.7923 38.6184 34.9243 38.9236C34.096 39.2154 33.232 39.3937 32.3562 39.4533C31.5124 39.524 30.6968 39.5433 29.8954 39.591C28.2748 39.6594 26.6742 39.9766 25.1494 40.5322Z" fill="#D800A8"/>
<path d="M40.8939 52.6591C40.646 52.8569 40.3981 53.0671 40.1257 53.2507C39.8516 53.4322 39.5641 53.5927 39.2662 53.731C38.6456 54.0352 37.9632 54.1904 37.2729 54.1848C35.4026 54.1495 34.0807 52.751 33.3074 51.1705C32.78 50.0935 32.4163 48.9297 31.7904 47.9039C30.8956 46.4365 29.3647 45.2553 27.5718 45.4741C26.8406 45.566 26.1551 45.8962 25.7489 46.5337C24.6802 48.1988 26.2149 50.5313 28.1713 50.2012C28.3376 50.1757 28.5003 50.1307 28.6563 50.0669C28.8118 50.0005 28.9567 49.9118 29.087 49.8038C29.3602 49.5753 29.5663 49.2762 29.6829 48.9387C29.8113 48.5868 29.84 48.2058 29.7654 47.8385C29.6851 47.4547 29.4596 47.1172 29.1361 46.8974C29.5123 47.0742 29.8051 47.3907 29.9536 47.7803C30.1074 48.181 30.1469 48.6172 30.0678 49.0392C29.9909 49.4791 29.798 49.8903 29.5089 50.2295C29.3553 50.4038 29.1778 50.5555 28.9814 50.6797C28.787 50.8025 28.5787 50.9015 28.361 50.9746C27.9194 51.1263 27.4496 51.175 26.9864 51.1177C26.3362 51.0247 25.7231 50.7575 25.2112 50.3442C24.6065 49.8638 24.1565 49.2353 23.6098 48.695C22.9831 48.0344 22.2438 47.492 21.4267 47.0933C20.8633 46.8447 20.2736 46.6612 19.6689 46.546C19.3648 46.4825 19.0573 46.4365 18.7496 46.3977C18.609 46.3837 17.9199 46.2299 17.8232 46.3199C18.7739 45.4407 19.8104 44.66 20.9169 43.9891C22.0529 43.3118 23.2728 42.7878 24.545 42.43C25.8639 42.0571 27.2435 41.9508 28.6036 42.1175C29.3038 42.2018 29.9894 42.3802 30.6425 42.6472C31.3269 42.9218 31.9586 43.3137 32.5092 43.8055C33.0545 44.3213 33.4949 44.9384 33.8066 45.6226C34.0878 46.2629 34.2978 46.9327 34.4323 47.6197C34.8331 49.6732 34.6854 52.8569 37.3625 53.3266C37.502 53.3538 37.6428 53.3738 37.7844 53.3866L38.222 53.3973C38.5229 53.3757 38.822 53.3326 39.1167 53.2683C39.7274 53.1241 40.3227 52.9199 40.8939 52.6591Z" fill="#D800A8"/>
<path d="M25.3387 50.4219L25.2686 50.3668L25.3387 50.4219Z" fill="#D800A8"/>
<path d="M22.9356 21.438C22.8381 21.8143 22.6679 22.1678 22.4346 22.4781C22.0006 23.0441 21.4259 23.4855 20.7683 23.7583C20.1769 24.0142 19.5507 24.1796 18.9104 24.2492C18.7714 24.2668 18.6274 24.2773 18.4885 24.288C18.083 24.3034 17.6931 24.4489 17.3758 24.7031C17.0586 24.9574 16.8307 25.3069 16.7255 25.7006C16.6773 25.8966 16.6415 26.0953 16.6183 26.2957C16.555 26.8147 16.5444 27.3551 16.4882 28.0084C16.3505 29.1203 16.0303 30.2014 15.5408 31.2081C14.9045 32.5536 14.1908 33.6377 14.356 35.1881C14.465 36.1946 14.9783 36.8691 15.6603 37.5649C16.8907 38.8292 19.6452 39.3941 19.03 42.5091C18.659 44.3683 15.59 46.3196 11.2764 47.0012C11.7053 46.9358 10.7262 45.2777 10.6647 45.1717C10.2024 44.4443 9.69621 43.7591 9.32884 42.9699C8.60815 41.439 8.27417 39.6679 8.56949 37.9903C8.88061 36.2246 10.1813 34.872 11.2624 33.5229C12.5491 31.9179 13.899 29.8149 14.1978 27.7313C14.2681 27.2263 14.3174 26.5941 14.4299 25.9654C14.5371 25.269 14.7543 24.5942 15.0732 23.9666C15.2909 23.5549 15.5775 23.184 15.9204 22.8701C16.0992 22.7034 16.2172 22.4813 16.2555 22.2392C16.2937 21.9971 16.25 21.7493 16.1314 21.5351L9.25501 9.11111L19.1318 21.3549C19.2443 21.4969 19.3864 21.6122 19.5482 21.6926C19.7101 21.7731 19.8876 21.8169 20.068 21.8207C20.2486 21.8246 20.4276 21.7886 20.5928 21.7151C20.7578 21.6416 20.9048 21.5325 21.0233 21.3956C21.1484 21.249 21.2192 21.0636 21.2241 20.8706C21.2288 20.6777 21.1673 20.4889 21.0496 20.3363C20.4046 19.5081 19.7224 18.664 19.0615 17.8341L16.5761 14.7439L11.5876 8.57432L4.78516 0L12.2274 8.02164L17.5376 13.9193L20.1865 16.8752C21.0653 17.8694 21.9443 18.8318 22.8231 19.8771L22.9673 20.0537L22.999 20.3272C23.0417 20.6985 23.0204 21.0743 22.9356 21.438Z" fill="#D800A8"/>
<path d="M25.2132 50.3362C24.736 49.9659 24.3114 49.5315 23.9512 49.0455C24.3376 49.5082 24.7595 49.9398 25.2132 50.3362Z" fill="#D800A8"/>
<defs>
<linearGradient id="paint0_linear" x1="10.5" y1="4.14997e-07" x2="43" y2="68.5" gradientUnits="userSpaceOnUse">
<stop stop-color="#FEE3FF"/>
<stop offset="1" stop-color="white"/>
</linearGradient>
</defs>
</svg>
