<svg width="60" height="60" viewBox="0 0 60 60" fill="none" xmlns="http://www.w3.org/2000/svg">
<path d="M54.9217 46.3969C54.8838 46.4287 54.8459 46.4569 54.808 46.4851C54.7701 46.5134 54.7287 46.5416 54.6908 46.5698C54.615 46.6228 54.5392 46.6757 54.4634 46.7251L54.4359 46.7428C54.3738 46.7851 54.3084 46.824 54.2429 46.8628C54.1464 46.9228 54.0534 46.9793 53.9535 47.0322C53.2885 47.4099 52.5925 47.717 51.8793 47.9852C51.2074 48.2393 50.5252 48.4582 49.8395 48.6558C48.8541 48.9382 47.8549 49.1712 46.8522 49.3759C45.8737 49.5771 44.8952 49.7465 43.9098 49.8947C42.9243 50.043 41.9355 50.163 40.9466 50.2689C40.6227 50.3042 40.2989 50.3359 39.9715 50.3677C39.3203 50.4277 38.6691 50.4807 38.0179 50.5265C37.6906 50.5477 37.3667 50.5689 37.0394 50.5901C36.3089 50.6324 35.5785 50.6642 34.848 50.6889C34.7171 50.6924 34.5827 50.6995 34.4484 50.703C34.3278 50.7065 34.2037 50.7101 34.0831 50.7136C34.3829 50.3359 34.6827 49.9583 34.9548 49.5594C34.9927 49.51 35.0341 49.4606 35.072 49.4076C35.6887 48.557 36.2814 47.6887 36.8464 46.8028C36.905 46.8028 36.9601 46.7957 37.0187 46.7922C37.3771 46.771 37.7354 46.7498 38.0972 46.7216C38.3694 46.704 38.6416 46.6828 38.9138 46.6616C40.8157 46.5098 42.7107 46.2945 44.5989 45.991C45.1467 45.9027 45.6945 45.8074 46.2389 45.7051C47.5103 45.4615 48.7748 45.1756 50.0187 44.8086C50.2909 44.7274 50.5631 44.6427 50.8353 44.558C50.9731 44.5156 51.1075 44.4697 51.2418 44.4238C51.4451 44.4591 51.6346 44.5474 51.8241 44.6215C51.993 44.685 52.1618 44.7521 52.3306 44.8191C52.8061 45.0133 53.2747 45.2286 53.7295 45.4721C53.9087 45.5674 54.0844 45.6698 54.2567 45.7792C54.4875 45.9239 54.7115 46.0722 54.9217 46.2451C54.9837 46.2945 55.0009 46.3157 54.9768 46.3439C54.9665 46.3581 54.9492 46.3722 54.9182 46.3969H54.9217Z" fill="#F1ECE2"/>
<path d="M37.2909 55.3726C37.253 55.3968 37.2116 55.3968 37.1703 55.383C37.1806 55.3761 37.191 55.3726 37.1979 55.3692C37.2151 55.3623 37.2289 55.3623 37.2461 55.3623C37.2599 55.3623 37.2771 55.3657 37.2909 55.3726Z" fill="#5E93FF"/>
<path d="M37.129 55.3829C37.0808 55.4036 37.0291 55.407 36.9774 55.3898C37.0257 55.3588 37.0773 55.3622 37.129 55.3829Z" fill="#5E93FF"/>
<path d="M36.936 55.39C36.8878 55.4106 36.8361 55.4141 36.7878 55.4003C36.8361 55.3693 36.8878 55.3727 36.936 55.39Z" fill="#5E93FF"/>
<path d="M36.7465 55.4006C36.6983 55.4247 36.6466 55.4247 36.5984 55.4075C36.5984 55.4075 36.6018 55.4075 36.6053 55.4075C36.6535 55.3834 36.7018 55.3834 36.75 55.4006H36.7465Z" fill="#5E93FF"/>
<path d="M36.4537 55.3973C36.4847 55.3904 36.5191 55.3973 36.5536 55.4076C36.5053 55.4318 36.4537 55.4318 36.402 55.4145C36.4192 55.4042 36.433 55.4008 36.4502 55.3973H36.4537Z" fill="#5E93FF"/>
<path d="M36.2848 55.4045C36.3089 55.4045 36.3364 55.408 36.3606 55.4183C36.3123 55.439 36.2641 55.4424 36.2124 55.4252C36.2365 55.4114 36.2606 55.4045 36.2848 55.4045Z" fill="#5E93FF"/>
<path d="M36.1332 55.4151C36.1332 55.4151 36.1574 55.422 36.1677 55.4254C36.1195 55.4495 36.0712 55.4495 36.0195 55.4323C36.054 55.4116 36.0919 55.4082 36.1263 55.4151H36.1332Z" fill="#5E93FF"/>
<path d="M35.9747 55.4323C35.9161 55.4564 35.8576 55.4564 35.7955 55.4392C35.8541 55.4116 35.9127 55.4151 35.9747 55.4323Z" fill="#5E93FF"/>
<path d="M35.7542 55.4395C35.706 55.4637 35.6578 55.4602 35.6061 55.4464C35.6543 55.4189 35.7026 55.4189 35.7542 55.4395Z" fill="#5E93FF"/>
<path d="M48.4786 43.5839C48.5027 43.5874 48.5303 43.5874 48.5544 43.5909C48.5888 43.5909 48.6198 43.6015 48.644 43.6333C48.5785 43.6262 48.513 43.6121 48.4545 43.5803C48.4579 43.5803 48.4614 43.5803 48.4682 43.5803C48.4717 43.5803 48.4751 43.5803 48.4786 43.5803V43.5839Z" fill="#5E93FF"/>
<path d="M20.8556 59.9683C20.8556 59.9683 20.866 59.9889 20.8694 59.9993H19.8564C19.8564 59.9993 19.8668 59.982 19.8737 59.9683C19.9564 59.9683 20.0356 59.9683 20.1183 59.9683C20.3629 59.9683 20.6076 59.9683 20.8522 59.9683H20.8556Z" fill="#3180F4"/>
<path d="M51.2418 44.4238C51.1075 44.4697 50.9696 44.5156 50.8353 44.5579C50.5631 44.6462 50.2909 44.7309 50.0187 44.8085C48.7748 45.1721 47.5103 45.4615 46.2389 45.7051C45.6945 45.8074 45.1467 45.9027 44.5989 45.991C42.7142 46.2945 40.8191 46.5098 38.9138 46.6616C38.6416 46.6828 38.3694 46.7039 38.0972 46.7216C37.7388 46.7463 37.3805 46.771 37.0187 46.7922C36.9601 46.7922 36.905 46.7993 36.8464 46.8028C37.2358 46.1922 37.6148 45.5745 37.9835 44.9462C38.5141 44.0391 39.0171 43.1179 39.4995 42.186C40.416 42.2672 41.3325 42.3625 42.249 42.479C42.3179 42.4861 42.3834 42.5002 42.4523 42.5108C42.8623 42.5425 43.2689 42.6061 43.672 42.6661C44.1923 42.7437 44.7126 42.8284 45.2328 42.9202C45.9323 43.0402 46.6317 43.1743 47.3277 43.3296C47.7033 43.4143 48.0788 43.4991 48.4544 43.5838C48.513 43.6155 48.5784 43.6296 48.6439 43.6367C49.4467 43.8485 50.2461 44.0673 51.0317 44.3356C51.104 44.3603 51.1867 44.3673 51.2418 44.4309V44.4238Z" fill="#FDBF41"/>
<path d="M24.5769 50.4736C24.9008 50.4983 25.2247 50.5266 25.5485 50.5478C25.2247 50.5266 24.9008 50.4983 24.5769 50.4736Z" fill="#F1ECE2"/>
<path d="M14.2232 57.8782C14.199 57.8782 14.1784 57.8713 14.1611 57.8506C14.1611 57.8506 14.1646 57.8506 14.168 57.8506C14.168 57.8506 14.1749 57.8506 14.1784 57.8506C14.1784 57.8506 14.1853 57.8506 14.1887 57.8506H14.1956C14.1956 57.8506 14.2025 57.854 14.2059 57.8575H14.2094C14.2094 57.8575 14.2163 57.8678 14.2197 57.8713L14.2232 57.8782Z" fill="#404A5A"/>
<path d="M14.1611 57.8498C14.137 57.8498 14.1129 57.8464 14.0991 57.8223C14.0991 57.8223 14.1129 57.8223 14.1163 57.8223C14.1163 57.8223 14.1474 57.8326 14.1577 57.8498H14.1611Z" fill="#404A5A"/>
<path d="M14.0957 57.8186L14.0923 57.8152L14.0957 57.8186Z" fill="#404A5A"/>
<path d="M14.0957 57.8179C14.0682 57.8179 14.0441 57.8179 14.0303 57.7869C14.0578 57.7869 14.0785 57.7903 14.0923 57.8144L14.0957 57.8179Z" fill="#404A5A"/>
<path d="M14.0337 57.7869H14.0303V57.7834L14.0337 57.7869Z" fill="#404A5A"/>
<path d="M14.0337 57.7869L14.0303 57.7834H14.0337V57.7869Z" fill="#404A5A"/>
<path d="M14.0337 57.7827C14.0061 57.7827 13.9786 57.7896 13.9717 57.7552C13.9992 57.7483 14.0234 57.7552 14.0371 57.7827H14.0337Z" fill="#404A5A"/>
<path d="M13.782 57.6211C13.7993 57.6317 13.8199 57.6423 13.8406 57.6529C13.8544 57.6599 13.8716 57.667 13.8854 57.674C13.9095 57.6882 13.9336 57.7023 13.9509 57.727C13.9578 57.734 13.9612 57.7446 13.9681 57.7552C13.882 57.7482 13.8096 57.7129 13.7441 57.6564L13.7855 57.6211H13.782Z" fill="#404A5A"/>
<path d="M19.5981 54.8219C19.5292 54.8324 19.4568 54.8466 19.3879 54.8536C19.1157 54.8924 18.8435 54.9136 18.5713 54.9207C18.4783 54.9207 18.3887 54.9207 18.2957 54.9207C18.2027 54.9207 18.1131 54.9172 18.02 54.9136C17.9787 54.9136 17.9408 54.9066 17.9029 54.903C17.865 54.8995 17.8237 54.8924 17.7858 54.8889C17.7375 54.8854 17.6962 54.8642 17.6583 54.8289C17.5515 54.7266 17.4446 54.6242 17.3447 54.5183C18.0959 54.6313 18.847 54.7301 19.5981 54.8219Z" fill="#F1ECE2"/>
<path d="M31.4128 41.833C30.8719 41.833 30.3309 41.8401 29.7934 41.8507C28.8941 43.2802 27.9225 44.6567 26.8647 45.9697C26.6407 46.245 26.4168 46.5168 26.1859 46.7851C25.6036 47.4628 25.0007 48.1157 24.3633 48.7405C23.8085 49.2876 23.2331 49.8099 22.6302 50.3006C22.1616 50.6853 21.6792 51.0524 21.1761 51.3912C20.2493 52.0195 19.2811 52.5595 18.2371 52.9548C17.7065 53.1525 17.1656 53.3149 16.6108 53.4102C16.5798 53.4172 16.5488 53.4278 16.5212 53.4384C16.5212 53.449 16.5247 53.4596 16.5281 53.4666C16.5281 53.4737 16.5281 53.4772 16.535 53.4843C16.5764 53.5478 16.6143 53.6078 16.6556 53.6678C16.7383 53.7878 16.8244 53.9078 16.914 54.0243C17.0484 54.1973 17.1931 54.3632 17.3413 54.5255C18.0924 54.6385 18.8435 54.7373 19.5946 54.8291C19.7945 54.7973 19.9943 54.7585 20.1942 54.7091C20.6524 54.5961 21.1003 54.4514 21.5345 54.2784C21.7515 54.1902 21.9686 54.0984 22.1822 53.9996C22.3959 53.9008 22.606 53.7914 22.8128 53.6819C22.9024 53.6325 22.9919 53.5831 23.0815 53.5337C23.7052 53.1807 24.3047 52.7889 24.8766 52.3654C25.452 51.9418 26.0033 51.483 26.5374 51.003C26.6132 50.9324 26.689 50.8653 26.7648 50.7947C26.8199 50.7418 26.875 50.6888 26.9336 50.6359C27.2782 50.3147 27.6124 49.9829 27.9397 49.6441C28.0672 49.5135 28.1912 49.3793 28.3187 49.2452C28.7287 48.804 29.1319 48.3522 29.5212 47.8898C29.7555 47.611 29.9829 47.3322 30.2103 47.0463C30.2379 47.011 30.2654 46.9757 30.293 46.9439C30.4481 46.7462 30.5997 46.5486 30.7513 46.3474C31.2267 45.7156 31.6884 45.0697 32.1295 44.4132C32.3672 44.0567 32.6015 43.7002 32.8324 43.3366C32.9598 43.1319 33.0873 42.9272 33.2114 42.7225C33.3836 42.4401 33.5525 42.1577 33.7213 41.8718C32.9495 41.8542 32.1812 41.8436 31.4094 41.8436L31.4128 41.833Z" fill="#F1ECE2"/>
<path d="M10.8396 56.3318C10.8154 56.3353 10.7948 56.3318 10.7844 56.3042C10.812 56.2974 10.8327 56.3042 10.8396 56.3318Z" fill="#C18B00"/>
<path d="M26.8337 41.9495C26.4478 41.9672 26.0619 41.9884 25.676 42.0131C25.2522 42.6272 24.8146 43.2308 24.3598 43.8202C23.9119 44.3991 23.4536 44.9674 22.9713 45.518C22.6991 45.8321 22.42 46.1392 22.1409 46.4463C21.9411 46.6616 21.7378 46.8769 21.531 47.0851C20.7007 47.9146 19.8324 48.7017 18.8987 49.4076C18.7436 49.5241 18.5886 49.6406 18.4266 49.7535C17.9029 50.1277 17.3585 50.4736 16.7969 50.7842C16.3903 51.0101 15.97 51.2112 15.5427 51.3948C15.5427 51.416 15.5427 51.4371 15.5496 51.4583C15.6082 51.6277 15.6737 51.7936 15.7426 51.956C15.8115 52.1219 15.8838 52.2807 15.9596 52.4431C16.1112 52.7643 16.2801 53.0749 16.4696 53.3784C16.4834 53.4031 16.504 53.4173 16.5213 53.4349C16.5523 53.4243 16.5798 53.4137 16.6108 53.4067C17.169 53.3114 17.71 53.149 18.2371 52.9514C19.2811 52.5596 20.2528 52.016 21.1762 51.3877C21.6792 51.0454 22.1616 50.6818 22.6302 50.2971C23.2297 49.8065 23.8051 49.2841 24.3633 48.737C25.0007 48.1122 25.6037 47.4593 26.186 46.7816C26.4168 46.5133 26.6408 46.2415 26.8647 45.9662C27.9225 44.6567 28.8941 43.2767 29.7934 41.8472C28.808 41.8648 27.8191 41.8966 26.8337 41.946V41.9495Z" fill="#FDBF41"/>
<path d="M46.232 26.7406C46.263 26.7406 46.2975 26.7406 46.2768 26.6912C46.2906 26.6912 46.3078 26.6947 46.3216 26.6982C46.3113 26.6982 46.3044 26.6982 46.3009 26.7053C46.2872 26.7159 46.2872 26.737 46.2906 26.7582C46.2699 26.7582 46.2527 26.7582 46.232 26.7547C46.2217 26.7547 46.2079 26.7547 46.1976 26.7547C46.1735 26.7547 46.1493 26.7512 46.1252 26.7476C46.0701 26.7406 46.015 26.73 45.9598 26.7159C46.0529 26.7088 46.1424 26.7441 46.232 26.7476V26.7406Z" fill="#E7AA24"/>
<path d="M18.0925 45.8919C18.1304 45.899 18.1717 45.906 18.2096 45.9131C17.4516 46.6614 16.6591 47.3638 15.8115 48.0062C15.5014 48.2391 15.1948 48.4756 14.8605 48.6733C14.7985 48.3979 14.771 48.1191 14.74 47.8438C14.6331 46.9543 14.5952 46.0649 14.5918 45.1719C14.802 45.2248 15.0122 45.2742 15.2258 45.3236C15.8425 45.4684 16.4627 45.5954 17.0864 45.7154C17.4206 45.779 17.7582 45.839 18.0925 45.8954V45.8919Z" fill="#F1ECE2"/>
<path d="M21.5553 42.3766C21.4657 42.3872 21.3761 42.3978 21.2865 42.4048C20.3941 43.5661 19.4397 44.6744 18.4095 45.7156C18.344 45.7827 18.2786 45.8462 18.2097 45.9133C18.2407 45.9168 18.2717 45.9239 18.2993 45.9309C18.2682 45.9274 18.2372 45.9203 18.2062 45.9168C17.4482 46.6651 16.6557 47.3675 15.8081 48.0099C15.498 48.2428 15.1914 48.4793 14.8572 48.677C14.8572 48.7158 14.8606 48.7511 14.8675 48.7899C14.8675 48.8005 14.8675 48.8111 14.8675 48.8217C14.8744 48.864 14.8847 48.9064 14.8916 48.9488C14.8985 48.984 14.902 49.0158 14.9089 49.0511C14.9261 49.1358 14.9399 49.2241 14.9571 49.3088C15.0536 49.7994 15.1673 50.2829 15.312 50.7594C15.3775 50.9748 15.4291 51.1936 15.5325 51.3913C15.9597 51.2077 16.3801 51.0065 16.7867 50.7806C17.3517 50.47 17.8927 50.1241 18.4164 49.75C18.5749 49.637 18.7334 49.5241 18.8884 49.4041C19.8222 48.6982 20.6905 47.9146 21.5208 47.0816C21.7276 46.8733 21.9308 46.658 22.1307 46.4427C22.4132 46.1392 22.6889 45.8286 22.9611 45.5144C23.4434 44.9638 23.9017 44.3955 24.3496 43.8167C24.8044 43.2272 25.242 42.6237 25.6658 42.0095C24.291 42.0942 22.9163 42.2142 21.5484 42.3695L21.5553 42.3766Z" fill="#FF1100"/>
<path d="M18.2991 45.9271C18.2681 45.9237 18.2371 45.9168 18.2061 45.9133C18.2371 45.9168 18.2681 45.9237 18.2956 45.9271H18.2991Z" fill="#F1ECE2"/>
<path d="M18.2097 45.9091C18.1718 45.9022 18.1339 45.8953 18.0925 45.8884L18.2097 45.9091Z" fill="#FF1100"/>
<path d="M17.0864 45.7122C17.4206 45.7757 17.7583 45.8357 18.0925 45.8922C17.7583 45.8357 17.4206 45.7757 17.0864 45.7122Z" fill="#FF1100"/>
<path d="M20.6973 42.4895C20.8937 42.4471 21.0901 42.426 21.2865 42.4048C20.3941 43.566 19.4397 44.6743 18.4094 45.7156C18.344 45.7826 18.2785 45.8462 18.2096 45.9132L18.0925 45.8921C17.7582 45.8356 17.4206 45.7756 17.0864 45.712C16.4627 45.5956 15.8425 45.465 15.2258 45.3202C15.0156 45.2708 14.8054 45.2179 14.5918 45.1685C14.5918 44.8332 14.5952 44.4943 14.6056 44.1555C14.6125 43.9543 14.6194 43.7566 14.6297 43.5554C15.3464 43.379 16.0665 43.2272 16.7935 43.086C18.0304 42.846 19.2743 42.6519 20.5215 42.493C20.5422 42.493 20.5629 42.486 20.5801 42.486C20.6042 42.486 20.6249 42.4789 20.649 42.4824C20.6628 42.4824 20.6766 42.4824 20.6904 42.4895H20.6973Z" fill="#FDBF41"/>
<path d="M42.7589 26.2532C43.4825 26.3449 44.2026 26.4332 44.9262 26.525C44.9227 26.532 44.9158 26.5391 44.9089 26.5461C44.461 26.4897 44.0097 26.4367 43.5617 26.3767C43.4308 26.3591 43.2999 26.3485 43.169 26.3344C43.038 26.3202 42.9071 26.3061 42.7796 26.2779C42.7727 26.2708 42.7658 26.2602 42.7555 26.2532H42.7589Z" fill="#007FFF"/>
<path d="M39.2205 28.5511C39.248 28.4452 39.2721 28.3393 39.2997 28.2334C39.2721 28.3393 39.248 28.4452 39.2205 28.5511Z" fill="#F1ECE2"/>
<path d="M59.9694 43.4106C59.9694 42.3941 59.9694 41.3776 59.9694 40.3575C59.9039 40.0751 59.8212 39.7963 59.6662 39.5492C59.4181 39.1469 59.1218 38.7904 58.7531 38.4974C58.3672 38.1903 57.971 37.9009 57.5437 37.6574C56.958 37.322 56.3481 37.0361 55.7383 36.7538C55.628 36.7044 55.5178 36.6797 55.4075 36.6338C54.0259 36.0796 52.6029 35.6631 51.1626 35.3066C50.2392 35.0772 49.3124 34.8795 48.3786 34.6995C47.3312 34.4983 46.2803 34.3254 45.226 34.1772C44.499 34.0748 43.772 33.983 43.0415 33.8983C42.7176 33.863 42.3938 33.8242 42.0664 33.7924C41.1465 33.7007 40.23 33.6159 39.31 33.5489C38.7656 33.5065 38.2247 33.4712 37.6803 33.443C37.2186 33.4183 36.7569 33.3936 36.2952 33.3724C35.5682 33.3371 34.8412 33.3124 34.1142 33.2947C34.0625 33.2947 34.0074 33.2947 33.9557 33.2912C32.8083 33.2665 31.6575 33.2595 30.5101 33.2665C30.4929 33.2665 30.4722 33.2665 30.455 33.2665C29.2732 33.2771 28.0914 33.3053 26.9096 33.3548C26.8372 33.3548 26.7683 33.3618 26.6994 33.3653C25.3005 33.4253 23.9051 33.5171 22.5131 33.6371C20.4664 33.8136 18.4267 34.0536 16.3938 34.3819C16.3456 34.3889 16.2974 34.396 16.2491 34.4066C16.1699 34.6889 16.101 34.9748 16.001 35.2502C15.9321 35.5325 15.8632 35.8149 15.7943 36.0973C15.6082 36.8455 15.4394 37.6009 15.2913 38.3562L15.6014 38.3033C15.7357 38.2786 15.8736 38.2574 16.0079 38.2327C16.2078 38.1974 16.4111 38.1656 16.6109 38.1339C17.3379 38.0174 18.0684 37.915 18.7988 37.8197C19.5293 37.7244 20.2597 37.6432 20.9936 37.5656C21.4829 37.5162 21.9721 37.4703 22.4614 37.4279C23.2022 37.3644 23.943 37.3115 24.6872 37.262C25.3866 37.2197 26.0826 37.1809 26.7821 37.1526C26.9613 37.1456 27.1404 37.135 27.3196 37.1279C27.5849 37.1173 27.8536 37.1103 28.1224 37.0997C28.2947 37.0961 28.4669 37.0891 28.6392 37.0856C29.2698 37.0714 29.8968 37.0609 30.5274 37.0538C30.7651 37.0538 30.9994 37.0538 31.2372 37.0503C31.6437 37.0503 32.0503 37.0503 32.4534 37.0538C32.6016 37.0538 32.7463 37.0538 32.8944 37.0573C33.0529 37.0573 33.2114 37.0609 33.3699 37.0644C33.8006 37.0714 34.2279 37.082 34.6586 37.0961C35.0892 37.1103 35.5165 37.1244 35.9472 37.142C36.0195 37.142 36.0884 37.1491 36.1608 37.1526C36.6225 37.1738 37.0808 37.195 37.5425 37.2232C37.8974 37.2444 38.2488 37.2656 38.6037 37.2903C39.1343 37.3256 39.6649 37.3644 40.1955 37.4103C40.6848 37.4526 41.1706 37.4985 41.6599 37.5479C41.6771 37.5479 41.6943 37.5479 41.7115 37.5515C42.063 37.5868 42.411 37.6221 42.7624 37.6574C43.3241 37.7138 43.8822 37.7844 44.4439 37.8585C45.002 37.9327 45.5602 38.0174 46.1184 38.1021C46.3492 38.1374 46.5835 38.1727 46.8144 38.2115C47.5069 38.3245 48.2029 38.455 48.892 38.5927C49.2986 38.6739 49.7017 38.7586 50.1083 38.8504C50.5114 38.9421 50.9145 39.0339 51.3177 39.1363C51.9275 39.2916 52.5374 39.4539 53.1369 39.6375C53.9397 39.881 54.7322 40.1493 55.5109 40.4669C55.7073 40.5446 55.9002 40.6293 56.0932 40.714C56.386 40.8446 56.6755 40.9858 56.9614 41.1305C57.0304 41.1658 57.1027 41.2011 57.1716 41.2399C57.2267 41.2682 57.2819 41.2964 57.337 41.3246C57.4094 41.3599 57.4817 41.3988 57.5541 41.4411C57.6437 41.4905 57.7332 41.5435 57.8194 41.6035C58.1433 41.8329 58.474 42.0482 58.7738 42.3094C58.8427 42.3694 58.9116 42.4329 58.9771 42.4965C59.0563 42.5635 59.1287 42.6341 59.201 42.7082C59.3182 42.8282 59.4284 42.9588 59.5249 43.0965C59.5732 43.1636 59.6179 43.2306 59.6558 43.3047C59.6903 43.3648 59.7248 43.4283 59.7558 43.4918C59.7868 43.5554 59.8143 43.6224 59.8419 43.6895C59.8695 43.7565 59.8936 43.8236 59.9143 43.8942C59.928 43.9436 59.9453 43.993 59.9591 44.0424C59.9591 44.0424 59.9591 44.0424 59.9591 44.0495V44.0424C59.997 43.8377 59.9728 43.6295 59.9763 43.4212L59.9694 43.4106Z" fill="#F1ECE2"/>
<path d="M59.9797 39.9552C59.9797 39.1858 59.9797 38.4128 59.9797 37.6433C59.9797 37.2869 59.9762 36.9304 59.9728 36.5774C59.9142 36.3762 59.8728 36.1715 59.7798 35.9774C59.5524 35.4973 59.2148 35.1091 58.822 34.7667C58.3947 34.389 57.9192 34.0749 57.4231 33.7961C56.703 33.3902 55.9553 33.0443 55.1869 32.7513C54.2945 32.4125 53.3884 32.1124 52.4719 31.8583C51.769 31.6642 51.0661 31.4842 50.3563 31.3183C49.5501 31.1312 48.7369 30.9653 47.9238 30.8206C47.0762 30.6688 46.232 30.5241 45.3775 30.4041C44.9744 30.3476 44.5713 30.2912 44.1681 30.2417C43.2654 30.1217 42.3592 30.0194 41.4531 29.9382C41.2842 29.9241 41.1189 29.8958 40.95 29.8852C40.2644 29.8323 39.5787 29.7794 38.8965 29.7299C38.8 29.7229 38.7001 29.7158 38.6036 29.7088C38.1454 29.6735 37.6906 29.6417 37.2323 29.617C36.6362 29.5852 36.0436 29.564 35.4475 29.5429C35.4406 29.5429 35.4372 29.5429 35.4303 29.5429C34.8101 29.5217 34.1865 29.497 33.5663 29.4864C33.0184 29.4758 32.4706 29.4723 31.9227 29.4688C31.6816 29.4688 31.4404 29.4688 31.1992 29.4688C30.2379 29.4688 29.28 29.4829 28.3187 29.5111C28.3049 29.5111 28.2912 29.5111 28.2774 29.5111C27.1507 29.5464 26.024 29.5923 24.9008 29.6664C24.0359 29.7229 23.1711 29.7723 22.3063 29.8464C21.9583 29.8782 21.6068 29.9205 21.2588 29.9558C20.0426 30.0794 18.8297 30.2241 17.6169 30.4006C17.6031 30.4006 17.5894 30.4041 17.5756 30.4076C17.0932 31.6889 16.6556 32.9913 16.2732 34.3149C16.2628 34.3467 16.2559 34.382 16.2456 34.4137C16.2938 34.4067 16.3421 34.3961 16.3903 34.389C18.4197 34.0608 20.4595 33.8208 22.5096 33.6443C23.905 33.5243 25.3004 33.436 26.6959 33.3725C26.7648 33.3725 26.8371 33.3654 26.9061 33.3619C28.0879 33.3125 29.2697 33.2843 30.4515 33.2737C30.4687 33.2737 30.4894 33.2737 30.5066 33.2737C31.6574 33.2631 32.8048 33.2737 33.9522 33.2984C34.0038 33.2984 34.0555 33.2984 34.1107 33.3019C34.8377 33.3196 35.5647 33.3443 36.2917 33.3796C36.7534 33.4007 37.2151 33.4255 37.6768 33.4502C38.2212 33.4819 38.7621 33.5172 39.3065 33.556C40.2265 33.6231 41.1464 33.7078 42.0629 33.7996C42.3868 33.8314 42.7107 33.8667 43.038 33.9055C43.7685 33.9902 44.4955 34.082 45.2225 34.1843C46.2768 34.3326 47.3277 34.5055 48.3751 34.7067C49.3089 34.8867 50.2357 35.0808 51.1591 35.3138C52.5993 35.6738 54.0223 36.0903 55.404 36.6409C55.5143 36.6833 55.6245 36.7115 55.7348 36.7609C56.3446 37.0433 56.9545 37.3257 57.5402 37.6645C57.9675 37.9081 58.3603 38.1975 58.7496 38.5046C59.1183 38.7975 59.4146 39.1576 59.6627 39.5564C59.8177 39.807 59.9039 40.0823 59.9659 40.3647C59.99 40.2306 59.9762 40.0964 59.9762 39.9623L59.9797 39.9552Z" fill="#FDBF41"/>
<path d="M38.6588 10.8289C39.1584 11.6302 39.5202 12.4949 39.7958 13.402C39.8819 13.6844 39.9577 13.9668 40.0267 14.2491C40.1404 14.7221 40.2299 15.2021 40.3023 15.6857C40.323 15.8269 40.3436 15.9681 40.3609 16.1092C40.3953 16.3916 40.4263 16.6775 40.4505 16.9634C40.4608 17.1046 40.4746 17.2493 40.4815 17.3905C40.5331 18.167 40.5538 18.9435 40.5331 19.72C40.5125 20.5354 40.4642 21.3472 40.385 22.159C40.3057 22.9673 40.1955 23.7685 40.0646 24.5662C39.9853 25.0462 39.8992 25.5227 39.8061 25.9992C39.055 25.9392 38.3039 25.8863 37.5528 25.8475C37.191 25.8298 36.8292 25.8122 36.4674 25.791C36.7121 24.7145 36.9188 23.6273 37.0807 22.5331C37.2599 21.319 37.3839 20.1012 37.4322 18.88C37.4701 17.8388 37.4666 16.7975 37.3839 15.7563C37.315 14.888 37.2013 14.0303 37.0187 13.1797C36.8154 12.2231 36.526 11.2948 36.1125 10.4089C35.9506 10.0559 35.7576 9.72063 35.5647 9.38885C35.7232 9.3359 35.8886 9.33237 36.0471 9.31473C36.1332 9.30414 36.2159 9.29708 36.302 9.29355C36.3744 9.29002 36.4468 9.28649 36.5191 9.28296C36.6363 9.28296 36.7534 9.28296 36.8706 9.28296C36.9532 9.28296 37.0359 9.29002 37.1186 9.29355C37.1806 9.29355 37.2461 9.30061 37.3081 9.30414C37.3185 9.30414 37.3288 9.30414 37.3391 9.30767C37.3598 9.3112 37.377 9.31826 37.3943 9.32531C37.4115 9.33237 37.4287 9.34296 37.446 9.35355C37.4701 9.36767 37.4942 9.38885 37.5149 9.41003C37.57 9.46297 37.6251 9.51591 37.6768 9.56886C37.7836 9.67828 37.887 9.78769 37.9869 9.90417C38.235 10.1936 38.4589 10.5007 38.6622 10.8254L38.6588 10.8289Z" fill="#F1ECE2"/>
<path d="M37.0119 13.1832C37.1945 14.0339 37.3082 14.8916 37.3771 15.7598C37.4598 16.8011 37.4667 17.8423 37.4253 18.8836C37.3805 20.1083 37.253 21.326 37.0739 22.5367C36.9119 23.6344 36.7052 24.718 36.4606 25.7945C36.1849 25.7804 35.9127 25.7663 35.6371 25.7557C35.01 25.731 34.3829 25.7169 33.7558 25.7028C33.5215 25.6992 33.2872 25.6922 33.0564 25.6887C33.2838 24.8063 33.4871 23.9168 33.6594 23.0203C33.7903 22.3496 33.904 21.6755 34.0039 20.9978C34.0694 20.546 34.128 20.0907 34.1762 19.6354C34.2279 19.1589 34.2692 18.6824 34.3002 18.2023C34.3312 17.6905 34.3519 17.1787 34.3623 16.6669C34.3726 15.9822 34.3519 15.2975 34.3037 14.6127C34.2727 14.1609 34.2279 13.7127 34.1727 13.2609C34.0969 12.6467 33.9867 12.0361 33.8454 11.4361C33.7317 10.9525 33.6008 10.476 33.4285 10.0101C33.5491 9.93244 33.6869 9.89361 33.8179 9.8442C34.0866 9.74184 34.3588 9.6536 34.631 9.57594C34.9066 9.49829 35.1857 9.43476 35.4683 9.38534C35.4889 9.38182 35.5062 9.37829 35.5268 9.37476C35.5372 9.37476 35.551 9.37476 35.5613 9.37829C35.7542 9.7136 35.9472 10.0489 36.1091 10.3983C36.5226 11.2843 36.812 12.2126 37.0153 13.1691L37.0119 13.1832Z" fill="#FDBF41"/>
<path d="M44.8952 11.6085C44.8952 11.6085 44.8883 11.6016 44.8883 11.5982C44.8883 11.5982 44.8883 11.5948 44.8883 11.5913L44.8986 11.5982V11.6085H44.8952Z" fill="#3180F4"/>
<path d="M59.9659 47.6956C59.9659 47.6462 59.9728 47.6003 59.9728 47.5509C59.9728 46.7567 59.9728 45.959 59.9728 45.1649C59.9728 44.8225 59.9659 44.4766 59.9659 44.1342C59.9659 44.113 59.9762 44.0919 59.9728 44.0707C59.9728 44.0707 59.959 44.046 59.9555 44.0354C59.9418 43.986 59.9245 43.9365 59.9108 43.8871C59.8901 43.8165 59.866 43.7495 59.8384 43.6824C59.8108 43.6154 59.7833 43.5483 59.7523 43.4848C59.7212 43.4212 59.6868 43.3577 59.6523 43.2977C59.611 43.2271 59.5662 43.1565 59.5214 43.0894C59.4249 42.9518 59.3181 42.8247 59.1975 42.7012C59.1252 42.6271 59.0528 42.5565 58.9736 42.4894C58.9081 42.4223 58.8426 42.3623 58.7703 42.3023C58.4705 42.0411 58.1398 41.8258 57.8159 41.5964C57.7297 41.5364 57.6436 41.4835 57.5506 41.434C57.4782 41.3952 57.4093 41.3564 57.3335 41.3176C57.2784 41.2893 57.2232 41.2611 57.1681 41.2329C57.0992 41.1976 57.0268 41.1623 56.9579 41.1234C56.672 40.9787 56.3825 40.8375 56.0897 40.7069C55.8967 40.6222 55.7038 40.5411 55.5074 40.4599C54.7287 40.1422 53.9362 39.8704 53.1334 39.6304C52.5304 39.4469 51.924 39.2845 51.3142 39.1292C50.911 39.0268 50.5114 38.9315 50.1048 38.8433C49.7017 38.7551 49.2951 38.6668 48.8885 38.5856C48.1994 38.4445 47.5034 38.3174 46.8109 38.2044C46.58 38.1656 46.3492 38.1303 46.1149 38.095C45.5567 38.0103 44.9985 37.9256 44.4403 37.8515C43.8822 37.7738 43.3205 37.7068 42.7589 37.6503C42.4075 37.615 42.0595 37.5797 41.708 37.5444C41.6908 37.5444 41.6736 37.5444 41.6564 37.5409C41.1671 37.4915 40.6813 37.4456 40.192 37.4032C39.6614 37.3609 39.1308 37.322 38.6002 37.2832C38.2453 37.2585 37.8938 37.2373 37.539 37.2162C37.0773 37.1914 36.619 37.1667 36.1573 37.1456C36.0849 37.1456 36.016 37.1385 35.9437 37.135C35.513 37.1173 35.0857 37.0997 34.6551 37.0891C34.2244 37.075 33.7971 37.0644 33.3664 37.0573C33.2079 37.0573 33.0494 37.0538 32.8909 37.0503C32.7428 37.0503 32.5981 37.0503 32.4499 37.0467C32.0433 37.0467 31.6368 37.0432 31.2336 37.0432C30.9959 37.0432 30.7582 37.0432 30.5239 37.0467C29.8933 37.0503 29.2663 37.0609 28.6357 37.0785C28.4634 37.082 28.2912 37.0856 28.1189 37.0926C27.8501 37.0997 27.5848 37.1103 27.3161 37.1209C27.1369 37.1279 26.9577 37.135 26.7786 37.1456C26.0791 37.1773 25.3831 37.2126 24.6837 37.255C23.9429 37.3009 23.1987 37.3573 22.4579 37.4209C21.9686 37.4632 21.4794 37.5091 20.9901 37.5585C20.2562 37.6326 19.5257 37.7174 18.7953 37.8127C18.0648 37.908 17.3344 38.0103 16.6074 38.1268C16.4041 38.1586 16.2043 38.1939 16.0044 38.2256C15.87 38.2468 15.7322 38.2715 15.5979 38.2962L15.2878 38.3492C15.4359 37.5903 15.6047 36.8385 15.7908 36.0902C15.8597 35.8078 15.9286 35.5255 15.9975 35.2431C16.0975 34.9678 16.1664 34.6819 16.2456 34.3995C16.2559 34.3678 16.2628 34.3325 16.2732 34.3007C16.6556 32.9806 17.0932 31.6782 17.5756 30.3934C17.8822 29.5781 18.2096 28.7733 18.5541 27.9756C18.785 27.4391 19.0261 26.9097 19.2742 26.3802C20.0977 24.6401 21.0073 22.9494 22.0203 21.3082C22.9644 19.7728 23.9946 18.3009 25.1213 16.8997C25.1454 16.8714 25.1626 16.8397 25.1833 16.8079C25.521 16.409 25.8552 16.0067 26.2032 15.6184C27.3333 14.3372 28.5461 13.1547 29.8933 12.1135C30.2241 11.8594 30.5687 11.6158 30.9063 11.3688C30.9373 11.3476 30.9752 11.344 31.0131 11.3405C31.0304 11.2911 31.0752 11.2699 31.1131 11.2417C31.809 10.7864 32.5292 10.3805 33.2906 10.0557C33.3182 10.0451 33.3423 10.031 33.3733 10.0204C33.3802 10.0204 33.3905 10.0169 33.4009 10.0134C33.4112 10.0134 33.4181 10.0134 33.4284 10.0134C33.549 9.93573 33.6869 9.8969 33.8178 9.84748C34.0865 9.74513 34.3587 9.65689 34.6309 9.57923C34.9066 9.50158 35.1857 9.43805 35.4682 9.38863C35.4889 9.38511 35.5061 9.38158 35.5268 9.37805C35.5371 9.37805 35.5509 9.37805 35.5612 9.38158C35.7197 9.32863 35.8851 9.3251 36.0436 9.30745C36.1297 9.29686 36.2124 9.28981 36.2986 9.28628C36.3709 9.28275 36.4433 9.27922 36.5156 9.27569C36.6328 9.27569 36.7499 9.27569 36.8671 9.27569C36.9498 9.27569 37.0325 9.28275 37.1152 9.28628C37.1772 9.28628 37.2426 9.29333 37.3047 9.29686C37.315 9.29686 37.3253 9.29686 37.3357 9.30039C37.3563 9.30392 37.3736 9.31098 37.3908 9.31804C37.408 9.3251 37.4253 9.33569 37.4425 9.34628C37.4666 9.3604 37.4907 9.38158 37.5114 9.40275C37.5665 9.4557 37.6216 9.50864 37.6733 9.56159C37.7801 9.671 37.8835 9.78042 37.9834 9.8969C38.2315 10.1863 38.4555 10.4934 38.6588 10.8181C39.1584 11.6194 39.5201 12.4841 39.7958 13.3912C39.8819 13.6736 39.9577 13.956 40.0266 14.2383C40.1403 14.7113 40.2299 15.1913 40.3023 15.6749C40.3229 15.8161 40.3436 15.9573 40.3608 16.0984C40.3953 16.3808 40.4263 16.6667 40.4504 16.9526C40.4608 17.0938 40.4745 17.2385 40.4814 17.3797C40.5331 18.1562 40.5538 18.9327 40.5331 19.7092C40.5124 20.5246 40.4642 21.3364 40.385 22.1482C40.3057 22.9565 40.1955 23.7577 40.0645 24.5554C39.9853 25.0354 39.8991 25.5119 39.8061 25.9884C39.9267 25.999 40.0473 26.0061 40.1713 26.0167C41.0431 26.0908 41.9148 26.179 42.783 26.2637C42.7762 26.2567 42.7693 26.2461 42.7589 26.239C43.4825 26.3308 44.2026 26.419 44.9262 26.5108C44.9227 26.5179 44.9158 26.5249 44.9089 26.532C44.9537 26.5391 44.9951 26.5461 45.0399 26.5496C45.1846 25.819 45.3155 25.0849 45.4258 24.3472C45.5257 23.6871 45.6084 23.0236 45.6773 22.3565C45.7428 21.7352 45.7979 21.1105 45.8254 20.4858C45.8392 20.1857 45.8565 19.8822 45.8737 19.5822C45.8737 19.5433 45.8565 19.4904 45.915 19.4728C45.915 18.9115 45.915 18.3503 45.9116 17.7891C45.8806 17.7785 45.8806 17.7503 45.8771 17.7221C45.8702 17.6091 45.8565 17.4962 45.853 17.3832C45.8323 16.5679 45.7565 15.7596 45.6497 14.9513C45.5326 14.0583 45.3569 13.1759 45.1157 12.3112C45.0571 12.0959 45.0054 11.8735 44.9124 11.6688L44.8917 11.5946C44.8917 11.5946 44.8848 11.5876 44.8848 11.5841C44.8848 11.5841 44.8848 11.5805 44.8848 11.577C44.8779 11.5523 44.8745 11.5241 44.8676 11.4993C44.5161 10.4652 44.0613 9.48393 43.4308 8.59094C42.8244 7.73324 42.0939 7.00967 41.1947 6.4767C40.857 6.27551 40.4918 6.13433 40.1438 5.95432C40.1128 5.9402 40.0714 5.9402 40.037 5.93314C40.006 5.89078 39.9577 5.88019 39.9164 5.86255C39.0998 5.49194 38.2832 5.12132 37.4632 4.75071C37.3563 4.70483 37.2633 4.63071 37.1427 4.61659C37.122 4.60953 37.1048 4.60247 37.0841 4.59541C36.9463 4.54953 36.8016 4.51776 36.6672 4.4507C36.6569 4.44717 36.6431 4.44364 36.6328 4.43658C36.6259 4.43658 36.619 4.43305 36.6156 4.42952H36.6121C36.6121 4.42952 36.588 4.43305 36.5777 4.41893C36.3158 4.35187 36.0505 4.29892 35.7852 4.2601C35.5922 4.23186 35.3993 4.21068 35.2063 4.20009C35.1409 4.19656 35.0754 4.19304 35.0134 4.19304C34.8204 4.18951 34.6275 4.19303 34.4345 4.20009C34.1796 4.21068 33.9246 4.23539 33.6731 4.27069C33.2286 4.33422 32.791 4.42952 32.3569 4.55306C32.2949 4.5707 32.2328 4.58835 32.1708 4.60953C31.3542 4.8566 30.5721 5.19545 29.821 5.59076C29.5695 5.72489 29.3214 5.86255 29.0767 6.00726C28.8528 6.13786 28.6323 6.27551 28.4118 6.4167C28.3394 6.46258 28.267 6.51199 28.1947 6.55788C28.1223 6.60729 28.05 6.65318 27.9811 6.70259C27.8364 6.80142 27.6951 6.90025 27.5573 7.00614C27.4884 7.05909 27.4194 7.1085 27.3471 7.16145C27.3471 7.16497 27.3471 7.17203 27.3471 7.17556C27.3471 7.17909 27.3436 7.18262 27.3402 7.18615C27.3368 7.18968 27.3264 7.19321 27.3161 7.19321V7.2038C27.3161 7.2038 27.3126 7.21439 27.3092 7.21792C27.3092 7.21792 27.3023 7.21792 27.2954 7.21792C27.2954 7.21792 27.292 7.21792 27.2885 7.21792C26.9819 7.43676 26.6821 7.66971 26.3892 7.90972C26.2583 8.01561 26.1308 8.12503 26.0033 8.23445C25.9827 8.2521 25.962 8.26975 25.9448 8.28739C25.8138 8.40034 25.6829 8.51682 25.5554 8.6333C25.5554 8.6333 25.5554 8.64036 25.5554 8.64389C25.5554 8.65094 25.552 8.658 25.5451 8.66506C25.5451 8.66506 25.5451 8.66506 25.5382 8.66506C25.5347 8.66506 25.5313 8.66506 25.5244 8.66506C25.521 8.67212 25.5141 8.67918 25.5106 8.68624C25.5037 8.6933 25.4968 8.70036 25.49 8.70742C25.4796 8.71448 25.4658 8.72154 25.4521 8.72507C25.4521 8.74271 25.4486 8.74977 25.4417 8.75683C25.4314 8.76389 25.4107 8.75683 25.3969 8.76036C25.3487 8.81331 25.297 8.86272 25.2488 8.91567C25.2488 8.9192 25.2419 8.92273 25.2384 8.92625C25.2384 8.92625 25.2384 8.92978 25.2384 8.93331C25.2384 8.94037 25.235 8.9439 25.2315 8.95096C25.2315 8.95096 25.2212 8.95802 25.2109 8.95449C25.1661 8.98979 25.1213 9.02508 25.0765 9.06391C25.073 9.06391 25.0696 9.07097 25.0662 9.0745C24.9042 9.2298 24.7457 9.38511 24.5872 9.54041C24.5769 9.551 24.5666 9.56159 24.5562 9.57218C24.508 9.62159 24.4563 9.671 24.4046 9.71689C24.2771 9.8369 24.1462 9.95337 24.0256 10.0804C23.9601 10.1475 23.8947 10.2181 23.8292 10.2852C23.4502 10.6769 23.0781 11.0723 22.7163 11.4817C22.2546 12.0041 21.8067 12.5335 21.3726 13.0771C21.3105 13.1547 21.2485 13.2324 21.1865 13.31C21.1762 13.3206 21.1658 13.3347 21.1589 13.3489C21.1451 13.3665 21.1348 13.3877 21.121 13.4053C21.1038 13.43 21.09 13.4583 21.0728 13.4795C21.059 13.4971 21.0487 13.5148 21.0349 13.5324C21.0314 13.5359 21.028 13.543 21.0211 13.5465C21.0004 13.5677 20.9798 13.5889 20.9556 13.6065C20.9556 13.6101 20.9556 13.6136 20.9522 13.6171C20.9522 13.6206 20.9522 13.6242 20.9488 13.6277C20.9488 13.6277 20.9453 13.6312 20.9419 13.6348C20.9419 13.6348 20.935 13.6383 20.9281 13.6418C20.9177 13.6948 20.8764 13.7195 20.8419 13.7548C20.8419 13.7548 20.8385 13.7583 20.835 13.7618C20.8247 13.7724 20.8178 13.783 20.8075 13.7936C20.8075 13.8007 20.8006 13.8042 20.8006 13.8112C20.8006 13.8183 20.7937 13.8254 20.7937 13.8324C20.7937 13.8324 20.7937 13.8395 20.7937 13.843C20.7937 13.8536 20.7903 13.8571 20.7834 13.8642H20.773L20.7661 13.8713C20.6869 13.9736 20.6042 14.076 20.525 14.1783C20.5215 14.1854 20.5181 14.1889 20.5112 14.196C20.5112 14.2101 20.5112 14.2207 20.5112 14.2313C20.5112 14.2383 20.5077 14.2454 20.5008 14.2524V14.2595C20.5008 14.2595 20.4836 14.2736 20.4767 14.2772C20.4698 14.2842 20.456 14.2877 20.4457 14.2913C20.4319 14.3054 20.4216 14.3195 20.4078 14.3336C20.4044 14.3372 20.3975 14.3442 20.394 14.3477C20.3837 14.3583 20.3733 14.3725 20.363 14.383C20.1563 14.6654 19.953 14.9478 19.7463 15.2302C19.7463 15.2372 19.7428 15.2443 19.7359 15.2513H19.7325C19.7325 15.2513 19.7221 15.2619 19.7187 15.2619C19.5774 15.4666 19.4327 15.6678 19.2915 15.8761C19.2639 15.9184 19.2363 15.9573 19.2088 15.9996C18.9986 16.3137 18.8056 16.6349 18.592 16.9491C18.4886 17.1044 18.3887 17.2632 18.2854 17.422C18.1854 17.5809 18.0821 17.7397 17.9718 17.8915C17.7961 18.1386 17.6445 18.4068 17.4894 18.6715C17.424 18.7845 17.3551 18.8974 17.2896 19.0104C16.5454 20.2775 15.8218 21.5588 15.2051 22.8965C15.1706 22.9741 15.1293 23.0483 15.0845 23.1189C15.0431 23.193 14.9983 23.2636 14.9639 23.3412C14.7537 23.7754 14.547 24.2095 14.3506 24.6472C14.2748 24.8095 14.2024 24.9754 14.1301 25.1378C14.0336 25.3531 13.9406 25.5684 13.8475 25.7837C13.7304 26.059 13.6132 26.3308 13.4961 26.6096C13.4478 26.7261 13.3996 26.8426 13.3514 26.9591C13.2893 27.1038 13.2308 27.2485 13.1722 27.3968C12.9655 27.9121 12.7656 28.4309 12.5727 28.9533C12.5176 29.1051 12.459 29.2604 12.4038 29.4122C12.2695 29.7828 12.142 30.1569 12.0145 30.5275C11.9835 30.6158 11.9525 30.704 11.9215 30.7958C11.8974 30.8664 11.8767 30.937 11.8526 31.004C11.794 31.1805 11.7354 31.3605 11.6837 31.537C11.6183 31.7558 11.5528 31.9711 11.4873 32.19C11.4391 32.3453 11.3943 32.5006 11.3426 32.6559C11.2324 33.0018 11.1014 33.3477 11.0601 33.7148C11.0601 33.7324 11.036 33.7501 11.0256 33.7677C10.9705 33.9195 10.9395 34.0748 10.9016 34.2336C10.8844 34.3077 10.8603 34.3819 10.8396 34.456C10.8189 34.5301 10.7948 34.6042 10.7741 34.6784C10.6914 34.9996 10.6087 35.3207 10.5329 35.6419C10.464 35.9314 10.3951 36.2243 10.3296 36.5173C10.2573 36.8455 10.1884 37.1738 10.1229 37.5056C10.0643 37.795 10.0092 38.0809 9.95753 38.3739C9.91618 38.6033 9.87483 38.8327 9.83693 39.0621C9.80248 39.2633 9.77147 39.4681 9.74046 39.6692C9.69911 39.9269 9.66121 40.1846 9.62676 40.4422C9.59575 40.6752 9.56474 40.9046 9.53717 41.1376C9.46137 41.7729 9.39935 42.4118 9.35111 43.0541C9.33733 43.2377 9.32699 43.4212 9.31666 43.6048C9.30632 43.7883 9.29598 43.9718 9.28909 44.1554C9.27531 44.5225 9.26498 44.8895 9.25464 45.2566C9.25464 45.3413 9.25464 45.4225 9.25464 45.5072C9.25464 45.5319 9.25464 45.5566 9.25464 45.5849C9.25464 46.0543 9.27187 46.5238 9.28565 46.9897C9.28565 47.0108 9.28565 47.032 9.28565 47.0532C9.28565 47.1379 9.29254 47.2191 9.29943 47.3038C9.31666 47.6427 9.34422 47.9815 9.37868 48.3168C9.4028 48.5462 9.42691 48.7757 9.45792 49.0051C9.46137 49.0368 9.46826 49.0721 9.47171 49.1039C9.53373 49.5663 9.60264 50.0287 9.69222 50.4911C9.85761 51.3487 10.0781 52.1923 10.3779 53.0112C10.3813 53.0253 10.3882 53.0394 10.3951 53.0536C10.6191 53.6606 10.8809 54.2501 11.2014 54.8113C11.7285 55.7361 12.3728 56.5514 13.1929 57.2044C13.2893 57.282 13.3893 57.3562 13.4926 57.4303C13.5926 57.5009 13.6959 57.5609 13.7993 57.6244C13.8165 57.635 13.8372 57.6456 13.8579 57.6562C13.8716 57.6632 13.8889 57.6703 13.9027 57.6774C13.9268 57.6915 13.9509 57.7056 13.9681 57.7303C13.975 57.7374 13.9785 57.7479 13.9853 57.7585C14.0129 57.7515 14.037 57.7585 14.0508 57.7868C14.0784 57.7868 14.099 57.7938 14.1128 57.8185C14.1197 57.8185 14.1266 57.8185 14.1301 57.8185C14.1301 57.8185 14.1611 57.8291 14.1714 57.8468C14.1714 57.8468 14.1748 57.8468 14.1783 57.8468C14.1783 57.8468 14.1852 57.8468 14.1886 57.8468C14.1886 57.8468 14.1955 57.8468 14.199 57.8468H14.2059C14.2059 57.8468 14.2127 57.8503 14.2162 57.8538H14.2196C14.2196 57.8538 14.2265 57.8644 14.23 57.868C14.2644 57.9068 14.3127 57.9174 14.354 57.935C15.2602 58.348 16.1664 58.7574 17.0725 59.1669C17.5205 59.3716 17.9649 59.5833 18.4404 59.7175C18.9124 59.8516 19.3948 59.9398 19.8875 59.961C19.9702 59.961 20.0495 59.961 20.1322 59.961C20.3768 59.961 20.6214 59.961 20.8661 59.961C21.1038 59.954 21.3381 59.9222 21.5724 59.8869C22.5234 59.7422 23.4399 59.4528 24.3219 59.0645C25.9379 58.3515 27.3988 57.3809 28.7701 56.2549C29.0699 56.0078 29.3662 55.7537 29.6556 55.496C30.672 55.5137 31.6885 55.5208 32.7049 55.5102C33.6731 55.4996 34.6447 55.4819 35.6129 55.4431C35.6611 55.4149 35.7094 55.4149 35.7611 55.436H35.8059C35.8644 55.4078 35.923 55.4113 35.985 55.429H36.0298C36.0643 55.4078 36.1022 55.4043 36.1366 55.4113H36.1435C36.1435 55.4113 36.1676 55.4184 36.178 55.4219H36.2228C36.2469 55.4078 36.271 55.4008 36.2951 55.4008C36.3192 55.4008 36.3468 55.4043 36.3709 55.4149C36.3847 55.4149 36.3985 55.4149 36.4157 55.4149C36.4329 55.4043 36.4467 55.4007 36.464 55.3972C36.495 55.3902 36.5294 55.3972 36.5639 55.4078C36.5777 55.4078 36.5914 55.4078 36.6052 55.4078C36.6052 55.4078 36.6087 55.4078 36.6121 55.4078C36.6603 55.3831 36.7086 55.3831 36.7568 55.4008C36.7706 55.4008 36.7844 55.4008 36.7982 55.4008C36.8464 55.369 36.8981 55.3725 36.9463 55.3902H36.9877C37.0359 55.3584 37.0876 55.3619 37.1393 55.3831C37.1531 55.3831 37.1668 55.3831 37.1806 55.3831C37.191 55.376 37.2013 55.3725 37.2082 55.369C37.2254 55.3619 37.2392 55.3619 37.2564 55.3619C37.2702 55.3619 37.2874 55.3655 37.3012 55.3725C37.5217 55.3619 37.7422 55.3549 37.9628 55.3407C39.6545 55.2384 41.3463 55.1007 43.0311 54.9101C45.5911 54.6207 48.1374 54.2254 50.6492 53.6395C52.3616 53.2406 54.0499 52.7606 55.6831 52.0864C56.5583 51.7229 57.4093 51.3099 58.1949 50.7664C58.6704 50.4381 59.1079 50.071 59.4594 49.6016C59.6799 49.3016 59.8591 48.9804 59.9314 48.6062C59.959 48.578 59.9693 48.5392 59.9728 48.5039C59.99 48.2356 60.0003 47.9674 59.9728 47.6991L59.9659 47.6956ZM37.2323 42.0129C36.7603 41.9847 36.2917 41.9564 35.8196 41.9353C36.2917 41.9564 36.7603 41.9847 37.2323 42.0129ZM26.7751 50.784C26.6993 50.8546 26.6235 50.9217 26.5477 50.9923C26.0137 51.4723 25.4624 51.9311 24.887 52.3547C24.3116 52.7782 23.7155 53.17 23.0919 53.523C23.0023 53.5724 22.9127 53.6218 22.8231 53.6712C22.6164 53.7842 22.4062 53.8901 22.1926 53.9889C21.979 54.0877 21.7653 54.183 21.5448 54.2677C21.1072 54.4407 20.6628 54.5854 20.2045 54.6984C20.0047 54.7478 19.8048 54.7866 19.605 54.8184C19.5361 54.8289 19.4637 54.8431 19.3948 54.8501C19.1226 54.889 18.8504 54.9101 18.5782 54.9172C18.4852 54.9172 18.3956 54.9172 18.3026 54.9172C18.2096 54.9172 18.12 54.9137 18.0269 54.9101C17.9856 54.9101 17.9477 54.9031 17.9098 54.8995C17.8719 54.896 17.8306 54.889 17.7927 54.8854C17.7444 54.8819 17.7031 54.8607 17.6652 54.8254C17.5584 54.7231 17.4515 54.6207 17.3516 54.5148C17.2 54.356 17.0588 54.1866 16.9244 54.0136C16.8348 53.8971 16.7487 53.7771 16.666 53.6571C16.6246 53.5971 16.5833 53.5336 16.5454 53.4736C16.5419 53.47 16.5419 53.463 16.5385 53.4559C16.5385 53.4453 16.535 53.4347 16.5316 53.4277C16.5144 53.41 16.4937 53.3959 16.4799 53.3747C16.2938 53.0677 16.125 52.7535 15.97 52.4359C15.8942 52.2735 15.8218 52.1147 15.7529 51.9488C15.684 51.7829 15.6185 51.617 15.5599 51.4511C15.5531 51.4299 15.5531 51.4087 15.5531 51.3876C15.4497 51.1864 15.3946 50.9675 15.3325 50.7558C15.1878 50.2793 15.0741 49.7922 14.9777 49.3051C14.9604 49.2169 14.9432 49.1321 14.9294 49.0474C14.9225 49.0121 14.9191 48.9804 14.9122 48.9451C14.9053 48.9027 14.895 48.8604 14.8881 48.818C14.8881 48.8074 14.8881 48.7968 14.8881 48.7862C14.8846 48.7474 14.8812 48.7121 14.8777 48.6733C14.8157 48.398 14.7882 48.1191 14.7571 47.8438C14.6503 46.9544 14.6124 46.0649 14.609 45.1719C14.609 44.8366 14.6124 44.4978 14.6228 44.1589C14.6297 43.9577 14.6365 43.7601 14.6469 43.5589C15.3636 43.3824 16.0837 43.2306 16.8107 43.0894C18.0476 42.8494 19.2915 42.6553 20.5387 42.4965C20.5594 42.4965 20.5801 42.4894 20.5973 42.4894C20.6214 42.4894 20.6421 42.4823 20.6662 42.4859C20.68 42.4859 20.6938 42.4859 20.7076 42.4929C20.904 42.4506 21.1004 42.4294 21.2968 42.4082C21.3863 42.3976 21.4759 42.3906 21.5655 42.38C22.9368 42.2247 24.3081 42.1047 25.6829 42.02C26.0688 41.9953 26.4547 41.9741 26.8406 41.9564C27.826 41.907 28.8149 41.8752 29.8003 41.8576C30.3413 41.847 30.8822 41.84 31.4197 41.84C32.1915 41.84 32.9599 41.8505 33.7317 41.8682C33.5663 42.1541 33.394 42.4365 33.2217 42.7188C33.0977 42.9235 32.9702 43.1283 32.8427 43.333C32.6119 43.6965 32.3776 44.053 32.1398 44.4095C31.6988 45.066 31.2371 45.7119 30.7616 46.3438C30.61 46.5449 30.4584 46.7426 30.3034 46.9403C30.2758 46.9756 30.2482 47.0108 30.2207 47.0426C29.9967 47.3285 29.7659 47.6109 29.5316 47.8862C29.1422 48.3486 28.7425 48.8004 28.3291 49.2416C28.205 49.3757 28.0775 49.5098 27.9501 49.6404C27.6227 49.9793 27.2851 50.3075 26.944 50.6322C27.0508 50.6358 27.1541 50.6428 27.261 50.6464C27.1541 50.6428 27.0508 50.6358 26.944 50.6322C26.8888 50.6852 26.8337 50.7381 26.7751 50.7911V50.784ZM28.6082 50.6958C29.0078 50.7099 29.4075 50.7205 29.8072 50.7275C29.4075 50.7205 29.0078 50.7099 28.6082 50.6958ZM54.9802 46.3438C54.9802 46.3438 54.9526 46.372 54.9216 46.3967C54.8837 46.4285 54.8458 46.4567 54.8079 46.4849C54.77 46.5132 54.7287 46.5414 54.6908 46.5696C54.615 46.6226 54.5392 46.6755 54.4634 46.7249L54.4358 46.7426C54.3738 46.785 54.3083 46.8238 54.2429 46.8626C54.1464 46.9226 54.0534 46.9791 53.9534 47.032C53.2885 47.4097 52.5925 47.7168 51.8792 47.985C51.2074 48.2392 50.5251 48.458 49.8395 48.6557C48.8541 48.938 47.8549 49.171 46.8522 49.3757C45.8737 49.5769 44.8952 49.7463 43.9097 49.8945C42.9243 50.0428 41.9354 50.1628 40.9466 50.2687C40.6227 50.304 40.2988 50.3357 39.9715 50.3675C39.3203 50.4275 38.6691 50.4805 38.0179 50.5263C37.6906 50.5475 37.3667 50.5687 37.0394 50.5899C36.3089 50.6322 35.5785 50.664 34.848 50.6887C34.7171 50.6922 34.5827 50.6993 34.4483 50.7028C34.3277 50.7064 34.2037 50.7099 34.0831 50.7134C34.3829 50.3357 34.6826 49.9581 34.9548 49.5592C34.9927 49.5098 35.0341 49.4604 35.072 49.4075C35.6577 48.5992 36.2193 47.7768 36.7603 46.9367C36.7913 46.8908 36.9394 46.6544 36.9842 46.5838C37.3253 46.0437 37.6595 45.4966 37.9834 44.9425C38.514 44.0354 39.0171 43.1141 39.4995 42.1823C40.416 42.2635 41.3325 42.3588 42.249 42.4753C42.3179 42.4823 42.3834 42.4965 42.4523 42.5071C42.8623 42.5388 43.2689 42.6024 43.672 42.6624C44.1923 42.74 44.7125 42.8247 45.2328 42.9165C45.9323 43.0365 46.6317 43.1706 47.3277 43.3259C47.7033 43.4106 48.0788 43.4953 48.4544 43.5801C48.4578 43.5801 48.4613 43.5801 48.4682 43.5801C48.4716 43.5801 48.4751 43.5801 48.4785 43.5801C48.5026 43.5836 48.5302 43.5836 48.5543 43.5871C48.5888 43.5871 48.6198 43.5977 48.6439 43.6295C49.4467 43.8412 50.2461 44.0601 51.0316 44.3283C51.104 44.353 51.1867 44.3601 51.2418 44.4236C51.4451 44.4589 51.6346 44.5472 51.8241 44.6213C51.9929 44.6848 52.1618 44.7519 52.3306 44.819C52.8061 45.0131 53.2747 45.2284 53.7295 45.4719C53.9086 45.5672 54.0844 45.6696 54.2566 45.779C54.4875 45.9237 54.7115 46.072 54.9216 46.2449C54.9837 46.2943 55.0009 46.3155 54.9768 46.3438H54.9802Z" fill="#007FFF"/>
<path d="M59.9831 32.9524C59.9624 32.5077 59.797 32.1159 59.5455 31.7594C59.1906 31.2511 58.7323 30.8558 58.2327 30.5064C57.3851 29.9134 56.4583 29.4757 55.5108 29.084C54.9836 28.8687 54.4461 28.671 53.9086 28.4945C53.0851 28.2227 52.2513 27.9898 51.4106 27.7815C50.3597 27.5168 49.3054 27.2874 48.2407 27.0897C47.593 26.9697 46.9452 26.8532 46.294 26.7544C46.2733 26.7544 46.2561 26.7544 46.2354 26.7509C46.2251 26.7509 46.2113 26.7509 46.201 26.7509C46.1769 26.7509 46.1527 26.7474 46.1286 26.7438C46.0735 26.7368 46.0184 26.7262 45.9632 26.7121C45.7703 26.6803 45.5773 26.6485 45.3844 26.6168C45.2707 26.6026 45.1604 26.585 45.0467 26.5673C45.0019 26.5603 44.9606 26.5532 44.9158 26.5497C44.4679 26.4932 44.0165 26.4403 43.5686 26.3803C43.4377 26.3626 43.3067 26.352 43.1758 26.3379C43.0449 26.3238 42.9139 26.3097 42.7865 26.2814C41.9147 26.2003 41.0465 26.1085 40.1747 26.0344C40.0542 26.0238 39.9301 26.0132 39.8095 26.0061C39.0584 25.9461 38.3073 25.8932 37.5561 25.8544C37.1944 25.8367 36.8326 25.8191 36.4708 25.7979C36.1952 25.7838 35.923 25.7696 35.6473 25.7591C35.0202 25.7344 34.3932 25.7202 33.7661 25.7061C33.5318 25.7026 33.2975 25.6955 33.0666 25.692C32.6738 25.6849 33.0666 25.692 33.0666 25.692C33.0666 25.692 33.4973 23.9201 33.6696 23.0236C33.8005 22.353 33.9142 21.6788 34.0141 21.0011C34.0796 20.5493 34.1382 20.094 34.1864 19.6387C34.2381 19.1622 34.2795 18.6857 34.3105 18.2057C34.3415 17.6939 34.3621 17.1821 34.3725 16.6703C34.3828 15.9855 34.3621 15.3008 34.3139 14.6161C34.2829 14.1643 34.2381 13.716 34.183 13.2642C34.1072 12.6501 33.9969 12.0394 33.8557 11.4394C33.742 10.9558 33.611 10.4793 33.4387 10.0134C33.4284 10.0134 33.4215 10.0134 33.4112 10.0134C33.4008 10.0134 33.394 10.0134 33.3836 10.0205C33.3561 10.0311 33.3285 10.0452 33.3009 10.0558C32.5395 10.384 31.8193 10.7899 31.1234 11.2417C31.0855 11.2664 31.0407 11.2876 31.0234 11.3406C31.1888 12.4206 31.2681 13.5042 31.2784 14.5984C31.2922 16.162 31.1785 17.7151 30.9717 19.261C30.8133 20.4258 30.6065 21.5835 30.3516 22.7271C30.131 23.7225 29.8761 24.7072 29.5935 25.6849C28.9079 25.692 28.2257 25.7132 27.54 25.7379C26.6304 25.7696 25.7208 25.812 24.8111 25.872C24.0083 25.925 23.2055 25.9779 22.4062 26.0485C21.3656 26.1403 20.3251 26.2461 19.2914 26.3767C19.0433 26.9027 18.8022 27.4356 18.5713 27.9721C18.2268 28.7698 17.8994 29.5781 17.5928 30.3899C17.6066 30.3899 17.6203 30.3864 17.6341 30.3829C18.8435 30.2064 20.0563 30.0617 21.276 29.9381C21.624 29.9028 21.972 29.8605 22.3235 29.8287C23.1849 29.7546 24.0531 29.7052 24.918 29.6487C26.0412 29.5746 27.1679 29.5287 28.2946 29.4934C28.3084 29.4934 28.3221 29.4934 28.3359 29.4934C29.2972 29.4652 30.2551 29.451 31.2164 29.451C31.4576 29.451 31.6988 29.451 31.9399 29.451C32.4878 29.451 33.0356 29.4581 33.5835 29.4687C34.2037 29.4793 34.8273 29.504 35.4475 29.5252C35.4509 29.5252 35.4578 29.5252 35.4647 29.5252C36.0608 29.5463 36.6534 29.5675 37.2495 29.5993C37.7078 29.6205 38.166 29.6558 38.6208 29.6911C38.7173 29.6981 38.8172 29.7052 38.9137 29.7122C39.5993 29.7616 40.285 29.8146 40.9672 29.8675C41.136 29.8817 41.3014 29.9064 41.4703 29.9205C42.3764 30.0017 43.2826 30.1075 44.1853 30.224C44.5885 30.277 44.9916 30.3299 45.3947 30.3864C46.2458 30.5064 47.0934 30.6511 47.941 30.8029C48.7541 30.9476 49.5672 31.1135 50.3735 31.3006C51.0833 31.4665 51.7862 31.6465 52.4891 31.8406C53.409 32.0947 54.3117 32.3947 55.2041 32.7336C55.9759 33.0265 56.7202 33.3724 57.4403 33.7784C57.9364 34.0572 58.4085 34.3713 58.8392 34.749C59.2285 35.0949 59.5696 35.4796 59.797 35.9597C59.8866 36.1503 59.9279 36.3585 59.99 36.5597C59.99 36.1608 59.9969 35.762 59.9969 35.3632C59.9969 34.7702 59.9969 34.1772 59.9969 33.5842C59.9969 33.3689 60.0037 33.1536 59.9969 32.9383L59.9831 32.9524Z" fill="#FF1100"/>
<path d="M37.0877 4.6133C36.9499 4.56741 36.8052 4.53565 36.6708 4.46858C36.6708 4.45094 36.6708 4.42976 36.6742 4.41211C36.8396 4.46505 36.9981 4.53565 37.1463 4.63448C37.1256 4.62742 37.1084 4.62036 37.0877 4.6133Z" fill="#404A5A"/>
<path d="M36.6019 4.44019C36.6019 4.44019 36.6122 4.44708 36.6191 4.45052H36.6156C36.6156 4.45052 36.5915 4.45397 36.5812 4.44019C36.5881 4.44019 36.595 4.44019 36.6019 4.44019Z" fill="#404A5A"/>
<path d="M19.7395 15.2444C19.7395 15.2444 19.736 15.2582 19.7291 15.2651H19.7257C19.7257 15.2651 19.7154 15.2754 19.7119 15.2754V15.2685C19.7119 15.2685 19.7188 15.2513 19.7257 15.2478C19.7257 15.2478 19.7326 15.2478 19.736 15.2444H19.7395Z" fill="#404A5A"/>
<path d="M20.4872 14.2702C20.4872 14.2702 20.4734 14.2843 20.4666 14.2879C20.4597 14.2949 20.4459 14.2984 20.4355 14.302C20.4355 14.2949 20.4355 14.2914 20.4355 14.2843C20.4355 14.2808 20.4355 14.2737 20.4355 14.2702C20.4355 14.2702 20.4424 14.2526 20.4493 14.2455C20.4562 14.2384 20.4631 14.2314 20.47 14.2243C20.4769 14.2173 20.4872 14.2137 20.4976 14.2102C20.4976 14.2243 20.4976 14.2349 20.4976 14.2455C20.4976 14.2526 20.4941 14.2596 20.4872 14.2667V14.2737V14.2702Z" fill="#404A5A"/>
<path d="M20.7731 13.8742H20.7627L20.7559 13.8811C20.7559 13.8811 20.7731 13.857 20.7834 13.8467C20.7834 13.8467 20.7834 13.8536 20.7834 13.857C20.7834 13.8674 20.78 13.8708 20.7731 13.8777V13.8742Z" fill="#215CB5"/>
<path d="M20.9178 13.6486C20.9178 13.6486 20.9246 13.6314 20.9315 13.628C20.935 13.628 20.9384 13.628 20.9419 13.6245C20.9419 13.628 20.9419 13.6314 20.9384 13.6348C20.9384 13.6383 20.9384 13.6417 20.935 13.6452C20.935 13.6452 20.9315 13.6486 20.9281 13.6521C20.9281 13.6521 20.9212 13.6555 20.9143 13.659C20.9143 13.659 20.9143 13.6521 20.9143 13.6486H20.9178Z" fill="#215CB5"/>
<path d="M33.7937 3.12357C33.8282 3.10979 33.8523 3.12357 33.8695 3.15114C33.8385 3.15803 33.8075 3.16492 33.7937 3.12357Z" fill="#FEC35E"/>
<path d="M25.197 8.96799C25.197 8.96799 25.2177 8.95077 25.228 8.94043C25.228 8.94043 25.228 8.94388 25.228 8.94732C25.228 8.95421 25.2246 8.95766 25.2211 8.96455C25.2211 8.96455 25.2108 8.97144 25.2005 8.96799H25.197Z" fill="#404A5A"/>
<path d="M25.4108 8.74959C25.4108 8.74959 25.4315 8.7427 25.4453 8.73926C25.4453 8.75649 25.4418 8.76338 25.4349 8.77027C25.4246 8.77716 25.4039 8.77027 25.3901 8.77371C25.397 8.76338 25.4039 8.75649 25.4143 8.74959H25.4108Z" fill="#404A5A"/>
<path d="M25.5452 8.65783C25.5452 8.65783 25.5417 8.67161 25.5348 8.6785C25.5348 8.6785 25.5348 8.6785 25.5279 8.6785C25.5245 8.6785 25.5211 8.6785 25.5142 8.6785C25.5245 8.66816 25.5348 8.65438 25.5417 8.64404C25.5417 8.64404 25.5417 8.65093 25.5417 8.65438L25.5452 8.65783Z" fill="#404A5A"/>
<path d="M27.3438 7.20006C27.3438 7.20006 27.3403 7.20695 27.3369 7.2104C27.3334 7.21384 27.3231 7.21729 27.3127 7.21729C27.3231 7.20695 27.3334 7.19662 27.3438 7.18628C27.3438 7.18972 27.3438 7.19662 27.3438 7.20006Z" fill="#404A5A"/>
<path d="M27.3127 7.21802V7.22491C27.3127 7.22491 27.3093 7.23525 27.3058 7.23869C27.3024 7.24214 27.2989 7.23869 27.292 7.23869C27.292 7.23869 27.2886 7.23869 27.2852 7.23869C27.2955 7.2318 27.3058 7.22835 27.3162 7.22146L27.3127 7.21802Z" fill="#404A5A"/>
<path d="M36.6638 4.4014C35.768 3.99197 34.8687 3.58606 33.9729 3.1731C33.9384 3.15545 33.9005 3.1731 33.8695 3.14839C33.8385 3.15545 33.8075 3.16251 33.7937 3.12015C33.7558 3.1378 33.7214 3.12015 33.6869 3.10956C32.9013 2.86602 32.0985 2.7919 31.2819 2.83778C30.2 2.89426 29.1595 3.16604 28.1534 3.56488C27.8364 3.68842 27.5263 3.82608 27.2197 3.97432C27.1439 4.01315 27.068 4.04844 26.9922 4.08727C26.9027 4.13315 26.8165 4.17904 26.7269 4.22492C26.6098 4.28493 26.4926 4.34846 26.3755 4.41552C25.7622 4.7579 25.173 5.13909 24.5976 5.54853C24.477 5.63324 24.3599 5.72148 24.2393 5.80619L24.1704 5.85914C23.8878 6.07091 23.6122 6.28622 23.3365 6.50859C22.6543 7.06274 21.9997 7.65571 21.3692 8.2734C19.6119 9.99232 18.0511 11.8877 16.6212 13.8996C16.5833 13.9526 16.5489 14.0055 16.511 14.0584C16.511 14.0584 16.511 14.0726 16.5041 14.0761C16.5006 14.0796 16.4937 14.0832 16.4868 14.0832C16.3594 14.2702 16.2319 14.4573 16.1044 14.6444C15.8908 14.955 15.6806 15.2691 15.4739 15.5868C15.2775 15.8868 15.0845 16.1939 14.8916 16.4974C14.74 16.741 14.5918 16.9845 14.4436 17.228C14.3127 17.4469 14.1818 17.6657 14.0543 17.8845C13.8717 18.1952 13.6925 18.5093 13.5168 18.8234C13.4272 18.9823 13.3411 19.1376 13.2549 19.2964C13.2446 19.314 13.2343 19.3317 13.2205 19.3493C13.2205 19.3705 13.2136 19.3882 13.2067 19.4023C13.1998 19.4129 13.1929 19.427 13.186 19.4376C13.1033 19.5858 13.0241 19.7376 12.9448 19.8858C12.6451 20.4506 12.3488 21.0189 12.0662 21.5906C11.9456 21.8342 11.8285 22.0742 11.7113 22.3178C11.0843 23.6343 10.502 24.9685 9.96791 26.3239C9.68193 27.0439 9.41318 27.7675 9.15476 28.4981C9.02039 28.8864 8.88601 29.2746 8.75508 29.6629C8.51734 30.3829 8.30027 31.11 8.08665 31.8371C8.00051 32.1372 7.91437 32.4372 7.83168 32.7372C7.83168 32.7442 7.82824 32.7513 7.82479 32.7584C7.69731 33.2313 7.57671 33.7043 7.46301 34.1808C7.35965 34.6079 7.25972 35.0385 7.1667 35.4691C7.08745 35.8362 7.01509 36.2068 6.94274 36.5774C6.92551 36.6657 6.90828 36.7539 6.8945 36.8421C6.88761 36.8774 6.88072 36.9127 6.87383 36.948C6.87383 36.9621 6.87038 36.9763 6.86694 36.9869C6.85315 37.0574 6.83937 37.128 6.82559 37.1986C6.72222 37.7775 6.62919 38.3563 6.54995 38.9387C6.4707 39.4999 6.40179 40.0647 6.34666 40.6294C6.33288 40.7565 6.32254 40.8835 6.31221 41.0071C6.31221 41.0177 6.31221 41.0247 6.31221 41.0353C6.30187 41.1306 6.29842 41.2012 6.29153 41.2683C6.26741 41.5824 6.24329 41.8965 6.22607 42.2107C6.20884 42.5248 6.19506 42.8425 6.18472 43.1566C6.18472 43.199 6.18472 43.2378 6.18128 43.2802C6.16405 43.8873 6.1606 44.4943 6.17783 45.0979C6.19506 45.6697 6.22607 46.2415 6.27775 46.8098C6.32943 47.378 6.39834 47.9463 6.49482 48.5111C6.53961 48.7864 6.59474 49.0617 6.64987 49.3335C6.84282 50.2547 7.10123 51.1583 7.45612 52.0301C7.48024 52.0901 7.50436 52.1501 7.53192 52.2136C7.55604 52.2736 7.5836 52.3336 7.61117 52.3936C7.67319 52.5348 7.73865 52.676 7.80412 52.8137C7.91782 53.0431 8.03497 53.269 8.16245 53.4878C8.51045 54.0879 8.92047 54.6491 9.40629 55.1538C9.53377 55.2879 9.6647 55.415 9.80252 55.535C10.0575 55.7644 10.3297 55.9727 10.6191 56.1597C10.6742 56.195 10.7363 56.2162 10.7776 56.2692C10.7845 56.2762 10.7879 56.2868 10.7914 56.2939C10.819 56.2868 10.8396 56.2939 10.8465 56.3221C10.9602 56.3503 11.0498 56.428 11.1532 56.4739C11.7045 56.7245 12.2557 56.9751 12.8036 57.2257C13.1171 57.3669 13.4341 57.5081 13.7477 57.6492L13.789 57.6139C13.6856 57.5504 13.5823 57.4869 13.4823 57.4198C13.379 57.3457 13.2791 57.2716 13.1826 57.1939C12.3625 56.5409 11.7182 55.7256 11.1911 54.8008C10.8706 54.2396 10.6088 53.6502 10.3848 53.0431C10.3779 53.029 10.3745 53.0149 10.3676 53.0007C10.0678 52.1819 9.84731 51.3383 9.68193 50.4806C9.59235 50.0217 9.52343 49.5594 9.46142 49.0934C9.45797 49.0617 9.45108 49.0264 9.44763 48.9946C9.41662 48.7652 9.39251 48.5358 9.36839 48.3063C9.33393 47.9675 9.30637 47.6322 9.28914 47.2933C9.28569 47.2086 9.2788 47.1274 9.27536 47.0427C9.27536 47.0216 9.27536 47.0004 9.27536 46.9792C9.25813 46.5098 9.2409 46.0438 9.24435 45.5744C9.24435 45.5497 9.24435 45.5215 9.24435 45.4968C9.24435 45.412 9.24435 45.3309 9.24435 45.2462C9.25468 44.8791 9.26502 44.512 9.2788 44.1449C9.28569 43.9614 9.29603 43.7778 9.30637 43.5943C9.3167 43.4108 9.32704 43.2272 9.34082 43.0437C9.38906 42.4048 9.45108 41.766 9.52688 41.1271C9.55444 40.8941 9.58545 40.6647 9.61646 40.4318C9.65092 40.1741 9.68882 39.9164 9.73017 39.6588C9.76118 39.4541 9.79563 39.2529 9.82664 39.0517C9.86454 38.8223 9.90589 38.5928 9.94724 38.3634C9.99892 38.074 10.0575 37.7845 10.1126 37.4951C10.1781 37.1669 10.247 36.8351 10.3194 36.5068C10.3848 36.2139 10.4537 35.9244 10.5226 35.6315C10.5984 35.3103 10.6811 34.9891 10.7638 34.6679C10.7845 34.5938 10.8052 34.5196 10.8293 34.4455C10.85 34.3714 10.8741 34.2973 10.8913 34.2232C10.9292 34.0679 10.9602 33.909 11.0153 33.7572C11.0291 33.7396 11.0464 33.7255 11.0498 33.7043C11.0946 33.3372 11.2221 32.9948 11.3323 32.6454C11.3806 32.4901 11.4288 32.3348 11.477 32.1795C11.5425 31.9607 11.608 31.7454 11.6734 31.5265C11.7286 31.3465 11.7837 31.17 11.8423 30.9936C11.8664 30.923 11.8871 30.8524 11.9112 30.7853C11.9422 30.6971 11.9732 30.6053 12.0042 30.5171C12.1351 30.1464 12.2626 29.7723 12.3936 29.4017C12.4487 29.2499 12.5038 29.0946 12.5624 28.9428C12.7553 28.4205 12.9552 27.9016 13.1619 27.3863C13.2205 27.238 13.2791 27.0933 13.3411 26.9486C13.3893 26.8321 13.4376 26.7157 13.4858 26.5992C13.6029 26.3239 13.7201 26.0486 13.8372 25.7732C13.9303 25.5579 14.0233 25.3426 14.1198 25.1273C14.1921 24.9614 14.2645 24.7991 14.3403 24.6367C14.5401 24.199 14.7434 23.7614 14.9536 23.3308C14.9915 23.2566 15.0328 23.1825 15.0742 23.1084C15.1155 23.0343 15.1569 22.9637 15.1948 22.886C15.8115 21.5483 16.5351 20.267 17.2793 18.9999C17.3448 18.887 17.4137 18.774 17.4792 18.6611C17.6342 18.3963 17.7824 18.1281 17.9615 17.881C18.0718 17.7292 18.1717 17.5704 18.2751 17.4116C18.375 17.2527 18.4749 17.0939 18.5817 16.9386C18.7919 16.6245 18.9883 16.3033 19.1985 15.9891C19.226 15.9503 19.2536 15.908 19.2812 15.8656C19.4224 15.6609 19.5671 15.4562 19.7084 15.2515V15.2444C19.7084 15.2444 19.7153 15.2267 19.7222 15.2232C19.7222 15.2232 19.7291 15.2232 19.7325 15.2197C19.9358 14.9373 20.1425 14.6549 20.3493 14.3726C20.3596 14.3585 20.3699 14.3479 20.3803 14.3373C20.3837 14.3338 20.3906 14.3267 20.3941 14.3232C20.4078 14.309 20.4182 14.2949 20.432 14.2808C20.432 14.2737 20.432 14.2702 20.432 14.2632C20.432 14.2596 20.432 14.2526 20.432 14.249C20.432 14.249 20.4389 14.2314 20.4458 14.2243C20.4526 14.2173 20.4595 14.2102 20.4664 14.2032C20.4733 14.1961 20.4837 14.1926 20.494 14.189C20.4974 14.1855 20.5043 14.1784 20.5078 14.1714C20.587 14.069 20.6697 13.9667 20.749 13.8643C20.7593 13.8537 20.7662 13.8396 20.7765 13.829C20.7765 13.822 20.78 13.8149 20.7834 13.8078C20.7834 13.8008 20.7903 13.7973 20.7903 13.7902C20.7972 13.7796 20.8075 13.769 20.8179 13.7584C20.8179 13.7584 20.8213 13.7549 20.8248 13.7514C20.8592 13.7196 20.904 13.6914 20.9109 13.6384C20.9109 13.6384 20.9109 13.6314 20.9109 13.6278C20.9109 13.6172 20.9178 13.6102 20.9247 13.6067C20.9281 13.6067 20.9316 13.6067 20.935 13.6031C20.9591 13.5855 20.9798 13.5643 21.0005 13.5431C21.0039 13.5396 21.0074 13.5325 21.0143 13.529C21.028 13.5114 21.0418 13.4937 21.0522 13.4761C21.0694 13.4513 21.0866 13.4266 21.1004 13.4019C21.1142 13.3843 21.1245 13.3631 21.1383 13.3455C21.1486 13.3313 21.1555 13.3208 21.1659 13.3066C21.2279 13.229 21.2899 13.1513 21.3519 13.0737C21.7861 12.5301 22.234 11.9971 22.6957 11.4783C23.0575 11.0689 23.4296 10.6735 23.8086 10.2817C23.874 10.2147 23.9395 10.1441 24.005 10.077C24.129 9.94997 24.2565 9.83349 24.384 9.71348C24.4357 9.6676 24.4839 9.61818 24.5356 9.56877C24.5459 9.55818 24.5563 9.54759 24.5666 9.537C24.7251 9.3817 24.887 9.22639 25.0455 9.07109C25.0455 9.07109 25.0524 9.06403 25.0559 9.0605C25.0972 9.02168 25.1454 8.98638 25.1902 8.95108C25.2006 8.9405 25.2109 8.93344 25.2212 8.92285C25.2212 8.92285 25.2281 8.91579 25.2316 8.91226C25.2798 8.85931 25.3315 8.8099 25.3797 8.75695C25.3866 8.74637 25.3935 8.73931 25.4039 8.73225C25.4142 8.72519 25.4245 8.72519 25.4383 8.72166C25.4521 8.72166 25.4659 8.7146 25.4762 8.70401C25.4831 8.69695 25.49 8.68989 25.4969 8.68283C25.5038 8.67577 25.5072 8.66871 25.5107 8.66166C25.521 8.65107 25.5313 8.63695 25.5382 8.62636C25.6657 8.50988 25.7967 8.3934 25.9276 8.28046C25.9483 8.26281 25.9655 8.24516 25.9862 8.22751C26.1136 8.11809 26.2411 8.00868 26.3721 7.90279C26.6649 7.66277 26.9647 7.42982 27.2713 7.21098C27.2817 7.20392 27.292 7.20039 27.3023 7.19333C27.3023 7.19333 27.323 7.16863 27.3334 7.15804C27.4023 7.10509 27.4712 7.05215 27.5435 7.00273C27.6848 6.90037 27.8261 6.79802 27.9673 6.69919C28.0397 6.64977 28.112 6.60036 28.181 6.55447C28.2533 6.50506 28.3257 6.45917 28.398 6.41329C28.6185 6.2721 28.8391 6.13445 29.063 6.00385C29.3076 5.85914 29.5557 5.71795 29.8072 5.58736C30.5618 5.18851 31.3405 4.8532 32.1571 4.60612C32.2191 4.58847 32.2811 4.57083 32.3432 4.54965C32.7773 4.42611 33.2149 4.33081 33.6593 4.26728C33.9109 4.23198 34.1658 4.20728 34.4208 4.19669C34.6138 4.1861 34.8067 4.1861 34.9997 4.18963C35.0651 4.18963 35.1271 4.19316 35.1926 4.19669C35.3855 4.20728 35.5785 4.22845 35.7715 4.25669C36.0368 4.29552 36.3021 4.34493 36.5639 4.41552C36.5708 4.41552 36.5777 4.41552 36.5846 4.41552C36.5915 4.41552 36.5949 4.42258 36.6018 4.42611C36.6087 4.42611 36.6122 4.42964 36.619 4.43317C36.6294 4.4367 36.6432 4.44023 36.6535 4.44729C36.6535 4.42964 36.6535 4.40846 36.6569 4.39082C36.6535 4.38729 36.6501 4.38376 36.6432 4.38023L36.6638 4.4014Z" fill="#F1ECE2"/>
<path d="M33.7936 3.12374C33.7798 3.06727 33.7281 3.06021 33.6868 3.04256C32.915 2.6896 32.1397 2.34017 31.3645 1.99073C31.1577 1.89896 30.9579 1.78955 30.7443 1.71542C30.7202 1.72954 30.696 1.72954 30.6685 1.71895C30.1379 1.53894 29.5866 1.4507 29.0284 1.41541C28.5185 1.38364 28.0085 1.41541 27.502 1.486C27.0851 1.546 26.6751 1.63424 26.2685 1.74366C25.4795 1.95897 24.7215 2.25546 23.9911 2.62607C23.7085 2.76725 23.4363 2.92961 23.1607 3.08139C23.0677 3.1308 22.9712 3.17669 22.8816 3.22963C22.0857 3.71319 21.3173 4.23557 20.5869 4.81796C20.4043 4.96267 20.2148 5.10386 20.0459 5.26269C19.9357 5.36505 19.8289 5.46741 19.7083 5.55565C19.6841 5.5733 19.6635 5.58742 19.6359 5.60506C19.6152 5.62271 19.5946 5.64036 19.5773 5.65801C19.5704 5.68625 19.5601 5.70742 19.5463 5.72154C19.5394 5.7286 19.5291 5.73213 19.5188 5.73566C19.5119 5.73566 19.5084 5.73566 19.5015 5.73566H19.4981C19.4981 5.73566 19.4878 5.73566 19.4809 5.73213C19.474 5.73213 19.4705 5.73919 19.4671 5.74272C19.4051 5.7886 19.3672 5.86979 19.312 5.91567C19.3017 5.92273 19.2948 5.92979 19.2845 5.93332C19.1329 6.0145 19.0398 6.16274 18.9055 6.26157C18.7745 6.35687 18.6677 6.48747 18.5471 6.60042C17.9545 7.1581 17.3929 7.75107 16.8381 8.35111C16.6693 8.53465 16.5143 8.73231 16.3523 8.92291C16.2593 9.03232 16.1525 9.12762 16.0595 9.23704C15.8079 9.53353 15.5633 9.83355 15.3152 10.1336C15.1326 10.3559 14.9569 10.5818 14.7915 10.8183C14.6606 11.0054 14.5055 11.1713 14.3677 11.3548C13.9439 11.909 13.5442 12.4808 13.1445 13.0526C12.7483 13.6173 12.3865 14.1997 12.011 14.7785C11.6733 15.2974 11.3632 15.8339 11.0428 16.3633C10.9256 16.561 10.8188 16.7657 10.7017 16.9598C10.4949 17.2987 10.3054 17.6446 10.1263 17.9976C10.0126 18.1352 9.94709 18.3011 9.86095 18.4564C9.68179 18.7776 9.51296 19.1059 9.35791 19.4412C9.30967 19.5471 9.23731 19.6424 9.18563 19.7482C9.04092 20.0483 8.89621 20.3483 8.74805 20.6448C8.37249 21.3895 8.04172 22.159 7.70061 22.9214C7.32849 23.7473 7.00117 24.5909 6.67384 25.438C6.45333 26.0098 6.22937 26.5851 6.05365 27.1746C6.02608 27.2699 5.97096 27.3581 5.9365 27.4534C5.76767 27.9617 5.59539 28.4699 5.43345 28.9817C5.28185 29.4512 5.14058 29.9241 5.00621 30.4006C4.87528 30.856 4.75124 31.3148 4.63065 31.7737C4.39635 32.6631 4.18273 33.5596 4.00012 34.4597C3.95188 34.6997 3.90709 34.9397 3.85885 35.1797C3.7038 35.9951 3.56598 36.8175 3.45228 37.6399C3.34547 38.4235 3.25933 39.2106 3.19042 39.9977C3.18353 40.0718 3.18008 40.1424 3.17319 40.2165C3.17319 40.2836 3.17319 40.3506 3.17319 40.4177C3.17319 40.3506 3.17319 40.2836 3.17319 40.2165C3.13873 40.6471 3.11462 41.0813 3.09739 41.5154C3.07672 42.0131 3.07327 42.5072 3.06982 43.0049C3.06982 43.2414 3.09394 43.4779 3.0905 43.7144C3.0905 44.0779 3.11806 44.4379 3.13873 44.798C3.14563 44.9321 3.15252 45.0627 3.1663 45.1968C3.1663 45.2215 3.16974 45.2427 3.17319 45.2674C3.21454 45.6133 3.2421 45.9627 3.29034 46.3086C3.33513 46.6439 3.37992 46.9793 3.44194 47.3146C3.52808 47.777 3.61077 48.2429 3.75204 48.6947C3.79683 48.8358 3.82095 48.9841 3.85885 49.1288C3.94154 49.4465 4.04146 49.7571 4.15172 50.0641C4.31021 50.5053 4.48938 50.936 4.68922 51.3595C4.99243 52.009 5.36799 52.6161 5.80902 53.1773C6.22593 53.7102 6.70141 54.1797 7.24925 54.575C7.27337 54.5891 7.29404 54.6068 7.31816 54.6209C7.35606 54.6491 7.3974 54.6738 7.43875 54.6985C7.45942 54.7127 7.48354 54.7268 7.50766 54.7409C7.58346 54.7903 7.65926 54.8397 7.73162 54.8927C7.75229 54.9138 7.77641 54.928 7.79708 54.9456C7.79708 54.9491 7.80053 54.9527 7.80398 54.9562C7.81776 54.9738 7.84188 54.9774 7.86255 54.9844C8.80318 55.4115 9.74725 55.8386 10.6913 56.2657C10.7292 56.2833 10.7637 56.308 10.8119 56.2975C10.8085 56.2869 10.8016 56.2798 10.7981 56.2727C10.7568 56.2198 10.6948 56.1986 10.6396 56.1633C10.3502 55.9763 10.078 55.7645 9.82305 55.5386C9.68523 55.4186 9.5543 55.2915 9.42682 55.1574C8.941 54.6527 8.53098 54.0914 8.18298 53.4914C8.0555 53.2726 7.93491 53.0467 7.82465 52.8173C7.75574 52.6796 7.69372 52.5419 7.62825 52.4008C7.60069 52.3408 7.57657 52.2808 7.54901 52.2207C7.52489 52.1607 7.49732 52.1007 7.47321 52.0372C7.11832 51.1654 6.8599 50.2618 6.66695 49.3406C6.60838 49.0688 6.5567 48.7935 6.5119 48.5182C6.41543 47.9534 6.34652 47.3852 6.29484 46.8169C6.24315 46.2486 6.21214 45.6768 6.19492 45.105C6.17769 44.4979 6.18113 43.8908 6.19836 43.2873C6.19836 43.2449 6.19836 43.2061 6.20181 43.1637C6.21214 42.8496 6.22593 42.5319 6.24315 42.2178C6.26038 41.9037 6.2845 41.5895 6.30862 41.2754C6.31551 41.2083 6.3224 41.1377 6.32929 41.0424C6.32929 41.0319 6.32929 41.0248 6.32929 41.0142C6.33963 40.8871 6.35341 40.7601 6.36375 40.6365C6.42232 40.0718 6.49123 39.5106 6.56703 38.9458C6.64972 38.3635 6.73931 37.7846 6.84267 37.2057C6.85646 37.1352 6.87024 37.0646 6.88402 36.994C6.88402 36.9799 6.88747 36.9657 6.89091 36.9551C6.8978 36.9198 6.90469 36.8846 6.91158 36.8493C6.92881 36.761 6.94259 36.6728 6.95982 36.5845C7.03218 36.2139 7.10453 35.8468 7.18378 35.4762C7.27681 35.0456 7.37673 34.615 7.4801 34.1879C7.5938 33.7114 7.71439 33.2385 7.84188 32.7655C7.84188 32.7584 7.84188 32.7514 7.84877 32.7443C7.93146 32.4443 8.01415 32.1443 8.10374 31.8443C8.31736 31.1136 8.53443 30.39 8.77217 29.67C8.89965 29.2817 9.03403 28.8935 9.17185 28.5052C9.43026 27.7746 9.69901 27.051 9.98499 26.331C10.519 24.9756 11.1013 23.6414 11.7284 22.3249C11.8456 22.0813 11.9627 21.8378 12.0833 21.5978C12.3659 21.026 12.6587 20.4577 12.9619 19.893C13.0412 19.7412 13.1239 19.5929 13.2031 19.4447C13.21 19.4341 13.2169 19.42 13.2238 19.4094C13.2341 19.3918 13.241 19.3776 13.2376 19.3565C13.2479 19.3388 13.2617 19.3212 13.272 19.3035C13.3582 19.1447 13.4477 18.9894 13.5339 18.8305C13.7096 18.5164 13.8888 18.2023 14.0714 17.8917C14.1989 17.6728 14.3298 17.454 14.4607 17.2352C14.6089 16.9916 14.757 16.7481 14.9086 16.5045C15.0982 16.1975 15.2945 15.8939 15.4909 15.5939C15.6977 15.2762 15.9079 14.9656 16.1215 14.6515C16.249 14.4644 16.3764 14.2773 16.5039 14.0903C16.5039 14.0867 16.5039 14.0832 16.5039 14.0797C16.5039 14.0797 16.5039 14.0761 16.5074 14.0726C16.5108 14.0691 16.5177 14.0656 16.5246 14.0656C16.5625 14.0126 16.597 13.9597 16.6349 13.9067C18.0647 11.8948 19.6256 9.99944 21.3828 8.28052C22.0133 7.66283 22.668 7.06986 23.3502 6.51571C23.6224 6.29334 23.9015 6.07803 24.184 5.86626L24.2529 5.81331C24.3701 5.72507 24.4907 5.64036 24.6112 5.55565C25.1867 5.14621 25.7793 4.76501 26.3891 4.42264C26.5063 4.35911 26.6234 4.29558 26.7406 4.23204C26.8302 4.18616 26.9163 4.14027 27.0059 4.09439C27.0817 4.05556 27.1575 4.02026 27.2333 3.98144C27.5399 3.83319 27.85 3.69554 28.167 3.572C29.1766 3.17316 30.2137 2.90138 31.2956 2.8449C32.1122 2.79902 32.915 2.87314 33.7005 3.11668C33.735 3.12727 33.7695 3.14492 33.8074 3.12727L33.7936 3.12374ZM3.15252 44.1803C3.15252 44.1803 3.15252 44.2156 3.15252 44.2332C3.15252 44.2156 3.15252 44.1979 3.15252 44.1803Z" fill="#FDBF41"/>
<path d="M16.4869 14.0655C16.4869 14.0655 16.4972 14.0586 16.5041 14.0586C16.5041 14.0655 16.5041 14.0724 16.4972 14.0758C16.4938 14.0793 16.4869 14.0827 16.48 14.0827C16.48 14.0793 16.48 14.0758 16.48 14.0724C16.48 14.0724 16.48 14.0689 16.4834 14.0655H16.4869Z" fill="#C18B00"/>
<path d="M19.4948 5.67914C19.4948 5.67914 19.5189 5.65796 19.5361 5.65796C19.5465 5.65796 19.5602 5.65796 19.574 5.66149C19.5671 5.68973 19.5568 5.7109 19.543 5.72502C19.5361 5.73208 19.5258 5.73561 19.5154 5.73914C19.5085 5.73914 19.5051 5.73914 19.4982 5.73914H19.4948C19.4948 5.73914 19.4844 5.73914 19.4775 5.73561C19.481 5.71443 19.4879 5.69678 19.4982 5.68267L19.4948 5.67914Z" fill="#C18B00"/>
<path d="M30.5756 1.64113C29.8762 1.31994 29.1698 1.00933 28.4704 0.681077C27.671 0.306937 26.8406 0.0775117 25.962 0.0351562C25.7415 0.0351562 25.5176 0.0351562 25.297 0.0351562C25.2109 0.0351562 25.1248 0.0351562 25.0386 0.0351562C24.5976 0.0598636 24.16 0.126926 23.7259 0.222226C22.4476 0.501066 21.2589 1.01286 20.1184 1.65525C18.9711 2.30117 17.903 3.07416 16.89 3.92127C16.759 4.03068 16.6212 4.12951 16.511 4.25658C16.5006 4.26011 16.4937 4.26717 16.4868 4.27776V4.28835H16.4731C16.4455 4.31305 16.4145 4.33423 16.3869 4.35894C15.2637 5.3437 14.2197 6.41318 13.2343 7.53913C12.0628 8.88038 10.9809 10.2958 9.97135 11.7676C8.46566 13.9595 7.13224 16.2608 5.94698 18.6468C5.14761 20.2563 4.41716 21.8976 3.75907 23.5777C3.07341 25.3284 2.44977 27.1003 1.94328 28.9145C1.88815 29.1157 1.81924 29.3133 1.76066 29.5145C1.3472 31.0111 0.988866 32.5182 0.709778 34.0466C0.472037 35.3419 0.279088 36.6408 0.155049 37.9539C0.0620195 38.9069 0 39.8599 0 40.8164C0 41.2505 0 41.6847 0.00344553 42.1223C0.0103366 42.1823 0.0103366 42.2423 0.0137821 42.3023C0.0137821 42.3941 0.0137821 42.4859 0.0103366 42.5777C0.0137821 43.1071 0.0585739 43.633 0.106811 44.1589C0.189504 45.0166 0.316988 45.8708 0.499601 46.7108C0.730451 47.7662 1.04744 48.7898 1.50225 49.771C1.98807 50.8193 2.60137 51.7723 3.43174 52.57C3.91412 53.0359 4.44817 53.4277 5.04769 53.7136C5.58175 53.9713 6.1227 54.2113 6.6602 54.4548C7.02887 54.6207 7.3941 54.8007 7.77311 54.9525C7.75243 54.9349 7.72831 54.9172 7.70764 54.8996C7.63528 54.8431 7.55948 54.7937 7.48368 54.7443C7.45956 54.7301 7.43889 54.716 7.41477 54.7019C7.37342 54.6772 7.33552 54.6525 7.29418 54.6242C7.27006 54.6101 7.24939 54.5925 7.22527 54.5784C6.67743 54.183 6.20195 53.7136 5.78504 53.1806C5.34401 52.6194 4.96845 52.0123 4.66524 51.3629C4.46885 50.9393 4.28623 50.5087 4.12774 50.0675C4.08639 50.0287 4.04505 49.9863 4.00715 49.9475C4.04849 49.9899 4.08639 50.0287 4.12774 50.0675C4.01748 49.7604 3.91756 49.4498 3.83487 49.1322C3.79697 48.9874 3.77285 48.8392 3.72806 48.698C3.58679 48.2462 3.50754 47.7803 3.41796 47.3179C3.35594 46.9861 3.31115 46.6473 3.26636 46.312C3.21812 45.9661 3.19056 45.6167 3.14921 45.2708C3.14921 45.246 3.14576 45.2249 3.14232 45.2002C3.14232 45.6449 3.14232 46.0896 3.14232 46.5308C3.14232 46.0861 3.14232 45.6414 3.14232 45.2002C3.12854 45.0696 3.12509 44.9354 3.11475 44.8013C3.09753 44.4413 3.06652 44.0813 3.06652 43.7177C3.06652 43.4812 3.0424 43.2448 3.04584 43.0083C3.04929 42.5106 3.05274 42.0164 3.07341 41.5188C3.09064 41.0846 3.11476 40.654 3.14921 40.2199C3.1561 40.1457 3.15955 40.0752 3.16644 40.001C3.23535 39.2139 3.32149 38.4268 3.4283 37.6432C3.53855 36.8173 3.67982 35.9984 3.83487 35.1831C3.87966 34.9431 3.9279 34.7031 3.97614 34.4631C4.15875 33.5595 4.37237 32.6665 4.60667 31.777C4.72726 31.3182 4.8513 30.8593 4.98223 30.404C5.11661 29.9275 5.26132 29.4545 5.40947 28.9851C5.57141 28.4733 5.74369 27.965 5.91252 27.4568C5.94353 27.3615 5.99866 27.2732 6.02967 27.1779C6.20884 26.5885 6.42935 26.0132 6.64986 25.4414C6.97719 24.5978 7.30451 23.7507 7.67663 22.9247C8.01774 22.1623 8.34851 21.3929 8.72407 20.6481C8.87223 20.3516 9.02039 20.0516 9.16165 19.7516C9.21334 19.6457 9.28569 19.554 9.33393 19.4445C9.48898 19.1092 9.65781 18.781 9.83698 18.4598C9.92311 18.3045 9.98858 18.1386 10.1023 18.0009C10.2814 17.648 10.471 17.3021 10.6777 16.9632C10.7983 16.7691 10.9016 16.5608 11.0188 16.3667C11.3392 15.8373 11.6493 15.3008 11.987 14.7819C12.3625 14.203 12.7243 13.6207 13.1206 13.0559C13.5202 12.4841 13.9234 11.9123 14.3437 11.3582C14.4815 11.1782 14.6366 11.0123 14.7675 10.8217C14.9329 10.5852 15.1052 10.3558 15.2912 10.1369C15.5393 9.83691 15.784 9.53689 16.0355 9.2404C16.1285 9.13099 16.2319 9.03569 16.3283 8.92627C16.4903 8.73567 16.6453 8.53801 16.8142 8.35447C17.3689 7.75443 17.9305 7.16146 18.5231 6.60378C18.6437 6.49083 18.7505 6.36376 18.8815 6.26493C19.0159 6.1661 19.1089 6.01786 19.2605 5.93668C19.2708 5.92962 19.2812 5.92609 19.2881 5.91903C19.3466 5.87315 19.3811 5.79197 19.4431 5.74608C19.4465 5.74255 19.4534 5.73902 19.4569 5.73549C19.4603 5.71431 19.4672 5.69667 19.4776 5.68255C19.4879 5.66843 19.5017 5.66137 19.5189 5.66137C19.5292 5.66137 19.543 5.66137 19.5568 5.6649C19.5775 5.64725 19.5981 5.6296 19.6154 5.61195C19.6429 5.59431 19.6636 5.57666 19.6877 5.56254C19.8083 5.4743 19.9151 5.37194 20.0254 5.26958C20.1977 5.11075 20.3837 4.96956 20.5663 4.82485C21.2968 4.24246 22.0686 3.72008 22.8611 3.23652C22.9506 3.18005 23.0471 3.13769 23.1402 3.08828C23.4158 2.9365 23.688 2.77414 23.9705 2.63296C24.701 2.26235 25.459 1.96586 26.248 1.75055C26.6546 1.64113 27.0646 1.55289 27.4815 1.49289C27.988 1.4223 28.4979 1.39406 29.0079 1.4223C29.5626 1.45759 30.1139 1.54583 30.6479 1.72584C30.6755 1.7329 30.6996 1.73643 30.7237 1.72231C30.679 1.6729 30.61 1.6729 30.5549 1.64466L30.5756 1.64113Z" fill="#FF1100"/>
<path d="M19.5155 5.47079C19.5155 5.47079 19.5052 5.46389 19.5017 5.46045C19.5052 5.46045 19.512 5.46734 19.5155 5.47079Z" fill="#FF1100"/>
<path d="M19.4189 5.41089C19.4396 5.42123 19.4568 5.43156 19.4741 5.4419C19.4568 5.43156 19.4362 5.42123 19.4189 5.41089Z" fill="#FF1100"/>
<path d="M25.9621 0.0344553H25.2971C25.211 0.0344553 25.1248 0.0344553 25.0387 0.0344553C25.0352 0.0241187 25.0283 0.0137821 25.0249 0C25.3419 0 25.6589 0 25.9724 0C25.9724 0.0103366 25.9655 0.0206732 25.9621 0.0344553Z" fill="#FEC35E"/>
<path d="M16.4766 4.29161H16.4697V4.27783H16.4835V4.28817H16.4766V4.29161Z" fill="#C18B00"/>
<path opacity="0.48" d="M54.9561 46.3686C55.0457 46.298 55.0457 46.291 54.9561 46.2168C54.7459 46.0439 54.522 45.8921 54.2911 45.7509C53.5228 45.2744 52.7027 44.9109 51.8586 44.5932C51.6656 44.5226 51.4796 44.4344 51.2763 44.3956C51.2211 44.332 51.1385 44.325 51.0661 44.3003C50.2805 44.032 49.4812 43.8132 48.6783 43.6014C48.6129 43.5943 48.5474 43.5802 48.4888 43.5485C48.1133 43.4637 47.7377 43.379 47.3622 43.2978C46.6662 43.1425 45.9702 43.0084 45.2673 42.8884C44.747 42.8002 44.2267 42.7155 43.7065 42.6378C43.2999 42.5778 42.8933 42.5143 42.4833 42.4825C42.4144 42.4719 42.3489 42.4578 42.28 42.4507C40.8467 42.2707 39.4099 42.1331 37.9662 42.0342C37.0256 41.9672 36.0815 41.9178 35.1409 41.8789C33.9074 41.8295 32.6773 41.8083 31.4438 41.8083C29.914 41.8083 28.3876 41.8472 26.8613 41.9213C25.0972 42.0095 23.34 42.1472 21.5862 42.3484C21.3002 42.3802 21.0108 42.4013 20.7248 42.4613C20.6662 42.4472 20.6111 42.4613 20.5525 42.4684C19.3018 42.6272 18.058 42.8214 16.821 43.0614C16.0906 43.2026 15.3636 43.3579 14.64 43.5343L14.6262 43.559C14.6262 43.559 14.4402 46.3121 14.8536 49.0017C15.5668 49.1747 16.2835 49.33 17.0002 49.4676C17.6411 49.5912 18.2854 49.7076 18.9331 49.8029C19.8393 49.9371 20.7489 50.0712 21.662 50.17C22.5475 50.2653 23.433 50.3641 24.3219 50.4277C24.8491 50.4665 25.3728 50.5124 25.9 50.5442C26.6787 50.59 27.4574 50.6289 28.236 50.6571C28.9458 50.6818 29.659 50.703 30.3688 50.7136C31.5058 50.7277 32.6429 50.7242 33.7833 50.6995C34.879 50.6748 35.9747 50.6324 37.0669 50.5689C38.3728 50.4947 39.6717 50.3889 40.9742 50.2512C42.9553 50.0394 44.9262 49.7606 46.8798 49.3582C48.5853 49.0088 50.2736 48.5817 51.9102 47.964C52.6235 47.6958 53.3195 47.3922 53.9845 47.011C54.3221 46.8204 54.646 46.6122 54.9526 46.3686H54.9561Z" fill="url(#paint0_linear_13866_106092)"/>
<defs>
<linearGradient id="paint0_linear_13866_106092" x1="34.8815" y1="42.8414" x2="34.6179" y2="49.5047" gradientUnits="userSpaceOnUse">
<stop offset="0.16" stop-color="#191919"/>
<stop offset="0.97" stop-color="#191919" stop-opacity="0"/>
</linearGradient>
</defs>
</svg>
