<svg width="60" height="60" viewBox="0 0 60 60" fill="none" xmlns="http://www.w3.org/2000/svg">
<rect width="60" height="60" rx="30" fill="white"/>
<path fill-rule="evenodd" clip-rule="evenodd" d="M17.6249 14.2138C21.1839 8.77009 30.9458 1.14894 41.5211 14.2138L29.8272 30.5449L17.6249 14.2138ZM14.0659 20.8483L27.2851 36.1587V53C18.9807 52.1494 4.71077 44.5283 14.0659 20.8483ZM45.5886 19.8277L33.3862 35.6484L33.8946 53.0001C41.8601 51.6392 55.3504 43.0994 45.5886 19.8277Z" fill="#45DBA6"/>
<path d="M41.5211 14.2138L41.9277 14.5049L42.1494 14.1952L41.9098 13.8992L41.5211 14.2138ZM17.6249 14.2138L17.2064 13.9402L17.015 14.2329L17.2244 14.513L17.6249 14.2138ZM29.8272 30.5449L29.4267 30.8441L29.8358 31.3917L30.2338 30.836L29.8272 30.5449ZM27.2851 36.1587H27.7851V35.9727L27.6635 35.8319L27.2851 36.1587ZM14.0659 20.8483L14.4443 20.5216L13.9044 19.8962L13.6009 20.6646L14.0659 20.8483ZM27.2851 53L27.2341 53.4974L27.7851 53.5538V53H27.2851ZM33.3862 35.6484L32.9903 35.343L32.8812 35.4845L32.8864 35.663L33.3862 35.6484ZM45.5886 19.8277L46.0496 19.6343L45.7173 18.8421L45.1926 19.5223L45.5886 19.8277ZM33.8946 53.0001L33.3949 53.0147L33.4117 53.5898L33.9789 53.4929L33.8946 53.0001ZM41.9098 13.8992C36.5364 7.2609 31.2721 5.77995 26.8315 6.78542C22.4518 7.77711 19.0262 11.1567 17.2064 13.9402L18.0434 14.4874C19.7826 11.8271 23.0175 8.67433 27.0523 7.76073C31.0262 6.86092 35.9305 8.1018 41.1325 14.5283L41.9098 13.8992ZM30.2338 30.836L41.9277 14.5049L41.1146 13.9227L29.4207 30.2538L30.2338 30.836ZM17.2244 14.513L29.4267 30.8441L30.2278 30.2456L18.0254 13.9145L17.2244 14.513ZM27.6635 35.8319L14.4443 20.5216L13.6874 21.1751L26.9066 36.4854L27.6635 35.8319ZM27.7851 53V36.1587H26.7851V53H27.7851ZM13.6009 20.6646C8.88484 32.602 10.0802 40.6163 13.6419 45.7695C17.1854 50.8964 22.9849 53.0622 27.2341 53.4974L27.336 52.5026C23.2809 52.0873 17.7933 50.0172 14.4645 45.2009C11.1538 40.4109 9.89182 32.7747 14.5309 21.032L13.6009 20.6646ZM33.7821 35.9537L45.9845 20.1331L45.1926 19.5223L32.9903 35.343L33.7821 35.9537ZM34.3944 52.9854L33.886 35.6337L32.8864 35.663L33.3949 53.0147L34.3944 52.9854ZM45.1275 20.0211C49.9679 31.5605 49.002 39.3358 45.9613 44.372C42.9072 49.4305 37.6902 51.8444 33.8104 52.5072L33.9789 53.4929C38.0645 52.7949 43.5754 50.2584 46.8174 44.8889C50.0728 39.497 50.971 31.3666 46.0496 19.6343L45.1275 20.0211Z" fill="#45DBA6"/>
</svg>
